<svg xmlns="http://www.w3.org/2000/svg" xmlns:xlink="http://www.w3.org/1999/xlink" width="102" height="177" viewBox="0 0 102 177">
    <defs>
        <path id="prefix__a" d="M0 0.534L28.476 0.534 28.476 24.198 0 24.198z"/>
        <path id="prefix__c" d="M0.522 0.384L40.213 0.384 40.213 33.261 0.522 33.261z"/>
    </defs>
    <g fill="none" fill-rule="evenodd">
        <path fill="#757575" d="M96.854 20.021L95.051 25.451 98.76 30.833 94.434 32.389 89.899 40.179 84.058 38.342 83.232 44.054 83.479 50.162 83.891 56.196 83.15 62.105 78.71 60.949 74.43 55.836 71.942 49.621 68.7 43.906 71.88 37.268 73.817 30.267 77.241 24.434 81.799 19.614 86.235 14.652 91.482 10.207 95.8 14.373z"/>
        <path fill="#000" d="M94.153 32.052l-4.444 7.634-5.99-1.883-.9 6.23.249 6.156.408 5.994-.677 5.404-3.857-1.004-4.154-4.962-2.463-6.153-3.16-5.579 3.087-6.443L74.2 30.43l3.373-5.746 4.534-4.794 4.417-4.94 4.94-4.186 3.955 3.815 1.01 5.414-1.834 5.523 3.522 5.111-3.964 1.426zm1.354-6.667l1.772-5.334-1.098-5.883-4.68-4.517-5.532 4.687-4.47 4.993-4.558 4.82-3.48 5.907-1.97 7.065-3.256 6.799 3.334 5.878 2.478 6.189 4.431 5.326 5.023 1.307.804-6.415-.414-6.062-.245-6.07.751-5.194 5.693 1.79 4.624-7.944 4.69-1.687-3.897-5.655z"/>
        <path fill="#757575" d="M23.365 147.274L18.322 153.855 13.354 160.268 12.186 160.797 8.463 153.103 11.916 146.592 15.356 139.972 19.167 143.862z"/>
        <g>
            <path fill="#000" d="M14.358 157.387l-1.473 1.9-1.543-3.191-1.289-2.663c-.099-.204-.186-.524-.336-.695-.008-.008-.018-.026-.026-.042.007-.02.016-.04.035-.063.468-.588.768-1.446 1.118-2.108l1.532-2.89c.521-.98 1.036-1.964 1.549-2.95l1.601-3.083c.822.871 1.648 1.745 2.527 2.545 1.262 1.15 2.66 2.177 3.992 3.25-2.556 3.334-5.113 6.668-7.687 9.99m10.121-10.729c-1.392-1.132-2.87-2.204-4.197-3.412-1.335-1.217-2.547-2.6-3.812-3.89-.548-.56-2.004.037-2.305.617-1.297 2.496-2.58 5-3.898 7.484l-2.79 5.26c-.207.39-.235.488-.043.884l1.11 2.294 2.447 5.057c.253.523 1.268.283 1.65.11.592-.268 1.383-.5 1.829-.982.262-.283.482-.622.718-.927l3-3.871c1.315-1.698 2.62-3.402 3.926-5.106l2.355-3.074c.004-.005.005-.008.007-.013.122-.143.167-.298.003-.431" transform="translate(0 .166)"/>
            <path fill="#A9FF03" d="M7.208 153.669L3.067 156.473 1.201 161.304 5.69 166.437 9.071 172.312 14.102 175.475 20.001 176.006 25.222 173.322 27.269 167.574 22.493 170.397 18.03 167.665 16.038 162.732 15.93 157.326 10.649 154.319 9.457 153.448z" transform="translate(0 .166)"/>
            <g transform="translate(0 .166) translate(0 152.339)">
                <mask id="prefix__b" fill="#fff">
                    <use xlink:href="#prefix__a"/>
                </mask>
                <path fill="#000" d="M15.31 22.626c-.068-.007-.149-.02-.228-.03-.207-.178-.548-.324-.758-.456l-2.947-1.852c-.332-.208-.668-.478-1.024-.643-.014-.007-.078-.047-.12-.07-.023-.03-.051-.067-.064-.09-.46-.833-.948-1.65-1.422-2.472-.736-1.28-1.37-2.698-2.348-3.815L2.432 8.66l.863-2.235.638-1.651c.028-.074.23-.455.297-.674-.094.12-.345.164-.093.039.034-.018.066-.043.1-.064.014-.053.021-.097.011-.117.022.042.014.078-.004.113.116-.074.229-.16.34-.236l1.43-.968c.524-.355 1.05-.71 1.574-1.067l.988-.097c1.156.82 2.354 1.504 3.594 2.21.807.46 1.603.968 2.433 1.385.04.02.092.046.14.074 0 .017 0 .037-.005.067-.052.355.015.77.022 1.129l.064 3.22c.01.496-.01.852.171 1.301l1.143 2.832.514 1.274c.071.176.127.42.26.562.175.188.522.32.74.453l1.49.912 2.231 1.366c.491.301 1.377.071 1.83-.196l2.354-1.392-1.443 4.053-4.08 2.097-4.724-.425M26.56 15l-3.683 2.177-1.38-.846c-.75-.458-1.61-.868-2.305-1.408-.007-.017-.014-.031-.024-.06-.055-.16-.128-.315-.19-.47l-.623-1.542c-.354-.878-.876-1.808-1.102-2.728-.154-.632-.047-1.426-.06-2.074-.02-1.042.078-2.167-.063-3.2-.07-.51-.844-.729-1.26-.967-1.039-.59-2.077-1.182-3.115-1.773-.713-.406-1.336-.843-2.012-1.31C9.975.267 8.584.685 7.705.772l-.011.001c-.214.003-.433.033-.65.1-.326.074-.646.2-.85.415l-2.158 1.46-1.396.946c-.263.178-.596.345-.758.627-.403.701-.618 1.6-.908 2.352-.32.826-.64 1.653-.958 2.48-.035.096-.013.177.066.243l2.557 2.925 1.574 1.799c.102.116.207.232.307.351.017.026.049.072.085.138.776 1.406 1.603 2.787 2.404 4.179.275.477.518 1.007.838 1.456.203.284.53.428.826.615 1.358.852 2.716 1.706 4.073 2.559.318.2.603.27.973.302.768.07 1.535.14 2.302.208l2.518.227c.77.07 1.442.099 2.18-.257 1.27-.614 2.514-1.293 3.769-1.938.512-.263 1.07-.494 1.555-.81.515-.337.626-1.09.822-1.639l1.589-4.463c.25-.7-1.691-.168-1.895-.047" mask="url(#prefix__b)"/>
            </g>
            <path fill="#000" d="M4.237 156.415l-.007.025c.007-.009.01-.02.014-.03l-.007.005" transform="translate(0 .166)"/>
            <path fill="#757575" d="M64.952 145.837L59.879 151.841 54.819 157.734 53.631 158.002 49.57 151.82 53.747 145.181 57.768 138.433 61.314 142.161z" transform="translate(0 .166)"/>
            <path fill="#000" d="M55.845 155.26l-1.476 1.719-3.547-5.4c2.162-3.439 4.31-6.876 6.389-10.365.214-.36.43-.72.643-1.08 1.915 2 3.84 3.984 5.787 5.954-2.59 3.065-5.182 6.128-7.796 9.173m10.308-9.664c0-.024-.001-.047-.008-.068-.012-.049-.034-.097-.079-.143-2.42-2.446-4.812-4.911-7.184-7.404-.45-.474-1.913-.056-2.219.458-2.127 3.57-4.259 7.127-6.47 10.644l-1.727 2.743c-.112.178-.123.271-.01.444l4.06 6.182c.207.315.988.144 1.258.084.739-.167 1.597-.247 2.15-.81.23-.235.432-.503.644-.751l3.05-3.552c1.34-1.558 2.664-3.127 3.99-4.696l2.448-2.897c.066-.079.089-.146.095-.207.002-.01.002-.018.002-.027" transform="translate(0 .166)"/>
            <path fill="#A9FF03" d="M48.578 151.286L43.526 159.291 48.153 164.049 52.515 168.997 59.136 172.045 65.812 169.343 68.26 162.845 64.186 165.541 59.53 163.593 57.513 154.48 52.271 151.653 50.945 151.112z" transform="translate(0 .166)"/>
            <path fill="#000" d="M64.734 169.245l-5.111 2.069-3.322-1.53-2.278-1.048c-.13-.059-.268-.113-.397-.178v-.002c-.05-.063-.11-.117-.16-.18-1.017-1.342-2.257-2.56-3.37-3.824-.648-.734-1.312-1.436-1.995-2.138l-3.322-3.417 4.573-7.247.314-.023c.1-.007.33.01.51-.005.11.049.25.082.338.118l.738.3c.026.013.058.028.093.048.455.247.911.491 1.367.737l3.347 1.805c.087.047.192.09.277.147l.009.046c.052.354.156.709.234 1.058l1.622 7.33c.037.168.044.453.133.603.157.26.69.382.953.492l3.498 1.464c1.294.541 2.344-.238 3.39-.93l.241-.16-1.682 4.465m-14.73-17.615c-.119-.013-.062-.016 0 0m1.245.51c-.099-.042-.08-.04 0 0m17.508 10.147c-.5.01-1.016.186-1.43.46l-2.957 1.958-3.667-1.535-1.811-8.18c-.06-.27-.066-.727-.263-.943-.297-.326-1.01-.544-1.391-.75-1.276-.689-2.539-1.413-3.833-2.067-.59-.299-1.332-.694-2.003-.673-.775.024-1.553.114-2.328.171-.074.006-.158.014-.244.025-.023.001-.042.004-.053.005-.009.001-.017.005-.026.006-.464.065-1.019.215-1.267.567-.026.035-.037.065-.05.097-.012.016-.03.027-.042.045l-5.051 8.005c-.035.096-.013.178.065.244 1.549 1.592 3.144 3.15 4.65 4.783.89.967 1.74 1.975 2.61 2.962l1.406 1.595c.193.218.319.368.58.492 1.224.585 2.466 1.135 3.699 1.703l2.046.94c.414.192.773.416 1.243.405.579-.014 1.117-.275 1.643-.488l2.06-.833c1.264-.512 2.537-1.01 3.796-1.536.588-.247.817-.48 1.022-1.024l.82-2.177 1.464-3.886c.135-.357-.51-.375-.688-.37" transform="translate(0 .166)"/>
            <path fill="#FFF" d="M58.851 109.33L57.162 116.333 54.961 123.246 52.394 130.049 49.752 136.954 45.709 142.345 40.012 145.921 34.143 148.875 27.919 151.125 21.287 151.715 16.572 149.7 12.607 146.599 12.023 140.573 13.951 134.913 17.495 130.09 22.982 127.337 28.228 123.903 30.383 118.025 31.38 111.809 31.102 105.597 31.144 99.359 32.796 93.341 34.64 87.066 38.634 81.882 43.805 77.991 48.749 73.492 54.826 74.631 60.517 76.377 66.078 78.666 69.225 83.762 73.964 88.329 77.527 93.685 80.31 99.533 83.337 105.196 86.21 110.912 89.642 116.359 90.593 123.249 88.231 129.874 83.548 135.039 78.852 140.027 73.465 144.277 67.757 148.202 60.835 150.032 54.364 143.97 54.975 137.543 57.541 131.159 62.385 126.304 67.641 122.517 63.868 119.16 60.811 114.467z" transform="translate(0 .166)"/>
            <path fill="#000" d="M48.61 136.737l.002-.007-.006.014.005-.007M29.193 117.946c-.01.02-.024.043-.03.058l.03-.058zM87.079 129.614c.019-.022.036-.042.053-.059.006-.02.01-.037.02-.056-.05.017-.068.068-.073.115" transform="translate(0 .166)"/>
            <path fill="#000" d="M87.966 127.23l-.776 2.175c-.01.029-.025.061-.039.094.017-.006.036-.008.06-.003-.013-.003-.043.022-.079.06-.01.025-.02.052-.022.075-.01.117-.038.057-.031-.017-.087.101-.187.235-.214.263-1.84 2.03-3.667 4.071-5.544 6.067-1.115 1.184-2.3 2.33-3.36 3.565l-.012.006c-.239.156-.46.363-.683.54l-2.18 1.72c-2.265 1.786-4.598 3.407-6.976 5.041l-.815.561c-.628.099-1.283.355-1.885.514l-4.041 1.069-5.76-5.395.515-5.404c.015-.164.039-.33.046-.494l.004-.042c-.012.024-.027.05-.048.077.019-.025.033-.057.049-.087.016-.143.057-.13.02-.035.078-.164.129-.37.19-.522l1.274-3.17.63-1.569c.098-.242.299-.57.355-.845.064-.064.146-.166.165-.185l.955-.957 2.625-2.632.852-.854.006-.005c.018-.01.044-.024.086-.05 1.757-1.135 3.415-2.462 5.113-3.685.464-.334.541-.92.11-1.305l-2.531-2.252c-.37-.328-.728-.688-1.116-.994-.003-.008-.002-.011-.007-.022-.075-.18-.234-.36-.34-.523l-2.264-3.473c-.104-.161-.199-.336-.317-.487l-.015-.018c-.112-.45-.348-.903-.512-1.333l-1.38-3.615c-.032-.48-.734-.702-1.13-.678-.18.011-.354.054-.515.119-.489.164-.875.517-.812.962l-.809 3.356c-.282 1.172-.67 2.363-.858 3.555l.015-.092c-.006.028-.013.056-.022.083-.079.24-.153.48-.23.72-.239.753-.48 1.506-.718 2.259-.39 1.22-.75 2.454-1.167 3.665-1.552 4.513-3.388 8.954-5.093 13.41-.013.036-.972 1.427-1.37 1.957-.843 1.125-1.776 2.223-2.548 3.398-.13.047-.322.215-.412.272l-1.888 1.185-3.106 1.949c-.019.007-.047.02-.097.042-.227.103-.448.225-.671.338l-2.169 1.091-2.133 1.074c-.194.098-.394.19-.585.295-.038.02-.06.033-.078.045-1.22.422-2.427.878-3.64 1.317l-1.97.712c-.025.009-.242.067-.327.108h-.007c-1.498.119-2.994.267-4.491.4-.506.045-1.031.06-1.538.128-.157-.07-.322-.13-.474-.195l-2.246-.96c-.497-.213-1.05-.544-1.582-.687-.042-.031-.088-.061-.093-.066-.232-.199-.484-.379-.726-.568l-1.97-1.54-.83-.65-.54-5.564 1.357-3.98.356-1.049c.03-.086.071-.178.092-.267-.021.023-.048.048-.085.07.03-.018.06-.049.09-.086l.002-.005c.027-.136.065-.122.047-.063.063-.094.121-.201.166-.263l.683-.928 1.705-2.32.607-.826c.017-.024.036-.047.054-.07.454-.183.914-.493 1.327-.7l2.6-1.305c.986-.494 1.88-1.027 2.802-1.63 1.301-.852 2.717-1.63 3.947-2.584.408-.316.508-.79.678-1.254l.947-2.583c.389-1.06.88-2.114 1.058-3.233l.825-5.138c.173-1.08.021-2.186-.028-3.275-.13-2.909-.142-5.788-.123-8.702.002-.27.026-.55.006-.82-.003-.033.024-.172.001-.198-.003-.002-.005 0-.007-.002l.487-1.773c.37-1.346.726-2.697 1.108-4.04.408-1.432.84-2.858 1.26-4.286l.35-1.194c.06-.204.216-.493.208-.705 0-.004-.002-.004-.002-.007.179-.214.342-.443.512-.664l3.16-4.1c.04-.051.09-.108.128-.164l.333-.252 2.074-1.56c.934-.703 1.932-1.361 2.806-2.138 1.26-1.12 2.496-2.272 3.744-3.408l.534-.485 2.998.561 2.017.379.165.022c-.067-.022-.102-.036.002 0 .09.013.181.029.185.043.002.01-.036.002-.083-.011l.17.052c2.277.698 4.57 1.322 6.772 2.229l3.818 1.572 2.823 4.571c.268.433.622.745.989 1.099l2.5 2.41 1.14 1.098.337.325c.019.018.034.038.05.057.01.027.024.053.033.071.08.136.178.265.265.397l.864 1.299 1.903 2.859c.113.17.26.527.43.647-.06-.043-.151-.321-.043-.094.07.145.138.29.207.436.837 1.757 1.67 3.516 2.509 5.272.795 1.668 1.737 3.276 2.608 4.905 1.405 2.628 2.572 5.39 4.161 7.913l1.895 3.005c.22.35.432.709.663 1.053.02.029.031.043.046.061-.004.018-.007.04-.007.076.005.916.262 1.9.387 2.806l.456 3.304.05.36-1.397 3.916m-60.211 22.995c.117-.03.36-.03 0 0m-5.346-23.628c-.04.025-.08.05-.12.077-.222.15.047-.05.12-.077m17.104-44.18c-.032.038-.06.066-.071.052l.07-.052m52.068 39.001l-.501-3.633c-.085-.611-.054-1.418-.35-1.974-.9-1.685-2.063-3.271-3.08-4.887-.84-1.33-1.475-2.793-2.18-4.197-.66-1.312-1.33-2.61-2.022-3.905l-1.656-3.096c-.123-.231-.228-.508-.384-.72.023.032.153.322.05.106-.06-.126-.121-.253-.18-.38l-2.54-5.337c-.282-.593-.703-1.127-1.066-1.672l-1.958-2.944c-.309-.463-.58-.917-.98-1.304-.706-.686-1.417-1.366-2.126-2.05l-2.264-2.182-.069-.067-.032-.073c-.144-.331-.399-.647-.588-.954l-1.882-3.046c-.347-.56-.562-1.078-1.188-1.35-1.757-.764-3.542-1.537-5.34-2.199-1.677-.616-3.438-1.06-5.146-1.583-1.59-.488-3.265-.702-4.898-1.008-.767-.144-1.732-.497-2.521-.368-.82.135-1.495 1-2.077 1.53-1.241 1.128-2.436 2.372-3.763 3.398-1.593 1.232-3.247 2.386-4.827 3.634-.437.344-.737.79-1.075 1.23l-2.158 2.8c-.412.534-1.01 1.102-1.292 1.725-.308.683-.442 1.509-.653 2.225-.982 3.342-1.962 6.685-2.838 10.056-.182.7-.075 1.515-.08 2.233l-.023 3.446c-.01 1.575.1 3.15.17 4.723.033.75.146 1.54.103 2.292-.042.72-.235 1.463-.35 2.175l-.547 3.419c-.024.147-.053.294-.071.442-.001.012-.004.014-.005.023.01-.024.018-.044.037-.075-.014.023-.025.05-.037.076-.023.145-.061.15-.029.056-.08.181-.128.399-.192.572l-1.796 4.902-4.51 2.951-.25.164c-.187-.005-.611.31-.765.387l-3.202 1.607c-.621.312-1.52.6-1.986 1.145-.576.674-1.064 1.449-1.59 2.163-.606.826-1.227 1.644-1.821 2.48-.347.487-.482 1.057-.674 1.621l-1.153 3.382c-.204.601-.435 1.116-.375 1.753.099 1.038.202 2.075.302 3.113.082.841.04 1.822.257 2.641.08.305.333.47.568.652.404.318.81.634 1.216.951.797.624 1.572 1.306 2.405 1.881.594.41 1.368.633 2.027.914.955.409 1.904.861 2.876 1.23.629.237 1.371.067 2.024.009l3.622-.323c.655-.058 1.396-.035 2.035-.214.807-.227 1.597-.578 2.384-.862 1.536-.555 3.162-1.011 4.625-1.747 1.774-.893 3.596-1.725 5.334-2.686 1.638-.905 3.193-2 4.778-2.994.49-.309 1.094-.579 1.47-1.032.579-.7 1.096-1.463 1.64-2.19l2.018-2.69c.299-.398.502-.75.68-1.215l2.288-5.979c1.054-2.754 2.177-5.5 3.072-8.31.609-1.914 1.256-3.82 1.828-5.744.303-1.021.548-2.064.785-3.11.223.639.447 1.292.81 1.85l2.26 3.468c.203.312.387.668.623.957.258.314.623.573.925.84l2.263 2.015c-1.247.9-2.494 1.798-3.742 2.697-1.27.915-2.313 2.132-3.416 3.237-.706.708-1.443 1.396-2.123 2.128-.35.377-.485.858-.675 1.331-.722 1.796-1.568 3.584-2.178 5.42-.214.644-.18 1.415-.244 2.083l-.335 3.515c-.064.678-.259 1.283.281 1.798.576.55 1.163 1.09 1.745 1.634 1.501 1.407 2.948 2.932 4.533 4.246.614.51 1.352.233 2.037.051l3.27-.864c.905-.24 1.819-.458 2.718-.718.594-.172 1.072-.56 1.576-.906 1.612-1.11 3.268-2.174 4.846-3.333 1.477-1.085 2.886-2.275 4.324-3.41 1.19-.938 2.166-1.99 3.208-3.096 2.462-2.617 4.972-5.219 7.31-7.95.345-.404.463-.896.641-1.393l1.184-3.319c.266-.747.609-1.504.81-2.273.161-.617-.07-1.393-.155-2.015M55.965 116.306c.03-.126.038-.23 0 0" transform="translate(0 .166)"/>
            <path fill="#000" d="M15.054 135.212c0 .005-.003.01-.005.016.029-.032.046-.061.054-.084-.016.024-.032.048-.049.068M56.175 137.615v.01l.02-.044-.02.034M54.241 75.501l-.007-.002h-.001l.104.032c-.032-.01-.064-.018-.096-.03" transform="translate(0 .166)"/>
            <path fill="#C58FFF" d="M93.712 22.474L88.727 25.928 83.939 29.683 78.322 31.991 72.322 32.584 66.278 30.26 63.447 24.127 63.368 17.237 66.075 10.834 71.193 6.214 76.176 2.568 82.132 1.065 88.205 1.673 93.886 4.072 98.559 8.124 100.616 13.342 97.673 18.305z" transform="translate(0 .166)"/>
            <path fill="#000" d="M87.392 2.344l-.014-.001c.037.017.072.03.108.039-.033-.011-.064-.025-.094-.038M89.509 26.292l.032-.021c-.01.005-.017.011-.025.016l-.007.005" transform="translate(0 .166)"/>
            <g transform="translate(0 .166) translate(61.596)">
                <mask id="prefix__d" fill="#fff">
                    <use xlink:href="#prefix__c"/>
                </mask>
                <path fill="#000" d="M36.466 15.722l-1.033 1.743c-.114.193-.233.383-.342.578l-.062.115c-.032.041-.07.09-.091.111-.155.162-.308.324-.461.487-.449.47-.897.942-1.345 1.414l-1.942 2.044c-2.593 1.798-5.148 3.592-7.631 5.54-.636.498-1.318.971-1.93 1.503l-.015.005c-.376.14-.744.306-1.115.458l-3.103 1.275c-.268.11-.54.214-.808.33-1.763.096-3.53.336-5.288.52l-5.523-2.123-1.712-3.709c-.3-.65-.546-1.398-.926-2.007-.033-.052-.044-.12-.079-.17-.008-.01-.013-.015-.017-.016-.01-.177 0-.363-.002-.533l-.061-5.311c-.004-.313-.054-.66.023-.96.15-.577.494-1.165.725-1.713l1.846-4.366 3.225-2.912c.546-.492 1.115-.968 1.641-1.48.026-.025.038-.04.052-.054.213-.151.422-.309.634-.463l2.366-1.73c.529-.389 1.155-.752 1.65-1.195.249-.06.496-.127.743-.19l2.875-.725c.52-.132 1.091-.224 1.615-.386h.004l1.116.112 3.002.3 1.14.114.146.015c-.04-.02-.08-.042-.116-.073.034.03.08.053.13.074.057.007.114.014.17.017.287.016.129.076-.077.021.087.031.175.056.241.084l1.156.488 2.767 1.168.958.404c.162.07.374.202.266.104.485.404.955.829 1.432 1.242l2.416 2.095c.222.192.44.43.684.593l.005.003.097.244 1.858 4.716-1.304 2.199m3.409-3.564l-1.356-3.442c-.225-.57-.344-.979-.804-1.378l-2.642-2.29c-.582-.506-1.168-1.181-1.838-1.573-.692-.405-1.54-.65-2.278-.961L27.86 1.205C27.27.956 26.673.926 26.04.863L22.352.495C21.616.42 20.942.3 20.214.472c-1.92.454-3.86.91-5.756 1.453-.772.22-1.415.836-2.05 1.301l-2.94 2.15c-1.353.99-2.553 2.169-3.797 3.291-.695.628-1.427 1.231-2.093 1.89-.426.421-.617 1.177-.845 1.717L1.26 15.756c-.218.516-.6 1.121-.685 1.677-.132.855.02 1.852.03 2.714l.04 3.505c.007.558.04.862.276 1.37l1.491 3.231c.349.756.64 1.6 1.068 2.314.33.552 1.414.734 1.976.95l3.45 1.327c.69.265 1.248.476 2.004.401l3.404-.337c.882-.087 1.886-.06 2.736-.34 1.858-.606 3.66-1.492 5.466-2.235.61-.25 1.086-.66 1.601-1.064l2.907-2.281c.296-.232.594-.462.888-.696l-.02.01c.01-.003.018-.01.027-.015l.068-.054c.171-.137.044-.023-.043.038.073-.043.145-.104.209-.148l2.773-1.922 1.815-1.256c.132-.071.25-.155.34-.25 1.296-1.365 2.616-2.71 3.89-4.095.464-.504.766-1.169 1.113-1.754l1.815-3.061c.14-.238.347-.493.309-.78-.037-.273-.234-.592-.334-.847" mask="url(#prefix__d)"/>
            </g>
            <path fill="#000" d="M73.32 27.222c-.004 0-.008.003-.011.004h.004l.006-.004" transform="translate(0 .166)"/>
            <path fill="#000" d="M97.59 5.382c-.503-.153-1.336.049-1.69.453-1.51 1.72-3.042 3.423-4.523 5.168-1.277 1.506-2.52 3.038-3.86 4.482l-.026.006c-1.64.462-3.305.873-4.93 1.388l-.08.028h-.006c-.408.07-.813.144-1.22.216l-3.22.568c-1.539.271-2.945.926-4.397 1.495-1.331.522-2.678.991-3.941 1.662l-5.288 2.802c-.38.202-.654.683-.203.957.49.296 1.25.018 1.695-.218l4.61-2.443 1.036-.55.033-.017.014-.002c.746-.15 1.532-.6 2.238-.877l3.008-1.179c.19-.074.438-.135.64-.23 1.737-.305 3.519-.52 5.234-.93.995-.24 1.982-.524 2.967-.815-1.642 1.612-3.29 3.2-5.001 4.744l-1.807 1.628c-.147.133-.307.26-.447.402-.011.005-.016.006-.03.014-1.355.69-2.635 1.603-3.934 2.393l-1.016.618-.127.077c.014-.004.024-.004.03 0-.005-.003-.025.004-.036.004-.038.023-.077.045-.116.07-.224.146.01-.036.112-.07-.211.01-1.418.675-1.535.73l-4.222 1.965c-.364.17-.95.592-.616 1.042.317.428 1.21.25 1.595.071l3.699-1.721c.93-.433 1.884-.827 2.762-1.361l4.244-2.582c.832-.506 1.492-1.084 2.218-1.738 1.972-1.779 3.91-3.558 5.8-5.423.783-.773 1.62-1.516 2.352-2.338 1.025-1.15 1.996-2.354 2.993-3.53 1.721-2.029 3.489-4.018 5.243-6.018.341-.388.26-.785-.252-.94M87.687 6.84c.107-.057.259-.104 0 0M65.511 17.247l2.627-1.595 1.844-1.118c.082-.05.688-.342.913-.514-.105.052-.236.054.004-.014l.026-.008c.034-.029.058-.054.059-.072-.002.027-.022.049-.046.067.199-.06.395-.142.59-.212l1.945-.698c1.002-.36 2.007-.718 3.009-1.08l.09-.012c.211-.032.423-.093.632-.139l2.08-.455c1.116-.244 2.264-.433 3.367-.738.895-.247 1.76-.737 2.608-1.107 1.159-.506 2.335-.984 3.48-1.52.925-.433 1.754-1.133 2.592-1.707l3.085-2.112c.392-.269.631-.773.166-1.095-.468-.322-1.28-.109-1.704.182l-2.579 1.765-1.78 1.22c-.049.033-.686.422-.86.569-.214.087-.424.185-.635.277l-1.906.833-1.991.87c-.3.13-.72.243-1.015.427-.2.033-.4.088-.598.131l-2.078.456c-1.117.244-2.265.432-3.368.737-.916.253-1.812.645-2.705.965-1.173.421-2.381.79-3.532 1.269-.95.394-1.835 1.074-2.711 1.605l-3.147 1.91c-.412.25-.616.784-.167 1.094.487.335 1.259.09 1.705-.181" transform="translate(0 .166)"/>
            <path fill="#000" d="M70.895 14.02c.015-.008.03-.018.042-.028l-.012.004-.03.023" transform="translate(0 .166)"/>
            <path fill="#A9FF03" d="M83.219 69.13L80.046 75.831 77.176 82.758 72.689 89.276 67.803 85.549 62.391 82.802 57.96 78.629 52.841 75.348 49.831 70.213 49.227 63.42 50.687 56.547 54.099 50.329 58.836 45.042 65.076 41.12 72.203 40.733 78.702 43.766 83.552 49.317 85.972 55.788 85.569 62.693z" transform="translate(0 .166)"/>
            <path fill="#000" d="M84.653 58.23l-.259 4.423c-.004.07-.052.344-.034.318-.037.11-.083.22-.122.33l-.792 2.17-1.408 3.86c-1.175 2.48-2.442 4.933-3.492 7.47l-2.233 5.388c-.423 1.021-1.064 1.852-1.693 2.766l-2.04 2.963-1.319-1.005c-.77-.588-1.524-1.28-2.349-1.79-.998-.615-2.128-1.08-3.174-1.61-.742-.376-1.657-.69-2.31-1.209-.996-.792-1.886-1.777-2.813-2.65-.565-.533-1.104-1.163-1.758-1.588-1.162-.754-2.332-1.494-3.497-2.242-.421-.27-.837-.586-1.28-.82-.042-.022-.064-.031-.078-.035-.11-.141-.188-.322-.279-.476l-2.187-3.73c-.155-.264-.417-.577-.51-.872-.092-.292-.06-.682-.088-.984l-.39-4.396c-.04-.446-.095-.893-.119-1.34l-.003-.03v-.004c.028-.172.073-.344.11-.516l.893-4.208c.151-.71.208-1.547.516-2.207.533-1.137 1.222-2.225 1.826-3.326l1.048-1.91.308-.56c.014-.027.081-.143.116-.209.041-.046.099-.116.118-.137.157-.17.31-.346.465-.52l1.41-1.573c.851-.95 1.76-1.871 2.564-2.861.026-.033.044-.051.06-.069l.213-.134 1.46-.918 3.756-2.36.058-.036 5.984-.325 2.813 1.312 2.153 1.006c.391.182.877.33 1.233.576.189.13.334.349.486.523l1.409 1.612 2.8 3.205c.045.051.098.105.145.16-.007.022.083.233.101.282l.674 1.8 1.527 4.086c.268.713.024 1.657-.019 2.4m2.509-2.676c-.05-.533-.379-1.114-.566-1.615l-1.338-3.577c-.19-.508-.319-1.12-.659-1.55-1.328-1.685-2.84-3.25-4.252-4.866-.352-.403-.52-.597-.992-.817l-3.088-1.441c-.925-.432-1.848-.867-2.775-1.296-.576-.267-1.223-.15-1.843-.117-2.017.11-4.05.157-6.063.33-1.058.09-1.884.735-2.752 1.28l-3.2 2.011c-.611.384-1.35.725-1.887 1.216-.566.52-1.05 1.173-1.562 1.744l-2.467 2.755c-.34.378-.696.726-.941 1.173l-3.118 5.683c-.236.43-.286.9-.388 1.38l-.774 3.645c-.152.72-.434 1.51-.465 2.249-.032.756.14 1.573.207 2.326l.322 3.624c.054.611.083.858.388 1.376l1.865 3.18c.288.493.554 1.216 1.002 1.581.79.645 1.775 1.138 2.633 1.688.778.5 1.633.953 2.366 1.517.555.427 1.045.977 1.553 1.457l2.58 2.43c.398.375.837.563 1.33.813l3.293 1.67c1.52.772 2.782 1.84 4.139 2.876l1.855 1.415c.549.419 1.961-.118 2.306-.618l2.666-3.873c.656-.952 1.516-1.91 1.962-2.985 1.14-2.75 2.225-5.524 3.5-8.215l2.402-5.072 2.074-5.684c.55-1.507.425-3.212.519-4.802.054-.926.255-1.967.168-2.891" transform="translate(0 .166)"/>
            <path fill="#757575" d="M54.39 70.963L60.078 68.017 64.704 63.908 69.639 60.23 72.699 54.952 72.841 48.867 66.73 46.85 61.029 49.74 55.619 53.045 50.735 57.139 46.525 61.933 42.663 67.032 40.636 72.905 45.018 77.847 50.767 81.656 56.624 85.463 63.105 88.067 69.772 90.135 75.32 91.803 77.811 96.645 79.461 98.31 84.259 95.316 85.547 89.647 82.214 85.617 76.641 85.231 70.798 82.12 65.143 78.706 59.854 74.747z" transform="translate(0 .166)"/>
            <path fill="#000" d="M79.896 97.147l-.155-.157-.53-.535c-.064-.065-.297-.31-.276-.247-.378-.573-.646-1.278-.957-1.883-.452-.878-.901-1.757-1.356-2.634-.304-.587-.807-.657-1.404-.837-3.363-1.01-6.72-2.039-10.074-3.08-.356-.11-.712-.224-1.07-.331-.066-.02-.138-.053-.208-.065-.683-.289-1.378-.553-2.065-.83-1.035-.414-2.069-.83-3.102-1.245-.405-.163-.84-.297-1.22-.512-1.648-.931-3.204-2.082-4.79-3.113-1.046-.68-2.085-1.37-3.125-2.058l-2.748-1.821c-.244-.162-.484-.343-.737-.49-.04-.045-.082-.09-.12-.135-1.236-1.485-2.57-2.897-3.85-4.342l-.21-.236 1.26-3.651c.214-.623.442-1.242.644-1.869.096-.295.01-.018.011-.019.144-.134.256-.336.373-.493.984-1.296 1.966-2.594 2.949-3.891.144-.19.292-.38.432-.572l.005-.005c.427-.452.825-.94 1.236-1.407.947-1.079 1.847-2.237 2.859-3.256.8-.806 1.768-1.494 2.639-2.224l1.81-1.516.294-.247c-.01.007-.018.012-.02.01 0-.002.02-.015.043-.03.033-.028.067-.054.1-.083l-.09.078c.052-.033.128-.076.13-.077 1.34-.756 2.634-1.609 3.947-2.411l.938-.573c.034-.02.068-.043.102-.062-.011.002-.021.003-.027-.002.005.004.026-.004.04-.006.045-.027.092-.053.136-.083.163-.112-.03.042-.127.082.226-.046 1.383-.718 1.489-.772l3.507-1.778 5.052 1.668-.06 2.565-.048 2.081c-.007.297-.077.676-.03.976-.01.02-.02.041-.037.068-.12.195-.23.397-.345.595l-1.03 1.778-1.048 1.805c-.1.174-.417.544-.496.793-.13.095-.26.193-.388.289l-1.627 1.213c-.855.636-1.719 1.261-2.564 1.91-.748.574-1.429 1.248-2.133 1.873-.84.747-1.761 1.457-2.553 2.26-.093.049-.185.1-.277.148l-1.949 1.01-3.148 1.63c-.24.124-.58.346-.68.618l-.004.012c-.013.038-.022.077-.024.118-.002.02.002.039.003.059.003.031.006.062.017.094l.007.015c.017.044.034.088.068.134.055.075.134.127.222.168 1.79 1.239 3.599 2.452 5.369 3.718 1.75 1.252 3.428 2.605 5.17 3.868.6.436 1.27.789 1.904 1.173l3.56 2.148c1.793 1.083 3.703 1.996 5.55 2.98.384.204.72.422 1.162.469.538.056 1.083.075 1.623.112l3.448.239 3.01 3.64-1.172 5.162-3.235 2.019zM68.655 59.98c.144-.129.316-.221.036-.027l-.036.027zm16.416 27.268c-.559-.676-1.084-1.487-1.727-2.087-.476-.446-1.536-.345-2.148-.387l-3.362-.233c-.136-.01-.328-.05-.501-.063-.092-.05.591-.677.501-.724-1.151-.613-1.318-1.306-.501-2.076-7.29-2.204-11.71-3.885-13.258-5.043-2.76-2.066-5.13-3.78-7.962-5.744 1.477-.761 2.956-1.52 4.426-2.295.865-.456 1.593-1.29 2.318-1.934.904-.804 1.84-1.582 2.718-2.415.101-.07.198-.152.294-.223l1.52-1.133c.973-.725 1.95-1.44 2.916-2.173.692-.525 1.055-1.456 1.481-2.192.643-1.109 1.312-2.205 1.93-3.327.144-.264.185-.443.192-.744l.048-2.066.086-3.652c.007-.335-.18-.472-.483-.572l-4.714-1.555c-.602-.2-1.317-.561-1.97-.493-.69.072-1.366.54-1.971.847-1.54.78-3.137 1.497-4.633 2.357-1.4.807-2.764 1.689-4.143 2.531-1.096.67-2.016 1.392-3.002 2.22-1.123.941-2.371 1.824-3.403 2.864-1.254 1.263-2.371 2.7-3.545 4.037-.818.93-1.548 1.916-2.295 2.904-.92 1.213-2.113 2.395-2.614 3.847-.61 1.771-1.222 3.541-1.833 5.312-.025.134.007.253.096.357l2.857 3.221c.68.766 1.28 1.578 2.135 2.145 2.216 1.468 4.426 2.944 6.654 4.392 1.428.928 2.85 1.864 4.283 2.783.861.553 1.952.84 2.896 1.22 1.34.537 2.668 1.138 4.03 1.614 1.287.45 2.612.811 3.915 1.215 2.652.822 5.309 1.622 7.967 2.42l1.885 3.664c.202.393.376.834.658 1.172.464.555 1.035 1.044 1.544 1.558.47.474 1.38.233 1.864-.069l4.524-2.823c.306-.192.585-.363.717-.73.084-.23.112-.494.167-.732l.74-3.256c.119-.523.572-1.528.277-2.037-.396-.68-1.073-1.296-1.574-1.902z" transform="translate(0 .166)"/>
            <path fill="#000" d="M56.434 53.426l-.023.02.032-.025-.009.005M61.573 50.29l-.012.008.022-.01-.01.003M60.78 104.469c-.217-.162-.558-.233-.824-.206-.622.063-1.147.396-1.298 1.016l-1.203 4.928c-.056.23-.112.462-.17.693-.055.23.137.515.307.642.218.162.559.232.824.206.623-.063 1.148-.397 1.3-1.016.4-1.643.8-3.286 1.202-4.929l.17-.693c.055-.23-.137-.514-.308-.641M73.695 122.695l-5.425-.628-.77-.089c-.54-.062-1.298.194-1.566.698-.28.524.244.822.694.874l5.425.628.77.09c.54.062 1.298-.195 1.566-.698.28-.525-.244-.822-.694-.875" transform="translate(0 .166)"/>
        </g>
    </g>
</svg>
