<svg height="75" viewBox="0 0 60 75" width="60" xmlns="http://www.w3.org/2000/svg"><g fill="none" fill-rule="evenodd"><path d="m0 0h60v75h-60z"/><path d="m5.345 3.981-.481 7.7.789 8.205.023 8.202-.037 8.206-1.087 8.208.844 8.207-.782 8.211.554 8.06 6.657-4.805 6.848-4.79 6.974-4.607 7.334-4.069 6.832-4.823 7.086-4.458 6.579-5.122-7.213-4.17-6.273-5.639-7.262-4.181-6.499-5.301-7.514-3.815-6.459-5.397z" fill="#a9ff03"/><path d="m46.607 38.527-1.102.857c-.171.135-.602.43-.337.267-.696.44-1.394.876-2.091 1.315-3.638 2.29-7.15 4.667-10.662 7.147-.334.234-.67.467-1 .705l-.046.035-.023.006c-.961.384-1.884 1.046-2.788 1.547-1.546.858-3.15 1.656-4.643 2.601-3.391 2.143-6.706 4.417-9.993 6.716-2.361 1.653-4.705 3.327-7.044 5.008l-.137-1.99c-.134-1.937.228-3.907.412-5.833.1-1.057.298-2.15.307-3.212.005-.737-.148-1.505-.223-2.239-.152-1.479-.305-2.957-.456-4.436-.041-.395.013-1.049-.146-1.42-.011-.025-.013-.02-.021-.035.007-.045.01-.09.016-.133.34-2.51.683-5.025.999-7.54.274-2.179.094-4.462.104-6.655.018-3.73.262-7.547-.096-11.257-.235-2.448-.697-4.98-.701-7.44-.003-1.918.182-3.859.34-5.785 1.274.704 2.549 1.41 3.824 2.114l.654.362c.687.602 1.407 1.171 2.106 1.755 1.6 1.336 3.22 3.057 5.076 4.035 2.039 1.075 4.112 2.09 6.167 3.132.25.128.503.267.759.394.71.604 1.454 1.178 2.176 1.766 1.444 1.18 2.86 2.573 4.44 3.568 2.015 1.266 4.14 2.382 6.2 3.568.219.126.49.347.739.435.814.75 1.646 1.48 2.469 2.22 1.548 1.392 3.017 2.954 4.827 4l3.199 1.85-3.305 2.573m-7.351-10.789c-.145-.127-.252-.23 0 0m14.668 7.114-5.654-3.269c-.391-.226-.777-.462-1.174-.679-.058-.03-.097-.054-.138-.076-.604-.614-1.318-1.16-1.952-1.73-1.494-1.343-2.952-2.99-4.64-4.096-1.898-1.244-3.965-2.284-5.932-3.415-.344-.199-.696-.455-1.062-.612-.042-.018-.057-.02-.082-.028-.724-.596-1.453-1.185-2.178-1.776-1.613-1.317-3.248-3-5.101-3.978-2.065-1.09-4.166-2.116-6.248-3.174-.22-.11-.438-.228-.66-.342-.718-.613-1.45-1.212-2.175-1.817-1.738-1.452-3.408-3.067-5.395-4.165l-6.276-3.47c-.348-.193-.75-.262-1.102-.206-.38.023-.678.207-.808.631-.04.112-.065.238-.068.381l-.444 7.108c-.124 1.984.295 4.054.485 6.027.369 3.838.306 7.68.288 11.537l-.02 4.031c-.003 1.105-.185 2.368-.014 3.462.003.018.005.02.008.031l-.013.08c-.08.57-.15 1.141-.227 1.711l-.601 4.546c-.092.697-.257 1.435-.24 2.14.03 1.187.248 2.401.369 3.584.195 1.896.527 3.764.345 5.663-.226 2.382-.693 4.863-.652 7.255.046 2.602.36 5.225.539 7.824.104 1.505 3.49 5.08 4.998 3.992 2.957-2.134 5.906-4.278 8.895-6.37 1.115-.779 2.229-1.56 3.344-2.34.334-.233.67-.465 1.003-.7l.143-.105c1.937-1.266 3.863-2.55 5.795-3.827 2.838-1.875 6.064-3.146 8.854-5.086 1.94-1.349 3.863-2.725 5.793-4.088l.604-.425c.04-.029.137-.092.306-.199 1.01-.63 2.016-1.267 3.024-1.9 1.63-1.026 3.303-1.99 4.822-3.175l5.726-4.459c1.043-.812-1.882-4.147-2.485-4.496" fill="#000"/></g></svg>