<svg width="150" height="171" viewBox="0 0 150 171" xmlns="http://www.w3.org/2000/svg">
<path fill-rule="evenodd" clip-rule="evenodd" d="M122.415 162.806C119.128 161.622 115.841 160.44 112.554 159.255C110.512 158.52 109.031 157.174 107.289 155.86C103.826 153.246 100.363 150.633 96.898 148.019C95.9438 147.299 94.5203 146.578 93.7576 145.65C93.5212 145.36 93.5709 145.613 93.577 145.397C93.5903 144.979 94.2438 144.202 94.4378 143.854C96.3366 140.453 98.2354 137.052 100.133 133.651C100.195 133.541 99.9244 133.56 99.8941 133.563L92.7537 134.355C92.7306 134.358 92.6979 134.366 92.6664 134.376C92.4336 134.4 92.1596 134.485 92.128 134.602C91.0465 138.607 89.9661 142.612 88.8846 146.616C88.87 146.644 88.8749 146.666 88.9028 146.683C92.1523 148.877 95.5461 150.941 98.6743 153.303C100.72 154.849 102.694 156.5 104.702 158.095C105.445 158.688 106.717 159.351 107.266 160.134C107.339 160.24 107.378 160.247 107.399 160.237C107.396 160.243 107.396 160.24 107.391 160.249C107.298 160.505 106.56 160.898 106.357 161.057C104.242 162.706 102.129 164.354 100.014 166.004C99.7898 166.178 100.508 166.072 100.56 166.055C103.593 164.991 106.627 163.929 109.66 162.866C112.784 164.002 115.908 165.14 119.032 166.277C119.203 166.34 120.001 166.072 119.863 165.983C117.679 164.584 115.497 163.185 113.314 161.784C116.089 162.228 118.864 162.674 121.638 163.118C121.811 163.146 122.517 162.843 122.415 162.806" fill="black"/>
<path fill-rule="evenodd" clip-rule="evenodd" d="M90.613 161.928C89.8745 161.603 89.1337 161.282 88.3941 160.957C88.0121 160.792 87.321 160.64 87.013 160.354C87.0676 160.404 87.0033 160.246 86.9185 160.062C86.7439 159.681 86.6323 159.257 86.4929 158.864C86.0164 157.526 85.5411 156.19 85.067 154.852C83.9818 151.802 82.8978 148.753 81.8126 145.702C81.6283 145.184 81.0876 144.286 81.1106 143.728C81.1288 143.307 81.9872 142.165 82.2491 141.697C83.6956 139.109 85.1409 136.517 86.5875 133.926C86.6602 133.797 86.3838 133.771 86.3304 133.772C84.2473 133.786 82.1655 133.8 80.0824 133.814C80.0157 133.814 79.9272 133.839 79.8399 133.877C79.6689 133.918 79.5101 133.993 79.4677 134.096C78.4576 136.55 77.4464 139.004 76.4364 141.457C76.1721 142.1 75.3827 143.274 75.3973 143.979C75.407 144.399 75.8896 145.013 76.0751 145.38C77.4695 148.143 78.865 150.906 80.2606 153.671C80.9857 155.105 81.7084 156.541 82.4334 157.975C82.8845 158.869 83.264 159.924 83.8327 160.748C83.9988 160.988 83.9915 161.245 84.0812 161.046C83.9066 161.432 82.8214 161.902 82.4807 162.134L78.8929 164.567C78.5583 164.794 79.1403 164.845 79.2882 164.799C81.7556 164.021 84.2219 163.229 86.6917 162.46C86.7087 162.456 86.7099 162.456 86.7245 162.452C86.8409 162.47 86.9597 162.492 87.0652 162.517C87.7818 162.695 88.5238 162.803 89.2477 162.944C90.5305 163.195 91.8109 163.445 93.0925 163.694C93.2586 163.727 94.071 163.439 93.7218 163.287C92.6863 162.834 91.6496 162.38 90.613 161.928" fill="black"/>
<path fill-rule="evenodd" clip-rule="evenodd" d="M97.0319 124.331L104.475 139.014L87.1755 140.221L67.4626 136.399L97.0319 124.331Z" fill="#ffe623"/>
<path fill-rule="evenodd" clip-rule="evenodd" d="M134.216 92.5434C133.836 90.8095 133.46 89.0756 133.068 87.3454C132.667 85.5897 132.447 83.914 131.545 82.3596C130.615 80.7603 129.905 79.0846 128.487 77.8891C125.773 75.595 122.954 73.2792 119.49 72.2328C117.658 71.6787 116.151 71.0312 114.252 71.2591C112.393 71.4835 110.656 71.5041 109.002 72.3928C107.986 72.9397 106.92 73.4368 105.938 74.0394C105.613 74.0236 105.204 74.1 104.94 74.1049C103.178 74.1425 101.23 73.9388 99.5032 74.3195C97.6165 74.7354 95.7565 75.3574 93.8953 75.8739C93.5231 75.9758 93.3218 76.1625 93.2527 76.348C93.0878 76.5481 93.0975 76.7554 93.4952 76.8657C95.457 77.4114 97.722 77.8467 99.1709 78.659C100.318 79.3017 101.507 79.8982 102.622 80.593C102.972 80.8112 102.759 80.6378 103.147 80.9834C103.65 81.432 104.146 81.8867 104.644 82.3378C105.17 82.8118 105.694 83.2859 106.219 83.7612C106.544 84.0547 106.619 84.1201 106.688 84.2765C107.173 85.3811 107.236 86.8895 107.483 88.0644C107.732 89.2563 107.654 89.2745 107.201 90.4821C106.845 91.4376 106.487 92.3918 106.129 93.346C102.714 94.0832 99.0533 94.6604 95.7905 95.8499C94.0675 96.4791 92.4464 97.3994 90.7441 98.0869C89.8601 98.4446 88.9508 98.7489 88.0547 99.0787C87.4812 99.2897 86.9065 99.5019 86.333 99.7141C86.1535 99.7796 85.9765 99.8523 85.7934 99.9129C85.751 99.9275 85.7486 99.9287 85.7304 99.9336C85.7801 99.9178 85.8383 99.896 85.7801 99.9129C83.9177 100.427 81.7716 100.597 80.0219 101.424C78.3717 102.202 76.8209 103.268 75.2265 104.163C73.5957 105.078 71.7818 105.847 70.2601 106.936C69.4744 107.497 68.7542 108.176 68.0085 108.79C67.5574 109.162 67.1064 109.533 66.6541 109.905C66.4359 110.083 65.8793 110.459 66.1012 110.354C64.5031 111.23 62.8153 111.96 61.2488 112.892C59.6653 113.832 58.2054 114.979 56.6279 115.926C55.7295 116.464 54.7862 116.934 53.8695 117.435C53.3566 117.716 52.8389 117.99 52.3296 118.277C52.2448 118.326 52.1599 118.371 52.075 118.418C50.9777 118.6 49.8489 119.1 48.7879 119.423C48.0713 119.642 47.3244 119.822 46.6333 120.113C45.593 120.552 44.5878 121.114 43.5742 121.609C43.1122 121.836 42.6527 122.071 42.1871 122.288C42.1458 122.308 42.0658 122.344 42.0161 122.367C41.9203 122.394 41.8245 122.422 41.7287 122.446C39.9573 122.913 38.1737 123.381 36.4265 123.94C32.8387 125.088 29.2315 126.19 25.668 127.412C22.0511 128.654 18.4293 129.852 14.7155 130.776C13.7685 131.011 12.8046 131.324 11.8406 131.493C11.8685 131.468 11.1944 131.522 11.0573 131.53C10.3638 131.57 9.67267 131.61 8.98155 131.651C7.03063 131.763 5.33192 132.067 3.42223 132.496C2.5359 132.697 1.65077 132.895 0.764433 133.095C0.435846 133.169 -0.376529 133.697 0.200621 134.028C1.58772 134.818 2.95785 135.754 4.43103 136.368C5.86906 136.967 7.77753 138.087 9.33317 137.6C11.0658 137.058 12.7597 136.34 14.5178 135.889C15.6321 135.602 16.767 135.376 17.8886 135.12C18.3905 135.005 18.8925 134.895 19.3957 134.777C19.5157 134.748 19.6394 134.72 19.7607 134.694C19.7716 134.691 19.774 134.69 19.7789 134.689C21.6704 134.326 23.6431 134.153 25.5091 133.668C27.3242 133.195 29.0642 132.387 30.8575 131.833C30.9023 131.82 30.9229 131.811 30.9339 131.808C31.0175 131.794 31.1036 131.781 31.1873 131.768C31.7438 131.684 32.2991 131.596 32.8557 131.508C33.97 131.336 35.0842 131.158 36.1985 130.989C37.9918 130.717 39.79 130.478 41.5845 130.211C43.3474 129.95 45.0825 129.456 46.8176 129.052C47.151 128.975 47.4857 128.886 47.8203 128.819C47.841 128.824 48.1841 128.777 48.3829 128.755C49.6015 128.619 50.8189 128.482 52.0374 128.346C52.4569 128.299 52.8789 128.262 53.2972 128.205C53.3784 128.22 53.4609 128.231 53.5397 128.247C54.728 128.484 55.9295 128.664 57.1239 128.871C58.8941 129.18 60.6765 129.38 62.4613 129.602C62.8226 129.647 63.19 129.683 63.5501 129.738C63.7186 129.81 63.8872 129.884 64.0557 129.955C65.1579 130.429 66.2613 130.9 67.3622 131.374C69.0088 132.078 70.6905 132.701 72.3589 133.349C73.9861 133.981 75.629 134.573 77.2671 135.177C78.9282 135.791 80.6779 136.003 82.419 136.328C85.8819 136.972 89.4103 137.112 92.9229 137.213C94.7029 137.264 96.4622 137.139 98.2409 137.042C100.132 136.939 101.592 136.403 103.396 135.774C106.744 134.606 110.104 133.744 113.326 132.248C114.088 131.893 115 131.606 115.699 131.13C116.396 130.656 116.981 129.916 117.584 129.332C119.198 127.766 119.976 127.055 121.702 125.705C122.394 125.164 123.184 124.658 123.82 124.049C124.402 123.49 124.787 122.708 125.226 122.029C126.196 120.528 127.168 119.028 128.151 117.535C130.086 114.599 132.049 111.572 132.939 108.147C133.407 106.343 133.834 104.736 133.947 102.888C134.052 101.156 134.159 99.4231 134.273 97.6916C134.39 95.8935 134.599 94.2942 134.216 92.5434" fill="black"/>
<path fill-rule="evenodd" clip-rule="evenodd" d="M115.391 75.7113L112.107 78.9722L115.391 82.2113L118.657 78.9722L115.391 75.7113Z" fill="#ffe623"/>
<path fill-rule="evenodd" clip-rule="evenodd" d="M112.683 99.7354C112.521 98.672 107.192 99.2251 107.378 100.429C108.035 104.697 108.691 108.964 109.35 113.232C106.283 115.886 100.341 120.677 100.341 120.677C100.341 120.677 90.4531 124.045 89.9899 124.159C89.8335 124.16 89.6747 124.17 89.5304 124.168C87.3139 124.166 85.0963 124.164 82.8786 124.16C81.0635 124.158 79.2399 124.099 77.426 124.154C77.2368 124.118 77.0477 124.086 76.8585 124.053L74.0868 123.566C71.7115 123.148 69.3374 122.732 66.9633 122.313C65.9048 122.128 64.8548 121.872 63.7781 121.876C59.5586 121.887 55.3354 122.031 51.1159 122.107C50.4321 122.121 49.1432 122.346 48.7879 123.037C48.4375 123.719 49.0862 123.964 49.7094 123.953C52.6316 123.899 55.5537 123.845 58.4758 123.791C59.8096 123.766 61.1991 123.851 62.5268 123.716C62.5522 123.714 62.5595 123.711 62.5801 123.709C62.5947 123.713 62.5983 123.716 62.6177 123.72C63.1112 123.83 63.618 123.897 64.1152 123.984C67.5587 124.589 71.0009 125.194 74.442 125.799C76.4645 126.156 78.5463 126.002 80.5942 126.004C83.4533 126.008 86.5367 126.352 89.3788 125.982C92.1397 125.622 102.833 123.475 104.58 122.027C107.14 119.904 109.613 117.669 112.127 115.493C112.752 114.952 114.444 113.971 114.702 113.103C114.96 112.23 114.355 110.593 114.223 109.731C113.709 106.399 113.197 103.067 112.683 99.7354Z" fill="#ffe623"/>
<path fill-rule="evenodd" clip-rule="evenodd" d="M147.959 62.505C143.267 62.4749 138.651 62.5881 133.972 62.8284C135.874 56.5552 137.9 50.4015 140.11 44.2289C140.3 43.6954 138.559 44.2352 138.378 44.4264C133.913 49.0854 129.376 53.5972 124.727 58.0574C123.202 54.3446 121.677 50.6305 120.153 46.9164C119.957 46.437 118.358 46.9289 118.33 47.4058C118.151 50.5726 118.144 54.2691 117.78 57.1641C117.366 60.4467 116.59 63.7204 116.001 66.9766C115.994 67.0131 116.016 67.037 116.03 67.0634C116.009 67.0999 116.01 67.1301 116.048 67.1477C118.17 68.1756 120.295 69.2023 122.419 70.2302C123.812 70.9033 125.203 71.5764 126.596 72.2496C127.157 72.5226 127.81 72.9843 128.45 72.9994C129.226 73.0183 130.182 72.359 130.848 72.0357C132.337 71.3122 133.826 70.5888 135.314 69.8666C136.979 69.0576 138.636 68.2675 140.247 67.3616C142.801 65.9298 145.357 64.4942 147.91 63.0599C148.17 62.914 148.541 62.5088 147.959 62.505" fill="black"/>
<path fill-rule="evenodd" clip-rule="evenodd" d="M57.378 24.6206C57.2727 25.0966 57.0711 25.4806 56.7726 25.77C56.4735 26.0601 55.9999 26.1419 55.3512 26.0143C55.1406 25.9698 54.8632 25.8145 54.5202 25.548C54.1766 25.282 53.8287 24.9835 53.4779 24.6531C53.1265 24.3227 52.8027 24.0044 52.5103 23.6969C52.2166 23.39 52.021 23.1902 51.9241 23.0969C51.6991 22.8857 51.4469 22.6522 51.1659 22.3977C50.8849 22.1431 50.6105 21.8808 50.3421 21.6106L50.3511 22.0384C50.368 22.6649 50.3842 23.2913 50.4011 23.9172C50.4185 24.543 50.4312 25.161 50.442 25.7706C50.445 26.0956 50.4679 26.4404 50.5076 26.8075C50.5485 27.1739 50.531 27.5169 50.4558 27.8371C50.3993 28.1097 50.2807 28.3384 50.099 28.5207C49.9178 28.703 49.7096 28.8348 49.4755 28.9161C49.2415 28.9961 48.9995 29.0262 48.7522 29.0069C48.5037 28.9877 48.2648 28.9124 48.0361 28.7789C47.6702 28.5514 47.3332 28.2535 47.0233 27.8858C46.7134 27.5187 46.4179 27.1842 46.1357 26.8815C45.7428 26.4548 45.3606 26.0077 44.9905 25.5407C44.6193 25.0756 44.2492 24.6333 43.8797 24.2144C43.6877 23.9894 43.4374 23.6933 43.1275 23.3256C42.8176 22.9579 42.507 22.577 42.1959 22.1817C41.883 21.7869 41.6008 21.3939 41.348 21.0022C41.0953 20.611 40.9178 20.2734 40.8173 19.9906C40.7162 19.7078 40.7041 19.4195 40.7818 19.1277C40.8594 18.8358 40.9966 18.5861 41.1958 18.3761C41.3944 18.1666 41.6351 18.0216 41.9173 17.9398C42.1989 17.8591 42.4908 17.8784 42.7917 17.9994C43.2382 18.1937 43.5722 18.4597 43.7924 18.7973C44.0127 19.1355 44.2534 19.499 44.5145 19.8865C44.9213 20.4811 45.3444 21.0594 45.7843 21.6202C46.2248 22.1817 46.6761 22.7371 47.1413 23.2883C47.1437 23.1144 47.1407 22.905 47.1329 22.6589C47.1238 22.4133 47.119 22.0414 47.1178 21.5426C47.1124 21.1231 47.1064 20.7133 47.0992 20.3132C47.0919 19.913 47.0817 19.5152 47.0661 19.118C47.06 18.8334 47.0558 18.5518 47.0528 18.275C47.051 17.9981 47.0498 17.7249 47.0498 17.456C47.06 17.1635 47.1425 16.8939 47.2959 16.646C47.4494 16.3986 47.648 16.1995 47.8905 16.0478C48.1336 15.8968 48.3954 15.8137 48.6776 15.7999C48.9592 15.7854 49.2252 15.8691 49.4743 16.0508C49.824 16.2861 50.1405 16.5786 50.4233 16.9282C50.7062 17.2784 50.989 17.6046 51.2712 17.9061C51.7478 18.3941 52.2214 18.8888 52.6926 19.3882C53.1644 19.8883 53.6428 20.3709 54.1284 20.8361C54.0713 19.709 53.972 18.5957 53.8299 17.4945C53.6885 16.3938 53.573 15.2872 53.4833 14.1739L53.5188 13.9861C53.6247 13.5577 53.8089 13.2147 54.0749 12.9583C54.3396 12.7014 54.6261 12.5509 54.9336 12.507C55.2405 12.4625 55.5474 12.5293 55.8525 12.7062C56.1588 12.8831 56.4121 13.1876 56.6149 13.6197C56.7347 13.8562 56.8195 14.3382 56.8701 15.0651C56.92 15.7921 57.0085 16.7338 57.1355 17.888C57.1463 17.9608 57.1517 18.0541 57.1529 18.1684C57.1541 18.2834 57.1656 18.4699 57.1896 18.7287C57.2137 18.9875 57.242 19.3491 57.2775 19.8143C57.3118 20.2789 57.3521 20.9041 57.3984 21.6906C57.4297 22.08 57.461 22.5469 57.4905 23.0903C57.5194 23.6349 57.4821 24.1446 57.378 24.6206M41.2596 29.6598C41.0851 30.6263 40.7619 31.5121 40.2889 32.3179C39.8153 33.1236 39.2033 33.782 38.4517 34.2929C37.7001 34.8044 36.8203 35.0246 35.8124 34.9548C35.3616 34.935 34.9368 34.8706 34.536 34.7629C34.1352 34.6563 33.7441 34.4909 33.3619 34.2694C32.9335 34.0299 32.5592 33.7477 32.2396 33.4233C31.9183 33.099 31.6204 32.7463 31.343 32.3648C31.0361 31.958 30.8002 31.5169 30.6365 31.0391C30.4716 30.5625 30.3363 30.0877 30.2315 29.6141L30.193 29.4577C30.1076 28.9383 30.0685 28.4076 30.0781 27.866C30.0871 27.325 30.1509 26.7846 30.267 26.2454C30.3838 25.7074 30.5517 25.1893 30.7725 24.6922C30.9934 24.1958 31.2696 23.7529 31.6024 23.3611C32.1843 22.6534 32.851 22.1353 33.6033 21.8049C34.3555 21.4758 35.1221 21.3277 35.9032 21.3596C36.6843 21.3927 37.4317 21.6172 38.1466 22.0324C38.8603 22.4488 39.4705 23.0482 39.976 23.8305C40.2919 24.3486 40.5597 24.8541 40.7788 25.3458C40.9972 25.838 41.1639 26.3766 41.2776 26.9615C41.4401 27.7944 41.4341 28.694 41.2596 29.6598M27.8858 37.1591C27.7805 37.6351 27.5789 38.019 27.2805 38.3085C26.9808 38.5985 26.5078 38.6804 25.8591 38.5528C25.6479 38.5083 25.371 38.353 25.0274 38.0864C24.6844 37.8204 24.3366 37.5214 23.9852 37.1916C23.6337 36.8612 23.3106 36.5429 23.0175 36.2354C22.7239 35.9285 22.5289 35.7287 22.4314 35.6354C22.2069 35.4242 21.9542 35.1907 21.6732 34.9362C21.3921 34.6816 21.1183 34.4192 20.8499 34.1491L20.8584 34.5769C20.8758 35.2034 20.8921 35.8292 20.9089 36.4556C20.9258 37.0815 20.939 37.6995 20.9492 38.3091C20.9529 38.634 20.9751 38.9789 21.0148 39.3459C21.0564 39.7124 21.0383 40.0554 20.9637 40.3756C20.9077 40.6482 20.788 40.8768 20.6074 41.0592C20.4257 41.2415 20.2175 41.3733 19.9828 41.4545C19.7487 41.534 19.5074 41.5647 19.2601 41.5454C19.0109 41.5261 18.7732 41.4509 18.544 41.3173C18.1775 41.0899 17.8405 40.792 17.5306 40.4243C17.2213 40.0572 16.9252 39.7226 16.6442 39.42C16.2506 38.9933 15.8685 38.5462 15.4978 38.0792C15.1271 37.614 14.7564 37.1711 14.3875 36.7529C14.195 36.5278 13.9446 36.2318 13.6353 35.8641C13.3248 35.4964 13.0143 35.1155 12.7032 34.7201C12.3909 34.3254 12.1086 33.9324 11.8559 33.5407C11.6032 33.1495 11.4262 32.8119 11.3251 32.5291C11.2234 32.2463 11.2114 31.958 11.289 31.6661C11.3667 31.3743 11.5045 31.1246 11.7043 30.9145C11.9028 30.7051 12.1429 30.5601 12.4246 30.4783C12.7068 30.3976 12.9981 30.4169 13.2989 30.5378C13.7461 30.7322 14.08 30.9982 14.3003 31.3358C14.5199 31.674 14.7612 32.0374 15.0218 32.425C15.4286 33.0195 15.8516 33.5978 16.2921 34.1587C16.732 34.7201 17.184 35.2756 17.6485 35.8268C17.6509 35.6529 17.6485 35.4435 17.6401 35.1973C17.6311 34.9518 17.6263 34.5799 17.6257 34.0811C17.6203 33.661 17.6136 33.2518 17.6064 32.8516C17.5992 32.4515 17.589 32.0537 17.5733 31.6565C17.5679 31.3719 17.5631 31.0903 17.5607 30.8134C17.5583 30.5366 17.5571 30.2634 17.5577 29.9944C17.5679 29.702 17.6497 29.4324 17.8038 29.1844C17.9572 28.9371 18.1552 28.7379 18.3989 28.5863C18.6409 28.4352 18.9032 28.3522 19.1849 28.3384C19.4671 28.3239 19.7325 28.4076 19.9822 28.5893C20.3318 28.8246 20.6484 29.1171 20.9318 29.4667C21.2134 29.8169 21.4969 30.1431 21.7791 30.4446C22.2551 30.9326 22.7287 31.4272 23.2005 31.9267C23.6722 32.4268 24.1507 32.9088 24.6363 33.3746C24.5785 32.2475 24.4798 31.1342 24.3378 30.0329C24.1964 28.9323 24.0802 27.8257 23.9912 26.7124L24.0261 26.5246C24.132 26.0962 24.3173 25.7532 24.5821 25.4968C24.8475 25.2398 25.1333 25.0894 25.4415 25.0455C25.7478 25.0009 26.0547 25.0677 26.3604 25.2447C26.6661 25.4216 26.92 25.7261 27.1234 26.1581C27.2426 26.3946 27.3274 26.8767 27.3773 27.6036C27.4273 28.3305 27.5158 29.2717 27.6427 30.4265C27.6536 30.4993 27.6596 30.5926 27.6608 30.7069C27.6614 30.8219 27.674 31.0084 27.6975 31.2672C27.721 31.5259 27.7498 31.8876 27.7847 32.3528C27.819 32.8173 27.86 33.4426 27.9057 34.2291C27.9376 34.6184 27.9683 35.0854 27.9978 35.6288C28.0279 36.1734 27.9893 36.6831 27.8858 37.1591M79.685 65.1811C76.7129 61.5416 73.7401 57.9021 70.768 54.262C70.3082 53.6993 69.8779 53.0597 69.3646 52.5434C69.3526 52.5319 69.3508 52.5319 69.3442 52.5259L68.8947 51.8507C67.3535 49.5351 65.8124 47.2201 64.2707 44.9051L60.9104 39.8556C62.6362 37.6171 64.3621 35.3785 66.0886 33.1399C66.969 31.9983 67.8777 30.873 68.7322 29.7116C69.1697 29.1171 69.0186 28.2619 69.0246 27.5464C69.0565 23.9677 69.0884 20.3896 69.1203 16.8109C69.1239 16.454 69.1775 16.058 69.0674 15.7114C68.9049 15.1975 68.4229 14.7697 68.0588 14.3695C67.0424 13.2526 66.0254 12.1363 65.0084 11.0194C62.8336 8.6328 60.7413 6.12402 58.4636 3.83369C57.7066 3.07185 56.6787 3.03815 55.6756 2.87326C53.9401 2.58863 52.2046 2.30339 50.4703 2.01815C48.5145 1.6974 46.56 1.37666 44.6048 1.05592C43.7226 0.911493 42.7369 0.608201 41.8385 0.601582C41.5526 0.599776 41.2445 0.726148 40.9743 0.799564C40.3702 0.963245 39.7654 1.12753 39.1612 1.29121C37.2981 1.7967 35.435 2.30218 33.5714 2.80707C31.8208 3.28186 30.0697 3.75666 28.3191 4.23206C27.7318 4.39153 27.0843 4.48962 26.5403 4.76402C25.3963 5.33992 24.2999 6.0476 23.1884 6.68367C21.4367 7.68682 19.6855 8.68997 17.9344 9.69312C16.6237 10.4441 15.3125 11.1951 14.0006 11.9461C13.4494 12.2627 13.1292 12.5684 12.7032 13.0492C10.2805 15.7842 7.85834 18.5199 5.43682 21.2555C4.77547 22.0011 3.91855 22.7449 3.37515 23.5832C3.22652 23.813 3.2205 24.0441 3.17898 24.3119C3.08149 24.9311 2.98521 25.5498 2.88892 26.169C2.31664 29.8344 1.74496 33.5003 1.17328 37.1657C0.993348 38.3157 0.730976 39.0848 1.69802 40.035C2.58924 40.9111 3.5262 41.7458 4.43908 42.6003C7.03271 45.0272 9.62574 47.4542 12.22 49.8817C12.5834 50.2217 12.9541 50.6237 13.4259 50.7982C13.7009 50.8999 13.9886 50.9336 14.278 50.9854L18.9658 51.8224C22.1684 52.3947 25.371 52.9676 28.5743 53.5393C29.2958 53.6681 30.0143 53.4346 30.728 53.2944C32.496 52.9483 34.2646 52.6017 36.032 52.2557C37.9204 51.8856 39.8087 51.5149 41.6959 51.1448C42.5588 50.9763 43.6179 50.9318 44.4393 50.6081C45.0495 50.3667 45.6405 49.8065 46.1778 49.4424C46.5907 49.1632 47.0035 48.8834 47.4163 48.6042C49.4683 49.8173 51.5222 51.0305 53.5742 52.2437C55.1623 53.1818 56.7251 54.1609 58.3727 54.9907C61.2089 56.4175 64.0438 57.8449 66.8799 59.2717C67.2771 59.4715 67.6707 59.6852 68.0738 59.8729C68.1256 59.897 68.1551 59.9096 68.1761 59.9174C69.1835 60.5391 70.1903 61.1595 71.197 61.7799C73.719 63.3355 76.2411 64.8905 78.7625 66.4454C79.1247 66.7403 79.5695 66.9696 79.954 66.8167C79.9558 66.8155 79.957 66.8137 79.9588 66.8131C80.0202 66.7909 80.0767 66.7572 80.1249 66.7066C80.1784 66.6549 80.2139 66.5935 80.2356 66.5267C80.2374 66.5231 80.2398 66.5219 80.241 66.5183C80.4011 66.1121 80.0491 65.5566 79.685 65.1811" fill="black"/>
<path fill-rule="evenodd" clip-rule="evenodd" d="M37.0206 25.2741C36.5711 24.8035 35.9849 24.5773 35.2646 24.5959C34.8578 24.7686 34.5172 25.0051 34.2422 25.3042C33.966 25.6039 33.7554 25.933 33.611 26.2917C33.4665 26.6516 33.3727 27.0415 33.3311 27.4615C33.289 27.8822 33.2908 28.3034 33.336 28.7253C33.3979 29.0069 33.4665 29.2795 33.5406 29.5455C33.6158 29.8115 33.7235 30.0672 33.8673 30.3133C34.0749 30.6666 34.3217 30.965 34.6069 31.2076C34.8927 31.4513 35.1996 31.6077 35.5282 31.6799C35.855 31.7516 36.1829 31.7221 36.5115 31.5921C36.8407 31.4621 37.1464 31.2118 37.4304 30.8417C37.7848 30.3657 38.0093 29.7663 38.1056 29.0442C38.2019 28.3221 38.1567 27.6312 37.972 26.9705C37.7872 26.311 37.4701 25.7447 37.0206 25.2741" fill="black"/>
</svg>
