<svg width="135" height="101" viewBox="0 0 135 101" xmlns="http://www.w3.org/2000/svg">
<path fill-rule="evenodd" clip-rule="evenodd" d="M122.415 91.8074C119.128 90.6228 115.841 89.4406 112.554 88.256C110.512 87.5212 109.032 86.1753 107.289 84.861C103.827 82.2468 100.364 79.6339 96.8984 77.0197C95.9441 76.2995 94.5207 75.5793 93.758 74.6505C93.5216 74.3607 93.5713 74.6141 93.5773 74.3983C93.5907 73.98 94.2442 73.2028 94.4382 72.8548C96.337 69.4537 98.2358 66.0527 100.133 62.6516C100.195 62.5425 99.9248 62.5607 99.8945 62.5643L92.754 63.3561C92.731 63.3585 92.6983 63.367 92.6667 63.3767C92.4339 63.4009 92.1599 63.4858 92.1284 63.6034C91.0468 67.6083 89.9665 71.6132 88.885 75.6169C88.8704 75.6447 88.8753 75.6666 88.9031 75.6835C92.1526 77.8782 95.5464 79.9418 98.6747 82.3038C100.72 83.8497 102.694 85.5012 104.702 87.0956C105.445 87.6885 106.717 88.3517 107.266 89.135C107.339 89.2405 107.378 89.2478 107.4 89.2381C107.396 89.2441 107.396 89.2405 107.391 89.2502C107.298 89.506 106.561 89.8989 106.357 90.0577C104.242 91.7067 102.129 93.3545 100.014 95.0047C99.7902 95.1793 100.508 95.0726 100.56 95.0557C103.594 93.9923 106.627 92.9301 109.66 91.8668C112.785 93.0029 115.908 94.1414 119.033 95.2775C119.204 95.3406 120.001 95.0726 119.863 94.9841C117.679 93.5849 115.497 92.1857 113.314 90.7852C116.09 91.229 118.864 91.6752 121.638 92.119C121.812 92.1469 122.517 91.8437 122.415 91.8074" fill="black"/>
<path fill-rule="evenodd" clip-rule="evenodd" d="M90.6133 90.9287C89.8749 90.6037 89.1341 90.2824 88.3944 89.9575C88.0125 89.7926 87.3214 89.641 87.0134 89.3549C87.068 89.4046 87.0037 89.247 86.9188 89.0627C86.7442 88.6819 86.6327 88.2576 86.4932 87.8647C86.0167 86.5273 85.5414 85.1911 85.0673 83.8525C83.9822 80.8031 82.8982 77.7537 81.813 74.703C81.6287 74.1853 81.0879 73.2868 81.111 72.7291C81.1291 72.3083 81.9876 71.1662 82.2495 70.6981C83.696 68.1094 85.1413 65.5183 86.5878 62.9272C86.6606 62.7975 86.3841 62.772 86.3308 62.7732C84.2477 62.7866 82.1658 62.8011 80.0828 62.8145C80.0161 62.8145 79.9276 62.8399 79.8403 62.8775C79.6693 62.9187 79.5105 62.9939 79.468 63.097C78.458 65.5511 77.4468 68.0052 76.4368 70.4581C76.1724 71.1007 75.3831 72.2744 75.3977 72.9801C75.4074 73.3996 75.8899 74.0143 76.0754 74.3805C77.4698 77.1438 78.8654 79.9071 80.261 82.6716C80.9861 84.106 81.7087 85.5416 82.4338 86.9759C82.8848 87.8696 83.2644 88.9244 83.833 89.7489C83.9991 89.989 83.9919 90.2461 84.0816 90.0472C83.907 90.4328 82.8218 90.9032 82.4811 91.1348L78.8933 93.5683C78.5586 93.795 79.1406 93.846 79.2886 93.7999C81.756 93.0215 84.2222 92.2297 86.6921 91.461C86.7091 91.4573 86.7103 91.4573 86.7248 91.4525C86.8412 91.4707 86.9601 91.4925 87.0655 91.518C87.7821 91.6962 88.5242 91.8041 89.248 91.9448C90.5309 92.1958 91.8113 92.4455 93.0929 92.6953C93.259 92.728 94.0714 92.4395 93.7222 92.2879C92.6867 91.8344 91.65 91.381 90.6133 90.9287" fill="black"/>
<path fill-rule="evenodd" clip-rule="evenodd" d="M97.0321 53.3318L104.476 68.0152L87.1757 69.2216L67.4629 65.3998L97.0321 53.3318Z" fill="#5CFFE4"/>
<path fill-rule="evenodd" clip-rule="evenodd" d="M134.216 21.5443C133.836 19.8104 133.46 18.0765 133.068 16.3463C132.667 14.5906 132.447 12.9149 131.545 11.3605C130.615 9.76121 129.905 8.08554 128.487 6.89001C125.773 4.59596 122.954 2.28009 119.49 1.2337C117.658 0.679586 116.151 0.0321105 114.252 0.26006C112.393 0.484373 110.656 0.504986 109.002 1.39375C107.986 1.94059 106.92 2.43771 105.938 3.04032C105.613 3.02456 105.204 3.10095 104.94 3.1058C103.178 3.14339 101.23 2.93969 99.5032 3.32041C97.6165 3.7363 95.7565 4.35831 93.8953 4.87484C93.5231 4.97669 93.3218 5.16341 93.2527 5.34892C93.0878 5.54899 93.0975 5.75632 93.4952 5.86666C95.457 6.41229 97.722 6.84757 99.1709 7.65995C100.318 8.30257 101.507 8.89912 102.622 9.59389C102.972 9.81214 102.759 9.63875 103.147 9.98431C103.65 10.4329 104.146 10.8876 104.644 11.3387C105.17 11.8128 105.694 12.2868 106.219 12.7621C106.544 13.0556 106.619 13.121 106.688 13.2775C107.173 14.382 107.236 15.8904 107.483 17.0653C107.732 18.2572 107.654 18.2754 107.201 19.483C106.845 20.4385 106.487 21.3927 106.129 22.347C102.714 23.0842 99.0533 23.6613 95.7905 24.8508C94.0675 25.4801 92.4464 26.4003 90.7441 27.0878C89.8601 27.4455 88.9508 27.7499 88.0547 28.0797C87.4812 28.2906 86.9065 28.5028 86.333 28.715C86.1535 28.7805 85.9765 28.8532 85.7934 28.9139C85.751 28.9284 85.7486 28.9296 85.7304 28.9345C85.7801 28.9187 85.8383 28.8969 85.7801 28.9139C83.9177 29.428 81.7716 29.5977 80.0219 30.4246C78.3717 31.2031 76.8209 32.2688 75.2265 33.1637C73.5957 34.0791 71.7818 34.8478 70.2601 35.9367C69.4744 36.498 68.7542 37.177 68.0085 37.7906C67.5574 38.1628 67.1064 38.5338 66.6541 38.9061C66.4359 39.0843 65.8793 39.4602 66.1012 39.3547C64.5031 40.2313 62.8153 40.9613 61.2488 41.8925C59.6653 42.8334 58.2054 43.9804 56.6279 44.9273C55.7295 45.4645 54.7862 45.9349 53.8695 46.4357C53.3566 46.717 52.8389 46.991 52.3296 47.2784C52.2448 47.3269 52.1599 47.3717 52.075 47.419C50.9777 47.6009 49.8489 48.1005 48.7879 48.4242C48.0713 48.6424 47.3244 48.8231 46.6333 49.1141C45.593 49.553 44.5878 50.1144 43.5742 50.6103C43.1122 50.8371 42.6527 51.0723 42.1871 51.2893C42.1458 51.3087 42.0658 51.3451 42.0161 51.3681C41.9203 51.3948 41.8245 51.4227 41.7287 51.447C39.9573 51.9138 38.1737 52.3818 36.4265 52.9408C32.8387 54.089 29.2315 55.1912 25.668 56.4134C22.0511 57.655 18.4293 58.8529 14.7155 59.7768C13.7685 60.0121 12.8046 60.3249 11.8406 60.4934C11.8685 60.4692 11.1944 60.5225 11.0573 60.531C10.3638 60.571 9.67267 60.611 8.98155 60.6523C7.03063 60.7638 5.33192 61.0681 3.42223 61.4974C2.5359 61.6974 1.65077 61.8963 0.764433 62.0963C0.435846 62.1703 -0.376529 62.6977 0.200621 63.0288C1.58772 63.8193 2.95785 64.7554 4.43103 65.3689C5.86906 65.9679 7.77753 67.0882 9.33317 66.6008C11.0658 66.0588 12.7597 65.341 14.5178 64.8899C15.6321 64.6026 16.767 64.3771 17.8886 64.1212C18.3905 64.006 18.8925 63.8957 19.3957 63.7781C19.5157 63.749 19.6394 63.7211 19.7607 63.6944C19.7716 63.692 19.774 63.6908 19.7789 63.6896C21.6704 63.327 23.6431 63.1536 25.5091 62.6686C27.3242 62.1958 29.0642 61.3882 30.8575 60.8341C30.9023 60.8208 30.9229 60.8123 30.9339 60.8087C31.0175 60.7953 31.1036 60.782 31.1873 60.7687C31.7438 60.685 32.2991 60.5965 32.8557 60.5092C33.97 60.337 35.0842 60.1588 36.1985 59.9902C37.9918 59.7174 39.79 59.4786 41.5845 59.2118C43.3474 58.9511 45.0825 58.4564 46.8176 58.0527C47.151 57.9763 47.4857 57.8865 47.8203 57.8199C47.841 57.8247 48.1841 57.7774 48.3829 57.7556C49.6015 57.6198 50.8189 57.4828 52.0374 57.347C52.4569 57.2997 52.8789 57.2633 53.2972 57.2063C53.3784 57.2209 53.4609 57.2318 53.5397 57.2476C54.728 57.4852 55.9295 57.6647 57.1239 57.872C58.8941 58.1812 60.6765 58.3812 62.4613 58.6031C62.8226 58.648 63.19 58.6844 63.5501 58.7389C63.7186 58.8105 63.8872 58.8844 64.0557 58.956C65.1579 59.4301 66.2613 59.9005 67.3622 60.3746C69.0088 61.0791 70.6905 61.7023 72.3589 62.3498C73.9861 62.9815 75.629 63.5744 77.2671 64.1782C78.9282 64.7917 80.6779 65.0039 82.419 65.3289C85.8819 65.9727 89.4103 66.1134 92.9229 66.214C94.7029 66.2649 96.4622 66.14 98.2409 66.043C100.132 65.94 101.592 65.404 103.396 64.7748C106.744 63.6071 110.104 62.745 113.326 61.2488C114.088 60.8935 115 60.6074 115.699 60.1309C116.396 59.6568 116.981 58.9172 117.584 58.3327C119.198 56.7674 119.976 56.0557 121.702 54.7062C122.394 54.1654 123.184 53.6586 123.82 53.0499C124.402 52.4909 124.787 51.7089 125.226 51.0299C126.196 49.5288 127.168 48.0289 128.151 46.5363C130.086 43.5997 132.049 40.5733 132.939 37.1479C133.407 35.3437 133.834 33.7372 133.947 31.8893C134.052 30.1567 134.159 28.424 134.273 26.6926C134.39 24.8944 134.599 23.2951 134.216 21.5443" fill="black"/>
<path fill-rule="evenodd" clip-rule="evenodd" d="M115.392 4.71228L112.107 7.97316L115.392 11.2123L118.657 7.97316L115.392 4.71228Z" fill="#5CFFE4"/>
<path fill-rule="evenodd" clip-rule="evenodd" d="M112.683 28.7364C112.521 27.673 107.193 28.2261 107.378 29.4301C108.035 33.6981 108.691 37.9649 109.35 42.2329C106.283 44.8871 100.341 49.6779 100.341 49.6779C100.341 49.6779 90.4532 53.0458 89.99 53.1598C89.8336 53.161 89.6748 53.1707 89.5305 53.1695C87.314 53.167 85.0964 53.1646 82.8787 53.161C81.0636 53.1586 79.24 53.1004 77.4261 53.1549C77.237 53.1185 77.0478 53.087 76.8587 53.0543L74.0869 52.5669C71.7116 52.1485 69.3375 51.7327 66.9634 51.3143C65.9049 51.1288 64.8549 50.873 63.7782 50.8766C59.5587 50.8875 55.3356 51.0318 51.1161 51.1082C50.4322 51.1216 49.1433 51.3471 48.7881 52.0382C48.4377 52.7196 49.0863 52.9646 49.7096 52.9536C52.6317 52.9003 55.5538 52.8457 58.4759 52.7924C59.8097 52.7669 61.1992 52.8518 62.5269 52.7172C62.5524 52.7148 62.5596 52.7124 62.5803 52.7099C62.5948 52.7136 62.5984 52.7172 62.6178 52.7208C63.1113 52.8312 63.6182 52.8979 64.1153 52.9852C67.5588 53.5902 71.0011 54.1952 74.4421 54.8003C76.4646 55.1568 78.5465 55.0028 80.5944 55.0052C83.4534 55.0088 86.5368 55.3532 89.3789 54.9834C92.1398 54.6233 102.833 52.4759 104.58 51.0282C107.14 48.9051 109.613 46.6705 112.127 44.494C112.752 43.9533 114.444 42.9723 114.702 42.1042C114.96 41.2312 114.355 39.5943 114.223 38.7322C113.709 35.4003 113.197 32.0683 112.683 28.7364Z" fill="#5CFFE4"/>
</svg>
