<svg xmlns="http://www.w3.org/2000/svg" width="111" height="70" viewBox="0 0 111 70">
    <g fill="#FFF" fill-rule="evenodd">
        <path d="M70.552.63c-2.04 0-2.352 3.065-.3 3.065 2.038 0 2.352-3.066.3-3.066M52.62 14.915c.701.17 1.377.334 1.987-.172.694-.576.548-1.496-.096-2.028-.494-.406-1.102-.294-1.672-.158-.552.134-.986.52-1.042 1.092-.05.502.28 1.136.822 1.266M24.611 36.757c-1.624 0-1.874 2.442-.24 2.442 1.626 0 1.874-2.442.24-2.442M15.628 54.688c.148.014.296.026.444.042-.298-.2-.596-.404-.894-.604.432 1.264 2.408.934 2.532-.336.144-1.488-2.118-1.912-2.57-.49l.844-.68c-.146.018-.294.026-.44.04-1.214.108-1.078 1.924.084 2.028M38.83 22.609c-1.687 0-1.945 2.536-.25 2.536 1.689 0 1.949-2.536.25-2.536M7.962 69.14c-2.04 0-2.352 3.065-.3 3.065 2.038 0 2.352-3.066.3-3.066M1.738 90.406c.7.17 1.378.334 1.988-.172.694-.576.548-1.496-.098-2.028-.494-.406-1.102-.294-1.67-.158-.554.134-.988.52-1.044 1.092-.048.502.28 1.136.824 1.266M4.616 107.01c-1.624 0-1.874 2.443-.24 2.443 1.626 0 1.874-2.442.24-2.442" transform="rotate(-91 36.143 35.378)"/>
    </g>
</svg>
