<svg height="46" viewBox="0 0 121 46" width="121" xmlns="http://www.w3.org/2000/svg" xmlns:xlink="http://www.w3.org/1999/xlink"><mask id="a" fill="#fff"><path d="m1.494 1.351h3.273v2.649h-3.273z" fill="#fff" fill-rule="evenodd"/></mask><g fill="#fff" fill-rule="evenodd"><path d="m125.133 1.774c-2.04 0-2.352 3.066-.3 3.066 2.038 0 2.352-3.066.3-3.066" transform="matrix(.88294759 .46947156 -.46947156 .88294759 9.742114 -17.061487)"/><path d="m2.321 3.833c.702.17 1.378.334 1.988-.172.694-.576.548-1.496-.096-2.028-.494-.406-1.102-.294-1.672-.158-.552.134-.986.52-1.042 1.092-.05.502.28 1.136.822 1.266" mask="url(#a)" transform="matrix(.88294759 .46947156 -.46947156 .88294759 101.635715 32.872884)"/><path d="m78.457 14.042c-1.624 0-1.874 2.442-.24 2.442 1.626 0 1.874-2.442.24-2.442m-14.147 8.218c.148.015.296.027.444.043-.298-.2-.596-.404-.894-.604.432 1.264 2.408.934 2.532-.336.144-1.488-2.118-1.912-2.57-.49l.844-.68c-.146.018-.294.026-.44.04-1.214.108-1.078 1.924.084 2.028m28.371-14.608c-1.688 0-1.946 2.536-.25 2.536 1.688 0 1.948-2.536.25-2.536m-41.89 17.281c-2.04 0-2.352 3.066-.3 3.066 2.038 0 2.352-3.066.3-3.066m-15.928 4.13c.7.17 1.378.334 1.988-.172.694-.576.548-1.496-.098-2.028-.494-.406-1.102-.294-1.67-.158-.554.134-.988.52-1.044 1.092-.048.502.28 1.136.824 1.266m-15.333-4.567c-1.623 0-1.873 2.442-.24 2.442 1.627 0 1.875-2.442.24-2.442m-18.1-3.001c.148.014.296.026.444.042-.298-.2-.596-.404-.894-.604.432 1.264 2.408.934 2.532-.336.144-1.488-2.118-1.912-2.57-.49l.844-.68c-.146.018-.294.026-.44.04-1.214.108-1.078 1.924.084 2.028" transform="matrix(.88294759 .46947156 -.46947156 .88294759 9.742114 -17.061487)"/></g></svg>