<svg xmlns="http://www.w3.org/2000/svg" width="112" height="73" viewBox="0 0 112 73">
    <g fill="#FFF" fill-rule="evenodd">
        <path d="M82.612.654c-2.04 0-2.352 3.066-.3 3.066 2.038 0 2.352-3.066.3-3.066M67.779 14.313c.702.17 1.378.334 1.988-.172.694-.576.548-1.496-.096-2.028-.494-.406-1.102-.294-1.672-.158-.552.134-.986.52-1.042 1.092-.05.502.28 1.136.822 1.266M44.611 37.757c-1.624 0-1.874 2.442-.24 2.442 1.626 0 1.874-2.442.24-2.442M35.628 55.688c.148.014.296.026.444.042-.298-.2-.596-.404-.894-.604.432 1.264 2.408.934 2.532-.336.144-1.488-2.118-1.912-2.57-.49l.844-.68c-.146.018-.294.026-.44.04-1.214.108-1.078 1.924.084 2.028M56.845 23.365c-1.688 0-1.946 2.536-.25 2.536 1.688 0 1.948-2.536.25-2.536M25.977 69.896c-2.04 0-2.352 3.066-.3 3.066 2.038 0 2.352-3.066.3-3.066M14.912 89.56c.7.17 1.378.335 1.988-.171.694-.576.548-1.496-.098-2.028-.494-.406-1.102-.294-1.67-.158-.554.134-.988.52-1.044 1.092-.048.502.28 1.136.824 1.266M1.495 100.843c-1.624 0-1.874 2.442-.24 2.442 1.626 0 1.874-2.442.24-2.442" transform="rotate(18 98.206 88.399)"/>
    </g>
</svg>
