<svg height="125" viewBox="0 0 180 125" width="180" xmlns="http://www.w3.org/2000/svg" xmlns:xlink="http://www.w3.org/1999/xlink"><mask id="a" fill="#fff"><path d="m.16.477h89.032v70.453h-89.032z" fill="#fff" fill-rule="evenodd"/></mask><g fill="none" fill-rule="evenodd"><path d="m0 0h180v125h-180z"/><path d="m177.784 24.522-8.526 3.685-4.151 10.074-9.723 5.559 5.426 7.815-1.352 3.757-6.249-.182-5.109-3.976-.189 2.991 4.005 4.989-1.02 2.811-3.285 2.07-2.635 3.821-12.248-8.091-4.433 7.209-7.101 3.64.907-11.471 1.046-11.912-6.771 4.814-7.799 2.274-8.511 4.477-8.423-2.946 8.217-5.268 7.901-6.124 8.264-5.657 7.573-6.55 7.59-6.917 6.891-7.614 6.801-7.678 5.904-8.604 9.827 2.087 8.755 4.352 6.481 6.984z" fill="#a9ff03" transform="translate(0 9)"/><path d="m89.064 61.096-11.018-1.355-11.43.073-11.436-.961-8.849 3.446-8.848 3.208-8.778 3.408-7.775 3.98-6.587 5.666-6.226 6.247-6.952 9.19 3.887 11.055 8.986 7.01 11.468.085 2.945-10.38 6.762-8.515 8.434 1.622 8.525.958 2.616 5.683 4.914 1.578.503-6.634 9.271.739-2.556-6.432-7.041-4.577 7.557 2.601 5.128-.706 4.342-2.932-3.467-2.064 8.541-3.855-7.151-4.174-7.098-4.084 5.192-2.364 9.903-.738 3.57-2.23z" fill="#c58fff" transform="translate(0 9)"/><g transform="translate(0 9.373)"><path d="m86.438 64.117c-.075.134-.653.952-.653.952l-1.393 1.005-1.64 1.184c-1.281.045-2.564.1-3.845.103-1.487.003-2.986-.15-4.47-.234-1.662-.094-2.826.62-4.284 1.338-.718.354-1.492.671-2.189 1.073-.302.023-.607.068-.904.097l-3.154.32c-.263.027-.533.038-.794.081.598-.097.157-.014-.14-.013-1.652.016-3.341-.077-4.988.055-1.054.085-1.779.735-2.587 1.333-.777.573-1.595 1.114-2.339 1.73-1.134.936-2.091 2.254-3.045 3.371-.024.03-.03.04-.05.063-.38.225-.742.51-1.106.757-.78.533-1.545 1.109-2.35 1.605-1.348.833-3.358 1.747-4.749 2.505-.655.357-.788 1.018.01 1.233 1.087.294 2.212.808 3.299 1.102.182.049 1.305.42 3.37 1.112 2.526.918 4.148 1.419 4.864 1.503 1.327.157 5.643 1.145 6.259 1.422l1.92.867c.179.08 3.029 1.736 3.994 2.602.295.265.659.523.935.821 0 .022.084.172.106.281.064.318.177.631.263.944l.642 2.298c-1.311-.126-2.622-.235-3.942-.271-2.442-.066-4.82-.245-7.25-.48-.907-.088-1.813-.17-2.72-.253l-2.23-.204-.522-.046c-.032-.01-.075-.024-.14-.042-2.288-.632-4.64-.984-6.995-1.224-2.544-.26-5.088-.456-7.639-.646-.615-.046-1.621.235-1.954.806-1.86 2.205-3.667 4.39-5.375 6.714-.396.539-.885 1.073-1.218 1.655-.254.445-.356 1.002-.507 1.486-.423 1.355-.85 2.707-1.268 4.063-.406 1.324-.81 2.649-1.214 3.974-1.464.084-2.928.163-4.395.185l-2.45.037c-.237.004-.475.002-.712.01-.303-.228-.98-.413-1.234-.534-.727-.35-1.454-.696-2.183-1.045-.828-.397-1.554-.856-2.329-1.357-.618-.397-1.234-.796-1.851-1.194-.21-.134-.417-.27-.626-.405-.017-.01-.024-.013-.037-.022.007-.005.007-.017-.014-.048-.735-1.15-1.541-2.262-2.311-3.39-.117-.172-.24-.343-.356-.52-.007-.02-.014-.033-.026-.059l-.835-1.718c-.422-.872-1.014-1.788-1.288-2.716-.382-1.3-.464-2.782-.687-4.12-.033-.198-.037-.445-.105-.638.007.082-.016.149-.129.108.014.004.061-.05.125-.13 0-.002 0-.006-.002-.008-.131-.341-.017-.155.006.002.23-.29.69-.968.742-1.037.852-1.149 1.68-2.322 2.56-3.45 1.269-1.625 2.757-3.143 4.17-4.646-.195.207-.204.214-.006.02.198-.195.39-.397.582-.597l1.671-1.707c.597-.611 1.194-1.206 1.732-1.869.895-1.105 1.828-2.188 2.69-3.318.023-.03.043-.052.065-.076.087-.08.175-.16.262-.242l1.62-1.494c.516-.476 1.056-.936 1.553-1.434.033-.032.067-.061.1-.092-.155.15.16-.098.326-.186 1.232-.655 2.463-1.311 3.695-1.965.81-.432 1.581-.929 2.366-1.404.604-.368 1.211-.735 1.817-1.103.148-.09.355-.183.502-.3 1.303-.39 2.589-1.007 3.85-1.514.116-.048.236-.088.35-.139-.682.3-.221.084.004.028.706-.176 1.409-.37 2.113-.556 2.278-.6 4.547-1.394 6.6-2.579.028-.015.039-.022.055-.034l.351-.115 2.197-.715c.94-.307 1.877-.612 2.804-.953 1.148-.42 2.325-.799 3.456-1.264.026-.007.05-.014.086-.022.228-.06.455-.131.682-.196l2.473-.71.598-.17c.405.06.921.006 1.28.023 1.137.055 2.279.093 3.417.166 4.555.294 9.08.723 13.645.856.967.028 1.905-.033 2.871-.104.745-.053 1.488-.123 2.233-.16 1.217-.061 3.543.144 4.849.241.82.061 1.637.134 2.456.205l2.272.2-.778 1.376zm-12.373 17.143-1.723.263c-.144.022-.834.072-.855.066l-1.73-.44c-.812-.206-1.694-.553-2.532-.65-.12-.082-.247-.158-.368-.235l-1.509-.97c-.742-.477-1.472-1.023-2.249-1.443-.715-.387-1.603-.328-2.397-.387-1.015-.078-2.145-.316-3.16-.243-.032.002-.06.003-.087.001l-.182-.056c-.549-.178-1.406-.31-1.879-.699.418-.473 1.271-1.426 1.796-1.877.43-.37 1.336-.997 2.719-1.88 4.278-.315 6.48-.437 6.606-.369 4.276 2.356 7.646 3.921 11.82 6.944l-2.496 1.704zm-2.507 6.139c-1.1.154-1.722-.003-2.823.15l-3.85-.827c-.218-.108-.444-.214-.693-.326-1.15-.519-2.294-1.143-3.482-1.57-.967-.348-2.155-.321-3.167-.44l-1.965-.23c-.128-.016-3.03-1.147-4.319-1.684-.77-.32-1.6-.744-2.512-.972 1.246-.667 2.703-1.623 4.37-2.869.579.302 1.028.504 1.35.605.793.247 1.564.55 2.396.615l3.227.246.79.06c.086.008.21.028.33.04.386.282.83.522 1.223.777.923.591 1.83 1.28 2.797 1.794.995.53 2.309.669 3.394.945.902.23 1.94.643 2.877.544.071-.007.143-.021.213-.03.91.568 1.77.767 2.68 1.336zm-18.44 9.789c1.402.132 4.572.538 5.97.642-.018 1.388.017 3.272 0 4.661-.773-.362-3.38-1.03-4.153-1.392-.607-1.152-1.21-2.759-1.817-3.911zm-1.82-36.356c.033-.014.066-.025.099-.038l-.1.038zm3.533-1.124c.062.023.137.03.209.043-.069-.007-.14-.018-.21-.043zm.388.008c.557-.173.266.046-.126.035zm28.961-.63c-1.234-.09-2.492-.27-3.73-.278-1.31-.009-2.645.185-3.95.279-.317.022-.635.044-.953.069-.02.002-.04 0-.06.002l.039.005c-.025-.004-.05-.002-.075-.005-.043 0-.083-.003-.12-.007-.434-.039-.889-.02-1.316-.033-1.137-.032-2.276-.04-3.412-.1-2.251-.122-4.502-.336-6.75-.51-2.456-.193-4.907-.325-7.369-.444-1.112-.053-2.094.307-3.155.612-1.076.309-2.17.581-3.223.959-1.302.466-2.599.947-3.894 1.427l-.202.076c-.04.014-.077.025-.147.047-.755.245-1.508.492-2.262.738-.956.312-1.919.59-2.832 1.01-.641.295-1.28.59-1.922.884-.494.227-1.214.42-1.663.754-.226.052-.45.12-.675.179l-2.494.656c-.957.252-1.85.561-2.77.923-1.148.451-2.396.815-3.48 1.408-1.1.604-2.158 1.309-3.231 1.96-1.845 1.12-3.86 1.964-5.682 3.11-.957.602-1.76 1.557-2.588 2.32-.695.641-1.414 1.248-2.011 1.985-.903 1.113-1.828 2.21-2.71 3.34-.042.056-.158.189-.206.245-.055.057-.11.114-.167.17-.508.521-1.018 1.043-1.528 1.563-1.696 1.736-3.318 3.528-4.945 5.329-1.531 1.695-2.827 3.568-4.188 5.401-.238.32-.493.568-.508.977-.016.46.167 1.001.241 1.452.199 1.183.25 2.54.616 3.683.361 1.138 1.094 2.255 1.615 3.327.4.825.806 1.545 1.322 2.302l1.264 1.853c.27.396.522.934.866 1.271.857.84 2.188 1.421 3.19 2.068.772.498 1.501.906 2.33 1.302 1.1.526 2.315 1.377 3.511 1.637 1.218.266 2.707-.002 3.942-.02.86-.013 1.711-.04 2.57-.086l3.6-.198c.665-.036 1.817-.244 2.054-1.02.818-2.678 1.637-5.354 2.471-8.027.211-.675.383-1.385.638-2.046.037-.054.075-.109.116-.158.254-.305.476-.646.71-.966.802-1.09 1.567-2.217 2.418-3.269.828-1.023 1.688-2.022 2.544-3.024 1.741.127 3.481.254 5.218.432l2.211.225.87.09.018.001c.005.005.006.007.022.012 1.187.474 2.67.572 3.92.84.85.182 1.717.287 2.587.37l2.254 4.272c.096.184.192.368.29.552.172.322.383.395.686.537l2.636 1.234 2.099.983c.497.232 1.074.175 1.578-.001.345-.121 1.067-.462 1.072-.92l.074-5.835c2.41.083 4.774.29 7.181.532.53.054 2.29-.392 2.056-1.23l-.926-3.317c-.227-.816-.294-1.657-.936-2.233l-1.868-1.673.389-.052 3.765-.525c.701-.098 1.376-.216 2.001-.593.32-.194.631-.41.945-.613 1.027-.664 2.054-1.33 3.08-1.995.132-.083.538-.394.255-.57l-2.286-1.426.136-.023c.543-.083 1.2-.108 1.695-.35.48-.233.934-.618 1.372-.916l3.187-2.175c.515-.35.748-1.204.14-1.598-4.103-2.66-8.238-5.186-12.496-7.571.07-.03.14-.057.208-.092 1.224-.602 2.448-1.206 3.67-1.809 2.671.143 5.281.23 7.963.152.724-.02 1.57.046 2.275-.143.738-.198 1.336-.746 1.943-1.183l2.316-1.67c.42-.304.859-.568 1.144-1.006.923-1.418 1.68-2.97 2.513-4.444.346-.609-.295-.817-.8-.862-2.098-.185-4.195-.38-6.296-.539z" fill="#000"/><path d="m75.487 59.158c-.39-.055-.324-.022-.157-.007.04.004.08.002.12.007zm-72.484 34.445c.003.007.002.015.005.021-.001-.008.002-.016 0-.026zm68.563-11.993c.008-.002.012-.006.019-.008l-.033.004z" fill="#000"/><path d="m102.957 56.219.027-.014c-.151.027-.27.07-.353.113.11-.039.219-.073.326-.099" fill="#231f20"/></g><path d="m78.747 26.878c-1.136.56-1.135 1.531-1.444 2.67-.373 1.386-.75 2.77-1.123 4.156-.028.1-.237.641-.257.849-.102.095-.2.194-.297.286l-3.078 2.872-1.223 1.141c-.21.198-.78.614-.276.318-2.088 1.223-4.234 2.356-6.348 3.533-.323.18-.765.51-.489.894l4.768 6.636c.201.279.398.65.639.919-.133.191-.173.667-.228.878l-.704 2.67-2.36-.32c-.567-.076-1.255-.27-1.849-.269-.125-.177-.403-.357-.54-.486l-4.002-3.764c-.164-.155-.357-.304-.506-.476-.01-.027-.018-.056-.03-.096-.204-.645-.404-1.293-.606-1.939-.507-1.626-1.014-3.252-1.523-4.879-.016-.054-.044-.102-.08-.144l1.339-2.107c.461-.726 2.57-1.543 2.96-1.732.942-.456 1.88-.92 2.822-1.38.99-.484 2.006-.933 2.977-1.457.608-.327.999-.852 1.452-1.363l2.559-2.892c.424-.477.924-.935 1.235-1.494 1.06-1.91 1.846-4.023 2.756-6.008.267-.58-1.456-1.342-1.7-1.31-.587.078-1.995.34-2.266.929l-1.739 3.79c-.309.674-.639 1.342-.929 2.024-.022.054-.047.1-.067.134-.1.122-.21.238-.314.356l-3.441 3.887c-.13.146-.284.297-.411.455-.523.164-1.079.548-1.552.78l-3.485 1.706c-1.247-.033-1.929-.067-3.176-.099-.517-.013-.677-.014-1.279-.032l.466-5.739c.028-.319.053-.639.079-.958.046-.568-.656-.698-1.094-.641-.44.056-1.77.275-1.818.845l-.543 6.66-.016.207c-.178.101-.345.222-.496.372-.903.902-1.682 1.978-2.508 2.95l-3.73 4.387c-.592.698-1.033 1.068-1.132 1.975-.204 1.832-.406 3.663-.608 5.495-.306 2.773-1.37 5.418-2.186 8.08-.08.258-.158.518-.24.776-.007.026.176-.228-.05.08-.496.677-.943 1.395-1.413 2.089l-2.642 3.904-4.362 1.78.556-3.633c.18-1.185.44-2.378.47-3.578l.152-5.927.028-1.084c.002-.105.018-.296.018-.335.066-.599.15-1.196.225-1.794l.718-5.739c.017-.125.164-3.479.274-5.064.015-.228.03-.456.047-.684.013-.19-.457-.25-.534-.257-.346-.034-.756.031-1.086.126-.442.126-1.3.362-1.338.923l-.327 4.755-.032.473-4.637 2.94c-.403.255-.814.502-1.211.767-.052.035-.125.073-.194.115-.853.103-1.853.648-2.647.92-1.181.405-3.14.76-5.874 1.064-.2.493-.39.82-.57.979-.82.721-1.485 1.216-1.998 1.483l-1.874.98c.066-.013-2.195.672-2.88.87-.708.202-1.414.407-2.12.611l-4.335-2.784c1.962-1.337 3.938-2.657 5.877-4.024 1.089-.766 2.156-1.563 3.233-2.344l2.19-1.589c.232-.167.465-.335.697-.505l.224-.162.133-.086c.273-.166.545-.336.818-.505l2.31-1.43c1.135-.701 2.296-1.374 3.41-2.109 1.104-.727 2.076-1.72 3.078-2.579 1.087-.93 2.161-1.875 3.261-2.79 3.967-3.292 9.185-8.15 9.347-8.297.787-.71 6.33-7.415 7.46-8.68 1.749-1.958 3.776-3.706 5.659-5.534.622-.605 1.104-1.29 1.63-1.984 1.088-1.444 2.782-3.134 3.87-4.578 1.579-2.092 4.15-6.021 4.151-6.025 1.96.236 4.953.918 6.902 1.215.033.01.068.022.114.041.256.108.525.192.787.287.804.293 1.61.586 2.413.88 1.253.456 2.535.866 3.768 1.37.012.011.012.011.029.023.206.151.414.3.621.45.652.47 1.303.94 1.953 1.411 1.166.844 2.356 1.663 3.503 2.533.05.037.061.037.056.024.12.153.214.339.32.501.428.676.858 1.351 1.288 2.027.772 1.214 1.804 2.456 2.398 3.768.442.976.426 2.363.588 3.42.202 1.293.4 2.587.6 3.88-1.742.793-3.487 1.585-5.232 2.377-.725.329-1.464.638-2.179.99zm-2.806 7.659c.086-.153.444-.351.15-.134-.052.04-.1.088-.15.134zm-15.948 23.952c.033.042.337.44.379.396.073.407-.232 1.192-.301 1.571l-.24 1.306c-2.233-2.295-3.685-3.782-4.354-4.462-.795-.808-1.706-1.582-2.394-2.484-1.037-1.36-1.945-2.84-2.91-4.25l-.595-.867c-.027-.04-.063-.108-.104-.172.04-.42.044-1.301.05-1.39.105-1.74 1.592-5.133 1.643-5.193l1.832-2.137 3.212-.597c-.64.745-1.301 1.657-1.985 2.734-.287.45-.567.757-.585 1.28-.039 1.058.113 2.157.167 3.215.055 1.03-.039 2.204.169 3.216.087.423.34.658.626 1.018l4.47 5.655c.308.387.614.774.92 1.161zm-5.42 6.17-.347 1.771-1.227-.571c-.293-.137-1.095-.56-2.408-1.272-.824-.484-1.302-.788-1.437-.913-.664-.615-1.52-1.417-1.868-1.76l-2.617-2.575c.276-.958.555-2.677.84-3.603.296-.967.946-3.398 1.028-4.16.056.138 1.574 2.34 2.249 3.327.927 1.353 1.811 2.136 2.952 3.297l2.743 2.787c.314.32.615.702.965.981.01.01-.17.359-.26.658l-.614 2.033zm-35-10.365c.28-.155.081-.029-.053.028zm68.638-37.438c-.062-.402-.06-.917-.202-1.302-.111-.303-.377-.6-.55-.87l-1.364-2.143c-.732-1.152-1.391-2.444-2.237-3.516-.646-.822-1.819-1.412-2.664-2.024-1.21-.875-2.394-1.832-3.652-2.64-.833-.536-1.921-.776-2.847-1.113-1.49-.544-2.973-1.127-4.478-1.631-1.09-.367-2.326-.386-3.461-.53-1.544-.197-3.086-.396-4.63-.592-.701-.09-1.83.146-2.288.75-1.635 2.153-3.273 4.306-4.905 6.461-1.63 2.153-3.149 4.446-4.9 6.5-1.718 2.01-3.861 3.732-5.741 5.595-1.887 1.869-3.56 3.996-5.32 5.987l-.286.325c-.018.015-.027.025-.053.046-.513.431-1.008.886-1.512 1.328l-3.996 3.505c-1.97 1.728-4.08 3.31-6.125 4.949-2.046 1.641-4.005 3.394-6 5.1-.18.155-.399.305-.562.48l-.039.047c-.425.265-.852.527-1.278.791l-4.586 2.836c-2.27 1.405-4.38 3.076-6.54 4.641-2.126 1.542-4.316 2.993-6.484 4.475l-1.019.697c-.168.115-.511.526-.216.715l3.109 1.999c1.19.765 2.288 1.859 3.779 1.507 1.211-.284 2.644-.168 3.84-.513 1.112-.321 2.113-1.075 3.155-1.597 1.236-.62 2.45-1.28 3.675-1.919.557-.29 1.12-.57 1.672-.872.127-.031.257-.09.377-.132l4.35-1.491c1.03-.353 2.2-.608 3.165-1.13 1.44-.778 2.83-1.69 4.21-2.61-.319 2.173-.67 4.363-.725 6.538l-.154 5.983c-.008.336-.018.673-.025 1.01-.007.312-.017.226-.01.176-.088.673-.205 1.344-.308 2.016l-.87 5.706c-.136.885 1.656.44 2.027.289l3.988-1.628 2.517-1.026c.511-.21 1.124-.393 1.497-.814.952-1.073 1.676-2.477 2.479-3.663.472-.697 1.07-1.415 1.542-2.165l1.029 1.012c.874.86 1.724 1.936 2.72 2.66.946.688 2.253 1.086 3.309 1.58l3.397 1.583c.867.403 2.343.075 2.647-.934l1-3.317c.363-.1.706-.237.897-.336l3.152-1.632c.333-.172.818-.326 1.006-.659.254-.45.244-1.328.335-1.825.067-.361.28-.884.23-1.243-.036-.256-.19-.395-.37-.621l-2.334-2.952c-.51-.647-1.022-1.294-1.534-1.94.594.543 1.19 1.081 1.772 1.629.324.304.658.733 1.035.972.456.29 1.172.274 1.69.344l5.364.723c.643.087 2.19-.152 2.397-.94.356-1.353.711-2.704 1.068-4.055.112-.424.31-.826.14-1.228-.133-.311-.45-.627-.646-.898l-4.575-6.368 3.298-1.835c1.037-.578 2.146-1.067 3.018-1.88l1.234-1.153 2.952-2.755c.337-.314.862-.68 1.07-1.1.239-.486.31-1.153.452-1.673.455-1.678.91-3.357 1.363-5.035l7.582-3.444c.326-.147.996-.43.923-.9l-.573-3.707-.403-2.605z" fill="#000" mask="url(#a)" transform="translate(90.18 9.373)"/></g></svg>