<svg height="125" viewBox="0 0 121 125" width="121" xmlns="http://www.w3.org/2000/svg" xmlns:xlink="http://www.w3.org/1999/xlink"><mask id="a" fill="#fff"><path d="m0 .511h115.671v71.406h-115.671z" fill="#fff" fill-rule="evenodd"/></mask><g fill="none" fill-rule="evenodd"><path d="m0 0h120v125h-120z" transform="translate(.999)"/><path d="m109.769 56.598 4.451 9.233-4.205 7.92-4.243 8.245-5.424 7.686-8.232 4.756-6.843 6.312-8.582 3.681-7.474 5.787-9.182 2.257-8.448 4.197-9.417.648-9.131 1.827-9.405.821-9.095-2.543-8.599-2.924-4.497-9.281 3.338-8.547 5.733-7.229 5.823-7.265 7.689-5.212 7.45-5.482 8.542-3.604 8.293-3.944 8.698-2.979 8.246-4.324 9.269-.93 8.983-1.598 9.066-1.278 9.356-.704z" fill="#c58fff" transform="translate(1 2.782)"/><path d="m107.969 25.493c-.915 1.778-1.713 3.716-2.805 5.393-1.431 2.2-3.04 4.306-4.554 6.452-.213.303-1.276.593-1.455.918l-.007.018c-.034.012-.072.026-.128.054-1.06.506-2.068 1.195-3.084 1.781l-3.742 2.163c-.478.276-.959.514-1.372.875-1.982 1.735-3.88 3.578-5.815 5.364-.41.379-.704.692-1.208.907-1.2.515-2.4 1.029-3.599 1.545l-3.804 1.63c-.485.21-.817.371-1.229.69l-6.45 4.993c-.055.042-.279.238-.4.35l-.013.005c-.204.036-.408.1-.61.15l-3.991.98c-1.821.449-3.76.723-5.447 1.562l-7.19 3.572c-.094.046-.196.09-.292.14-.278-.05-.716.06-.974.078l-4.24.292c-1.783.122-3.552.17-5.304.52-2.564.513-5.124 1.09-7.7 1.54-2 .352-4.095.386-6.116.562-1.103.096-2.235.125-3.33.29-.018-.011-.029-.02-.057-.033-.41-.186-.923-.258-1.356-.378-2.455-.687-4.945-1.597-7.448-2.083-.002 0 .002.002.001.002l-.021-.008c-.527-.18-1.056-.359-1.585-.538l-4.297-1.462-1.684-.572c-1.185-2.442-2.368-4.885-3.552-7.328.716-1.829 1.43-3.66 2.145-5.489.283-.722.684-1.486.895-2.245.063-.049.144-.187.182-.237.32-.401.637-.802.955-1.204 2.616-3.297 5.234-6.59 7.866-9.874l2.197-2.741c.045-.055.104-.118.156-.182.23-.123.457-.325.662-.464 2.093-1.418 4.187-2.836 6.278-4.255 1.299-.88 2.545-1.836 3.808-2.765l3.253-2.395c.39-.286.762-.608 1.193-.823 2.137-1.066 4.445-1.876 6.644-2.803 1.348-.568 2.661-1.172 3.983-1.801 1.312-.625 2.625-1.25 3.939-1.874.677-.322 1.46-.59 2.093-.996-.546.35-.015.014.26-.08l1.461-.5 4.124-1.414c1.46-.5 2.817-.967 4.179-1.68 2.207-1.158 4.463-2.253 6.634-3.478.023-.013.05-.028.074-.039.236.074.722-.077.961-.101l4.057-.407c1.577-.159 3.179-.244 4.741-.522 4.046-.72 8.079-1.45 12.147-2.024 1.808-.253 3.62-.577 5.436-.756 2.373-.235 4.763-.359 7.14-.537l1.638-.124 6.721 3.836c1.19 2.469 3.177 4.95 4.367 7.417-1.791 3.37-3.585 6.738-5.331 10.133m-57.2 39.545c-.04.02-.083.039-.118.063-.204.14-.034-.043.117-.063m64.76-49.255c-.346-.87-.823-1.707-1.23-2.55l-3.196-6.63c-.122-.313-.304-.602-.53-.854-.254-.321-.567-.598-.925-.724l-6.639-3.79c-.732-.418-1.26-.772-2.132-.719-1.355.082-2.71.204-4.065.306-4.707.354-9.356.91-14.023 1.65-2.463.39-4.915.874-7.37 1.311-1.98.353-3.965.523-5.967.724l-4.379.44c-.704.071-1.195.344-1.818.672l-4.126 2.162c-.681.357-1.361.714-2.043 1.07-.294.156-.844.316-1.07.562v.003l-.314.106-1.79.614-4.682 1.604c-1.94.665-3.73 1.52-5.586 2.404-1.88.894-3.743 1.83-5.66 2.639l-4.362 1.84c-1.032.435-2.171.792-3.154 1.33-.69.38-1.32.958-1.953 1.424l-3.904 2.873c-1.585 1.166-3.204 2.266-4.834 3.37-1.742 1.182-3.884 2.22-5.216 3.881-1.742 2.174-3.487 4.345-5.227 6.52-1.45 1.814-2.886 3.638-4.327 5.457-.56.707-1.318 1.424-1.677 2.261-.421.985-.781 1.999-1.17 2.996l-1.721 4.405c-.38.974-.662 1.622-.191 2.68 1.169 2.62 2.508 5.175 3.76 7.756.485 1.001.929 2.301 2.007 2.77 1.078.47 2.266.771 3.38 1.15 2.09.711 4.17 1.496 6.298 2.09 2.693.753 5.398 1.701 8.134 2.274.713.15 1.518-.028 2.236-.09l4.825-.421c1.979-.172 3.803-.435 5.75-.825 2.173-.434 4.417-1.108 6.63-1.278 2.817-.217 5.64-.388 8.46-.583.7-.048 1.177-.29 1.804-.602l4.207-2.09c1.01-.501 2.27-.921 3.194-1.58.094-.022.189-.053.273-.073.591-.146 1.182-.29 1.774-.437l4.757-1.169c.792-.195 1.838-.276 2.56-.684.934-.527 1.79-1.384 2.634-2.04l3.816-2.952c1.603-1.241 3.519-1.855 5.38-2.652 1.286-.552 2.584-1.081 3.86-1.656.574-.258.973-.73 1.437-1.157l3.598-3.32c.7-.645 1.379-1.417 2.148-1.982.75-.55 1.661-.96 2.467-1.425l4.182-2.416c.634-.366 1.436-.678 1.904-1.26.767-.954 1.426-2.02 2.132-3.02 1.206-1.708 2.607-3.372 3.567-5.236 1.269-2.467 2.53-4.939 3.808-7.402 1.075-2.071 2.187-4.123 3.28-6.184.576-1.083 1.523-2.278 1.02-3.542" fill="#000" mask="url(#a)" transform="translate(1 52.623)"/><g transform="translate(1 2.834)"><path d="m106.997 53.752c-1.493 2.924-2.806 6.036-4.6 8.788-1.292 1.981-5.691 8.183-6.303 8.877-.876.996-1.754 1.992-2.63 2.99-.454.514-4.337 4.017-5.44 4.68-1.164.697-2.611 1.291-3.553 2.29l-4.808 5.106c-.296.314-2.373 1.683-2.959 1.899-2.146.793-3.974 2.19-6.099 3.04-1.444.579-2.772 1.66-4.08 2.487l-3.057 1.93c-.31.197-.627.386-.932.59-.04.026-.059.04-.082.056-1.97.906-3.876 1.987-5.805 2.975-1.207.618-2.204 1.175-3.515 1.461-3.64.79-7.276 1.557-10.889 2.464-1.994.502-3.99 1.105-6.008 1.509-1.7.34-3.476.462-5.195.689-3.82.502-6.677.637-10.452 1.43-.503.104-1.413-.144-1.917-.038l-7.283-1.528c-2.04-.429-3.892-1.37-5.814-2.177l-3.472-1.459c-.794-.333-1.748 1.299-1.604 2.044.184.947 1.036 1.711 1.882 2.067l6.594 2.771c1.63.684 3.232.977 4.972 1.343l4.266.895c.678.142 1.4.38 2.086.258 2.539-.455 5.058-1.063 7.582-1.593 1.686-.353 3.385-.548 5.095-.773 1.923-.253 3.94-.351 5.824-.824 4.278-1.074 8.545-2.141 12.855-3.079 1.323-.288 2.649-.575 3.973-.864.515-.112.86-.208 1.322-.445l7.131-3.653c1.716-.88 3.31-1.995 4.938-3.024l3.279-2.071c.273-.173.641-.249.183-.131.332-.086.661-.245.982-.363 2.464-.911 4.963-1.755 7.4-2.735.587-.236.872-.58 1.307-1.042l2.93-3.11c1.206-1.28 2.243-2.603 3.748-3.506l3.762-2.259c.976-.585 2.042-1.115 2.966-1.78.45-.324.79-.811 1.157-1.228l2.93-3.33c1.17-1.327 2.244-2.58 3.206-4.057 1.348-2.066 2.807-4.09 4.055-6.217 1.095-1.865 1.987-3.88 2.971-5.806l1.138-2.228c.652-1.276-3.263-4.834-4.037-3.32" fill="#000"/><path d="m59.09 77.672-13.47-3.562c-.82-.217-2.066-.241-2.537.635-.44.817.393 1.662 1.145 1.861l10.834 2.866c-2.276 1.931-4.545 3.876-6.886 5.726-3.241 2.56-6.5 5.094-9.669 7.743l-5.737 4.8c-.733.613-.22 1.573.454 1.962.819.475 2 .489 2.745-.135 2.849-2.383 5.652-4.835 8.566-7.138 3.227-2.55 6.481-5.068 9.634-7.71 1.942-1.63 3.885-3.257 5.827-4.885.921-.773-.049-1.935-.905-2.162" fill="#000"/><path d="m41.964 17.213-3.337-4.616-1.724-5.37 2.235-3.627 3.931-2.101 4.182 1.949 2.23 5.931-1.21 6.308 5.772-.946 5.608-1.308 4.831 1.121 4.936.736 3.368 3.158 3.373 3.062 3.482 2.584 3.891 2.077-4.192 2.157-3.821-.744-2.153-2.229-4.574-2.193-4.31-1.652h-4.831l-4.634 1.652-.787 5.068 1.377 5.599 3.307 4.541 4.899 1.792 5.032 1.604 3.837 3.381.222 4.537.618 4.53.137 4.573.568 4.607 4.363 1.862 3.575 4.938-4.1.155-4.414-.638-4.476-4.643-.451-5.157-1.059-4.948-.383-5.089-4.69-1.447-4.519-1.731-4.908-.306-4.737 3.448-3.793 4.357-3.149 4.73-.984 4.692-1.362 4.651-1.067 4.721-.868 4.73-.341 6.716-2.792 2.529-2.711 3.428-2.37-6.545 4.274-5.714-.143-5.641-.263-5.525 1.14-5.444.433-5.504 2.712-4.712 3.547-4.133 2.093-4.91-1.332-4.954-.909-5.059-.059-4.862-4.86 2.199-4.788 2.663-4.278 4.777-4.574 4.44-6.422 2.412-1.67-2.918 6.462-4.059 3.278-4.285 3.261-4.25 3.288-4.299 4.539-2.951 3.64-2.143z" fill="#a9ff03"/><path d="m54.26 14.042.01-.002c-.171.004-.285.026-.316.042.101-.019.202-.034.299-.038.003 0 .005 0 .008-.002" fill="#000"/><path d="m76.892 27.734c-.36-.315-.678-.704-1.006-1.046-.517-.535-.91-1.034-1.575-1.353l-3.328-1.595c-1.554-.746-3.064-1.582-4.587-2.387-.759-.4-1.404-.412-2.246-.357-1.162.076-2.325.151-3.486.228-2.039.134-3.806.845-5.742 1.451-.34.107-.677.556-.747 1.052-.152 1.092-.38 1.542-.532 2.636-.114.806-.403 1.75-.324 2.563.112 1.151.58 2.355.856 3.478.186.755.27 1.644.688 2.301.695 1.09 1.54 2.113 2.301 3.158.489.67.758 1.231 1.536 1.517 1.894.693 2.989 1.256 4.91 1.869 1.226.39 2.459.764 3.679 1.173.121.103.24.213.362.319l1.573 1.387 1.427 1.256c.097.085.238.182.332.287.002.031.01.096-.006.187-.09.525.059 1.192.084 1.727l.103 2.087c.086 1.764.553 3.495.648 5.257.113 2.098.109 4.154.366 6.24.091.743.185 1.487.275 2.231.057.455.091.542.516.76 1.218.625 2.552 1.09 3.81 1.627.068.029.139.057.208.088.068.09.149.185.204.284.338.597.832 1.148 1.233 1.702l1.229 1.697-.072.002c-.165.007-.332.012-.497.02-.356-.208-1.139-.163-1.55-.223l-2.02-.293c-.194-.028-2.123-.212-2.304-.401-.519-.538-1.252-1.364-1.77-1.902-.454-.47-1.022-1.07-1.476-1.54-.194-.2-.591-3.011-.655-3.744-.174-1.998-.574-3.868-.996-5.833-.435-2.034-.465-4.134-.622-6.207-.06-.135-.167-.216-.316-.244-1.702-.526-2.143-.997-3.806-1.634l-3.554-1.36c-.724-.278-1.398-.294-2.174-.343-1.17-.073-2.342-.176-3.514-.219-1.5-.056-2.466.629-3.582 1.44-1.578 1.149-3.29 2.17-4.575 3.646-1.312 1.508-2.7 2.952-3.81 4.617l-2.16 3.245c-.41.616-.503 1.041-.657 1.782-.851 4.06-2.064 8.008-2.978 12.055-.428 1.892-.9 3.858-1.08 5.786-.2 2.134-.226 4.297-.328 6.44-.9.802-1.89 1.57-2.694 2.461-.098.108-.19.224-.286.335l-1.468-4.056c-.05.124 1.386-3.314 2.708-5.082.185-.247.205-1.47.197-1.8l-.103-4.054c-.025-.992.278-6.215.278-6.215s1.819-4.414 1.901-4.961c.138-.91.154-1.851.227-2.769l.159-2.013c.019-.24.03-.48.057-.72.025-.24.065-.162.016-.067.523-1.02 1.15-1.998 1.722-2.991.274-.476.563-.947.823-1.43.014-.029.032-.056.048-.084.02-.007.185-.222.23-.291.723-1.095 1.509-2.456 2.982-4.644l1.578-3.698c.346-.814.163-1.203-.07-2.069-.641-2.385-1.065-4.698-1.5-7.128-.386-2.148.266-4.26.239-6.443-.009-.796-2.506.629-2.77.749-2.997 1.356-5.403 2.763-8.364 4.194-.547.265-1.17.49-1.59.941-.566.605-1.054 1.308-1.574 1.952-.895 1.112-1.728 2.324-2.754 3.32l-3.874 3.76c-1.297.487-4.259 1.201-5.555 1.688-.371-.65-1.266-1.91-1.637-2.559 2.093-.888 5.738-2.567 7.579-3.952.976-.734 1.692-2.083 2.427-3.045.594-.777 1.188-1.553 1.782-2.327 1.641-2.139 3.28-4.277 4.917-6.418.288-.378.614-.751.881-1.149.034-.028.073-.06.135-.1.298-.184.589-.382.883-.573 1.12-.728 2.228-1.482 3.363-2.186 1.11-.687 2.245-1.346 3.38-1.99-.023.02.198-.092.407-.194l1.246-.61 1.44-.703c.37-.145.698-.326.902-.52.045-.04.082-.08.116-.123.085-.106.134-.217.103-.321-.009-.053-.03-.104-.067-.156-.847-1.17-1.692-2.34-2.538-3.511-.19-.264-.383-.526-.573-.791-.05-.072-.138-.248-.164-.291-.192-.505-.332-1.042-.496-1.555l-.857-2.67c-.087-.272-.155-.56-.264-.821-.017-.042-.03-.07-.042-.091.004-.003.008-.006.012-.016.258-.677.838-1.36 1.217-1.976.258-.42.516-.839.777-1.259l1.895-1.014 3.626.691 2.056 2.559.113 2.478.274 2.032-.274 3.038-.427 1.338c.258.985.491 1.46.701 1.426 1.922-.316 3.218-.358 5.13-.723 1.706-.326 3.398-.761 5.088-1.172 1.539.374 3.081.796 4.64 1.044 1.109.176 2.221.332 3.333.498.354.053.713.122 1.072.167.084.105.306.261.355.308 2.79 2.615 5.528 5.237 8.601 7.516.947.703 2.73 1.553 5.35 2.55l-2.78 1.859-1.827-.356-.683-.131zm.155 38.167c.223.114.019.056-.054-.023zm4.356-42.334c-1.134-.675-2.169-1.577-3.228-2.363-1.952-1.447-3.686-3.277-5.46-4.94-.516-.484-1.03-1.12-1.617-1.516-.387-.263-.966-.272-1.426-.34l-2.663-.399c-.366-.053-.732-.11-1.098-.163l-.102-.015c-1.472-.41-2.991-.71-4.48-1.04-1.388-.306-2.998.302-4.36.62-.9.21-1.8.417-2.7.63l.02-.002c-.012 0-.024.004-.036.004-.255.06-.335.056-.298.04-.164.028-.326.065-.48.09-1.124.184-2.25.37-3.374.552.22-1.14.438-2.283.658-3.426.185-.968.595-1.968.242-2.907l-1.768-4.702c-.169-.448-.202-.721-.618-.964-.588-.346-1.262-.588-1.88-.877-.687-.32-1.375-.702-2.084-.97-.896-.34-1.916-.01-2.74.407-1.267.637-2.553 1.298-3.776 2.017-.665.39-.929.955-1.323 1.593l-1.35 2.192c-.58.944.272 2.307.585 3.284.406 1.261.675 2.427 1.447 3.496.847 1.17 1.694 2.34 2.54 3.513-2.057 1.03-4.05 2.104-6.042 3.277-.896.527-1.758 1.107-2.629 1.673-.926.6-2.148 1.15-2.876 1.996-1.64 1.904-3.08 4.027-4.611 6.023-1.62 2.11-3.333 4.18-4.865 6.352-.096.135-.154.194-.173.213l-.324.202-2.222 1.396c-1.244.78-2.487 1.562-3.73 2.343-.09.056-.496.376-.388.566l1.67 2.918c.374.652 1.848.187 2.332.006 2.05-.771 4.112-1.52 6.155-2.312.91-.353 1.445-.875 2.125-1.535l2.979-2.891c1.42-1.38 2.582-3.02 3.823-4.559.203-.253.628-.62.779-.937.05-.03.095-.056.136-.075l3.64-1.76c.976-.471 1.96-.922 2.947-1.366-.018 1.306-.066 2.637.086 3.912.2 1.684.529 3.443.927 5.092.256 1.065.57 2.117.853 3.175.117.431.198.9.355 1.319.022.053.044.122.061.192-.013.04-.034.146-.079.23-.525.993-.896 2.101-1.336 3.134-.175.411-.392.824-.532 1.248-.029.088-.037.131-.04.159-.024.017-.06.048-.126.12-.758.83-1.467 1.709-2.198 2.562-.448.521-.953 1.024-1.326 1.603-.544.844-1.009 1.752-1.51 2.623-.386.673-1.021 1.44-1.18 2.199-.365 1.741-.198 3.618-.423 5.387.001-.073-.093.417-.123.554l-.36 1.729c-.208.99-.48 1.992-.628 2.996-.113.77.023 1.601.06 2.376.054 1.125-.296 2.161-.253 3.288.07 1.842-.268 3.294-.244 5.114-.84 1.271-2.793 5.095-3.318 6.015-.246.432-.03.706.134 1.161.266.735.532 1.47.799 2.203.427 1.184.856 2.367 1.285 3.55.33.91 2.9-.065 3.282-.55.949-1.2 1.824-2.572 2.932-3.627.765-.73 1.59-1.397 2.352-2.131.45-.436.387-.87.418-1.478.097-1.925.102-3.881.293-5.8-.037.369.087-.397.112-.533l.323-1.757c.14-.76.264-1.522.418-2.279.328-1.6.67-3.22 1.09-4.798.421-1.58.994-3.125 1.37-4.716.243-1.034.436-2.083.654-3.121.12-.572.166-1.156.457-1.659.52-.897 1.16-1.743 1.735-2.606l.84-1.262c.09-.134.617-.82.287-.437.668-.777 1.346-1.546 2.019-2.32.407-.467.815-.934 1.22-1.402.129-.148.835-.85.319-.437 1.188-.95 2.45-1.823 3.697-2.706l2.67.167c.225.015.452.037.677.043.023.013.048.025.088.045.677.324 1.425.545 2.126.814 2.156.826 4.341 1.5 6.547 2.18.101 1.794-.368 3.726.007 5.478.436 2.04.918 4.026 1.1 6.1l.181 2.073c.036.412-.032 1.035.123 1.416.277.679 1.241 1.358 1.737 1.871.88.913 2.192 1.858 3.136 2.704.595.534 1.75.495 2.517.607 1.112.16 2.221.4 3.346.363 1.24-.04 2.482-.094 3.722-.141.482-.018 2.928-.55 2.339-1.365l-1.504-2.076c-.632-.873-1.217-1.97-1.978-2.733-.468-.468-1.357-.676-1.961-.934l-2.406-1.027c-.19-1.506-.449-3.022-.554-4.534-.111-1.587.007-3.199-.17-4.78-.182-1.63-.532-3.246-.612-4.883l-.164-3.332c-.035-.719-.223-.826-.76-1.3l-2.584-2.276c-.459-.404-.761-.626-1.34-.811-1.579-.504-3.179-.968-4.741-1.522-.992-.352-1.977-.723-2.964-1.085-.459-.168-.916-.34-1.376-.504-.057-.02-.124-.04-.19-.061-.002-.016-.006-.036-.027-.078-.405-.842-1.196-1.64-1.747-2.396-.43-.59-1.051-1.23-1.398-1.893.024.003-.042-.238-.048-.278-.029-.198-.098-.397-.145-.591l-.473-1.925c-.222-.901-.542-1.832-.679-2.752 0-.025-.001-.05.002-.078.023-.21.058-.42.088-.628l.26-1.859.345-2.462c.25-.08.501-.158.752-.236l1.582-.495c.101-.032.336-.094.521-.146l.211-.019 1.613-.105 1.876-.123c2.624 1.381 5.252 2.715 7.928 3.998.527.253.765.448 1.176.875.511.528 1.115 1.465 1.808 1.75.647.266 1.51.295 2.195.428.983.191 1.957.486 2.958.271 1.028-.22 1.984-.833 2.91-1.31l2.357-1.213c.15-.078 1.074-.65.605-.9-1.243-.664-2.53-1.278-3.741-1.998z" fill="#000"/><path d="m64.424 76.507-1.666 3.558-3.501 2.27-4.043.971-3.551-.331 1.503-4.225 3.543-2.137 3.954-1.267z" fill="#000"/></g></g></svg>