<svg height="180" viewBox="0 0 140 180" width="140" xmlns="http://www.w3.org/2000/svg" xmlns:xlink="http://www.w3.org/1999/xlink"><mask id="a" fill="#fff"><path d="m0 .862h114.659v83.837h-114.659z" fill="#fff" fill-rule="evenodd"/></mask><g fill="none" fill-rule="evenodd"><path d="m0 0h140v180h-140z"/><path d="m52.043 135.365.022.023c-.005-.007-.007-.014-.013-.02l-.01-.003" fill="#c58fff" transform="translate(11 12)"/><path d="m45.933 45.94c-.6.823-1.408 1.554-2.09 2.308-.319.353-.68.695-.97 1.072-.022.028-.026.04-.04.06-.027.01-.042.014-.077.03-1.02.448-2.006 1-3.004 1.498-.204.102-.737.261-1.007.446l-3.51-.227c-.3-.02-.603-.026-.902-.058l-.019-.006c-.204-.055-.405-.128-.606-.193l-3.368-1.07c-.173-.055-.36-.098-.526-.167l-.015-.006c-.297-.22-.567-.504-.842-.748-.877-.776-1.726-1.602-2.637-2.336-.042-.035-.083-.073-.124-.11 0-.005.001-.004.002-.007.058-.33-.32-1.057-.417-1.375-.315-1.04-.619-2.085-.946-3.122-.036-.117-.055-.142-.063-.142.003-.023.009-.078.009-.204.004-.53.01-1.061.016-1.592.018-1.916.127-3.621.426-5.512.326-2.068.45-4.1.577-6.192.087-1.454.474-2.912.816-4.348 1.771.364 3.542.734 5.315 1.08 1.118.218 2.239.422 3.357.633.687.13 1.374.259 2.06.39.23.043.463.082.692.13.012.004.025.01.05.017 1.29.42 2.584.822 3.874 1.233.094.03.42.186.61.223.158.428.993 1.129 1.23 1.412.648.772 1.392 1.522 1.956 2.357.75 1.11 1.362 2.345 2.036 3.504.111.191.216.4.338.59-.005.031-.014.067-.026.113-.187.685-.174 1.486-.257 2.189-.145 1.23-.288 2.457-.393 3.692-.273.79-.544 1.583-.816 2.376l-.53 1.542c-.054.16-.103.323-.165.48zm67.155-12.045c-.712-1.796-1.417-3.579-2.216-5.338-.457-1.006-.865-2.06-1.38-3.037-.341-.646-.87-1.201-1.32-1.774-2.371-3.009-4.921-5.787-7.718-8.407l-2.022-1.896c-.042-.056-.095-.11-.176-.161-2.03-1.287-4.03-2.608-6.137-3.764-2.552-1.402-5.063-2.576-7.745-3.714-.955-.405-1.894-.846-2.836-1.28-1.07-.497-2.185-1.195-3.34-1.456-2.608-.588-5.22-1.008-7.876-1.262-2.685-.258-5.355-.66-8.038-.916-1.142-.109-2.342.128-3.48.23-1.093.095-2.211.116-3.276.396-1.554.407-3.122.776-4.665 1.225-1.122.326-2.181.998-3.225 1.515-2.333 1.154-4.712 2.254-7.002 3.491-2.08 1.127-4.185 2.367-6.04 3.84-1.126.893-2.37 1.724-3.408 2.722-1.01.97-1.908 2.1-2.85 3.137l-.622.685-5.174.03c-.436.002-.983.317-1.073.765-.3 1.495-.597 2.989-.896 4.483-.072.352-.153.705-.213 1.059-.018.11-.058.273-.062.305-.202.64-.465 1.269-.695 1.9-.423 1.155-.773 2.351-1.357 3.435l-2.001 3.711c-1.325.54-2.649 1.077-3.973 1.617-.575-.064-1.296.181-1.29.735.02 1.715.04 3.428.058 5.143.007.577-.112 1.333.108 1.876.2.494.66.983.955 1.423l2.731 4.075 3.412 3.582-4.492 2.83c-1.738-2.497-2.834-4.086-3.289-4.766-.683-1.02-2.07-.357-2.152.332-.195 1.636-.392 3.273-.583 4.91-.117.987-.23 1.976-.345 2.963l-.193 1.658c-.006.053-.041.185-.054.29-.172.139-.407.46-.493.548-.409.418-.818.835-1.23 1.253-.852.869-1.706 1.737-2.559 2.608-.394.399-1 .832-1.178 1.382-.3.926-.304 2.062-.445 3.023-.27 1.831-.778 3.61-1.22 5.407-.092.37.363.562.637.603 3.963.593 8.013.918 11.938 1.71 1.113.224 2.244.41 3.348.675-.028.002.56.173.7.215l2.13.634c2.116.63 4.215 1.016 6.39 1.412 2.094.381 4.22.586 6.331.851.468.06 1.246-.211 1.32-.763.287-2.136.572-4.272.857-6.408 1.25-.905 2.5-1.81 3.75-2.713 1.544.07 3.09.16 4.634.188.829.014 1.662-.034 2.49-.055l1.73-.045c.31-.008.78.059 1.121-.002.09.028.193.053.212.06.527.21 1.08.372 1.616.558.87.3 1.904.854 2.825.981-.028-.028-.056-.065-.073-.118.013.04.048.081.083.121.02.003.04.01.06.013.26.03.087.112-.047.008.048.051.097.103.124.15.267.452.654.867.968 1.287l1.049 1.392c.239.318.514.892.843 1.12l.006.006c-.005.106-.002.213-.005.314l-.067 1.89c-.037 1.021-.073 2.043-.108 3.065-.01.258.15.497.415.555 1.84.402 3.679.819 5.522 1.206.923.195 1.852.362 2.777.54.897.174 1.858.48 2.77.535.914.053 1.925-.252 2.824-.39.929-.142 1.865-.333 2.799-.425 1.001-.097 2.022-.095 3.027-.14.93-.044 1.999.053 2.892-.25 3.393-1.148 6.76-2.741 10.044-4.171 1.686-.735 3.604-1.35 5.15-2.344 1.552-.998 3.066-2.145 4.525-3.278 1.462-1.134 3.122-2.222 4.402-3.563 1.287-1.35 2.804-2.743 3.803-4.325.974-1.544 2.143-3.083 2.885-4.755.762-1.717 1.596-3.417 2.247-5.18 1.302-3.525 2.752-7.148 3.218-10.898.156-1.256.336-2.511.468-3.77.068-.65-.094-1.236-.219-1.878-.36-1.872-.636-3.661-1.336-5.431z" fill="#c58fff" mask="url(#a)" transform="translate(11 74.756)"/><path d="m94.981 38.773-5.304-.943-4.889-1.565-4.904-1.499-5.071-.889-4.851-1.705-4.948-1.34-4.896-1.528-5.062-.91-.781-5.117-.2-5.194-1.626-4.941-1.149-5.041-2.184-4.749-4.589-2.607-3.82 3.059-2.755 4.208-1.143 4.9-.812 4.948.082 5.01-.134 5.007 1.155 4.888.822 4.912 1.71 4.678 1.998 4.565 2.665 4.255 3.713 3.392 4.474 2.192 4.956 1.705-.179 6.151.763 5.656 2.487-4.556 2.352-5.059.415 5.32-.057 5.36 2.204-3.998 1.908-4.098 2.345-3.856 5.008-.42 4.946-1.102 4.596-2.2 3.823-3.345 2.711-4.228 2.26-4.431z" fill="#5cffe4" transform="translate(11 12)"/><path d="m91.769 43.729c-.012.028-.02.045-.023.056l-.112.221c-.218.423-.432.847-.648 1.27-.452.886-.876 1.794-1.358 2.663-.796 1.43-1.89 2.707-2.648 4.156-.024.048-.04.08-.05.105-.014.01-.028.018-.05.04-.355.305-.702.613-1.054.92-.774.677-1.603 1.321-2.335 2.042-.032.032-.098.076-.157.122-.263.121-.525.262-.778.383l-2.954 1.413c-.103.05-.223.095-.327.154-.266.052-.53.12-.792.18l-3.232.72c-.104.023-.59.103-.652.127-.204.011-.519.033-.601.04l-3.356.28c-.83.07-1.679.123-2.227.847-.572.754-1.01 1.66-1.501 2.47-.908 1.491-1.618 3.058-2.35 4.64-.001-.257.007-.514.002-.77-.034-1.83-.271-3.673-.415-5.499-.076-.996-2.343 0-2.58.514-.765 1.642-1.495 3.305-2.292 4.931.016-.045-.192.35-.265.483l-.158.29-.202-1.493-.08-.598c-.016-.116-.022-.133-.023-.115-.075-1.993.12-4.031.176-6.023.006-.198-.043-.374-.26-.448-1.972-.68-4.012-1.245-5.887-2.163-1.105-.542-2.335-1.009-3.393-1.65.023-.003-.226-.194-.283-.25-.223-.213-.456-.416-.683-.623-.604-.55-1.206-1.103-1.81-1.653-.743-.679-1.14-1.194-1.677-2.052l-1.296-2.071-.451-.72c-.045-.07-.072-.12-.09-.155-.976-2.024-1.833-4.12-2.604-6.23-.367-1.004-.84-2.023-1.097-3.06-.332-1.336-.461-2.76-.689-4.117-.152-.912-.379-1.803-.59-2.702-.18-.754-.358-1.509-.536-2.262-.043-.183-.097-.368-.13-.552-.004-.042-.009-.097-.008-.173.02-2.396.13-4.78.09-7.177-.011-.75-.024-1.496-.036-2.244-.002-.116-.006-.235-.007-.353.016-.046.053-.295.065-.358.266-1.41.444-2.838.697-4.25.216-1.205.538-2.396.817-3.589.093-.397.2-.796.28-1.197.015-.078.11-.374.087-.37.252-.485.64-.953.933-1.402l1.437-2.194.198-.304c.042-.015.296-.264.378-.33l2.218-1.776 1.96 1.114c.484.275.972.625 1.484.843l.048.025c.042.084.088.168.121.254.747 1.955 1.84 3.661 2.309 5.71.478 2.097.977 4.099 1.649 6.14.276.834.68 1.711.818 2.578.187 1.182.095 2.477.141 3.673.084 2.199.504 4.355.835 6.53.031.202.34.314.498.342l4.463.802c.195.035.392.068.587.105-.482-.09.206.064.356.11l2.592.81c1.132.353 2.26.691 3.403 1.001l2.691.73c.215.058.432.115.647.175.043.015.174.056.31.105 1.472.527 2.946 1.11 4.443 1.562 1.387.418 2.905.545 4.33.796 1.188.207 2.301.572 3.457.926.76.231 1.517.463 2.275.696l.026.008.092.03.969.31c1.412.451 2.841 1.04 4.298 1.327 1.436.282 2.883.521 4.327.772-.586 1.462-1.163 2.926-1.76 4.382m-43.879-39.879c-.022-.037-.044-.08-.06-.14.012.047.037.094.06.14m.003.005c.21.106.1.158 0 0m48.224 34.382c-.08-.069-.187-.125-.34-.152l-4.434-.789c-.257-.045-.514-.097-.772-.137l-.058-.007c-.043-.015-.088-.028-.132-.042l-2.43-.778c-2.431-.778-4.891-1.712-7.377-2.274-1.54-.347-3.166-.637-4.733-.83l-.123-.012c-.28-.089-.557-.196-.835-.293l-2.753-.967c-1.131-.398-2.265-.714-3.424-1.028-.837-.227-1.672-.458-2.51-.68l-.324-.086c-.21-.064-.421-.131-.63-.197-1.477-.461-2.962-1.04-4.472-1.376-1.473-.329-2.976-.55-4.465-.807-.285-1.782-.688-3.592-.758-5.392l-.158-4.113c-.03-.779-.323-1.458-.567-2.2-.699-2.12-1.282-4.164-1.778-6.338-.179-.787-.296-1.594-.613-2.335-.528-1.232-1.122-2.44-1.682-3.656-.172-.377-.287-.748-.602-1.012-.333-.278-.813-.461-1.19-.674l-3.399-1.932c-.589-.335-1.595.042-2.063.416-1.042.834-2.081 1.668-3.122 2.5-.787.631-1.209 1.264-1.766 2.116-.63.962-1.546 1.984-1.956 3.067-.473 1.246-.631 2.704-.934 4.002-.457 1.955-.952 4.084-1.01 6.085-.042 1.445.048 2.906.07 4.35.004.143.006.286.008.429l-.004.235c-.023.737-.04 1.474-.06 2.211-.027 1.012-.181 2.09.028 3.086.295 1.407.682 2.794.992 4.198.426 1.93.45 3.994 1.129 5.853.88 2.407 1.789 4.75 2.815 7.096.395.903.78 1.702 1.3 2.534.684 1.091 1.284 2.364 2.101 3.356.892 1.081 2.168 1.984 3.201 2.93.853.779 1.89 1.176 2.928 1.685 2.254 1.103 4.548 1.89 6.918 2.706-.066 1.924-.212 3.867-.163 5.788.05 1.936.502 3.923.76 5.845.118.876 2.235.142 2.492-.328.929-1.702 1.813-3.404 2.672-5.122l.026.321c.01.15.077 1.021.066.665.058 1.777-.038 3.571-.057 5.349-.01 1.05 2.17.432 2.49-.149 1.101-1.996 2.194-3.97 3.156-6.034.305-.654.613-1.306.914-1.96.031-.07.06-.123.083-.167.1-.17.204-.336.307-.504l1.636-2.693c2.048-.167 4.06-.343 6.078-.793 1.166-.26 2.473-.398 3.586-.85 1.292-.525 2.538-1.214 3.796-1.817 1.031-.492 1.767-1.098 2.629-1.852.87-.763 1.95-1.482 2.673-2.392 1.477-1.86 2.635-4.092 3.713-6.205 1.25-2.446 2.258-4.93 3.282-7.481.07-.174-.004-.293-.156-.37" fill="#000" transform="translate(11 12)"/><path d="m11.227 4.402c-.1.169-.196.337-.313.495-.062.085-.137.164-.198.25.037-.053.051-.071.07-.097-.029.037-.062.078-.09.105-.133.12-.273.232-.407.351-.097.06-.19.124-.289.183-.027.017-.075.039-.12.06-.004.011-.039.037-.145.087-.016.011-.04.021-.048.03.007-.006.013-.009.02-.016-.214.099-.43.19-.65.276-.084.032-.2.057-.284.103-.005.002-.01.004-.015.004-.257.082-.517.157-.777.227-.275.074-.551.141-.828.206-.126.029-.86.28-.959.206.081-.017.162-.032.244-.048l-.338.062c-.143.027-.287.052-.431.078-.326.056-.652.11-.98.162l-.25.037c.068-.316.145-.628.25-.933.06-.168.123-.333.193-.497.064-.147.07-.158.016-.036.037-.075.076-.152.115-.225.135-.252.285-.494.449-.728.088-.128.183-.253.282-.376.034-.043.07-.085.106-.128.184-.178.36-.363.554-.53.103-.09.211-.17.315-.258l.014-.01c.212-.137.422-.276.64-.4l.05-.026-.1.043c.085-.036.167-.082.252-.122.213-.1.43-.192.65-.277l.086-.031.254-.072 2.84 1.357c-.015.052-.023.107-.041.159-.032.09-.068.18-.104.268l-.033.06zm4.525-1.905c-.08-.205-.26-.349-.517-.436l-2.784-1.332c-.941-.449-1.725-.864-2.823-.687-2.583.413-5.27 1.496-7.116 3.4-1.457 1.504-2.327 3.38-2.508 5.472-.081.938 1.175 1.023 1.838.93 3.075-.429 6.258-.844 9.148-2.039 2.2-.91 4.298-2.457 4.795-4.915.029-.138.013-.252-.02-.359z" fill="#000" transform="translate(38.314 20.352)"/><path d="m12.407 3.55-3.19-1.526s-5.407.556-5.824 5.826c4.992-.694 8.459-1.388 9.014-4.3" fill="#5cffe4" transform="translate(38.314 20.352)"/><g fill="#000"><path d="m37.608 13.692.01-.005c.008-.003.008-.004.014-.008.04-.027.08-.053.134-.08.006-.016-.077.015-.158.093m.984-.731c.04-.05.051-.07 0 0m-3.069-1.857c.39-.166.151-.076 0 0" transform="translate(11 12)"/><path d="m48.287 11.276-.352 2.344-1.392 1.715-1.369-1.723-.326-2.336.303-2.344 1.392-1.789 1.406 1.786z" transform="matrix(.9961947 -.08715574 .08715574 .9961947 10.197571 16.101353)"/><path d="m70.726 50.144c.11.017.233.042.378.086-.121-.036-.253-.055-.378-.086m-.106-.015h-.007c-.506.096-.448-.05.007 0m22.817-12.099c-.786-.228-2.075.088-2.636.706l-2.916 3.204c-.172.19-2.644 2.743-3.003 3.262l-.07.037c-.263.136-.521.287-.781.431-.906.5-1.811 1-2.717 1.498l-3.185 1.758-3.583.574-3.053.489c-.283.045-.568.084-.85.136-1.298-.304-2.754-.348-4.045-.53l-3.894-.547-4.61-6.288 3.543-6.93c.84-1.644-2.894-1.317-3.492-.149l-3.782 7.4c-.155.299-.189.54.02.823l2.654 3.62 1.75 2.386c.368.502.618 1.017 1.25 1.205 1.341.395 2.923.41 4.304.606 1.502.21 3.003.428 4.506.633 1.478.203 3.15-.321 4.6-.553 1.631-.261 3.268-.503 4.895-.784 1.486-.256 2.912-1.292 4.214-2.011 1.58-.872 3.209-1.688 4.751-2.622 1.194-.723 2.103-2.088 3.029-3.108l3.48-3.827c.538-.59.41-1.19-.38-1.419m-19.722 72.087c-1.2-.658-2.4-1.318-3.602-1.976l-2.53-1.387c-.29-.16-.577-.325-.87-.479-.046-.023-.158-.098-.243-.152-.057-.07-.127-.148-.147-.174-.19-.253-.405-.489-.607-.732-.602-.727-1.204-1.453-1.808-2.178l-2.481-2.993.853-7.274 6.384-3.62c.627-.356 1.05-1.15.314-1.613-.785-.494-2.04-.068-2.752.337l-6.436 3.649c-.813.46-1.302.899-1.414 1.853-.17 1.46-.343 2.923-.514 4.385-.115.974-.4 2.069-.359 3.051.039.859 1.142 1.76 1.659 2.382l2.912 3.512c.444.536.808 1.066 1.406 1.424 2.333 1.399 4.786 2.626 7.171 3.935.803.44 2.031.14 2.751-.337.558-.37 1.134-1.163.313-1.613m-32.135 15.471c-.422.055-.85.095-1.266.178-1.106.222-1.645.714-2.095 1.601l-2.452 4.829-2.005 3.948c-.58 1.142 1.375 1.142 5.866 0l2.91-8.152c3.338-.622 5.98-1.057 7.925-1.303.735-.092 2.04-.493 2.189-1.366.151-.883-1.125-.993-1.697-.92zm78.116-34.766c-1.26.057-2.809.48-3.735 1.393-4.482 4.418-12.296 11.734-14.06 12.857-2.079-1.87-3.54-3.345-5.618-5.214-1.033-.931-4.448.081-5.186 1.127l-8.624 12.24c-.698.992 9.2-6.06 11.24-8.958l5.658 5.093c.574.516 1.91.242 2.525.107.938-.206 17.25-9.064 22.06-13.806.696-.684-3.575-3.026-2.88-3.71.926-.913-.805-1.155-1.38-1.129" transform="translate(11 12)"/></g></g></svg>