<svg height="180" viewBox="0 0 140 180" width="140" xmlns="http://www.w3.org/2000/svg" xmlns:xlink="http://www.w3.org/1999/xlink"><mask id="a" fill="#fff"><path d="m.366.047h13.49v15.032h-13.49z" fill="#fff" fill-rule="evenodd"/></mask><mask id="b" fill="#fff"><path d="m.228.041h113.141v81.116h-113.141z" fill="#fff" fill-rule="evenodd"/></mask><g fill="none" fill-rule="evenodd"><path d="m0 0h140v180h-140z"/><path d="m95.031 14.644-1.962-5.602.068-4.511 3.341-3.098.023.065 4.503.177 3.112 3.287.069-.026-.229 4.578-3.353 3.084z" fill="#5cffe4" transform="translate(7 21)"/><path d="m9.455 10.16-1.167 1.073c-.156.143-.314.177 0 .074-.073.024-.144.055-.218.08-1.321.441-2.626.941-3.932 1.434l-1.345-3.84c-.012-.033-.022-.073-.033-.11.008.054-.016.053-.02-.053-.01-.029-.018-.058-.033-.081.015.023.025.045.034.065v-.057c.029-.515.016-1.035.024-1.55l.039-2.56 2.918-2.705 3.429.135 2.325 2.455-.198 3.965-1.823 1.676m3.666-6.324-1.293-1.365c-.583-.617-1.216-1.541-1.992-1.932-.778-.393-1.903-.247-2.742-.28-.668-.026-1.336-.053-2.005-.078-.4-.174-.827-.207-1.118.063l-2.42 2.245c-.295.274-.653.536-.912.846-.274.326-.196.762-.202 1.168-.019 1.207-.107 2.434-.055 3.64.012.282.111.518.204.784l.602 1.718 1.188 3.388c.128.367.445.656.809.835.36.186.786.28 1.139.15l2.844-1.045 1.922-.706c.318-.117.716-.203 1-.4.304-.21.571-.525.843-.775l1.545-1.42c.31-.285.69-.558.958-.881.265-.32.21-.755.229-1.155l.19-3.791c.02-.413-.312-.78-.734-1.01" fill="#000" mask="url(#a)" transform="translate(98.51 21.46)"/><path d="m94.25 8.818c.006.018.014.034.02.053-.003-.019-.008-.041-.02-.069z" fill="#000" transform="translate(7 21.46)"/><path d="m62.765 8.268-9.481 1.308-8.942 3.51-7.351 6.181-8.176 5.02-5.764 7.642-4.481 8.28 8.224 3.38 8.08 3.773 8.227 3.437 8.19 3.528 7.734 4.565 8.447 2.936 8.267 3.349 8.393 3.064 8.169 3.567 7.852 4.306 8.123 3.684 8.129 3.672 8.354 3.137 1.769-9.375 2.929-9.327-.555-9.732-3.425-8.597-2.456-8.773-5.541-7.244-5.763-6.843-6.193-6.569-7.25-5.573-8.165-4.34-9.203-1.086-9.011-1.418z" fill="#5cffe4" transform="translate(7 21.46)"/><path d="m51.02 55.334.054.019-.011-.007zm76.771 2.85-.012-.032c.001.028.005.06.014.09z" fill="#000" transform="translate(7 21.46)"/><path d="m108.658 68.813c-.703 2.236-1.032 4.557-1.466 6.858l-.551 2.92c-2.947-1.086-5.921-2.123-8.782-3.415-3.758-1.698-7.516-3.397-11.272-5.1l-3.1-1.406c-.238-.108-.587-.354-.13-.048-.227-.153-.489-.269-.729-.4l-6.442-3.534c-1.393-.764-2.877-1.346-4.333-1.982-1.64-.717-3.268-1.515-4.943-2.147-3.494-1.32-7.03-2.517-10.491-3.92-1.996-.808-3.978-1.667-5.993-2.428-1.856-.7-3.754-1.306-5.629-1.957-.892-.31-1.783-.676-2.691-.936l-.021-.004-.02-.013c-.344-.209-.693-.409-1.039-.614l-6.213-3.667c-1.488-.879-3.204-1.446-4.787-2.128-1.474-.635-2.945-1.282-4.427-1.9-3.622-1.514-7.243-3-10.8-4.66-1.708-.799-3.403-1.65-5.135-2.394-2.07-.89-4.17-1.714-6.253-2.57l-.386-.16 2.27-4.193c.491-.908.982-1.817 1.474-2.724.033-.062.08-.129.108-.196.155-.193.298-.4.446-.597l4.44-5.886c.217-.288.471-.57.66-.876.022-.034.032-.056.04-.074.783-.448 1.542-.947 2.311-1.42 1.88-1.155 3.796-2.268 5.65-3.467.448-.29.843-.669 1.251-1.012l2.897-2.436 2.795-2.35c.17-.144.379-.284.546-.443.07-.017.177-.08.221-.097l6.567-2.578 1.396-.548c.129-.05.432-.115.59-.21.088-.01.179-.029.262-.04l1.3-.18 7.22-.995.54-.075 5.746-.338 3.025-.178.13-.008c.168.093.533.08.712.109 3.591.565 7.173 1.17 10.784 1.597l6.442.76c2.274 1.21 4.547 2.417 6.82 3.625 1.913 1.018 3.553 2.494 5.267 3.812.92.708 1.83 1.433 2.763 2.125.003.006.003.007.008.013.1.136.24.256.356.379l1.349 1.43c1.582 1.678 3.254 3.304 4.74 5.068 1.762 2.092 3.508 4.2 5.286 6.278.086.124.185.242.277.362l1.16 1.514 3.09 4.041c.276.36.537.749.835 1.093.021.114.095.273.114.344l1.185 4.235c.365 1.305.707 2.619 1.096 3.916.212.707.534 1.39.807 2.076l1.887 4.734.655 1.647.046.134c-.003-.074.01-.107.013.033.025.068.05.132.061.133-.03-.002-.05-.035-.06-.075-.001 1.298.15 2.614.223 3.91.091 1.592.181 3.185.273 4.777l.033.577-2.474 7.88m4.705-7.793-.195-3.42-.24-4.201c-.036-.637.025-1.374-.184-1.987-.74-2.164-1.704-4.277-2.551-6.403-.285-.716-.613-1.428-.86-2.158-.236-.697-.4-1.427-.598-2.134l-1.14-4.075c-.234-.836-.408-1.724-.71-2.539-.23-.62-.82-1.18-1.213-1.693l-2.576-3.367c-.985-1.287-1.964-2.565-3.007-3.805-1.579-1.874-3.15-3.755-4.737-5.623-1.192-1.404-2.53-2.703-3.794-4.043-1.155-1.225-2.236-2.468-3.57-3.494l-6.036-4.639c-.66-.507 2.944-2.05 2.187-2.44s-6.033-.562-6.765-.951c-.232-.123-.304.69-.535.567l-2.722-1.447c-.551-.293-1.054-.591-1.683-.665-4.02-.475-8.035-.916-12.032-1.545l-4.18-.657c-.645-.102-1.325-.283-1.985-.259-2.328.088-4.657.275-6.983.411l-2.112.126-5.975.824c-1.483.205-3.013.267-4.412.816l-6.871 2.698c-.54.212-1.191.365-1.654.728-.616.482-1.2 1.01-1.8 1.513-1.789 1.504-3.609 2.979-5.37 4.516l-.048.044c-.284.157-.556.341-.832.511l-3.262 2.002-3.116 1.913c-.406.249-.885.468-1.192.835-1.482 1.77-2.8 3.71-4.189 5.554-.48.636-.972 1.265-1.44 1.91-.354.486-.608 1.052-.893 1.58l-3.495 6.456c-.088.161-.176.323-.263.486-.368.68.339 1.48.915 1.717 3.244 1.334 6.528 2.589 9.707 4.073 2.138.998 4.27 2.008 6.413 2.995 1.599.737 3.253 1.368 4.877 2.046 3.689 1.54 7.358 3.123 11.029 4.704.169.074.37.194.56.26-.15-.06-.206-.143-.055-.046.032.02.065.038.097.057.029.009.056.02.084.025-.026-.005-.05-.011-.072-.018l.236.14 2.94 1.736 3.361 1.984c.472.278.934.593 1.447.786 3.498 1.319 7.077 2.391 10.543 3.796 3.846 1.558 7.689 3.047 11.586 4.469 3.626 1.323 7.127 2.91 10.664 4.455l.174.076c.234.137.478.261.715.391l3.342 1.833c1.446.794 2.872 1.662 4.376 2.344 3.573 1.62 7.145 3.241 10.72 4.857 1.718.775 3.42 1.626 5.168 2.327 2.097.842 4.237 1.591 6.352 2.386.642.24 1.284.482 1.925.723.553.207 1.144-.025 1.259-.634l1.204-6.38c.18-.951.401-1.905.54-2.863.004-.024.004-.033.005-.047l.014-.042c.121-.377.238-.756.357-1.134l2.319-7.386c.17-.54.263-1.007.231-1.576" fill="#000" mask="url(#b)" transform="translate(24.19 28.032)"/><g transform="translate(7 21.46)"><path d="m81.541 41.004-8.319-4.383-9.337-1.288-9.148-1.341-9.182-1.833-9.269 1.104-9.329 1.198-8.476 4.497 3.46 8.818 3.87 8.458 5.926 7.207 6.793 6.367 7.057 6.124 8.491 3.969 8.364 3.939 8.319 4.176 8.964 2.488 8.984 2.926 9.421.675 9.317-1.553 8.736-3.152 8.839-2.939-2.326-9.146-5.747-7.42-5.357-7.507-5.711-7.531-7.621-5.514-8.586-3.854z" fill="#5cffe4"/><path d="m107.134 90.843c-.24.084-.48.168-.715.262-.05.019-.086.034-.113.046-.496.077-.992.162-1.487.247-.264.046-.527.09-.79.134l-3.965.66c-.288.05-.579.091-.87.134-.582.085-1.182.172-1.76.306l-.056.014c-.188-.015-.377-.027-.565-.041l-7.494-.536c-.09-.007-.183-.016-.275-.025-.18-.019-.364-.037-.545-.037-1.385-.485-2.808-.937-4.184-1.373-.715-.227-1.43-.454-2.142-.686-2.818-.918-5.721-1.715-8.53-2.485-.702-.193-1.404-.386-2.106-.581l-.11-.039c-.143-.052-.356-.13-.493-.154l-2.815-1.413c-.562-.283-1.124-.567-1.684-.852-1.12-.568-2.279-1.156-3.427-1.714-2.284-1.111-4.626-2.2-6.89-3.254-.753-.35-1.506-.7-2.258-1.052l-6.546-3.059-.292-.138c-.188-.09-.376-.179-.566-.264-.396-.396-.841-.763-1.271-1.118-.223-.183-.445-.366-.66-.552l-1.382-1.2c-1.083-.94-2.165-1.88-3.24-2.811-.042-.044-.087-.085-.132-.126l-3.666-3.435c-.32-.3-.651-.593-.985-.89-.781-.693-1.59-1.41-2.248-2.21l-5.394-6.56-3.255-7.115c-.607-1.328-1.31-3.676-1.823-5.39-.252-.845-.458-1.53-.593-1.905l4.32-2.292c.922-.49 3.382-1.698 3.53-1.747l2.382-.307c2.815-.363 5.726-.74 8.593-1.08 2.21-.265 11.158.092 11.226.093.031.007 3.134.69 4.689.925 1.513.229 3.027.447 4.541.667l2.206.32c3.436.505 13.753 2.665 17.183 4.19.5.221 1.026.446 1.563.675 1.382.588 2.81 1.197 4.028 1.868.295.162.59.328.883.494.919.517 1.869 1.053 2.85 1.493l6.959 3.125c.235.106.469.212.716.315.396.305.812.6 1.214.883.213.15.425.3.634.45l5.231 3.787c2.745 3.62 5.661 7.486 8.49 11.45 1.165 1.633 2.43 3.385 3.78 5.129l3.196 4.125c.098.126.194.256.29.386.185.248.375.505.58.742l.03.088c.013.038.025.074.033.103l1.996 7.85c-.681.224-1.364.447-2.046.669-2.187.714-4.448 1.45-6.647 2.244l-6.757 2.438-.366.13m19.73-4.19-1.786-7.024-.445-1.754c-.06-.25-.123-.51-.277-.75-.34-.532-.755-1.037-1.157-1.525-.2-.244-.4-.487-.59-.733-.439-.565-.882-1.128-1.325-1.691-.898-1.145-1.829-2.328-2.706-3.516-1.014-1.371-2.015-2.79-2.983-4.162-.49-.697-.982-1.393-1.477-2.087-.902-1.264-1.856-2.52-2.778-3.735l-3.032-3.997-.235-.314c-.392-.53-.798-1.079-1.344-1.485-1.423-1.06-2.89-2.112-4.308-3.128-.726-.52-1.45-1.04-2.174-1.563l-.263-.193c-.454-.333-.924-.678-1.457-.919l-3.422-1.535c-.528-.237-1.063-.465-1.599-.694-1.233-.528-2.51-1.073-3.69-1.723l-7.069-3.898-7.024-3.717c-.205-.109-.414-.228-.628-.349-.726-.413-1.477-.84-2.268-.974-.603-.103-1.22-.18-1.815-.257-.303-.039-.605-.077-.906-.119-4.438-.612-9.095-1.276-14.238-2.03-1.563-.228-3.135-.543-4.653-.848l-4.836-.965c-.1-.02-.198-.04-.297-.062-.562-.118-1.093-.228-1.677-.16l-.12.015c-4.37.52-8.887 1.058-13.327 1.629l-4.136.531c-.572.073-1.095.16-1.694.478l-7.91 4.196c-.71.378-.705.852-.575 1.183.29.738.577 1.478.864 2.216 1.177 3.028 2.393 6.157 3.769 9.165l1.92 4.197c.087.189.17.385.255.584.274.647.558 1.315.988 1.845 1.059 1.306 2.147 2.623 3.2 3.898.546.662 1.093 1.324 1.639 1.988.111.135.22.273.33.412.265.335.538.68.844.986.524.523 1.08 1.034 1.616 1.526.274.252.548.504.819.757.455.427.908.857 1.36 1.288 1.115 1.06 2.269 2.158 3.45 3.183l6.08 5.275c.556.483.997.847 1.609 1.133l3.426 1.602c4.188 1.958 8.372 3.926 12.555 5.896 1.229.578 2.462 1.205 3.653 1.812.506.256 1.01.513 1.517.767.312.157.622.316.93.475 1.386.713 2.82 1.45 4.375 1.882.866.24 1.733.48 2.6.718 1.667.46 3.334.92 4.998 1.391 1.354.384 2.717.844 4.033 1.288.633.214 1.265.427 1.898.633l1.032.341c.685.228 1.394.464 2.096.678.565.172 1.159.204 1.733.235.157.009.314.017.47.028.869.062 1.737.127 2.604.193 1.68.126 3.415.255 5.123.36.082.006.164.008.246.008.52 0 1.03-.093 1.525-.185.152-.028.303-.055.455-.08l5.49-.914c.694-.114 1.389-.228 2.081-.35.581-.1 1.14-.314 1.68-.52.166-.064.332-.127.498-.187 4.728-1.706 9.167-3.246 13.57-4.71l2.29-.762c.504-.168.74-.63.6-1.176" fill="#000"/><path d="m126.597 107.349-5.653 11.002-10.471 6.19-10.836 5.734-12.14 1.732-12.032 1.673-12.147-.059-12.201.714-12.139-1.445-11.585-3.891-11.967-2.999-10.247-7.139-4.06-11.512 4.241-11.333 11.063-5.347 11.188-4.258 11.407-4.383 12.074-1.934 12.226-.78 12.248.5 12.053 2.206 11.678 3.507 11.051 4.878 9.97 6.567z" fill="#5cffe4"/><path d="m63.463 134.778c.056.013.105.02.144.02-.047-.005-.094-.01-.137-.02zm35.629-5.635.01-.008-.022.01c.004 0 .008 0 .012-.002" fill="#000"/><path d="m120.59 116.314-.587 1.144c-3.392 2.01-6.752 4.093-10.19 6.022-1.62.908-3.287 1.74-4.928 2.608l-3.744 1.981c-.464.245-.928.49-1.392.737-.195.103-.455.197-.646.33.039-.016.08-.023.115-.002-.018-.01-.073-.002-.126.01-.02.013-.044.027-.063.042-.097.083-.036.004.05-.04-.043.009-.083.02-.098.022l-1.075.153-3.872.553c-2.27.324-4.538.65-6.807.971-3.975.564-7.968 1.033-11.933 1.66-.046.007-.108.009-.16.02-.236-.006-.473-.002-.708-.003l-3.594-.018c-2.437-.012-4.875-.023-7.311-.036-1.556-.007-3.123.157-4.675.248l-7.594.445c-.064.004-.18-.005-.29-.005.037.013.023.032-.092.01-.014-.003-.028-.003-.04-.005-.047.005-.088.015-.115.031.028-.017.056-.027.083-.035-.1-.015-.204-.024-.304-.036l-3.187-.38-7.762-.924c-.156-.018-.388-.085-.568-.082-.053-.017-.108-.032-.158-.05l-2.913-.977-7.495-2.518c-1.222-.41-2.474-.69-3.724-1.004l-7.866-1.971c-.34-.085-.68-.188-1.022-.256-.015-.003-.019-.002-.031-.004-.572-.511-1.314-.911-1.94-1.347l-6.785-4.728-.93-.649-3.4-9.639-.365-1.033 3.538-9.452.441-1.18c1.67-.806 3.338-1.613 5.007-2.42 1.902-.919 3.786-1.916 5.72-2.764 1.624-.712 3.332-1.272 4.989-1.902 2.056-.783 4.114-1.563 6.17-2.349 3.76-1.436 7.535-2.842 11.273-4.331l.01-.004h.007c.278.001.586-.093.86-.137l3.5-.561 7.277-1.166c1.396-.223 2.847-.216 4.254-.306l7.703-.49c.196-.013.422.003.614-.04-.5.113-.12.017.132.027l3.087.127 7.867.32c1.28.053 2.512.335 3.774.566l7.925 1.45c.343.063.686.128 1.03.188l.002.002c.774.283 1.592.478 2.381.715 2.584.775 5.167 1.55 7.75 2.327 1.21.363 2.289.804 3.449 1.316 2.486 1.099 4.972 2.196 7.46 3.294.39.173 1.715.835 1.822.906l1.166.767 6.811 4.486 1.163.766 5.327 8.804.414.685zm6.99-9.373c-.013-.023-.022-.049-.036-.071l-4.043-6.683-2.045-3.38c-.386-.636-.94-.967-1.549-1.367l-7.906-5.207c-.543-.358-1.06-.732-1.656-.998-1.101-.492-2.208-.975-3.312-1.463l-4.791-2.115c-.908-.4-1.81-.862-2.74-1.209-.681-.255-1.407-.426-2.104-.636l-4.84-1.453c-1.893-.568-3.783-1.26-5.73-1.616l-9.256-1.694c-.71-.13-1.43-.313-2.148-.39-.976-.104-1.984-.08-2.963-.12l-8.941-.366c-.595-.024-1.19.036-1.783.073l-4.685.3c-1.62.102-3.239.206-4.859.309-.565.036-1.139.044-1.7.127-2.871.427-5.734.92-8.6 1.378-1.062.17-2.147.29-3.199.512-.68.145-1.353.487-1.998.736-4.689 1.8-9.375 3.603-14.069 5.39-2.288.87-4.642 1.649-6.889 2.623-2.475 1.073-4.878 2.357-7.307 3.531-1.152.557-2.303 1.114-3.456 1.67-.697.338-.811.894-1.067 1.578l-3.315 8.858c-.273.727-.774 1.607-.526 2.383.339 1.066.745 2.114 1.118 3.17.955 2.709 1.835 5.46 2.87 8.14.303.78 1.173 1.222 1.834 1.683l3.892 2.712 3.96 2.76c.52.362 1.046.84 1.662 1.024 4.44 1.316 9.05 2.032 13.444 3.507l8.979 3.017c1.807.606 3.723.682 5.612.907l5.151.613c.871.103 1.762.275 2.639.314.835.037 1.707-.093 2.539-.142l5.1-.299 4.23-.247.366-.022-.018-.004.025.004.088-.005c.19-.013.164.026.05.025.232.019.505-.02.713-.02l9.477.047c.706.003 1.438.06 2.142-.012 1.043-.107 2.084-.29 3.122-.434 2.892-.402 5.785-.802 8.676-1.207 2.203-.308 4.405-.628 6.608-.942l4.603-.657c.59-.084 1.128-.122 1.658-.402 4.177-2.21 8.418-4.323 12.487-6.729l8.003-4.73c.329-.194.704-.364.909-.7.117-.194.21-.409.313-.61l1.968-3.83 3.37-6.563c.186-.362.12-.745-.077-1.068" fill="#000"/><path d="m50.798 133.157.031.004c.04-.005.087-.006.133-.006-.03-.01-.091-.018-.164.002" fill="#000"/><path d="m44.287 114.966-11.796 4.851-10.255-7.787-4.016-12.354 4.092-12.168 10.991-6.153 1.212-10 9.946-2.957 6.051-8.215 10.359-2.344 8.46 5.668 11.353-2.059 11.057 3.76 8.667 7.952 1.299 11.534 4.432 11.998-2.671 12.374-10.72 5.061-9.109 5.967-9.459-5.016-9.548 7.317-12.12.23z" fill="#c58fff"/><path d="m63.996 121.055c-.178-.005-.356.002-.535.008l-11.074.212-6.775-6.31-.861-.799c-.28-.355-.59-.544-.877-.544-.085 0-.167.016-.246.05l-11.44 4.704-9.313-7.07-3.592-11.05 3.89-11.564 8.527-4.774 1.973-1.104c.26-.14.528-.284.61-.698.216-1.078.323-2.206.428-3.296.052-.544.103-1.086.168-1.62l.561-4.628 9.26-2.753c.528-.158.723-.428.992-.802l4.82-6.546c.081-.112.165-.222.25-.333.166-.222.334-.444.49-.673l.005-.007c.25-.01.51-.084.759-.155.113-.033.224-.065.329-.088l8.798-1.99 7.706 5.163.127.088c.253.177.537.384.899.356.377-.023.76-.108 1.13-.19.18-.039.356-.078.53-.11l8.68-1.574c.075-.014.153-.026.23-.038.168-.025.338-.052.5-.095.05-.013.092-.019.12-.022h.002c.805.226 1.616.52 2.4.805.423.154.846.306 1.267.45l6.668 2.267.097.04c.085.038.187.083.28.108l7.751 7.113 1.083 9.615c.013.112.024.227.034.343.036.402.075.817.201 1.198.098.294.208.584.319.873l3.92 10.605-2.518 11.664-8.793 4.15-.436.203c-.58.267-1.18.544-1.734.907l-8.411 5.51-9.164-4.859c-.166-.079-.344-.083-.553.012l-8.362 6.41c-.119.09-.248.18-.38.271-.253.176-.513.356-.73.567zm42.933-32.185-.004-.149-.147-.03c-.022-.005-2.238-.487-2.794-1.994l-.453-1.191c-.02-.297-.063-.6-.106-.892-.026-.18-.052-.36-.072-.536l-1.024-9.09c-.09-.796-.492-1.925-1.086-2.543-.592-.614-1.409-1.268-2.2-1.9-.575-.46-1.119-.894-1.561-1.3l-4.622-4.242c-.098-.09-.197-.188-.298-.29-.267-.265-.543-.54-.854-.722-.272-.158-.582-.25-.883-.339-.117-.034-.233-.068-.342-.106l-6.03-2.05c-.427-.145-.855-.306-1.288-.468-.87-.328-1.768-.666-2.667-.876-.351-.08-.732.008-1.067.087-.107.026-.212.05-.311.068l-10.048 1.823-7.257-4.862c-.093-.062-.192-.138-.294-.217-.25-.19-.532-.406-.82-.503-.307-.104-.711.014-1.035.106-.09.027-.175.05-.248.067l-7.8 1.764c-.166.038-.343.07-.522.1-.38.068-.772.138-1.122.274-.258.102-.39.286-.516.464l-4.712 6.4c-.114.154-.23.306-.347.459-.232.304-.472.618-.686.943-.059.016-.117.035-.176.054l-9.662 2.875-.047.02c-.155.097-.252.245-.283.436l-1.176 9.702-9.14 5.118-1.295.722c-.2.104-.404.212-.534.453-.216.396-.347.861-.473 1.31-.058.207-.115.41-.179.6l-2.797 8.318c-.074.216-.158.438-.244.66-.176.462-.36.94-.454 1.417-.106.542.17 1.265.392 1.847.064.166.123.322.167.458l1.262 3.881c.25.77.495 1.543.74 2.315.483 1.527.983 3.105 1.522 4.64.291.83.829 1.237 1.45 1.708l9.342 7.093.073.056c.243.188.516.402.918.313.148-.033.286-.098.421-.162.057-.028.113-.055.168-.077 1.018-.418 10.223-3.262 11.273-3.586.548.445 3.786 3.077 4.558 3.796l.87.811c.562.527 1.125 1.053 1.692 1.575.226.209.509.469.928.49.089.005.178.007.267.007.179 0 .358-.008.534-.015.128-.006.255-.011.382-.013l9.314-.177c.131-.004.277.006.435.014.494.026 1.052.055 1.439-.17.91-.53 3.516-2.157 3.541-2.173.047-.028 4.594-2.81 6.853-4.522 1.49.793 2.732 1.506 3.934 2.195 1.234.708 2.51 1.44 4.06 2.263.166.079.343.083.54-.005 2.893-1.895 18.62-9.856 19.221-10.14.497-.234.827-1.142.888-1.322.111-.325.173-.676.233-1.014.03-.164.058-.326.092-.482l1.989-9.216.117-.517c.081-.348.165-.708.225-1.067.08-.484-.139-7.9-.164-8.744z" fill="#000"/><path d="m60.361 92.367c-.092-.119-.183-.243-.276-.367-.236-.32-.48-.652-.763-.935-.79-.797-1.413-.734-2.294-.645l-8.313.844.075-.131 1.793-3.256c.367-.665.727-1.335 1.086-2.006.702-1.308 1.428-2.66 2.197-3.952.139-.233.314-.444.499-.667l5.432-6.762 8.539-.979 7.927 3.701 5.399 8.246c.362.555 1.202.93 1.772.96.422.02.62-.142.702-.284.084-.146.133-.4-.115-.78l-5.479-8.368c-.432-.66-1.047-.948-1.72-1.262l-7.285-3.401c-.139-.065-.288-.141-.443-.22-.65-.332-1.391-.71-2.057-.657-.593.043-1.19.12-1.77.195-.294.037-.588.075-.881.109l-2.444.28 8.449-7.338c.176-.153.237-.413-.506-1.268-.758-.872-1.286-1.187-1.574-.94l-7.433 6.456c-.17.148-.348.294-.527.441-.363.298-.739.606-1.07.947-.244.252-.46.538-.67.815-.098.129-.197.258-.296.383l-.515.64-11.894-4.532c-.665-.255-1.479-.036-1.977.53-.229.261-.415.706-.313 1.114.068.276.259.486.538.592l11.86 4.52-2.72 3.39c-.161.2-.328.398-.495.597-.335.4-.682.812-.985 1.245-.177.253-.321.53-.46.799-.059.112-.117.223-.177.333l-1.813 3.29c-.363.66-.74 1.316-1.12 1.973-.75 1.302-1.525 2.65-2.18 4.019-.137.284-.2.586-.26.878-.019.088-.037.177-.057.263l-.066.278-8.26-2.05c-1.06-.265-1.774-.192-2.125.213l-6.461 7.431c-.277.319.008.62.104.722l6.414 6.75c.44.462 2.148.505 2.612.064.158-.15.245-.429-.03-.72l-6.033-6.347 5.653-6.502 7.775 1.931-2.031 8.636c-.085.36-.087.687-.089 1.033l-.074 11.283c-.003.435.451.885.917 1.309l.12.11c.408.384.723.578.94.578.042 0 .081-.008.116-.023.115-.05.185-.159.186-.332l.064-9.77c.002-.23-.001-.46-.005-.693-.008-.453-.015-.922.017-1.355.01-.06.027-.121.042-.181l2.125-9.028c.05-.21.094-.424.138-.64l10.832-1.1 5.86 7.56-8.423 7.17c-.086.074-.223.242-.167.543.104.566.89 1.386 1.56 1.624.413.147.667.036.808-.083l8.863-7.547c.347-.294.071-.85-.123-1.103l-6.645-8.57z" fill="#000"/><path d="m95.241 105.778c-.038-.21-.169-.413-.284-.593-.043-.065-.083-.128-.113-.183l-4.012-7.429c-.015-.074.008-.385.05-.665l1.316-8.777c.018-.113.041-.23.066-.35.054-.267.11-.543.105-.813-.006-.268-.109-.528-.2-.757-.03-.074-.059-.146-.083-.217l-3.038-8.77c-.148-.43-.72-.53-1.5-.261-.77.266-1.507.827-1.3 1.425l2.867 8.28.141.392c.083.229.167.458.238.69-.037.142-.053.286-.068.426-.007.065-.014.131-.023.194l-1.145 7.63-9.1-1.225c-.167-.022-.336-.049-.505-.076-.298-.047-.606-.097-.913-.123l-.01-.01c-.127-.138-.267-.267-.407-.395-.064-.059-.128-.118-.19-.178l-8.618-8.226c-.289-.277-.777-.21-1.137-.105-.64.187-1.385.652-1.504 1.143-.05.206.008.403.165.553l8.218 7.845c.109.105.22.224.333.347.257.276.523.563.827.754.279.176.648.202.974.225.1.007.197.014.283.025l11.854 1.598c.088.011.189.015.297.01l3.09 5.73c.055.103.126.215.2.33.12.188.254.397.315.577-.006.029-.01.06-.012.094-.008.128-.025.257-.043.385l-1.017 8.543c-.038.316.34.529 1.149.86l.097.04c.24.107.957.414 1.3.414.054 0 .1-.008.132-.026l.118-.072.967-8.152c.01-.087.031-.188.053-.293.053-.264.114-.564.067-.814m-19.928 1.669c-.032-.775-1.173-1.1-1.57-1.153-.18-.023-.787-.076-1.143.25-.164.15-.246.354-.236.592l.325 7.929c.032.776 1.173 1.1 1.57 1.154.058.007.16.017.284.017.26 0 .618-.047.86-.267.163-.15.244-.354.235-.592l-.325-7.929zm-33.304-22.904-4.58-.135-3.51-3.297c-.407-.383-1.09-.343-1.596-.207-.213.058-1.178.466-.778.842l3.404 3.197c.133.126.263.254.4.376.345.31.808.291 1.244.304l2.696.08 2.205.065c.434.012 1.315-.13 1.487-.618.18-.513-.677-.599-.972-.607" fill="#000"/><path d="m33.017 80.998c-.277 0-.53.058-.644.09-.224.06-.695.305-.733.458-.003.007-.006.023.035.061l3.533 3.321c.089.085.177.169.267.25.263.235.625.244 1.007.253l5.018.147c.487.01 1.181-.15 1.302-.49.028-.083.006-.116-.004-.131-.093-.136-.47-.216-.795-.225l-4.651-.137-3.563-3.346c-.207-.195-.5-.25-.772-.25m8.526 4.959h-.054l-5.016-.148c-.414-.01-.883-.02-1.251-.35-.094-.084-.185-.17-.276-.257l-.127-.121-3.404-3.198c-.177-.166-.165-.34-.143-.43.114-.458.993-.73 1.002-.733.351-.095 1.23-.26 1.775.251l3.458 3.248 4.507.133c.255.007.87.06 1.096.389.065.095.126.253.05.472-.217.615-1.193.744-1.617.744" fill="#000"/></g></g></svg>