<svg height="125" viewBox="0 0 115 125" width="115" xmlns="http://www.w3.org/2000/svg"><g fill="none" fill-rule="evenodd"><path d="m20 0h115v125h-115z" transform="translate(-20)"/><g transform="matrix(.92050485 -.39073113 .39073113 .92050485 -19.776803 49.909047)"><path d="m115.615 63.131c-.007-.02-.019-.04-.028-.06-.011-.023-.02-.046-.033-.067-.04-.068-.087-.135-.156-.2l-2.474-2.34c-.696-.657-1.12-1.108-2.026-1.388-1.295-.4-2.584-.844-3.89-1.203-.09-.025-.17-.06-.212-.079-.09-.07-.18-.143-.267-.214l-1.598-1.283c-.532-.429-1.065-.856-1.598-1.283l-.328-.265c-.024-.024-.053-.052-.088-.091-.916-1.013-1.847-2.014-2.772-3.02-.552-.601-1.008-1.263-1.49-1.922-.614-.84-1.178-1.873-1.938-2.59-.886-.835-1.938-1.542-2.89-2.3-.645-.514-1.261-.923-1.972-1.346-2.05-1.22-4.056-2.301-6.213-3.321-1.884-.891-3.897-1.456-5.913-1.99-1.864-.494-3.888-.53-5.8-.83-2.295-.357-4.523-.75-6.783-1.278-.818-.192-1.601-.422-2.438-.457-1.336-.058-2.67-.116-4.005-.172-1.862-.079-3.825-.298-5.677-.114-2.217.22-4.43.483-6.645.728-4.339.48-8.741 1.175-12.788 2.9-3.89 1.658-7.565 3.845-11.379 5.67-.86.411-1.75.719-2.409 1.42l-2.797 2.98c-.057.061-.116.122-.172.184-.045.03-.175.133-.238.177-.515.35-1.013.732-1.52 1.097l-1.798 1.299c-.197.142-.398.283-.593.428-.05.038-.095.067-.13.088-1.073.526-2.125 1.101-3.186 1.65-.439.227-1.001.417-1.393.72-.181.05-.36.116-.538.173l-3.961 1.253c-.88.278-1.58.782-2.353 1.283l-2.793 1.808c-.423.274-.431.799-.09 1.123l2.56 2.432c.677.644 1.315.89 2.185 1.253l2.17.906c.237.1.474.204.714.3.088.034.14.059.171.074 1.049.668 2.076 1.373 3.113 2.058.198.13.395.292.605.4.035.018.061.03.081.039.338.387.652.796.978 1.192.677.826 1.368 1.642 2.031 2.478 1.267 1.598 2.342 3.393 3.936 4.678.99.8 1.95 1.702 2.998 2.42.857.586 1.919.965 2.85 1.419 1.982.97 3.953 1.97 5.944 2.923.842.404 1.73.722 2.596 1.074.863.35 1.739.818 2.66.988 2.188.405 4.394.739 6.595 1.067 2.282.34 4.565.672 6.848 1.004 1.962.284 3.967.792 5.944.862 1.95.068 3.988.102 5.92-.189 2.276-.342 4.541-.659 6.828-.917 2.171-.246 4.344-.48 6.513-.743.924-.112 1.808-.446 2.697-.71.972-.29 2.031-.499 2.957-.92 1.903-.865 3.716-1.904 5.639-2.729 2.16-.926 4.172-1.904 6.234-3.031.82-.448 1.498-.834 2.16-1.489.956-.948 1.912-1.896 2.87-2.842.128-.127.176-.13.12-.08.1-.067.197-.136.295-.203l1.669-1.156c.604-.42 1.209-.838 1.813-1.257.141-.098.287-.193.426-.295h.027c.478-.067 1.03-.4 1.477-.572l2.116-.82c.395-.152.789-.308 1.185-.457l.108-.032c.235-.07.468-.15.701-.226 1.311-.421 2.625-.836 3.934-1.265.93-.304 1.494-1.045 2.167-1.73l2.404-2.449c.184-.187.208-.419.133-.623" fill="#a9ff03"/><path d="m91.889 1.65-6.922 5.754-6.953 5.67 5.992 3.975 5.443 4.573 5.764 4.13 3.955 5.72-1.81 6.644-3.764 6.775-4.389 6.367-4.202 6.494-3.9 6.908-6.895-.586-6.67.735-6.682.016-6.862-.201 5.151-5.398 4.693-5.586 4.877-5.427 5.083-5.24 4.437-5.821 4.713-5.29-5.407-5.794-5.943-5.526-5.687-5.791-5.849-5.927 8.158-1.49 7.727-2.411 8.024-1.141z" fill="#c58fff"/><path d="m96.184 38.151-.022.028c-1.41 2.09-2.355 4.5-3.69 6.64-1.357 2.176-2.951 4.216-4.378 6.349-1.418 2.12-2.836 4.265-4.168 6.44-1.194 1.95-2.276 3.977-3.386 5.978l-4.855-.413c-1.654-.14-3.281.152-4.929.334-.91.1-2.024.044-2.899.32h-.004l-.134.002c-.497-.002-.993.001-1.49.002-1.703.005-3.41.048-5.112.005-1.65-.043-3.299-.095-4.948-.146 1.446-1.47 2.914-2.933 4.234-4.505 1.831-2.18 3.634-4.385 5.538-6.502 2.036-2.267 4.074-4.505 6.195-6.691.886-.913 1.854-1.79 2.668-2.769 1.097-1.316 2.087-2.738 3.127-4.101 1.848-2.425 3.928-4.646 5.957-6.923.311-.35.393-.797.066-1.146l-4.85-5.2c-1.341-1.437-2.846-2.724-4.284-4.061-2.84-2.64-5.516-5.433-8.24-8.192-1.403-1.422-2.806-2.845-4.21-4.266l4.566-.835c1.96-.357 3.832-1.034 5.733-1.627 1.038-.323 2.189-.558 3.19-.99.104-.008.224-.039.304-.05l1.739-.247c2.127-.303 4.364-.433 6.445-.982 1.283-.338 2.563-.688 3.843-1.035-2.664 2.21-5.33 4.415-8.012 6.603l-2.87 2.34c-.332.271-.837 1.017-.301 1.373l5.213 3.457c1.368.909 2.578 2.028 3.834 3.084 1.224 1.026 2.422 2.029 3.718 2.958l3.225 2.311c.327.234.65.516 1 .716.072.041.11.057.137.065.012.026.031.063.07.123 1.18 1.801 2.45 3.55 3.678 5.321l-.942 3.458-.625 2.294c-.042.156-.1.32-.131.48zm1.723-10.808c-.529-.765-1.019-1.773-1.705-2.414-.815-.76-1.889-1.352-2.793-2.001-.97-.694-1.967-1.361-2.912-2.087-1.8-1.381-3.485-2.933-5.229-4.386-1.666-1.389-3.662-2.475-5.469-3.673l-.018-.012c3.329-2.716 6.653-5.435 9.956-8.182l2.77-2.303c.358-.253.658-.638.608-1.04-.002-.018-.01-.029-.013-.044-.003-.018-.01-.035-.015-.052-.034-.127-.096-.226-.182-.296-.003-.004-.005-.008-.01-.012-.032-.029-.07-.045-.106-.066l-.005-.005c-.28-.164-.655-.135-.994-.016l-6.915 1.862c-.267.071-.545.133-.811.214-.011 0-.018.002-.032.003-.187.016-.375.053-.561.08l-4.138.588c-1.04.148-2.095.254-3.127.445-.83.152-1.647.483-2.451.734l-4.227 1.32c-.408.127-.834.232-1.234.384-.085.015-.17.037-.246.05l-7.758 1.418c-.69.127-2 1.008-1.235 1.782 2.982 3.021 5.963 6.042 8.936 9.07 1.314 1.338 2.62 2.665 3.993 3.941 1.56 1.452 3.21 2.848 4.69 4.382 1.619 1.677 3.19 3.404 4.775 5.114-1.58 1.74-3.222 3.451-4.644 5.317-1.771 2.325-3.451 4.667-5.486 6.765-4.208 4.338-8.205 8.822-12.092 13.45-1.94 2.31-4.092 4.433-6.174 6.615-.452.475-.348 1.296.414 1.318 3.634.107 7.255.2 10.89.192 1.625-.004 3.172-.04 4.785-.217l3.595-.396c.353-.04.718-.056 1.07-.117.069.005.14.01.209.017 2.18.232 4.375.372 6.56.558.423.036.969-.261 1.637-.891l9.577-12.068 9.574-7.864c-2.757-2.92-3.893-4.816-3.407-5.691.344-.62.603-1.15.788-1.833l1.168-4.287c.195-.712.69-1.672.283-2.354-.683-1.143-1.532-2.216-2.29-3.31z" fill="#000"/><path d="m67.691 2.291-3.215 2.778-3.774 2.418-3.2 3.109-3.048 2.914 4.025 3.153 4.24 3.207 4.642 2.661 3.727 3.923 3.189 3.287.752 4.575-1.62 4.268-2.666 4.412-2.276 4.667-3.084 4.139-3.327 3.988-2.188 4.73-2.97 4.184-4.752.618-4.797-.028-4.792.118-4.804-.635-4.794.821-5.316-.38 4.046-3.749 3.326-3.761 3.955-3.163 3.191-3.89 3.41-3.682 2.955-4.112 3.817-3.299 3.181-3.907 3.617-3.344-3.939-3.565-3.266-4.381-3.868-3.776-3.915-3.735-4.373-3.282-3.951-4.362 5.89-.476 4.988-2.32 5.24-1.233 5.432-.387 5.312-.901z" fill="#c58fff"/><path d="m69.564 42.41c-.797 1.498-1.36 3.163-2.247 4.608-.874 1.42-2.02 2.77-3.045 4.087-1.026 1.314-2.194 2.52-3.204 3.847-.415.545-.644 1.237-.931 1.859-.454.978-.85 2.013-1.37 2.96-.807 1.47-1.962 2.819-2.943 4.187-1.676.23-3.394.595-5.083.585-2.018-.012-4.032-.03-6.05.02l-1.864.045-.769.019c-.078.002-.328-.009-.345-.003-1.016-.102-2.03-.27-3.041-.403-.707-.094-1.436-.28-2.144-.16l-3.753.644c-.173.03-.398.03-.563.097-.025.01-.036.016-.048.023-.55-.017-1.103-.08-1.65-.119l-.44-.031c.798-.738 1.594-1.477 2.39-2.216 1.062-.982 1.966-2.145 2.923-3.226.232-.263.46-.53.697-.79.034-.036.042-.048.047-.056.065-.054.132-.106.195-.157.75-.595 1.496-1.195 2.244-1.793.507-.406 1.09-.784 1.55-1.248.521-.523.96-1.17 1.429-1.741.888-1.083 1.766-2.152 2.717-3.18.996-1.075 2.061-2.101 2.917-3.293l1.786-2.486c.207-.287.416-.573.62-.862.016-.023.056-.08.072-.108.047-.039.092-.079.136-.117 1.216-1.056 2.57-2.042 3.695-3.196 1.167-1.196 2.03-2.687 3.177-3.9 1.122-1.187 2.422-2.242 3.621-3.35.192-.178-.269-.614-.359-.695l-2.601-2.355c-.396-.358-.78-.75-1.197-1.084-.08-.171-.25-.335-.362-.486l-2.568-3.444c-.502-.673-1.143-1.228-1.744-1.814-1.655-1.616-3.318-3.223-4.992-4.82-1.69-1.612-3.512-2.956-5.382-4.36-.152-.114-.304-.229-.457-.342-.321-.45-.788-.856-1.155-1.26l-2.138-2.361 2.654-.215c.892-.072 1.978.01 2.832-.276 1.98-.666 3.703-2.003 5.75-2.486 1.365-.321 2.73-.641 4.093-.963.038-.01.175-.034.247-.05.094-.003.286-.016.325-.018l1.952-.14c2.32-.165 4.516-.464 6.812-.853.264-.045.52-.111.78-.165-.525.346-1.071.666-1.596 1.003-.873.56-1.616 1.055-2.355 1.772-.84.817-1.677 1.637-2.521 2.449-.998.961-2.002 1.915-3.004 2.872-.25.24.504.81.61.892 3.17 2.484 6.29 5.245 9.788 7.25l3.003 1.723c1.1 1.158 2.196 2.32 3.3 3.473.423.443.852.88 1.278 1.32l1.217 1.254c.123.127.418.55.639.714.014.114.045.233.061.334l.279 1.697.259 1.573c.028.172.05.347.085.518.019.09.022.146.026.154-.18.87-.682 1.781-.996 2.606-.217.574-.396 1.184-.689 1.724-.802 1.472-1.812 2.833-2.6 4.313zm5.675-12.544c-.535-.719-1.304-1.344-1.927-1.986-.428-.441-.857-.88-1.282-1.323-1.214-1.266-2.408-2.55-3.624-3.813-.52-.54-1.186-.867-1.83-1.236l-2.83-1.623c-.124-.071-.48-.357-.676-.412-.078-.059-.16-.114-.234-.17l-2.571-1.946c-1.188-.898-2.36-1.814-3.532-2.732l-.892-.7c1.597-1.526 3.191-3.055 4.776-4.594.38-.37.75-.784 1.158-1.126.017-.008.138-.09.21-.135.273-.162.537-.344.804-.514.939-.602 1.96-1.15 2.835-1.84 1.073-.846 2.077-1.794 3.11-2.687.217-.07.168-.248.04-.435-.308-.606-1.722-1.39-2.127-1.04l-3.319 1.064c-.523.167-1.048.33-1.57.502l-.04.015c-.22.042-.442.074-.662.112-2.202.373-4.351.757-6.576.915-1.123.08-2.289.075-3.402.243-1.135.17-2.271.532-3.388.795-.807.19-1.656.305-2.41.656l-3.796 1.764c-.236.11-.473.218-.707.33-.016.007-.024.011-.033.017l-.026.001c-.625.06-1.251.102-1.876.152l-3.883.314c-.406.033-.324.398-.115.627l2.265 2.501c.693.766 1.356 1.664 2.18 2.296 1.02.782 2.057 1.543 3.084 2.314.36.27.714.564 1.086.818.015.016.03.031.052.057.168.178.358.34.535.51 1.647 1.57 3.291 3.14 4.919 4.73l1.553 1.515c.156.152.31.306.468.457.001.003 0 .003.003.008.646 1.109 1.584 2.124 2.35 3.153 1.263 1.693 2.868 3.038 4.445 4.434-1.11 1.015-2.273 1.998-3.321 3.075-1.049 1.076-1.94 2.354-2.888 3.52-.045.053-.344.419-.335.428-.167.165-.361.31-.538.463l-2.307 1.994c-.364.315-.774.612-1.087.978-.59.689-1.08 1.502-1.61 2.24-.82 1.14-1.616 2.143-2.569 3.172-.992 1.071-1.986 2.127-2.912 3.256l-1.96 2.387c-.072.089-.311.385-.372.466-.032.026-.088.078-.1.088-.141.117-.286.228-.429.342-1.177.941-2.513 1.817-3.572 2.891-1.17 1.187-2.145 2.567-3.324 3.744-.85.846-4.395 2.54-10.636 5.083 5.445-.014 8.265-.014 8.46 0 1.713.122 3.427.252 5.141.368.561.038 1.092-.092 1.647-.187 1.032-.178 2.064-.354 3.095-.53.128-.023.259-.04.385-.067l.012-.004c.36.037.718.097 1.074.144l3.102.41c1.58.208 3.238.01 4.825-.03 1.577-.038 3.156 0 4.734.01 1.57.008 3.14-.312 4.693-.514.63-.082.944-.072 1.315-.596l1.818-2.562c.317-.447.678-.884.941-1.363.465-.847.822-1.776 1.228-2.653.295-.639.538-1.374.912-1.973.371-.593.94-1.126 1.387-1.662.968-1.162 1.929-2.311 2.832-3.523.88-1.183 1.884-2.313 2.533-3.642.691-1.416 1.3-2.916 2.115-4.266.83-1.373 1.833-2.734 2.513-4.185.406-.866.69-1.814 1.028-2.709.202-.533.586-1.175.567-1.753-.03-.932-.315-1.917-.467-2.837-.102-.624-.086-1.466-.475-1.99z" fill="#000"/><path d="m28.153 65.027 2.449-2.072 11.525-1.44h15.728l2.082-.126 25.066-3.637-4.115 6.552zm47.366-29.341c.233.078 2.254 2.177 2.254 2.177l-6.103 7.037-1.244-.155z" fill="#000"/></g></g></svg>