<svg height="180" viewBox="0 0 140 180" width="140" xmlns="http://www.w3.org/2000/svg"><g fill="none" fill-rule="evenodd"><path d="m0 0h140v180h-140z"/><path d="m7.224 35.209 5.132 4.969 5.008 5.11 6.061 3.908 5.385 4.689 4.414 5.804 5.585 3.473 2.884-5.911 3.872-6.644-7.053-2.127-6.276-2.701-6.273-2.713-6.007-3.286-5.942-3.445-6.13-3.043-5.778-1.935z" fill="#c58fff" transform="translate(0 3.5)"/><g transform="translate(.205 3.6)"><path d="m136.208 99.267c-1.79.25-3.58.498-5.37.749-.256.035-.573.046-.843.107-.249-.425-1.918-1.252-2.235-1.468l-2.62-1.772c-.659-.446-.627-.352-.953-.898-1.027-1.723-2.274-3.321-3.265-5.062-.134-.235-.215-.457-.407-.966l-1.284-3.375c-.454-1.193-.887-2.343-1.212-3.574-.483-1.827-.753-3.927-1.496-5.662-.56-1.312-1.8-2.517-2.654-3.652-.956-1.272-1.786-2.394-2.98-3.433l-2.63-2.283 1.525.362c1.534.364 1.883.698 3.347 1.72 1.175.818 2.422 1.602 3.214 2.384l3.63 3.589c.368.364 1.962.087 1.697-.598-.731-1.885-1.53-3.756-2.193-5.665-.67-1.933-1.041-4.01-1.822-5.9-.772-1.876-1.871-3.843-2.933-5.576-1.04-1.698-2.274-3.518-3.562-5.04-1.28-1.512-2.862-3.053-4.37-4.338-1.522-1.298-3.387-2.684-5.131-3.658-.77-.43-1.69-.696-2.508-1.026-1.066-.433-2.155-1.005-3.263-1.32-.783-.225-1.663-.117-2.479-.12-1.285-.003-2.569-.014-3.854-.01-2.126.006-4.355-.12-6.466.106-1.057.113-2.085.724-3.054 1.135l-.88.374c1.143-1.298 2.287-2.594 3.41-3.908.017-.006.017-.008.038-.014.248-.07.494-.208.733-.309l2.257-.952 3.547-1.494c.445-.186.793-.74.165-.94-1.739-.56-3.468-1.179-5.223-1.68-1.547-.44-3.197-.59-4.786-.852-1.442-.238-2.87-.42-4.323-.578-1.515-.166-3.153-.58-4.667-.305-3.684.672-7.37 1.301-11.062 1.916-1.562.26-2.63 1.348-3.885 2.284-1.252.935-2.402 1.578-3.13 2.957-.618 1.167-1.234 2.334-1.85 3.502-.284.536-.624.985-.625 1.579-.006 1.94.684 4.082 1.004 6 .823 1.804 1.563 3.67 2.473 5.43.786 1.517 2.18 2.834 3.255 4.157 2.12 2.603 4.417 5.08 7.06 7.145 2.85 2.223 5.186 4.463 8.235 6.65 3.245 2.328 6.47 4.508 9.59 7.017.288.233.748.633 1.267 1.081l2.83 2.439c1.274 1.099 2.726 1.866 4.173 2.724 2.9 1.72 5.512 3.807 8.26 5.756 1.04.742 2.082 1.483 3.125 2.223.682.485.8.54 1.234 1.03 1.256 1.422 2.476 3.036 3.9 4.292 1.538 1.358 3.301 2.523 4.93 3.768 1.281.978 3.122 1.274 4.63 1.776 1.631.541 2.716.87 4.41.856 1.284-.012 2.568-.022 3.852-.032.662-.007 1.382.068 2.014-.15 1.91-.661 3.771-1.833 5.585-2.729 1.44-.71 2.458-2.143 3.557-3.287l1.682-1.748c.46-.478-.148-.797-.614-.734" fill="#5cffe4"/><path d="m67.819 110.348-4.855-1.921-5.158-1.237-5.284-.751-5.081-1.561-5.041-.985-3.639 3.729-2.848 4.549-3.47 4.085-2.65 4.712-3.836 3.973 1.348 5.587 1.629 5.406.969 5.568 1.54 5.276 3.468-4.158 2.859-4.818 3.627-4.242-6.538-3.702 3.105-4.706 3.191-4.523 3.517-4.597 5.467 2.621 5.438 1.974 5.435 2.001 5.467 1.918 5.59 1.496-1.459-5.238-1.234-5.331z" fill="#c58fff"/><path d="m51.079 117.879c-.042-.017-.071-.027-.088-.033-.132-.06-.262-.125-.392-.188l-1.755-.842-3.141-1.506c-.627-.3-1.665-.209-2.121.389-3.504 4.577-6.803 9.236-9.977 14.047-.188.285-.06.673.223.835 1.963 1.111 3.926 2.222 5.888 3.335-1.599 1.864-3.135 3.664-4.4 5.798-.456.77-.927 1.53-1.369 2.307-.037.065-.228.357-.261.426-.101.122-.205.244-.305.363l-1.26 1.512c-.328-1.054-.648-2.11-.896-3.174-.427-1.836-.534-3.745-.971-5.578-.436-1.826-1.14-3.593-1.629-5.405-.464-1.722-.846-3.471-1.257-5.208 1.17-1.18 2.455-2.327 3.482-3.618 1.105-1.395 1.845-3.206 2.721-4.752.037-.063.054-.097.065-.119.023-.024.053-.06.104-.12.318-.379.64-.755.96-1.132.727-.854 1.494-1.688 2.185-2.572 1.085-1.382 1.961-3 2.873-4.502.052-.085.108-.172.163-.26.024-.02.06-.058.115-.114l1.22-1.25 1.538-1.576c1.296.23 2.598.451 3.868.77 1.707.428 3.347 1.148 5.06 1.555 1.742.414 3.59.522 5.361.78.055.009.086.013.111.016l.141.036c.474.119.952.227 1.427.342 1.057.253 2.136.463 3.182.763 1.576.45 3.109 1.163 4.635 1.79 1.344 4.454 2.436 8.961 3.643 13.45-6.484-1.877-12.818-4.185-19.143-6.565m22.312 7.807c-1.456-5.23-2.67-10.497-4.249-15.692-.09-.296-.344-.46-.66-.526-2.293-.908-4.492-1.816-6.89-2.392-2.701-.647-5.36-1.098-8.117-1.461-.08-.011-.302-.06-.392-.078-.11-.033-.223-.065-.333-.103-.798-.262-1.608-.494-2.411-.74-1.01-.31-1.987-.626-3.02-.827-1.373-.268-2.754-.616-4.14-.808-1.665-.231-2.645 1.296-3.69 2.366-.785.803-1.63 1.548-2.239 2.495-.845 1.318-1.623 2.682-2.493 3.984-.012.016-.016.022-.023.036l-.032.037c-.175.215-.358.423-.537.633l-1.739 2.047c-.696.82-1.272 1.55-1.798 2.484l-1.335 2.375c-.171.305-.351.607-.514.916-.061.115-.23.36-.213.357-.895 1.068-1.973 2.031-2.938 3.031-.283.29-.845.711-.963 1.127-.12.422.123.981.221 1.39.358 1.489.682 2.99 1.078 4.47.72 2.684 1.604 5.228 2.08 7.969.498 2.867 1.258 5.557 2.076 8.356.276.943 1.958.527 2.416-.02 1.82-2.183 3.534-4.222 4.981-6.662.436-.732.882-1.46 1.307-2.201l.124-.215c.151-.193.322-.376.481-.56l3.06-3.58c.272-.32.37-.813-.061-1.056-1.991-1.129-3.984-2.256-5.975-3.384 1.43-2.169 2.862-4.33 4.359-6.453l1.419-2.01.08-.112.012-.016c.168-.223.34-.444.51-.666l2.163-2.828c6.631 3.09 13.52 5.673 20.483 7.934 1.903.617 3.877 1.056 5.811 1.573.645.172 2.378-.197 2.1-1.19" fill="#000"/><path d="m102.764 149.268-4.994-1.433-5.652-.199-5.122-2.369-4.977-2.523-4.118-3.719-3.318-4.166-5.384.848-4.966 2.557-5.906.664 1.763 5.788 1.368 5.754 4.966.005 4.559-.188 1.276 5.291.84 5.489 1.365 5.44-4.984-1.792-4.162-3.161-4.665-2.147-4.389-2.671-5.299-1.669-1.256-5.769-2.13-5.341-.545-5.795-2.186-5.721 5.561-1.487 5.203-1.985 5.038-2.434 5.097-1.804-1.561-5.494-.038-6.03.839-6.06 3.181-5.237 2.519-5.266-.256-5.801-.714-5.667-3.11-4.807-4.846-3.168-4.864 3.938-6.11 2.3-6.515-1.165-4.952 4.995-2.647 6.23-4.71-.927-4.717.363-4.824-.766.091-6.017-.65-5.742 4.706-3.331 4.031-4.368 4.099-3.788-3.387-2.898 4.636-3.998 3.552-5.121 5.06-3.898-3.266-3.395-1.707-3.815 5.648.363 5.78 2.329 5.456-1.387 5.399-1.34 5.674.056 5.422 1.776 4.996 2.744 3.529 4.519 4.646 3.314 3.335 4.554 1.657 5.505 2.855 4.78 2.577 4.978 1.77 5.133 2.639 4.757 2.188 4.96 2.164 5.041 3.167 4.456 3.353 4.319 4.296 3.427 3.977 3.671 3.935 3.783 5.349 2.626-2.97 5.18-1.578 5.371-3.341 4.466-3.744 4.114-5.367 2.697-5.13 3.043z" fill="#c58fff"/><path d="m128.152 125.468c.074-.174.123-.233 0 0m-3.892 1.318-.81 2.755c-.082.276-.193.574-.259.867-.437.382-.8 1.11-1.13 1.548-.561.752-1.119 1.508-1.687 2.257-.704.925-1.528 1.758-2.31 2.618-.461.508-1.035 1.015-1.45 1.574-.179.096-.363.226-.467.277-2.681 1.349-5.271 2.717-7.85 4.248-1.184.702-2.244 1.345-3.246 2.29-.869.813-1.737 1.63-2.605 2.447-1.49-.49-3.025-1.024-4.54-1.124-1.425-.093-2.864-.1-4.293-.152-.306-.01-.903-.15-.71-.044-.383-.165-.759-.354-1.136-.528-1.21-.56-2.42-1.123-3.633-1.68-.016-.007-.018-.01-.029-.014l-.337-.17c-.633-.32-1.267-.643-1.9-.964-.829-.419-1.789-.778-2.548-1.315-1.024-.724-1.93-1.741-2.86-2.581-.334-.303-.69-.599-1.018-.915-.015-.026-.055-.082-.124-.177-.205-.288-.442-.557-.663-.833-.82-1.028-1.639-2.056-2.458-3.086-.323-.405-.954-.586-1.456-.508-1.6.253-3.201.501-4.8.757-1.496.238-2.663.932-4.003 1.62-.683.352-1.449.664-2.105 1.078-.16.023-.322.05-.477.067l-4.87.546c-.751.084-2.24.707-1.92 1.755 1.166 3.84 2.2 7.64 3.128 11.544.167.697 1.029.81 1.605.81 2.712.004 5.407-.047 8.11-.14.97 4.174 1.716 8.37 2.642 12.547-.444-.162-.88-.336-1.306-.527.142.043-.302-.234-.467-.359l-1.52-1.154c-.678-.517-1.348-1.135-2.08-1.58-1.475-.896-3.185-1.434-4.74-2.193-.023-.024-.344-.209-.518-.315-.49-.3-.983-.599-1.475-.897-.763-.466-1.514-1.001-2.31-1.408-1.524-.779-3.338-1.177-5.013-1.66-.358-1.745-.633-3.548-1.15-5.242-.553-1.814-1.692-3.506-2.13-5.351-.444-1.872-.11-3.93-.551-5.802-.363-1.53-1.074-3.06-1.708-4.554 3.138-.864 6.21-1.798 9.233-3.089 1.685-.72 3.446-1.521 5.04-2.427l.01-.006.249-.089 1.763-.624 2.69-.952c.656-.232 1.693-.792 1.442-1.673-.505-1.776-.99-3.559-1.514-5.33-.015-.045-.023-.062-.032-.067.002-.036.004-.071.004-.13.01-.49-.005-.98-.008-1.468-.007-1.218-.026-2.437-.022-3.656.005-1.657.384-3.34.612-4.981.058-.419.147-.845.174-1.267.005-.06.005-.095.005-.131.014-.014.034-.034.057-.072.573-.874 1.088-1.79 1.63-2.683.844-1.39 1.61-2.728 2.31-4.194.776-1.617 1.779-3.043 1.7-4.853-.08-1.778-.076-3.58-.27-5.349-.118-1.09-.273-2.177-.41-3.265-.1-.783-.076-1.692-.414-2.41-.393-.839-1.053-1.627-1.556-2.404-.494-.765-.942-1.724-1.555-2.403-.655-.726-1.75-1.215-2.552-1.74-.85-.556-1.698-1.112-2.549-1.667-.723-.473-1.875-.313-2.528.217-.85.687-1.699 1.374-2.548 2.063-.561.452-1.121.906-1.682 1.36-.276.224-.829.493-.492.373-1.646.643-3.308 1.254-4.965 1.873-1.816-.33-3.63-.682-5.453-.973-2.222-.356-3.393 1.403-4.812 2.835-1.17 1.18-2.635 2.265-3.295 3.818l-1.757 4.135-2.277-.448c-1.147-.226-2.238-.073-3.4.019-.737.056-1.502.056-2.23.17l-.005.001c-.21-.036-.42-.067-.63-.1-.939-.15-1.876-.3-2.815-.448.046-1.689.129-3.387.068-5.069-.065-1.762-.35-3.539-.575-5.299l3.323-2.35c1.048-.743 1.839-1.687 2.711-2.63.633-.685 1.272-1.364 1.898-2.057l.24-.267c.104-.1.304-.3.356-.35l3.615-3.34c.583-.538.898-1.208.192-1.811l-2.428-2.08 2.8-2.414c1.119-.964 1.836-2.092 2.682-3.31.539-.78 1.205-1.554 1.656-2.39l.088-.157c.196-.161.403-.31.602-.463l4.268-3.29c.407-.312.924-1.078.448-1.573-1.067-1.109-2.14-2.212-3.2-3.328.047.05.126.337-.079-.126-.208-.471-.42-.94-.63-1.41l-.04-.087.174.01c.604.04 1.224.125 1.828.118.09-.002.15-.006.192-.011.04.026.101.06.197.106 1.237.591 2.567 1.035 3.838 1.548 1.035.417 1.81.84 2.96.618 2.024-.393 4.015-1.03 6.015-1.526 1.34-.334 2.682-.666 4.02-1 .13-.03.257-.063.387-.094.52.092 1.15.007 1.671.012.742.007 1.483.014 2.223.023.297.002.833.1 1.239.077.121.035.247.065.35.1l2.055.672 1.873.615c.179.058.356.124.536.175.03.009.042.011.06.015 1.101.57 2.177 1.196 3.265 1.794.447.244.888.506 1.344.736.012.007.016.007.027.012l.258.331 2.62 3.356c1.276 1.63 3.285 2.74 4.978 3.902.091.063.185.132.278.2.008.01.004.006.014.021.365.515.747 1.02 1.12 1.529.688.94 1.5 1.862 2.097 2.862-.347-.582.104.511.172.741l.65 2.152c.27.898.465 1.86.889 2.698.893 1.769 2.105 3.376 3.03 5.13.662 1.255 1.306 2.52 1.957 3.78.13.249.464 1.071.272.527.18.513.354 1.028.531 1.541.773 2.238 1.545 4.16 2.691 6.223l.986 1.778c.087.156.174.31.26.467v.002c.557 1.242 1.1 2.493 1.65 3.74.84 1.907 1.63 3.834 2.474 5.74.81 1.825 2.267 3.493 3.454 5.091 1.142 1.537 2.283 3.387 3.72 4.656 1.512 1.335 3.217 2.442 4.7 3.81 1.038.96 2.076 1.92 3.115 2.877l.22.203.07.065c.483.469.971.935 1.455 1.402.79.758 1.549 1.66 2.422 2.325.862.656 2.039 1.06 3.009 1.536l1.66.815c-1.147 1.939-2.334 3.834-2.972 6.004m-54.734 10.13c.058-.01.115-.02.172-.026-.373.107-.92.12-.172.025m-37.97-43.034c.165 0 .173.022 0 0m-6.314-17.487c-.14.123-.22.158 0 0m100.184 40.237c-.195-.111-.335-.21-.338-.27-.003-.03.19.144.338.27m4.991 2.348c-.846-.416-1.692-.832-2.54-1.247-.19-.095-1.548-.624-2.295-1.014-.019-.028-.05-.07-.1-.134-.135-.166-.319-.306-.472-.454l-1.53-1.47c-.672-.646-1.339-1.298-2.02-1.936-1.35-1.263-2.684-2.573-4.098-3.764-.877-.74-1.795-1.432-2.691-2.147-.41-.327-.812-.666-1.23-.981-.053-.04-.086-.062-.113-.077-.02-.039-.052-.095-.123-.196-1.108-1.605-2.434-3.058-3.566-4.65l-2.303-3.241c-.145-.205-.345-.51-.355-.492-.172-.364-.317-.748-.474-1.116-1.543-3.594-2.98-7.26-4.878-10.68-.519-.936-1.093-1.862-1.568-2.82.03.021-.155-.458-.226-.663l-.674-1.957c-.672-1.95-1.462-3.649-2.411-5.481-.907-1.752-1.87-3.429-2.882-5.122-.278-.466-.547-.938-.834-1.398-.06-.096-.118-.195-.176-.295l-.015-.05c-.35-1.141-.688-2.288-1.03-3.43-.228-.751-.38-1.595-.774-2.279-.57-.988-1.388-1.895-2.061-2.814-.485-.66-.922-1.422-1.545-1.958-.837-.723-1.836-1.31-2.736-1.953-.468-.334-.93-.677-1.404-1.003-.096-.065-.194-.134-.289-.206l-.003-.005c-.698-.905-1.408-1.8-2.112-2.701-.494-.633-.964-1.451-1.609-1.944-.829-.632-1.931-1.06-2.843-1.56-1.773-.973-3.377-1.631-5.304-2.264-.903-.296-1.836-.713-2.773-.887-1.014-.19-2.164-.07-3.192-.08-1.026-.01-2.106-.121-3.129-.031-.972.085-1.96.447-2.901.682-1.858.46-3.716.926-5.57 1.398l-2.06.524c-1.718-.729-3.459-1.601-5.235-2.099-1.877-.526-4.131-.336-6.075-.461-.73-.048-2.91.549-2.374 1.747.591 1.321 1.043 2.95 1.873 4.135.68.972 1.653 1.835 2.547 2.69l-3.03 2.333c-1.18.91-1.853 1.92-2.708 3.154-.576.833-1.19 1.648-1.736 2.502-.096.151-.207.312-.229.362-.121.102-.247.202-.363.303l-4.034 3.478c-.603.521-.882 1.222-.192 1.811l2.47 2.115c-1.79 1.658-3.55 3.318-5.21 5.118-.606.654-1.239 1.291-1.82 1.968-.05.06-.103.11-.15.153l-.53.375-4.017 2.843c-.44.312-.655.744-.595 1.27l.34 3.022.214 1.88c.013.12.058.81.07.757.028 1.918-.06 3.847-.089 5.766-.01.704.542 1.037 1.175 1.14 2.464.39 4.711.816 7.196.625.786-.06 1.575-.103 2.36-.181.07-.008.115-.006.163-.008l.454.09 4.078.803c.78.153 1.973-.316 2.298-1.076l1.323-3.117.91-2.14c.12-.285.702-1.239.215-.672 1.213-1.416 2.612-2.711 3.962-4.02 1.482.263 2.963.529 4.444.793 1.794.321 3.189-.385 4.856-1.013 1.474-.556 3.148-.945 4.403-1.923 1.079-.84 2.135-1.706 3.191-2.571 1.152.742 2.305 1.483 3.437 2.252l.006.004c.013.03.024.057.047.101.205.414.517.8.768 1.188.628.971 1.245 1.952 1.887 2.915.094.142.143.257.17.325.057.33.082.674.124 1.006l.432 3.434.102.805c.002.061.03.385.038.556l.157 3.565c.018.421-.01.878.057 1.294.012.077.025.12.04.15-.017.021-.033.047-.056.088-.51.938-.929 1.94-1.389 2.902-.703 1.471-1.437 2.812-2.285 4.207-.833 1.372-1.883 2.636-2.106 4.243-.244 1.766-.629 3.57-.73 5.351-.11 1.96-.187 4.171.049 6.12.185 1.525.753 3.084 1.24 4.593-1.273.426-2.551.85-3.78 1.369-1.716.725-3.328 1.696-5.039 2.434-.848.366-1.737.662-2.6.993-.597.226-1.192.455-1.789.682-.264.1-1.34.38-.374.146-1.858.446-3.697.99-5.542 1.482-.614.164-1.753.856-1.442 1.672.707 1.851 1.737 3.78 2.18 5.706.43 1.875.106 3.928.551 5.8.437 1.847 1.576 3.537 2.13 5.353.567 1.863.841 3.865 1.256 5.769.072.333.437.613.744.71 1.717.54 3.443 1.06 5.154 1.622.055.029.129.074.229.135.5.316 1.011.615 1.516.925.807.489 1.6 1.026 2.428 1.477 1.523.831 3.189 1.391 4.73 2.187.004.006.008.011.025.024.107.088.224.165.332.252.428.35.881.671 1.32 1.004.785.597 1.553 1.31 2.397 1.82 1.569.95 3.644 1.375 5.367 1.995.963.347 3.122-.302 2.783-1.655-1.349-5.385-2.18-10.827-3.481-16.223-.163-.677-1.029-.834-1.605-.81-2.716.113-5.416.16-8.13.171-.754-3.107-1.584-6.165-2.49-9.228l2.397-.268c1.458-.164 2.491-.586 3.792-1.255l2.587-1.331c.078-.04.317-.127.489-.217 1.239-.166 2.472-.375 3.706-.58 2.38 3.018 4.928 6.328 8.38 8.077 2.074 1.053 4.145 2.097 6.255 3.073 1.054.486 2.221 1.27 3.38 1.465 1.094.187 2.32.083 3.427.122.679.024 1.365.082 2.045.073.029 0 .038-.002.058-.005.202.056.404.117.606.176 1.367.39 2.735.782 4.103 1.174.428.172.886.155 1.317.024.456-.107.88-.333 1.176-.691 1.1-1.036 2.202-2.071 3.304-3.106.16-.152.797-.596 1.064-.916-.26.272-.798.404-.177.078.075-.04.148-.09.224-.133.04-.055.068-.105.076-.146-.01.049-.033.095-.064.139.279-.161.554-.329.83-.492 2.6-1.543 5.19-2.943 7.89-4.3 2.294-1.154 3.99-3.254 5.612-5.23.987-1.203 1.874-2.505 2.805-3.752.753-1.007 1.018-1.976 1.373-3.185.302-1.027.602-2.055.907-3.083.018-.063.041-.119.063-.172.122-.223.252-.441.378-.66l2.559-4.464c.362-.632-.152-1.13-.666-1.382" fill="#000"/><path d="m108.608 145.76c.02-.021.041-.04.058-.062l-.013.008c-.012.017-.03.035-.045.054" fill="#000"/><path d="m44.365 53.022-6.529-.085-5.946 2.665-4.588 4.693-3.783 4.315-5.451 1.699-5.728-.805 4.209 3.771 5.097 2.098 5.462.419 5.364-1.292 4.905-2.736 3.761-4.156 2.535-5.024z" fill="#5cffe4"/><path d="m42.426 57.913c-.023.179-.036.37-.064.553-.026.043-.103.249-.17.373-.456.806-.842 1.664-1.26 2.49-.322.642-.611 1.335-.983 1.955-.023.022-.06.06-.134.14l-.887.982-1.919 2.12c-.164.181-.425.394-.57.611-1.515.627-2.984 1.65-4.405 2.463-.006.002-.006.003-.011.006-.289.072-.578.14-.867.209l-2.994.721c-.258.062-.541.113-.807.188-.456-.174-1.91-.087-2.237-.111-.85-.065-1.708-.167-2.562-.197-.133-.004-.294-.032-.359-.04-.2-.075-.396-.167-.591-.247l-3.058-1.259c-.353-.145-.74-.268-1.079-.443-.018-.025-.056-.066-.137-.142-.447-.41-.906-.81-1.359-1.216 1.053.15 1.917.315 2.95-.006 1.496-.468 3-.915 4.492-1.402 1.127-.368 1.675-1.159 2.437-2.028 1.715-1.956 3.453-3.834 5.271-5.694.511-.521 1.048-1.029 1.539-1.573.034-.038.043-.053.068-.084.038-.008.064-.012.123-.031 1.455-.503 2.865-1.284 4.27-1.915.26-.117.532-.232.795-.355.418.05 1.632-.019 1.772-.017l3.22.042c-.16 1.303-.322 2.605-.484 3.907m-4.492-3.94c.063-.031.13-.053.192-.087.525-.28.078.031-.192.087m6.672-1.93c-.048-.005-.08-.022-.133-.023l-5.669-.074c-1.66-.022-3.039.838-4.536 1.51-1.463.655-2.898 1.122-4.025 2.275-1.347 1.379-2.738 2.727-4.049 4.141-1.194 1.29-2.33 2.641-3.483 3.97l-2.029.632c-.617.192-1.235.383-1.85.576-.113.036-.48.12-.717.19-.21-.023-.463-.045-.552-.056l-1.91-.27-2.865-.4c-.9-.128-2.486.857-1.464 1.772 1.284 1.15 2.54 2.343 3.856 3.453 1.082.913 2.674 1.301 3.968 1.834 1.312.54 2.23.806 3.641.914 1.512.115 3.237.49 4.744.206 1.683-.321 3.486-.696 5.113-1.232 1.443-.477 2.81-1.479 4.132-2.215 1.347-.752 2.155-1.554 3.192-2.702.97-1.072 2.081-2.061 2.736-3.36.76-1.503 1.91-3.133 2.32-4.773.435-1.745.46-3.692.68-5.48.082-.65-.475-.911-1.1-.888" fill="#000"/><path d="m51.033 48.09s10.552-4.93 16.595 6.959c8.208 16.148 23.196 13.383 28.727 23.375 5.532 9.993 13.562 9.278 13.562 9.278l-14.125-28.61-25.31-15.82-18.605.174z" fill="#5cffe4"/><path d="m51.878 48.54c.201-.092.976-.35.239-.114.276-.088.55-.174.831-.25.17-.043.339-.084.509-.123.245-.052.242-.053-.011-.003.134-.025.269-.046.404-.067 1.767-.253 3.688-.101 5.485.731 3 1.389 4.892 4.052 6.404 6.888 1.673 3.135 3.764 5.995 6.448 8.339 4.197 3.664 9.297 5.63 14.223 8.065 2.2 1.09 4.341 2.328 6.036 4.133 2.152 2.292 3.29 5.28 5.54 7.528 2.993 2.992 7.326 5.142 11.651 4.786.743-.06 2.285-.556 2.399-1.46.12-.971-1.204-1.003-1.839-.95.812-.066.004-.013-.371-.033-.49-.026-1.288-.166-2.117-.413-2.616-.781-4.874-2.486-6.656-4.523-2.053-2.346-3.179-5.31-5.513-7.425-1.782-1.614-3.9-2.814-6.051-3.861-5.227-2.551-10.624-4.635-14.796-8.856-2.607-2.64-4.102-5.769-6.053-8.854-1.618-2.56-3.923-4.722-6.787-5.795-3.63-1.363-8.123-1.185-11.665.449-.598.275-1.702.97-1.117 1.741.547.72 2.165.363 2.807.067m28.182 36.582c-.128-.791-.166-1.593-.524-2.314-.978-1.979-1.815-3.973-3.18-5.713-.784-.999-1.519-2.097-2.382-3.032-.645-.7-1.468-1.286-2.19-1.906-1.737-1.497-3.503-2.697-5.429-3.953-1.92-1.255-4.052-2.086-6.137-3.037-.477-.215-2.69.108-2.382.971l1.581 4.439c.085.24.217.496.267.746 0 .005.032-.122-.047.18-.222.834-.45 1.667-.676 2.501-.213.789-.387 1.602-.642 2.377-.012.034-.018.055-.023.075l-.003.004c-.173.24-.406.459-.602.68l-3.067 3.468c-.424.48.362.703.7.715.62.022 1.335-.236 1.749-.705l3.185-3.598c.865-.981 1-2.108 1.341-3.372.33-1.219.95-2.408.519-3.622l-.763-2.144c.457.212.912.437 1.379.627.04.016.18.082.237.104.112.07.223.144.33.215 1.774 1.156 3.572 2.23 5.175 3.61.963.831 2.027 1.614 2.923 2.517.67.676 1.217 1.525 1.805 2.273l1.202 1.532c.11.14.227.273.328.415.01.016.015.022.022.03l.043.084c.616 1.16 1.168 2.358 1.75 3.534.984 1.99 1.074 4.275 1.43 6.456.134.83 2.796.216 2.645-.71l-.563-3.447zm-39.683-12.52c2.842.678 6.706.179 8.202-2.66.631-1.198.647-2.573.485-3.885-.04-.325-.465-.567-.729-.653-.4-.131-.934-.113-1.335.006-.726.218-1.57.726-1.463 1.591.03.235.051.47.064.706l-.017-.315c.023.484.006.973-.086 1.45-.018.093-.037.187-.062.28-.014.062-.124.412-.04.155.083-.256-.031.07-.058.13-.04.089-.083.178-.13.264-.038.07-.08.137-.121.205-.156.26.246-.308.057-.077-.108.133-.223.252-.342.372-.185.184.392-.318.098-.09-.055.043-.112.084-.172.123-.057.04-.117.075-.176.112.585-.377.292-.165.133-.089-.23.114-.667.23.021.016-.15.048-.298.095-.451.132-.067.016-.133.028-.2.042-.239.051.563-.093.322-.057l-.079.014c-.148.023-.298.038-.449.05-.132.012-.264.019-.398.021-.16.004-.474-.018.234.002l-.21-.003c-.23-.008-.457-.025-.686-.05-.176-.02-.352-.048-.527-.079-.29-.049.505.105.242.049l-.057-.014c-.45-.105-.883-.113-1.334.006-.395.106-.89.339-1.16.663-.206.247-.42.591-.305.93.112.323.394.573.729.653m44.983 58.479c-.47-.319-1.243-.194-1.745-.062-2.462.646-4.924 1.294-7.386 1.939l-1.056.278c-.42.109-1.467.492-1.553 1.065-.017.068-.019.14.004.21.446 1.324.89 2.648 1.334 3.97.159.476.898.473 1.28.445.64-.046 1.388-.252 1.882-.681 2.075-1.808 4.152-3.614 6.227-5.42.294-.256.587-.512.883-.768.312-.273.558-.684.13-.976" fill="#000"/><path d="m48.444 16.231c-2.415-1.19-4.7-2.438-7-3.82 2.456-3.65 4.681-7.397 6.882-11.209.405-.7-1.215-.316-1.457-.106-2.629 2.299-5.118 4.78-7.97 6.799-2.871 2.03-5.477 4.22-8.035 6.633-.16.153-.28.386-.007.5 2.388.995 4.678 2.057 6.985 3.218-2.306 3.813-4.82 7.455-6.999 11.346-.008.014-.002.021-.009.034-.034.055-.043.102-.032.141 0 .017 0 .032.005.046.005.004.006.008.01.014.139.303 1.116.175 1.48-.127h.001c2.626-2.27 5.342-4.333 8.124-6.402 1.542-1.146 2.815-2.408 4.201-3.74 1.132-1.089 2.536-1.916 3.813-2.828.201-.144.247-.38.008-.499m-33.97 95.387c-1.858-.915-3.617-1.877-5.39-2.94 1.895-2.816 3.611-5.706 5.31-8.646.35-.608-1.054-.275-1.263-.092-2.034 1.777-3.96 3.698-6.165 5.258-2.221 1.57-4.235 3.265-6.213 5.13-.14.131-.244.334-.007.432 1.838.766 3.601 1.584 5.377 2.477-1.779 2.94-3.717 5.75-5.398 8.751-.007.012-.002.017-.007.028-.03.05-.039.09-.028.124 0 .013 0 .028.005.039l.01.012c.119.264.966.15 1.282-.11 2.03-1.755 4.131-3.35 6.284-4.95 1.191-.887 2.176-1.862 3.249-2.893.874-.842 1.96-1.482 2.947-2.187.175-.125.215-.33.007-.433m124.152-73.813c-2.009-.989-3.91-2.03-5.827-3.179 2.048-3.045 3.904-6.17 5.74-9.348.38-.658-1.139-.298-1.365-.1-2.2 1.922-4.282 3.999-6.666 5.686-2.401 1.698-4.58 3.53-6.718 5.546-.15.143-.264.362-.007.467 1.987.83 3.893 1.714 5.813 2.679-1.923 3.18-4.018 6.218-5.836 9.462-.008.013-.002.019-.008.031-.032.053-.041.097-.03.134 0 .014 0 .03.005.042l.011.013c.128.285 1.045.162 1.386-.12 2.196-1.897 4.468-3.622 6.795-5.352 1.288-.958 2.353-2.013 3.513-3.128.945-.91 2.12-1.603 3.186-2.364.19-.135.233-.357.008-.47" fill="#5cffe4"/></g></g></svg>