<svg height="180" viewBox="0 0 140 180" width="140" xmlns="http://www.w3.org/2000/svg" xmlns:xlink="http://www.w3.org/1999/xlink"><mask id="a" fill="#fff"><path d="m.803.798h64.652v110.202h-64.652z" fill="#fff" fill-rule="evenodd"/></mask><mask id="b" fill="#fff"><path d="m0 .478h96.722v108.054h-96.722z" fill="#fff" fill-rule="evenodd"/></mask><g fill="none" fill-rule="evenodd"><path d="m0 1h140v180h-140z" transform="translate(0 -1)"/><path d="m3.745 71.273 1.865 7.421-1.999 11.13-1.443 11.44 1.266 11.497 5.485 7.599 4.803 8.113 6.291 6.969 6.362 6.899 5.521 7.509 4.26 11.15 2.398 11.192 9.938-5.08 9.651-6.669 5.894-9.851-4.373-10.213-2.853-10.844-4.81-10.088-3.723-10.514-3.679-10.597-7.756-7.086-7.14-7.557-6.957-7.736-6.72-7.853-12.078-4.315z" fill="#c58fff" transform="translate(29 -1)"/><path d="m62.535 88.612c-.001-.065.02-.125.11-.12-.02-.002-.061.048-.11.12m-.486.877-4.793 8.01c-.064.106-.32.417-.417.621-.045.036-.092.073-.133.101l-3.393 2.345-4.112 2.842c-.428.295-.87.577-1.285.888-.094.07-.2.125-.29.2l-.003.003c-2.442 1.262-4.896 2.503-7.343 3.755l-.532.271-.996-4.646c-.38-1.774-.633-3.64-1.156-5.378-.59-1.959-1.48-3.872-2.21-5.783-.667-1.748-1.193-3.673-2.04-5.343-.338-.664-.887-1.257-1.327-1.855-.83-1.127-1.658-2.255-2.487-3.382-.897-1.22-1.755-2.404-2.78-3.515-2.777-3.012-5.551-6.024-8.296-9.065-1.158-1.283-2.562-2.53-3.521-3.972-1.353-2.036-2.507-4.237-3.754-6.34-.73-1.235-1.503-2.365-2.343-3.53l-2.512-3.478c-.456-.632-1.11-1.309-1.468-2.016-.001-.029-.014-.119-.011-.257.012-.389-.09-.82-.132-1.206l-.438-3.975c-.211-1.91-.586-3.883-.648-5.809.015.054.039-.34.052-.427.067-.439.11-.882.166-1.322.167-1.31.332-2.62.497-3.93.24-1.907.432-3.826.722-5.724.309-2.023.725-4.037 1.087-6.052.226-1.258.45-2.514.677-3.77.09-.508.265-1.055.219-1.572-.086-.969-.505-2.006-.742-2.948l-.927-3.69c-.021-.083-.151-.66-.182-.672-.008-.26.02-.533.026-.788l.11-4.024.018-.7 4.816 1.72 4.068 1.454c.125.044.36.17.568.246.083.098.212.215.253.263 3.219 3.761 6.434 7.513 9.745 11.194 3.349 3.725 6.777 7.364 10.217 11.007 1.36 1.44 2.9 2.72 4.36 4.053l3.37 3.078c.095.086.425.448.46.417.099.23.166.5.244.722 1.613 4.646 3.224 9.291 4.865 13.927.752 2.126 1.397 4.337 2.28 6.411 1.115 2.607 2.45 5.138 3.67 7.697.78 1.633 1.28 3.005 1.742 4.755.719 2.736 1.309 5.547 2.169 8.243.68 2.135 1.778 4.207 2.66 6.266.516 1.206.94 2.534 1.577 3.682l.09.165c-.171.27-.425.777-.457.833m3.392-1.478c-.18-1.015-.924-2.157-1.328-3.099-.687-1.608-1.376-3.214-2.064-4.82-.73-1.707-1.221-3.27-1.695-5.07-.687-2.613-1.18-5.389-2.088-7.934-.806-2.26-2.112-4.444-3.144-6.608-.795-1.668-1.593-3.283-2.208-5.02-1.714-4.842-3.423-9.684-5.108-14.535l-1.501-4.323c-.204-.586-.326-.903-.784-1.32l-6.623-6.052c-3.002-2.742-5.748-5.867-8.467-8.89-3.46-3.849-6.898-7.703-10.263-11.634-.854-.999-1.674-2.046-2.571-3.006-.455-.485-.995-.628-1.615-.85-2.985-1.066-5.97-2.134-8.957-3.2l-1.988-.71c-.773-.405-2.522.108-2.543.924l-.18 6.623c-.05 1.806.597 3.537 1.035 5.28.258 1.026.598 2.063.78 3.104l.008.026-.025.116c-.072.38-.137.761-.205 1.142-.48 2.668-.958 5.337-1.437 8.005-.688 3.828-1.066 7.712-1.553 11.57-.17 1.34-.138 2.377.01 3.724l.87 7.904c.067.604.026 1.354.298 1.903.295.603.842 1.168 1.233 1.71 1.388 1.923 2.858 3.808 4.174 5.782 1.006 1.51 1.869 3.134 2.794 4.696.8 1.355 1.493 2.867 2.552 4.041 2.69 2.98 5.374 5.965 8.096 8.915 1.364 1.48 2.833 2.91 4.112 4.464 1.432 1.74 2.69 3.658 4.025 5.474.45.613.959 1.216 1.37 1.86.013.041.107.234.143.331.154.428.325.85.487 1.274l2.893 7.575c1.385 3.625 1.935 7.525 2.747 11.315l.384 1.796c.164.762 1.619.494 2.04.278 3.986-2.037 8.202-3.828 11.888-6.376l7.6-5.252c.529-.365.876-.73 1.205-1.28l2.29-3.83 2.464-4.117c.326-.544.964-1.252.849-1.906" fill="#000" mask="url(#a)" transform="translate(29 61.086)"/><path d="m76.783 155.728 6.308-8.384 6.487-8.477 5.688-8.87-8.337-7.183-4.568-10.638-1.884-11.262-3.039-10.98-6.918-9.019-5.654-6.506-4.502-7.386-3.546-8.266-4.048 5.372-.425 7.777-6.127-5.76-7.947-4.229-8.125-4.025-7.567-5.84-8.505-.199-12.598-2.583 3.031 9.548 5.493 12.318.845 9.272 5.768 7.368 6.7 6.442 5.111 10.652 4.472 10.939 3.358 11.366 4.489 9.66 7.444 7.445 8.592 6.16 10.178 3.01z" fill="#c58fff" transform="translate(29 -.914)"/><path d="m80.109 101.497-3.861 5.132c-3.674-.838-7.354-1.644-10.969-2.712-1.609-.477-3.219-.952-4.828-1.428-.165-.049-1.855-.667-2.497-.798.119.11.19.284.076.117-.033-.047-.098-.093-.166-.136-.087-.014-.149-.016-.164.004.026-.034.056-.049.085-.055-.043-.025-.09-.053-.12-.074l-1.532-1.098-3.88-2.782c-1.454-1.043-2.757-1.988-4.015-3.246-1.987-1.988-3.951-4.003-5.964-5.964-.068-.067-.104-.095-.127-.11-.008-.018-.016-.037-.033-.068-.232-.432-.417-.897-.624-1.342l-1.961-4.22c-.752-1.62-1.609-3.196-2.115-4.909-1.3-4.4-2.436-8.84-4.173-13.088-1.83-4.476-3.672-8.87-5.763-13.228l-2.016-4.204c-.263-.547-.482-1.205-.858-1.686-.686-.878-1.692-1.628-2.494-2.398l-3.358-3.23c-1.418-1.363-2.541-2.995-3.751-4.542-.844-1.077-1.663-2.18-2.535-3.236-.054-.065-.12-.14-.173-.215-.001-.009-.001-.018-.006-.039-.091-.44-.084-.924-.125-1.372l-.436-4.77c-.088-.97-.035-2.098-.277-3.044-.15-.582-.522-1.177-.766-1.724l-1.93-4.33c-.927-2.079-1.986-4.144-2.797-6.273-.885-2.322-1.516-4.774-2.267-7.142l-.207-.65 6.218 1.273c1.147.235 2.308.55 3.468.711 1.259.177 2.59.088 3.858.117l4.506.106c2.004 1.545 4.008 3.091 6.011 4.638 1.646 1.27 3.42 2.075 5.289 3.002 1.862.923 3.731 1.828 5.566 2.805 1.458.776 2.916 1.553 4.375 2.328l1.72.916c.148.08.301.152.446.237 2.119 1.762 4.05 3.808 6.059 5.696.553.521 2.744.167 2.794-.748.138-2.528.083-5.145.419-7.653.003-.024.003-.036.003-.05.086-.14.209-.273.304-.4l1.401-1.858.348-.463c.824 2.001 1.634 4.015 2.578 5.951 1.225 2.513 2.932 4.866 4.387 7.254.436.715 1.014 1.306 1.564 1.938 1.242 1.43 2.483 2.86 3.725 4.287 1.647 1.894 3.11 3.954 4.636 5.944.909 1.186 1.778 2.42 2.735 3.567.077.093.119.135.144.155-.01.011-.012.05.018.165.157.604.332 1.204.499 1.805.822 2.966 1.804 5.93 2.473 8.934.642 2.881.982 5.863 1.469 8.774.138.83.193 1.748.441 2.552.388 1.255 1.067 2.482 1.583 3.687l2.421 5.638c.394.917.601 1.395 1.348 2.038l7.395 6.37c-1.939 3.056-3.75 6.268-5.946 9.138-2.549 3.33-5.107 6.653-7.628 10.005zm9.649-25.969c-.431-.37-.854-.754-1.294-1.114-.045-.036-.127-.12-.164-.145-.032-.078-.06-.159-.088-.229-.568-1.432-1.218-2.836-1.826-4.25l-2.162-5.038c-.263-.614-.433-1.079-.543-1.732-.555-3.323-1.111-6.647-1.668-9.97-.412-2.469-1.3-4.908-1.967-7.317-.363-1.31-.602-2.762-1.114-4.023-.279-.689-.863-1.272-1.314-1.86-1.909-2.489-3.757-5.04-5.734-7.476-1.766-2.177-3.801-4.148-5.524-6.359-.722-.924-1.272-2.014-1.883-3.016-.887-1.456-1.88-2.89-2.684-4.398.01.011-.056-.135-.102-.25-.1-.256-.217-.507-.325-.759-.409-.954-.818-1.908-1.228-2.86l-1.871-4.363c-.413-.964-2.357-.213-2.795.367l-2.246 2.981c-.57.756-1.65 1.731-1.907 2.665-.335 1.214-.154 2.817-.223 4.07l-.023.43-1.999-1.879c-1.141-1.073-2.04-1.729-3.418-2.462-3.597-1.914-7.193-3.793-10.844-5.602l-3.044-1.509c-.085-.042-.359-.19-.417-.21-.154-.114-.304-.236-.455-.35-1.976-1.527-3.953-3.053-5.93-4.578-.579-.446-1.075-.969-1.824-1.045-.769-.079-1.573-.037-2.346-.055-1.34-.03-2.681-.062-4.021-.095l-1.456-.033c-.174-.004-.829-.087-.555-.024-4.143-.782-8.266-1.696-12.397-2.544-.531-.108-2.63.246-2.34 1.161 1.257 3.96 2.334 7.985 4.026 11.781l3.804 8.532c.234.522.567 1.075.7 1.63.251 1.048.206 2.26.304 3.331l.436 4.77c.063.698.061 1.07.476 1.618 1.69 2.236 3.457 4.417 5.185 6.623 1.291 1.65 3.04 3.022 4.546 4.47.778.748 1.654 1.464 2.372 2.275.019.03.096.14.168.293.233.506.481 1.004.721 1.505 2.084 4.343 4.155 8.638 5.977 13.094.898 2.197 1.924 4.382 2.707 6.624.809 2.315 1.398 4.732 2.093 7.084.497 1.683.874 3.44 1.615 5.034l3.723 8.011c.538 1.158 1.67 2.634 3.394 4.429l9.979 9.79 12.543 7.228c4.115-1.614 6.988-2.231 8.62-1.853l2.476.574c.045.011.098.005.145.012.062.01.124.017.178.02.013 0 .027-.003.041-.003.136.004.274-.006.418-.027.035-.005.068-.01.103-.017.141-.026.274-.062.409-.11.049-.018.094-.034.141-.054.115-.049.219-.102.319-.165.065-.039.123-.08.182-.126.035-.028.082-.049.113-.079.031-.029.039-.058.065-.087.039-.04.09-.072.124-.116 2.294-3.05 4.569-6.113 6.888-9.145 2.556-3.34 5.191-6.6 7.46-10.14l4.134-6.447c.105-.164.182-.426.001-.582z" fill="#000" mask="url(#b)" transform="translate(29 47.086)"/><path d="m57.785 149.621.079.051c.025.004.062.013.09.02-.052-.048-.11-.082-.17-.07m-46.229-97.08c5.734 3.913 11.477 7.814 17.171 11.786l5.183 3.616c.156.11.401.348.106.074.136.127.268.26.401.388l1.965 1.905c2.403 2.328 4.936 4.57 7.17 7.065l8.81 9.845c.673.755 3.442-.295 2.688-1.139l-7.956-8.892c-2.13-2.38-4.445-4.553-6.742-6.778-1.203-1.166-2.359-2.464-3.649-3.535-1.22-1.015-2.648-1.85-3.95-2.758-2.607-1.818-5.207-3.647-7.833-5.439l-11.06-7.549c-.785-.536-3.46.621-2.304 1.411m36.251 39.601c-1.239-1.236-2.565-2.424-3.734-3.727-1.227-1.367-2.33-2.867-3.489-4.291-1.106-1.361-2.155-2.815-3.34-4.108-1.258-1.372-2.69-2.618-4.023-3.916-5.232-5.094-10.887-9.648-16.773-13.964-.868-.636-1.718-1.376-2.638-1.933-.516-.313-1.137-.404-1.718-.555l-6.588-1.72c-.682-.178-1.569-.002-2.049.55-.41.47-.313 1.118.346 1.29l5.576 1.455c.701.184 1.432.33 2.124.55.044.029.162.095.278.185.364.288.753.552 1.128.828 2.95 2.16 5.854 4.31 8.677 6.63 1.723 1.414 3.438 2.839 5.168 4.245.061.049.238.208.295.256l.24.233 2.138 2.083c1.612 1.569 3.237 3.128 4.838 4.709.921.91 1.686 1.99 2.501 2.994 1.515 1.863 2.974 3.794 4.555 5.602 1.181 1.352 2.551 2.569 3.824 3.837.861.86 3.61-.29 2.664-1.233m-6.832 9.214c-1.91-2.712-3.82-5.425-5.732-8.137-1.544-2.192-3.409-4.138-5.17-6.158-3.7-4.24-7.315-8.553-11.095-12.718-1.302-1.434-2.538-3.004-3.94-4.34-.68-.65-1.368-.481-2.204-.342-.933.156-1.868.31-2.802.467-.614.102-1.147.339-1.207 1.093-.055.684.361 1.116.947 1.019l3.023-.504c3.618 3.992 7.186 8.007 10.701 12.09 3.014 3.504 6.381 6.818 9.043 10.596l5.783 8.208c.751 1.067 3.514-.051 2.653-1.274m29.009-14.487c-2.379-1.987-4.866-3.889-7.132-6.004-2.519-2.352-5.128-4.575-7.307-7.248l-4.022-4.934c-.625-.765-3.41.25-2.692 1.133l3.482 4.271c.801.982 1.548 2.028 2.476 2.895 2.513 2.347 4.98 4.737 7.62 6.94l4.884 4.078c.508.425 1.36.267 1.918.026.29-.125 1.285-.73.773-1.158m-61.713-8.945-4.317 5.608-.617.801c-.464.603.41.735.858.706.46-.029.368.497.796.324.325-.13-.145 1.36.018 1.039.245-.483.647-.264.778-.872.55-2.54 3.87-5.441 5.043-6.964l.616-.802c.465-.603-.408-.735-.858-.706-.46.029-.663-1.898-.809-1.46-.187.559-1.289 2.042-1.508 2.326m3.194 5.786-1.174 6.244c-.272 1.453-.668 2.902-.677 4.384l-.048 7.761c-.004.638-.097 1.318.14 1.91.287.715.735 1.4 1.09 2.081l3.403 6.493c.59 1.124 3.356.067 2.655-1.27l-2.873-5.484c-.482-.919-.921-1.883-1.454-2.774-.352-.588.069.047-.036.134.092-.078.005-.785.006-.904.016-2.537.03-5.075.048-7.612.009-1.437.26-2.716.528-4.138l1.326-7.053c.267-1.422-2.693-1.054-2.934.228m5.001 5.857-.008 7.472c-.001.701-.032 1.046.276 1.65l1.964 3.858 1.59 3.121c.426.834 3.219-.148 2.899-.777l-3.376-6.627c-.328-.642-.456-.888-.455-1.591 0-1.463.003-2.928.004-4.392.002-1.163.002-2.327.003-3.49 0-.654-2.896-.188-2.897.776m12.051 30.61c-.616 1.3-2.556 4.232-3.575 5.492l-2.466 3.053c-.415.513.362.641.728.635.601-.01 1.523-.233 1.927-.734 1.764-2.184 3.53-4.367 5.292-6.55 1.763-2.185 2.594-3.812 2.802-5.443.208-1.63-.95-3.847-.782-5.165.115-.904-2.595-.809-2.699 0-.042 2.675-.609 6.079-1.227 8.712zm-2.55-17.672c-.896 3.086-1.794 7.365-2.69 10.451l-7.944 4.805c-.486.293-.341.611.175.655.679.056 1.476-.202 2.05-.55l7.344-4.44c.287-.175.605-.33.877-.532.38-.282 1.795-4.018 2.266-5.637.369-1.271.412-2.79.782-4.06.175-.605-1.427-2.128-1.645-1.378zm28.395 45.665c-2.229.822-4.459 1.646-6.687 2.47-.608.224-.917.33-1.549.308l-4.228-.143-3.312-.114c-.566-.018-.228.954-.107 1.177.261.486.72.933 1.29.952l7.14.244c.631.021 1.01.05 1.588-.163l3.918-1.447 3.131-1.156c.955-.353-.406-2.416-1.184-2.129" fill="#000" transform="translate(29 -.914)"/><path d="m12.907.052 3.173.282c4.71.42 9.496.713 14.222.495 2.313-.106 4.608-.289 6.91-.489l2.827 1.563 2.114 4.271.116.228.119.242-.002.074c-.026 2.07-.171 4.117-.046 6.183.12 1.999.142 3.885.067 5.852l-.072 1.475c-.035.61-.092 1.097-.37 1.707l-1.712 3.746-.134.32c-.045.11-.095.219-.154.312l-.03.014c-.515.294-1.084.522-1.62.78l-3.15 1.514-5.141.012c-.633.002-1.302-.06-1.933.005-.93.096-1.285.832-1.862 1.514-1.635 1.933-3.306 3.824-4.991 5.71-1.488-1.785-2.97-3.576-4.428-5.388-.926-1.148-1.79-1.782-3.361-2.089-.954-.188-1.848-.038-2.801.056l-4.821.483-2.941-1.336c-.63-1.612-1.193-3.288-1.956-4.833-.037-.074-.072-.162-.098-.245.001-.337.044-.682.08-1.022l.034-.338c.092-1.086.264-2.195.277-3.285.02-1.666-.506-3.33-.506-4.997 0-1.573.23-3.436.565-4.974.394-1.81 1.223-3.612 1.835-5.369 1.903-.77 3.889-1.818 5.911-2.049 1.277-.145 2.606-.206 3.879-.424z" fill="#5cffe4" transform="translate(47.813 4)"/><g fill="#000"><path d="m8.863 15.253 3.077 3.12 3.118-3.12-3.118-3.127zm9.749.001 3.061 3.056 3.111-3.056-3.111-3.084zm12.793-3.062-3.079 3.058 3.079 3.126 3.121-3.126z" transform="translate(47.813 4)"/><path d="m40.362.621c-.169-.044-.263-.056-.287-.049.09.012.177.027.259.047z" transform="translate(29 -.914)"/></g></g></svg>