<svg height="180" viewBox="0 0 140 180" width="140" xmlns="http://www.w3.org/2000/svg"><g fill="none" fill-rule="evenodd"><path d="m0 0h140v180h-140z"/><path d="m83.784 94.672 4.217 6.675 3.656 6.904 2.062 7.71 4.969 6.241 3.574 7.641-7.583 4.933-8.17 2.819-7.467 4.009-7.14 4.578-6.682 3.93-2.32-6.569-2.155-7.442-2.213-7.423-1.728-7.566-3.457-7.763 8.131-4.646 8.058-3.677 7.01-5.312z" fill="#5cffe4" transform="translate(7.705 11)"/><g transform="translate(7.705 11.397)"><path d="m61.852 109.481-.041.024.065-.035c-.006.004-.017.007-.024.011m-6.627 11.942c.023.12.04.19.053.226-.018-.074-.036-.149-.051-.224z" fill="#000"/><path d="m94.306 133.176c-.139.041-.415.157-.453.17-.776.269-1.555.536-2.332.805-1.64.565-3.292 1.102-4.921 1.698-.909.331-1.745.87-2.595 1.326l-4.796 2.574c-2.524 1.356-4.886 3.05-7.297 4.594-1.827 1.172-3.715 2.253-5.597 3.34-.644-1.774-1.307-3.547-1.87-5.344-.765-2.445-1.414-4.927-2.137-7.384-.724-2.46-1.556-4.9-2.199-7.381-.34-1.315-.605-2.652-.908-3.975-.288-1.264-.455-2.652-.938-3.858-.887-2.211-1.916-4.376-2.906-6.548l5.483-3.134c.324-.185.65-.367.97-.554-.023.011-.042.02-.044.016l.086-.04c.047-.028.096-.053.143-.082.27-.16.036-.015-.118.07l.292-.132c1.383-.61 2.752-1.255 4.127-1.882 1.128-.514 2.271-1.004 3.387-1.545.799-.388 1.476-.996 2.181-1.53 1.855-1.405 3.68-2.865 5.578-4.214 1.838-1.307 3.697-2.588 5.552-3.873 1.202 1.864 2.439 3.717 3.548 5.632.651 1.124 1.221 2.304 1.828 3.452l1.238 2.336c.133.253.264.51.403.761.06.11.1.217.119.27.31 1.217.648 2.427.973 3.639.335 1.253.552 2.642 1.03 3.85.442 1.118 1.586 2.139 2.326 3.068.895 1.124 1.965 2.223 2.735 3.437.684 1.079 1.135 2.394 1.676 3.551l1.4 2.995c-2.004 1.272-4.034 2.52-5.964 3.892m-25.293-29.651c-.085.06-.14.098-.143.094-.012-.015.06-.055.143-.094m.061-.03c.138-.061.242-.098 0 0m21.045 5.214-.044-.174zm13.602 19.762c-1.161-2.48-2.152-5.155-3.52-7.525-.503-.87-1.274-1.649-1.9-2.434l-1.75-2.197c-.387-.486-.768-1.162-1.244-1.564l-.052-.044-.098-.368-.59-2.204c-.419-1.567-.786-3.16-1.26-4.711-.29-.952-.871-1.83-1.336-2.706-.782-1.478-1.547-2.965-2.348-4.433-1.307-2.403-2.92-4.673-4.381-6.985-.48-.76-1.594-.499-2.342.119-3.895 2.715-7.748 5.44-11.533 8.309-.12.09-1.825 1.411-2.344 1.79-.179.072-.355.16-.532.242l-2.092.954c-2.066.943-4.203 1.792-6.177 2.921l-7.547 4.313c-.691.394-1.118 1.24-.787 1.98 1.111 2.498 2.198 5.01 3.337 7.495l-.005-.025.007.028.003.008c.073.16.08.31.048.215.011.048.024.095.033.143.124.685.312 1.365.466 2.044.36 1.572.71 3.146 1.077 4.716.58 2.466 1.431 4.89 2.154 7.316.712 2.388 1.39 4.785 2.083 7.178.717 2.484 1.683 4.905 2.544 7.343.361 1.025 1.52.764 2.257.331 2.254-1.325 4.543-2.605 6.766-3.983 1.368-.849 2.712-1.74 4.067-2.608l2.246-1.44c.2-.128.416-.245.605-.389.031-.023.044-.034.06-.047 2.37-1.271 4.7-2.776 7.163-3.837 2.626-1.132 5.518-1.657 8.135-2.807 1.416-.621 2.727-1.727 4.015-2.566l3.985-2.592c.659-.429 1.144-1.215.787-1.98" fill="#000"/><path d="m38.713 107.347-5.895 4.664-2.717 7.359-4.206 6.576-3.053 7.659 8.565 3.788 7.995 4.226 8.518 2.957 9.248 1.214 6.763 3.389 2.182-7.629-.413-9.068.542-9.071-1.275-9.064.178-9.628-9.474-.457-8.908 1.102z" fill="#5cffe4"/><path d="m57.301 144.6c-1.672-.224-3.345-.44-5.017-.66l-2.853-.373c-.298-.04-.594-.08-.892-.117-.538-.07.032-.085.109.014-.2-.255-1.19-.414-1.482-.515l-2.869-.997-2.817-.978-.89-.309c-.06-.02-.175-.074-.265-.116l-.122-.074c-.278-.16-.568-.3-.852-.45l-2.618-1.385c-1.39-.733-2.764-1.52-4.176-2.207-2.529-1.231-5.145-2.303-7.726-3.426l2.32-5.823c.126-.315.254-.63.378-.945.064-.1.125-.202.192-.3.697-1.054 1.361-2.129 2.04-3.193 1.035-1.615 1.964-3.04 2.625-4.83l1.48-4.01c.173-.466.37-.931.52-1.406.38-.208.774-.636 1.089-.887l1.899-1.502 2.278-1.802c1.706-.42 3.413-.84 5.12-1.262.76-.187 1.527-.36 2.284-.561h.047c.37-.013.75-.093 1.119-.139l6.761-.835c.188-.023.438-.025.643-.072l.031.003c.904.075 1.819.087 2.723.131l5.003.242c-.074 2.845-.23 5.708-.152 8.547.029 1.054.264 2.122.41 3.165.267 1.886.54 3.773.798 5.66.13.948-.023 1.924-.081 2.876l-.348 5.822 1.157 9.277-1.707 6.366s-1.894-1.073-2.509-1.38c-1.165-.584-2.343-1.374-3.65-1.55zm-1.006 2.283c.053.007.106.016.16.022.625.062.164.065-.16-.022zm14.617-25.592s-4.016-4.124-4.202-7.145c-.196-3.183.116-6.469.174-9.658.013-.637-.953-.913-1.423-.935l-5.55-.268c-1.53-.075-3.13-.296-4.658-.136-3.577.375-7.216.707-10.71 1.567l-6.143 1.514c-.068.015-.134.03-.2.05l-.097.024c-.252.062-.513.203-.722.392l-.006.005-5.371 4.25c-.604.478-.886.935-1.152 1.652-.476 1.29-.95 2.577-1.427 3.865-.318.861-.612 1.738-.955 2.59.042-.142-.196.323-.295.477l-1.028 1.607c-1.07 1.674-2.42 3.34-3.158 5.194l-2.865 7.189c-.174.437.231.895.596 1.056 2.798 1.237 5.63 2.416 8.401 3.715 2.672 1.251 5.199 2.812 7.838 4.128.957.478 2.028.765 3.037 1.115l5.506 1.911c.945.328 1.92.401 2.91.531l5.996.787.755.1c.397.359 1.343.628 1.76.838 1.628.816 6.183 3.24 6.183 3.24s1.237-.618 1.542-1.686l1.283-4.483.914-3.643.428-8.508 2.64-11.334z" fill="#000"/><path d="m109.878 73.404-.919 8.148-1.43 8.116-3.52 7.476-4.574 6.879-5.636 6.081-6.829 4.707-7.456 3.596-8.014 2.008-8.205.327-8.147-.518-7.9-2.068-7.559-3.141-6.965-4.397-6.095-5.609-4.892-6.71-3.265-7.615-1.836-8.014-.658-8.14.322-8.176 1.57-8.107 3.736-7.368 4.507-6.897 5.881-5.768 6.524-5.051 7.372-3.801 8.088-1.787 8.186-1.186 8.208 1.007 7.884 2.284 7.462 3.354 7.053 4.254 5.424 6.197 5.474 6.192 3.35 7.569 1.953 7.997z" fill="#c58fff"/><path d="m106.713 83.443-1.148 6.513c-.226 1.284-.971 2.453-1.523 3.625l-1.5 3.184c-.16.34-.321.681-.481 1.024-.185.394-.04.064-.042.067-1.153 1.618-2.206 3.319-3.307 4.974-.356.537-.754 1.07-1.085 1.626.059-.077.046-.032-.065.1-.02.034-.043.065-.062.098.024-.042.038-.06.057-.091-.025.03-.04.05-.075.088-.292.308-.579.624-.868.936-1.406 1.517-2.928 2.983-4.246 4.58-.063.052-.125.102-.178.138l-2.679 1.847-2.68 1.847c-.134.092-.268.187-.404.279-1.713.808-3.412 1.647-5.118 2.47l-1.023.493c-.571.137-1.512.424-1.603.447l-3.512.88c-.666.167-1.718.229-2.323.577-.354-.008-.717.03-1.071.044l-3.583.142c-3.492.139-6.888-.097-10.379-.32-.305-.019-.61-.034-.916-.057-.019-.008-.03-.014-.057-.024-.797-.312-1.713-.45-2.54-.666-1.707-.446-3.493-.787-5.165-1.352-1.744-.589-3.44-1.43-5.14-2.135-1.163-.484-2.265-.908-3.325-1.579-1.84-1.16-3.681-2.323-5.522-3.486-.135-.085-.272-.168-.406-.256-.024-.03-.258-.225-.326-.287-.726-.67-1.453-1.338-2.18-2.006-1.177-1.083-2.53-2.111-3.585-3.314-1.254-1.43-2.287-3.136-3.407-4.673-.763-1.046-1.424-1.927-1.93-3.105l-2.546-5.94c-.511-1.192-.69-2.52-.979-3.782l-.782-3.413c-.084-.364-.15-.738-.251-1.097-.033-.112-.049-.166-.058-.19-.266-1.963-.322-3.978-.482-5.952-.101-1.256-.154-2.415-.105-3.672.083-2.093.104-4.2.248-6.291.098-1.413.506-2.84.774-4.23.212-1.088.421-2.177.633-3.265.052-.275.123-.55.16-.828.002-.014-.182.318.02-.075.983-1.912 1.946-3.836 2.918-5.752.557-1.099 1.162-2.081 1.836-3.114l2.035-3.113c.363-.554 1.039-1.263 1.256-1.905.288-.254.554-.542.829-.813l2.504-2.456c.692-.677 1.39-1.347 2.072-2.031-.015.005-.03.014-.046.018.017-.004.038-.02.056-.029.322-.322.254-.175.108-.059.152-.109.321-.288.418-.364l5.247-4.062.135-.106c.777-.386 1.544-.795 2.314-1.192l3.724-1.92c2.487-.565 4.974-1.198 7.482-1.643 1.667-.295 3.36-.486 5.034-.729l2.594-.376c.04-.006.082-.01.124-.018.076.012.25.024.35.042 1.836.344 3.745.46 5.6.687.66.082 1.327.143 1.986.243.011.005.026.013.057.023.252.09.52.15.777.226 2.84.822 5.76 1.47 8.46 2.684 2.759 1.24 5.49 2.387 8.077 3.948l4.77 2.877c.049.029.082.051.11.069.14.146.269.308.4.46l1.87 2.135c2.015 2.303 4.035 4.601 6.063 6.894.82.928 1.908 1.864 2.547 2.927.865 1.442 1.413 3.195 2.094 4.731.445 1.006 1.007 2.014 1.297 3.078.495 1.827.9 3.684 1.347 5.523.716 2.93.94 5.895 1.272 8.894l.137 1.23c-.34 3.03-.56 6.097-1.09 9.1m5.215-11.077c0-.026.01-.052.007-.078-.293-2.646-.481-5.326-.884-7.958-.375-2.453-1.168-4.898-1.756-7.31-.567-2.318-1.82-4.506-2.782-6.68-.298-.676-.526-1.419-.982-1.999-.95-1.214-2.06-2.332-3.082-3.486-1.513-1.712-3.022-3.428-4.527-5.148-.977-1.117-1.903-2.335-2.958-3.381-.606-.6-1.46-.98-2.188-1.42-2.017-1.216-3.987-2.585-6.14-3.553-2.246-1.01-4.509-2.298-6.863-3.025-1.44-.444-2.896-.84-4.342-1.258-1.133-.328-2.287-.77-3.453-.954-2.578-.405-5.231-.746-7.83-.96-.83-.069-1.677.133-2.5.252l-5.09.738c-2.27.33-4.495.89-6.735 1.384-1.446.32-2.941.536-4.271 1.207-.997.503-1.984 1.023-2.974 1.534-2.33 1.2-4.589 2.295-6.661 3.9-1.993 1.544-4.173 2.978-5.977 4.745l-3.482 3.414c-.76.748-1.669 1.469-2.31 2.33-3.15 4.23-5.5 8.866-7.876 13.548-1.105 2.18-1.24 4.903-1.7 7.286-.445 2.29-.453 4.556-.546 6.89-.18 4.582.068 9.279 1.093 13.754.52 2.27.856 4.63 1.774 6.773l2.022 4.715c.305.713.552 1.46.992 2.098.861 1.255 1.797 2.465 2.694 3.695.647.887 1.241 1.887 1.973 2.707.754.845 1.71 1.573 2.541 2.339 1.115 1.025 2.21 2.076 3.345 3.077.572.504 1.25.873 1.893 1.28l4.393 2.772c1.977 1.249 4.238 1.988 6.392 2.884 2.217.92 4.397 1.491 6.725 2.1 1.119.293 2.247.679 3.384.886 1.083.197 2.248.163 3.343.233 2.345.149 4.648.341 6.993.249 2.432-.098 13.334-.707 13.334-.707l17.182-5.02s.568-1.759-.422-5.122c2.1-1.448 3.676-3.348 5.409-5.216 3.192-3.445 5.935-7.394 7.938-11.65 1.024-2.172 2.375-4.32 2.794-6.699.426-2.417.964-4.843 1.259-7.28.311-2.584.583-5.172.875-7.758.006-.055-.014-.087-.024-.128" fill="#000"/><path d="m33.514 38.084c-.01.008-.02.013-.03.02.01-.007.02-.012.03-.02m-.106.058-.01.01c.03-.013.06-.029.086-.049-.027.02-.051.027-.076.039m64.154 66.415c.02-.035.044-.066.064-.101-.017.022-.043.064-.069.107zm-64.046-66.474h-.002z" fill="#000"/></g><path d="m37.355 25.133c.346 3.262-.857 5.427-2.405 7.112-1.832 1.993-4.526 3.104-6.152 4.704-1.62 1.596-2.542 3.256-3.381 4.66-1.043 1.747-1.895 3.127-3.524 4.286-1.207.86-2.714 1.477-5.194 1.859-1.855.285-4.131.445-6.305-.415-1.946-.768-3.647-2.286-5.207-3.71-1.659-1.512-2.776-3.276-3.295-5.237-.63-2.385.055-4.513 1.337-6.586 1.248-2.017 3.089-3.913 3.067-6.243-.028-2.524-2.582-4.86-2.954-7.787-.261-2.06.604-4.325 3.47-7.208 1.604-1.613 2.907-3.27 4.391-4.425 1.84-1.432 3.725-2.36 5.368-3.17 2.155-1.059 4.157-1.452 5.942-1.621 2.352-.223 4.34.122 5.982 1.03 1.88 1.04 3.056 2.74 3.897 4.593.869 1.911 1.559 3.992 1.2 5.997-.472 2.656.236 4.404 1.234 6.16 1.018 1.791 2.268 3.544 2.53 6" fill="#fff" transform="translate(51.623 61.463)"/><path d="m34.316 30.838c-1.16 1.547-2.768 2.55-4.359 3.603-1.741 1.153-3.208 2.508-4.406 4.23-1.141 1.641-1.985 3.494-3.26 5.042-1.088 1.323-2.487 2.098-4.131 2.514-2.044.516-4.392.799-6.43.124-2.141-.71-4.053-2.421-5.62-3.998-1.427-1.435-2.58-3.357-2.776-5.403-.424-4.444 4.312-6.941 4.604-11.149.247-3.581-3.557-6.16-2.904-9.784.326-1.805 1.617-3.321 2.84-4.61 1.582-1.663 3.074-3.504 4.94-4.859 3.319-2.412 7.672-4.445 11.87-3.95 2.264.268 4.058 1.475 5.287 3.377 1.327 2.053 2.291 4.647 1.97 7.106-.297 2.265.039 4.204 1.095 6.228 1.085 2.08 2.38 3.868 2.692 6.26.166 1.887-.268 3.744-1.412 5.269m4.666-6.141c-.307-2.359-1.528-4.27-2.671-6.298-.494-.875-.897-1.773-1.095-2.762-.246-1.232.059-2.353.119-3.578.12-2.462-.889-4.997-2.112-7.093-1.14-1.954-2.873-3.504-5.017-4.27-4.64-1.655-9.802-.114-13.973 2.067-2.278 1.189-4.337 2.601-6.129 4.45-1.763 1.82-3.719 3.645-5.07 5.803-.944 1.504-1.53 3.175-1.343 4.966.23 2.21 1.605 3.946 2.464 5.924.984 2.268.019 3.993-1.29 5.88-1.341 1.934-2.665 3.99-2.842 6.407-.36 4.879 3.826 9.102 7.71 11.412 2.26 1.342 4.773 1.783 7.376 1.573 2.237-.18 4.616-.625 6.61-1.7 4.676-2.52 5.679-8.23 9.987-11.158 2.02-1.373 4.093-2.638 5.53-4.675 1.482-2.1 1.97-4.408 1.747-6.948" fill="#000" transform="translate(51.623 61.463)"/><path d="m27.311 16.655c-1.127-1.758-2.774-3.502-4.96-3.759-2.14-.25-4.353.919-6.026 2.148-1.355.994-2.438 2.307-2.8 3.976-.509 2.335.296 4.73-.61 7.022-.732 1.854-2.173 3.469-1.772 5.61.7 3.745 6.116 3.603 8.904 3.039 5.204-1.053 9.545-5.012 9.594-10.57-.068-2.627-.912-5.253-2.33-7.466" fill="#000" transform="translate(51.623 61.463)"/><path d="m26.454 14.497c1.595 1.069 1.721 3.534.63 5.774s-3.015 3.449-4.61 2.38c-1.594-1.07-3.763-2.178-.996-6.2 1.43-2.078 3.381-3.024 4.976-1.954" fill="#fff" transform="translate(51.623 61.463)"/><path d="m25.504 14.875c1.466 1.023 1.464 3.01.966 4.556-.287.894-.74 1.74-1.378 2.433-.235.256-.51.481-.783.623.159-.082-.123.051-.129.053.148-.055.017.023-.008-.002l.092-.019c-.116.015-.123.019-.023.01-.116.01-.04.02-.189-.008-.514-.092-.97-.464-1.392-.762-.394-.276-.784-.583-1.073-.973-.812-1.098-.27-2.529.339-3.583.515-.893 1.172-1.83 2.055-2.394.213-.137.255-.155.453-.226-.221.079.142-.018-.009.003-.169.024.326-.03.099-.017.27-.016.677.11.98.306.383.247.934.13 1.333-.03.14-.057.934-.49.566-.727-2.066-1.33-4.678-.158-6.182 1.488-.792.867-1.488 1.964-1.867 3.08-.235.69-.332 1.489-.056 2.183.228.573.66 1.036 1.14 1.41.516.403 1.133.879 1.75 1.097 2.271.805 4.585-.89 5.656-2.78 1.08-1.905 1.662-5.01-.44-6.478-.37-.257-.946-.124-1.333.031-.152.061-.925.476-.567.726" fill="#fff" transform="translate(51.623 61.463)"/><path d="m46.068 36.8.323 1.13.18.124-.114.086c.108.226.391.825 1.109 1.01.38.089.765.029 1.096-.172.205.025.438.013.686-.077l.463-.379.38-.678c.576-1.2-.079-1.992-.518-2.355l-.576-.209-.551-.003-.727.211c-.276.077-.656.18-1.021.434-.318.22-.568.524-.73.877m-9.386 16.996.831-.03.66-.46.327-.675-.04-.657c0-.167.004-.677-.448-1.141l-.41-.217-.42-.078-.48.07-.229.132c-.37.26-.506.586-.486.573l.002-.004-.214.345-.168.577.165.736.091-.021.247.508zm39.757-8.09c.014.146.04.301.07.461l.302.523.41.348.55.217c.737.033 1.194-.277 1.452-.542.361-.376.523-.877.44-1.768l-.008-.093-.254-.482-.337-.336-.449-.243c-.807-.174-1.33.097-1.63.36-.29.257-.621.736-.546 1.555m-20.446 66.497c.014.146.041.302.07.461l.303.523.408.348.551.218c.737.032 1.194-.277 1.452-.542.361-.376.523-.878.44-1.769l-.008-.092-.253-.482-.338-.337-.448-.243c-.807-.174-1.33.097-1.632.36-.29.257-.62.736-.545 1.555m-32.027-34.24.155-.602-.036-.392-.286-.588-.526-.489c-.103-.073-.379-.265-.794-.315l-.845.35-.476.613-.187.693c.038.292.129.976.774 1.393.406.26.902.323 1.4.175l.506-.37zm72.244 4.886c.338-.4.316-.966.301-1.13-.08-.87-.702-1.225-1.246-1.186l-.098.054c-.4-.027-.777.203-1.04.727l-.04.365c.02.22.083.413.146.492l.156.402.523.41c.128.06.256.114.402.151l.33-.01.29-.092zm.576 8.309c-.33-.407-.891-.49-1.055-.506-.87-.083-1.333.463-1.395 1.005l.033.106c-.1.389.056.8.522 1.155l.352.109c.219.02.42-.006.51-.052l.424-.08.5-.436c.082-.116.16-.23.223-.368l.052-.326-.037-.302-.13-.305zm6.721-4.109c-.023-.25-.097-.515-.217-.791l-.324-.359-.376-.218-.467-.105-.49.045-.491.236-.342.35-.217.75c.01.107.032.211.062.31-.016.11-.02.224-.009.341l.07.338.29.406.36.26.473.15c.56-.01 1.001-.185 1.315-.529.277-.303.406-.724.363-1.184m-19.014 19.59-.381-.866-.459-.32c-.542-.67-1.175-.765-1.611-.725l-.488.183-.388.28-.321.393c-.148.325-.21.672-.179 1.006.09.966.929 1.687 1.944 1.677.996 0 1.804-.7 1.883-1.628m-55.15-19.018c-.092.187-.16.445-.128.8l.02.054-.049.149-.035.318c.045.499.387.9.912 1.07l.278.039.51-.066c.192-.074.4-.13.613-.19.293-.082.585-.167.85-.276l.434-.441.198-.508-.111-.839c-.504-1.273-1.354-1.764-2.576-1.444-.612.198-.972.722-.916 1.335m56.104-39.742c-.094.186-.161.444-.128.8 0 .004.02.053.02.053l-.05.15-.036.317c.046.5.388.9.914 1.071l.277.038.512-.066c.19-.074.398-.13.612-.19.293-.081.584-.167.85-.275l.433-.442.198-.507-.111-.84c-.504-1.272-1.354-1.764-2.575-1.444-.614.199-.973.722-.916 1.335m-20.756 58.11c.014.146.04.3.07.461l.303.523.409.348.55.217c.737.033 1.194-.277 1.452-.542.362-.376.523-.877.441-1.768l-.008-.093-.255-.482-.337-.336-.448-.243c-.808-.174-1.33.097-1.631.358-.29.259-.62.738-.546 1.557" fill="#000" transform="translate(7.705 11.397)"/><path d="m114.469 52.557-1.387-6.203-1.752-5.969-.89-6.18-1.581-5.785-1.85 5.71-1.294 6.079-.831 6.195-1.518 6.267-7.336 2.717-7.401 2.508 7.222 2.966 7.424 2.345 1.55 6.185 1.179 6.106 1.595 6.011 1.261 5.857 1.069-5.893 2.01-5.907 1.131-6.122 1.839-5.783 6.946-2.83 7.269-2.935-7.176-3.198z" fill="#5cffe4" transform="translate(7.705 11.397)"/><path d="m117.335 61.39-2.333.95c-.572.233-1.21.415-1.556.97-.283.452-.382 1.049-.542 1.553-.285.894-.57 1.787-.853 2.68-.337 1.058-.64 2.062-.841 3.151-.297 1.609-.7 3.232-.897 4.854l-.001.015c-.09.255-.174.512-.262.768l-.859 2.526c-.117.345-.235.686-.35 1.027-.704-2.916-1.404-5.831-1.974-8.779-.52-2.694-1.13-5.39-1.888-8.027-.335-1.165-1.728-1.29-2.76-1.616-1.68-.53-3.362-1.053-5.038-1.592-1.67-.536-3.304-1.236-4.93-1.942 1.373-.458 2.744-.921 4.105-1.404 1.367-.485 2.72-1.007 4.078-1.51.812-.301 1.622-.602 2.432-.901.568-.21 1.294-.386 1.727-.809.446-.436.518-1.141.661-1.73l.656-2.71c.257-1.06.563-2.11.708-3.192.379-2.826.753-5.604 1.346-8.391.202-.945.414-1.888.605-2.836.033-.162.067-.305.078-.352l.01-.028.002.014c.393 1.438.5 2.963.711 4.435.201 1.398.43 2.64.826 3.989.449 1.525.963 3.046 1.327 4.594.462 1.96.88 3.93 1.32 5.896.119.535.594.776 1.145.804 2.34.65 4.755 1.195 7.03 2.02 1.643.594 3.247 1.358 4.844 2.115-1.58.637-3.16 1.274-4.74 1.914-1.263.513-2.525 1.03-3.787 1.543m12.724-4.61c-2.375-1.058-4.733-2.304-7.173-3.197-2.232-.816-4.608-1.352-6.908-1.986-.689-3.066-1.39-6.09-2.276-9.109-.4-1.358-.756-2.613-.956-4.007-.231-1.604-.36-3.265-.715-4.845-.427-1.9-1.033-3.773-1.545-5.652-.357-1.303-2.833-.86-3.188.236l-1.69 5.225c-.488 1.504-.735 3.087-1.064 4.632-.619 2.904-.743 5.904-1.393 8.792-.383 1.695-.81 3.382-1.226 5.07-4.518 1.662-9.042 3.269-13.604 4.814-.992.336-2.065 1.67-.627 2.26 2.4.987 4.781 2.079 7.218 2.966 2.248.818 4.574 1.464 6.862 2.173.755 3.018 1.49 6.015 2.08 9.073.578 2.994 1.454 5.887 2.147 8.857.443 1.898.822 3.815 1.232 5.721.33 1.54 3.057.662 3.277-.553l.954-5.25.114-.63c-.118.67.045-.089.11-.282.342-1.003.682-2.007 1.025-3.01.463-1.363.878-2.636 1.138-4.048l.625-3.379c.066-.35.15-.705.196-1.06.007-.054.01-.086.012-.116.582-1.685 1.091-3.397 1.624-5.099 4.513-1.837 9.027-3.668 13.545-5.493 1.001-.404 1.268-1.63.206-2.103" fill="#000" transform="translate(7.705 11.397)"/><path d="m94.165.19c.23.94.445 1.883.613 2.85.497 2.84 1.059 5.664 1.621 8.493.077.384.468.554.945.569l2.226.584 1.858.488c.202.053.405.111.608.159l.205.05.054.019c.184.077.369.149.553.223l1.743.703.63.254c-.919.278-1.836.563-2.74.878-.935.326-1.866.656-2.8.983-.884.311-2.128.522-2.871 1.132-.693.57-.771 1.946-.973 2.758-.275 1.094-.592 2.188-.824 3.292-.314 1.508-.41 3.059-.628 4.585-.186-.723-.387-1.444-.616-2.165-.385-1.216-.815-2.392-1.016-3.652l-.769-4.81c-.043-.274-.396-.412-.61-.481-2.703-.88-5.381-1.8-8.054-2.751.837-.35 1.676-.697 2.52-1.023 1-.386 2.01-.74 3.014-1.112.825-.304 2.296-.584 2.722-1.444.38-.767.507-1.761.736-2.58.264-.954.564-1.906.798-2.868.413-1.696.677-3.429 1.055-5.133zm-73.951 95.555-1.198-6.012-1.026-5.859-1.776-6.017-1.589 6.061-1.198 5.814-1.584 5.692-5.273 1.945-4.975 2.05 5.053 1.841 5.58 1.818.974 6.078 1.791 5.667 1.22 6.216 1.678-6.098.819-5.909 1.488-5.955 5.533-1.944 5.575-1.714-5.409-2.179z" fill="#5cffe4" transform="translate(7.705 11.397)"/><path d="m25.065 100.38c-.994.346-1.99.698-2.984 1.048-.94.33-2.268.555-3.06 1.206-.736.604-.818 2.072-1.033 2.936-.293 1.167-.632 2.333-.878 3.511-.34 1.624-.444 3.296-.681 4.94-.203-.787-.422-1.573-.67-2.359-.41-1.296-.866-2.55-1.082-3.892-.275-1.71-.549-3.418-.822-5.128-.046-.291-.42-.436-.648-.51-2.886-.94-5.745-1.923-8.599-2.94.905-.379 1.812-.753 2.726-1.106 1.087-.418 2.185-.805 3.278-1.209.942-.347 2.434-.62 2.864-1.634.36-.847.515-1.849.76-2.733.274-.982.583-1.962.822-2.952.44-1.821.721-3.68 1.134-5.508.249 1.013.48 2.034.664 3.077.53 3.028 1.13 6.039 1.732 9.054.08.406.494.587.999.603l2.378.625 1.98.521c.215.056.43.119.648.17l.219.054c.023.007.045.016.059.021.195.08.393.158.59.237l1.857.749.686.276c-.986.298-1.968.604-2.939.942m7.524-1.792c-1.848-.744-3.68-1.583-5.56-2.237-1.703-.59-3.504-.967-5.26-1.408-.577-2.892-1.15-5.782-1.659-8.688-.529-3.026-1.398-5.883-2.27-8.833-.374-1.269-3.006-.352-3.26.617-1.476 5.635-2.67 11.318-4.204 16.936-3.173 1.18-6.313 2.4-9.446 3.69-.855.353-1.425 1.296-.314 1.7 3.331 1.215 6.668 2.357 10.035 3.46l.773 4.819c.214 1.34.672 2.596 1.082 3.892.93 2.947 1.484 5.904 2.08 8.94.256 1.31 3.01.296 3.26-.616l1.38-5.017c.357-1.295.507-2.589.691-3.922.397-2.856 1.057-5.582 1.753-8.372l1.851-.65 1.927-.678.633-.222c.11-.04.553-.147.104-.036-.5.122.52-.152.66-.195l1.915-.589 2.788-.857c.45-.138 2.26-1.243 1.04-1.734" fill="#000" transform="translate(7.705 11.397)"/></g></svg>