<svg height="476" viewBox="0 0 430 476" width="430" xmlns="http://www.w3.org/2000/svg" xmlns:xlink="http://www.w3.org/1999/xlink"><mask id="a" fill="#fff"><path d="m.71.729h134.918v335.682h-134.918z" fill="#fff" fill-rule="evenodd"/></mask><mask id="b" fill="#fff"><path d="m.913.231h4.476v17.136h-4.476z" fill="#fff" fill-rule="evenodd"/></mask><g fill="none" fill-rule="evenodd"><path d="m323.186 246.018c-4.554-.655-9.038-1.163-13.621-1.536-3.53-.383-7.304-1.253-10.853-.995-1.229.088-2.455.178-3.684.268-.498.035-1.032.014-1.524.109-.043.008-.06.014-.09.022-1.99-.368-3.999-.651-5.998-.977-.702-.114-4.085.424-3.614 1.706 3.09 8.42 6.903 16.493 10.298 24.784.889 2.175 1.61 4.435 2.406 6.647.523 1.452 3.656.072 4.278-.62 3.195-3.547 6.82-7.047 9.657-10.89 1.434-1.94 2.34-4.26 3.754-6.211 1.396-1.93 3.295-3.563 4.867-5.357 1.663-1.892 3.199-3.911 4.788-5.863.473-.581-.102-1.007-.664-1.087" fill="#a9ff03" transform="translate(1 .5)"/><path d="m135.625 63.892-7.888-26.532c-.592-1.99-.868-4.96-2.294-6.524-2.957-3.244-6.733-6.004-10.005-8.925l-12.325-10.991c-1.794-1.6-2.56-2.375-4.831-2.916-9.852-2.35-19.701-4.701-29.553-7.05-2.271-.543-3.735-.013-5.95.68l-15.826 4.94c-4.296 1.342-8.598 2.681-12.897 4.029-2.262.708-3.552 2.525-5.187 4.2-4.011 4.116-8.023 8.23-12.034 12.343l-5.402 5.54c-.877.899-2.134 1.836-2.824 2.895-.356.547-.43 1.151-.584 1.808l-1.395 6.022-3.96 17.053c-.496 2.136-.992 4.272-1.485 6.408-.158.684-.492 1.497-.474 2.201.034 1.167.677 2.574.972 3.69l2.001 7.637 4.17 15.88c.206.789.313 1.774.722 2.476.56.969 1.76 1.862 2.521 2.664 3.932 4.153 7.863 8.302 11.795 12.45l4.995 5.272c.604.636 1.202 1.5 1.955 1.949.948.563 2.275.815 3.307 1.184 2.435.874 4.872 1.746 7.309 2.619 5.183 1.857 10.363 3.716 15.544 5.572.655.235 1.37.608 2.056.737.182.035.3.076.373.11.039 1.12-.547 2.644-.75 3.684l-3.25 16.669c-1.45 7.431-2.557 14.854-3.649 22.35-1.083 7.465-2.117 14.77-2.63 22.285-.537 7.9-1.506 15.876-1.404 23.799.113 8.787.027 17.6.344 26.383.334 9.274.996 18.55 1.506 27.818.886 16.081 3.192 32.02 5.748 47.897.567 3.514 1.132 7.034 1.7 10.55.052.117.143.185.272.21l5.485 1.869c1.538.522 3.449 1.589 5.103 1.585 1.6-.006 3.5-1.256 4.907-1.856l5.609-2.393c.235-.103 1.056-.391.956-.79-3.05-12.185-6.373-24.26-8.474-36.643-1.126-6.655-2.59-13.347-3.378-20.052-.912-7.76-1.293-15.622-1.936-23.412-.438-5.291-.493-10.523-.557-15.837-.073-6.28-.524-12.675-.165-18.946.796-13.873 1.91-27.204 3.395-40.774 1.542-14.1 3.217-28.173 4.91-42.252l.223-1.849c6.473-1.994 12.946-3.99 19.42-5.987 3.507-1.084 7.015-2.165 10.525-3.246 1.64-.506 2.471-1.167 3.655-2.388 6.06-6.247 12.116-12.495 18.176-18.743 1.218-1.255 3.303-2.731 4.085-4.325.362-.735.414-1.845.59-2.637.42-1.868.835-3.731 1.253-5.6 1.837-8.21 3.674-16.426 5.508-24.637.004-.012-.01-.019-.008-.029.006-.043.037-.082.025-.123" fill="#fff" mask="url(#a)" transform="translate(292.843 .756)"/><g transform="translate(1 .5)"><path d="m382.465 25.459c-7.138-3.756-15.346-5.78-24.026-5.496-26.291.864-46.918 22.5-46.066 48.323.29 8.827 3.057 17 7.615 23.9z" fill="#c58fff"/><path d="m382.465 25.459c-7.138-3.756-15.346-5.78-24.026-5.496-26.291.864-46.918 22.5-46.066 48.323.29 8.827 3.057 17 7.615 23.9z" stroke="#fff"/><path d="m337.489 107.977c7.138 3.757 15.346 5.78 24.026 5.496 26.293-.864 46.918-22.5 46.066-48.32-.289-8.83-3.055-17.003-7.615-23.904z" fill="#c58fff"/><path d="m337.489 107.977c7.138 3.757 15.346 5.78 24.026 5.496 26.293-.864 46.918-22.5 46.066-48.32-.289-8.83-3.055-17.003-7.615-23.904z" stroke="#fff"/><path d="m347.46 43.15c.122-.015.241-.05.335-.126-.073.008-.15.022-.22.027l-.116.1" fill="#fff"/><path d="m389.497 76.013c.086-4.126.221-8.011-.596-12.086-.962-4.79-2.193-9.29-4.257-13.765-.835-1.816-2.424-3.321-3.684-4.868-1.247-1.527-2.322-2.911-3.866-4.118-1.794-1.398-3.565-3.128-5.553-4.232-2.142-1.188-4.647-2.294-6.948-3.125-1.89-.682-4.17-.449-6.168-.539-2.083-.094-3.688-.055-5.714.408-2.064.473-4.298.735-6.233 1.611-2.115.957-4.894 1.823-6.733 3.248-1.816 1.405-3.221 4.06-4.593 5.892-1.194 1.59-2.195 3.33-3.26 5.008-.98 1.548-2.285 3.051-2.672 4.858-.578 2.703-1.297 5.504-1.614 8.248-.254 2.195.236 4.579.418 6.778.231 2.793.268 4.08.219 6.878-.039 2.23-.346 4.618.033 6.821.48 2.796 1.33 5.572 1.99 8.335.17.708 1.22.655 1.735.542l5.651-1.247c.572-.127 1.372-.655 1.233-1.337-.751-3.626-1.626-7-1.775-10.228-.178-3.965-.189-7.704.045-11.662.215-3.694-.02-7.624.571-11.259.043-.266.027-.256.408-.927.622-1.1 1.224-2.214 1.834-3.322.523-.946 1.006-1.93 1.575-2.848.365-.59.018-.195.772-.903 1.687-1.58 3.426-3.19 4.99-4.888.015-.015 2.488-.779 3.371-.987l3.647-.865c.33-.08.69-.124 1.012-.24 2.066.32 4.208.396 6.284.593.889.084 1.862.297 2.756.262.033-.002.037.002.064.002.225.158.444.323.665.483l5.857 4.268c1.255.917 1.528 1.454 2.664 3.004 1.06 1.452 2.267 2.869 3.205 4.402 1.282 2.093 2.338 4.411 3.436 6.604.612 1.223.844 3.553 1.194 5.43.667 3.589.889 7.168 1.122 10.8l-7.07.04c-.797.004-1.997.747-1.516 1.644 3.33 6.17 6.794 12.094 10.525 18.03.561.895 2.37.24 2.77-.501 3.6-6.653 7.342-12.98 11.446-19.337.546-.844-.721-1.155-1.256-1.14-2.662.077-5.324.157-7.984.235z" fill="#a9ff03"/><path d="m323.298 89.712 50.447-55.599 19.884 15.916-50.487 53.682z" fill="#fff"/><path d="m344.079 62.88c-4.376 4.529-8.713 9.093-13.05 13.662-2.01 2.117-4.022 4.233-5.93 6.444-.8.928-1.606 1.847-2.397 2.779-.194.233-.397.455-.59.684-.409.391-.814.784-1.222 1.177l-.737-1.31c-.133-.234-.592-1.178-.455-.82-.764-1.787-1.53-3.659-2.099-5.506-1.202-3.886-1.53-7.95-2.254-11.928-.017-.082-.02-.115-.027-.17 0-.415.02-.831.033-1.247l.117-4.237c.05-1.888.602-3.718.997-5.563.12-.564.244-1.127.362-1.69l.004-.018c.394-1.145.795-2.29 1.192-3.434.623-1.794 1.27-3.344 2.146-5.028.57-1.095 1.161-2.182 1.712-3.288.012-.02.012-.027.02-.043.306-.436.615-.866.924-1.298 1.098-1.549 2.11-3.189 3.41-4.575.9-.963 1.834-1.898 2.752-2.849.328-.337.653-.677.98-1.013.038-.025.079-.05.152-.1 1.008-.71 1.952-1.528 2.92-2.288.502-.395 1.028-.768 1.51-1.186.092-.08.161-.139.22-.186 3.683-2.031 7.608-3.616 11.276-5.648.368-.073.737-.174 1.101-.26 1.434-.34 2.871-.659 4.299-1.015.061-.017.24-.054.407-.088.252-.023.608-.058.69-.064 1.409-.092 2.814-.217 4.223-.325.464-.035.94-.045 1.402-.105-.061.008-.098.012-.15.017.148-.007.322-.01.496-.005 1.42.066 2.84.111 4.258.195 2.13.127 4.2.678 6.313.934.233.028.358.04.426.047.479.117.952.254 1.43.38 1.312.353 2.684.625 3.974 1.063 1.073.367 2.123.838 3.166 1.33-7.397 7.963-14.658 16.072-22.27 23.825-4.05 4.124-7.714 8.586-11.731 12.75zm-21.956 23.56c-.002.003-.006.005-.008.009.135-.162.64-.608.008-.008zm61.901-63.148c-3.866-1.732-7.441-3.075-11.565-4.097-4.223-1.045-8.509-1.317-12.838-1.464-4.503-.156-8.869.696-13.218 1.724-4.053.958-7.812 3.1-11.474 5.054-7.552 4.03-14.272 10.236-18.587 17.698-2.222 3.844-3.89 7.796-5.205 12.029-1.295 4.16-1.696 8.24-1.815 12.557-.258 9.42 3.336 18.52 7.864 26.555.837 1.488 3.686 1.124 4.71.145 8.653-8.312 16.408-17.557 24.794-26.162 4.073-4.177 7.804-8.652 11.825-12.862 4.33-4.531 8.716-9.012 12.997-13.585 4.485-4.787 8.857-9.696 13.346-14.494.399-.427.53-.925.479-1.4.028-.64-.332-1.262-1.313-1.698zm-26.006-.931c-.395.023-.575.072 0 0m46.402 48.374c-.002 1.897-.477 3.62-.888 5.476-.402 1.829-.883 3.487-1.497 5.257-.377 1.083-.715 2.187-1.129 3.254-.016.022-.038.063-.088.155-.28.545-.557 1.088-.837 1.63-.858 1.671-1.63 3.4-2.695 4.95-.758 1.1-1.515 2.199-2.27 3.299-.257.372-.507.757-.773 1.12l-.188.188c-.895.901-1.729 1.872-2.59 2.806-.377.407-.787.802-1.137 1.23-.11.131-.176.215-.228.283-.855.678-1.769 1.296-2.65 1.941-.554.408-1.126.799-1.668 1.223-.17.133-.705.512-.776.59-3.47 2.076-7.22 3.554-10.814 5.38-.09.046-.189.085-.281.118-.205.049-.408.1-.61.14-1.448.3-2.883.677-4.323 1.012l-.774.18c-.088.01-.188.023-.342.035-1.374.109-2.748.306-4.12.461-.551.06-1.1.115-1.649.182l-.198-.012c-1.415-.086-2.834-.11-4.251-.166-.121-.004-.643-.02-.928-.022-.276-.043-.786-.11-.917-.135-1.395-.248-2.793-.475-4.184-.746-2.134-.413-4.228-1.05-6.334-1.593-.1-.027-.163-.04-.206-.047l-.04-.016c-.622-.297-1.24-.598-1.86-.897-.558-.269-1.115-.537-1.672-.803 3.72-4.114 7.421-8.242 11.113-12.379 3.815-4.28 8.13-8.07 11.843-12.448 3.67-4.325 7.816-8.187 11.647-12.366 4.229-4.614 8.468-9.23 12.778-13.77 3.403-3.583 6.872-7.066 10.227-10.676.415.686.819 1.378 1.18 2.082.022.08.138.369.194.545.172.538.397 1.067.593 1.597.433 1.161.92 2.314 1.3 3.494 1.283 3.983 1.748 7.621 2.012 11.762.004.076.024.432.037.635-.005.227 0 .747-.003.823-.006 1.409-.002 2.82-.004 4.228m-30.511 38.9c-.315.108-.543.133 0 0m34.578-57.344c-1.325-4.507-3.413-8.264-5.787-12.276-.93-1.575-4.273-.469-5.166.549-7.786 8.865-16.32 17.041-24.233 25.795-8.072 8.933-16.501 17.523-24.784 26.25-4.548 4.788-8.83 9.875-13.265 14.77-.527.583-.656 1.05-.543 1.42.035.33.213.635.651.848 4.008 1.925 7.638 3.448 12.004 4.41 4.263.94 8.51 1.422 12.874 1.448 8.697.06 16.908-2.811 24.446-6.882 3.725-2.009 7.68-4.192 10.628-7.278 3.076-3.217 5.891-6.56 8.195-10.388 2.32-3.86 3.983-8.103 5.304-12.397 1.276-4.14 1.583-7.96 1.587-12.244.006-4.875-.535-9.35-1.91-14.025" fill="#c58fff"/><path d="m228.455 315.588c-.111.097-.201.185-.195.226-.014-.09.074-.164.195-.226m80.339-111.614c-1.356-6.997-3.917-13.84-7.317-20.123-.751-1.393-1.366-2.925-2.46-4.061-1.363-1.415-2.927-2.779-4.432-4.046-2.792-2.345-5.384-4.178-8.695-5.613-1.663-.719-3.326-1.428-5.003-2.116-1.714-.702-3.479-1.76-5.353-1.795-4.128-.076-8.258-.009-12.389-.074-.178-.035-.395-.041-.698.012-3.57.616-7.073 1.229-10.579 2.124-3.495.89-6.659 2.39-9.554 4.634-5.935 4.601-7.794 11.39-9.635 18.296-.962 3.604-1.792 6.77-2.033 10.479-.215 3.323-.232 6.696.073 10.017.193 2.077.656 4.13.893 6.2.148 1.297.084 3.775.098 5.513.025 3.047.412 6.119.854 9.135.58 3.98 1.383 7.847 2.183 11.787.631 3.103.226 6.295 1.065 9.37 1.882 6.908 2.29 13.923 2.836 21.05.283 3.675.58 6.902.377 10.754-.199 3.731-.83 7.34-.905 11.095-.033 1.829-.225 2.943-.799 4.679-.544 1.648-1.103 3.545-1.634 4.704-.784 1.718-1.443 3.874-2.533 5.412.272-.385-.199.141-.315.256-.373.368-.782.71-1.172 1.063-.9.815-1.843 1.605-2.71 2.457-.042.04-.21.162-.37.293-1.132.129-2.307.57-3.409.837-.655.16-1.323.353-1.992.498-.138.002-.338 0-.492-.029-.614-.123-1.282-.127-1.902-.188-3.612-.354-6.991-1.229-10.06-2.441-3.627-1.431-6.94-3.096-10.311-5.035-2.562-1.473-4.96-3.887-7.567-5.994-1.507-1.217-3.014-2.435-4.519-3.653-.698-.564-3.047-.224-2.859.995.826 5.277 1.888 10.535 2.626 15.823.24 1.726.247 3.706.745 5.375.32 1.073 1.163 1.333 2.15 1.947 2.724 1.702 5.122 2.892 8.117 4.061 5.101 1.993 9.873 4.536 15.36 5.396 2.626.41 5.308.467 7.944.821 1.732.232 3.546.662 5.293.712 1.184.027 2.392-.413 3.535-.69 1.441-.347 3.047-.548 4.427-1.111 1.433-.584 2.789-1.54 4.14-2.29 2.605-1.445 4.659-3.368 6.797-5.461 1.71-1.673 2.533-4.7 3.375-6.915.878-2.316 1.765-4.907 2.109-7.358 1.538-10.953.903-22.437-.582-33.366-.8-5.916-1.941-11.742-3.262-17.557-1.159-5.097-2.75-10.042-3.256-15.27-.297-3.053-.4-5.957-1.056-8.951-.652-2.977-1.364-5.926-2.1-8.883-.583-2.35-.31-5.156-.466-7.923-.142-2.598-.752-5.488-.766-7.695-.033-6.064.209-11.93 1.046-17.939.164-1.179.594-2.115 1.061-3.225.471-1.126 1.298-3.305 1.657-3.893.888-1.451 2.064-2.789 3.077-4.154.199-.27.875-.998.774-.994.463-.331.965-.628 1.432-.937.819-.543 1.638-1.088 2.457-1.63.307-.205.66-.39.942-.625.047-.039.062-.043.096-.072 1.536-.325 3.072-.639 4.608-.958.18-.037.917-.178 1.267-.256.385-.006 1.264-.053 1.479-.061 1.585-.056 3.182-.179 4.767-.168 1.444.01 2.898.13 4.34.2 1.709.078 1.938.041 3.206.4 2.916.825 5.758 1.67 8.61 2.699.844.305 1.702.583 2.538.913.035.012.04.014.065.027.172.139.342.292.498.44 1.304 1.251 2.738 2.375 4.067 3.606 1.64 1.521 4.159 3.762 5.06 5.275 3.022 5.078 4.47 11.084 5.854 16.765 1.309 5.359 1.446 10.183 1.155 15.63-.323 6.053-.596 12.016-1.63 17.99-.424 2.443-.764 4.896-1.132 7.345-.13.848 1.24.764 1.702.63 2.006-.583 4.015-1.164 6.022-1.748.455-.135 1.165-.432 1.272-.973.733-3.643 1.324-7.028 1.542-10.73.186-3.182.833-6.356.896-9.534.08-3.934-.006-7.841.142-11.781.116-3.094-.092-6.358-.682-9.4" fill="#a9ff03"/><path d="m79.388 273.395-.624 6.718 1.751 6.731 2.004 6.629 2.761 6.335 2.064 6.621.045 6.923-.219 6.881-1.561 6.731-2.555 6.419-2.66 6.383-3.516 5.996 1.976 6.651.745 6.862-1.239 6.737-3.944 5.687-5.387 4.396-1.274 7.913-.643 7.996 5.787 2.722 6.006 1.824 6.387 1.37-5.437-3.706-4.47-4.417-1.704-6.039 3.361-5.398 4.402-4.198 2.568 6.946 3.1 6.981 2.538 7.357 6.45-2.072 5.078-4.136 3.731-5.494 2.593-5.992-4.595 4.03-5.746 2.263-6.043-.707-3.395-5.318-1.923-5.983-.621-6.496 4.45 4.169 4.378 3.862 4.589 3.707 4.585-3.874 3.442-4.749 2.269-5.421-.346-6.149-3.53 5.869-4.909 4.523-6.608.682-4.23-5.047-2.363-6.201-.545-6.612.205-6.576 3.411-5.868 3.985-5.55 3-6.116 2.808-6.199 2.926-6.155 1.865-6.559 1.89-6.527 1.147-6.688.758-6.737-.209-6.772-.985-6.712-2.193-6.289" fill="#fff"/><path d="m70.442 376.466c-.168.358-.465.358 0 0m29.151 1.544c3.262-2.759 6.356-5.333 8.455-9.156.858-1.56 1.99-3.817 2.31-5.568.355-1.924-.194-4.337-.303-6.298-.092-1.624-2.342-1.088-2.934-.103-.944 1.569-1.888 3.14-2.832 4.706-.174.289-.344.58-.52.864-.666.63-1.348 1.243-2.022 1.863-.677.625-1.783 1.33-2.3 2.11-.128.008-.239.012-.255.012-1.601.074-3.213.301-4.814.487-1.108-1.316-2.226-2.623-3.316-3.958-.501-.616-.24-.166-.555-.897-.505-1.173-.913-2.4-1.368-3.592-.591-1.556-.804-2.629-.941-4.294-.095-1.142-.2-2.281-.283-3.426-.072-.97-.064-.428-.02-1.415.05-1.134.071-2.27.106-3.403.016-.543.01-1.09.051-1.632.01-.168.105-.874-.035-.428.582-1.841 2.169-3.823 3.18-5.472.226-.368.062-.13.605-.872.714-.975 1.413-1.968 2.119-2.95.905-1.262 1.63-2.415 2.314-3.808 1.691-3.448 3.272-6.927 4.882-10.414 1.41-3.054 2.881-5.888 3.798-9.121.987-3.469 2.173-6.934 3.002-10.442.805-3.417 1.204-6.972 1.596-10.46.41-3.65.507-7.41-.01-11.061-.283-1.98-.416-4.082-.92-6.015-.539-2.066-1.427-4.095-2.13-6.112-.493-1.411-3.454-.598-2.967.796 1.515 4.352 2.707 8.263 3.162 12.883-.029-.279.002.237.012.522.035.723.047 1.45.07 2.173.037 1.249.161 2.529.114 3.776-.082 2.203-.43 4.478-.73 6.667-1.162 8.363-3.498 16.835-7.311 24.858-1.829 3.841-3.547 7.73-5.423 11.551-.925 1.888-1.965 3.248-3.491 5.371-1.171 1.634-2.16 3.316-3.172 5.056-1.272 2.19-1.66 3.07-1.736 5.57-.068 2.09-.121 4.1.05 6.18.326 3.97.826 8.455 3.324 11.75 1.13 1.491 3.068 4.833 5.075 4.99 1.343.105 2.895-.298 4.234-.436 1.106-.116 2.476-.043 3.443-.655.952-.604 1.812-1.673 2.637-2.433.815-.751 1.816-1.474 2.525-2.338.418-.516.799-1.081 1.159-1.663.012.49.002.973-.05 1.438.025-.21-.059.145-.2.507-.2.533-.438 1.053-.66 1.577-.407.975-.757 2.02-1.236 2.967-.035.027-.277.412-.346.512-.373.533-.762 1.053-1.145 1.58-.602.833-1.155 1.752-1.83 2.528.37-.428-.345.277-.5.404-.524.44-1.045.884-1.569 1.329-.38.319-.757.638-1.136.958-4.28-3.502-8.398-7.13-12.44-10.919-.901-.843-2.73.127-2.62 1.284.33 3.44.607 6.449 1.657 9.723.455 1.413.803 2.695 1.597 3.94.844 1.32 1.813 3.868 3.177 4.7 1.34.82 4.058.597 5.582.761 1.587.17 2.631-.284 4.105-.866 1.372-.54 2.898-.962 4.129-1.782-1.059 2.263-2.234 4.358-3.897 6.213-.264.295-1.745 1.411-2.406 1.95-.53.432-1.061.864-1.591 1.298-.082.068-.443.34-.66.524-.215.08-.481.19-.585.221-.744.226-1.479.475-2.218.713-.62.199-1.241.4-1.862.598-2.41-6.807-5.29-13.386-7.795-20.164-.35-.944-1.825-.96-2.482-.332-1.909 1.816-4.057 3.475-5.453 5.72-.81 1.298-2.001 2.698-2.564 4.122-.49 1.226.27 2.651.618 3.896.334 1.18.5 2.57 1.237 3.545.963 1.27 2.392 2.363 3.522 3.481.373.369.776.705 1.184 1.034-.727-.192-1.462-.399-2.244-.637-2.839-.86-5.407-2.045-8.073-3.298.34-4.147.721-8.21 1.385-12.324.129-.809.389-1.712.446-2.555.053-.041.094-.074.162-.12.653-.427 1.257-1.025 1.861-1.517 1.54-1.259 2.916-2.28 4.042-3.905 1.1-1.587 2.738-3.288 3.328-5.133.61-1.913 1.145-4.56 1.208-6.565.135-4.229-1.052-8.914-2.461-12.864-.056-.154-.127-.338-.187-.525.064-.108.172-.44.349-.688.835-1.165 1.484-2.529 2.21-3.763.986-1.682 1.668-3.445 2.417-5.245 1.495-3.591 3.205-7.179 4.088-10.974.454-1.965 1.112-3.946 1.187-5.969.074-2.056.17-4.118.185-6.178.016-2.19.26-4.622-.058-6.79-.305-2.11-1.249-4.397-1.96-6.403-.765-2.171-1.887-4.209-2.72-6.355-.83-2.133-1.414-4.408-2.046-6.61-.637-2.213-1.452-4.552-1.792-6.825-.04-.278-.029.078.018-.672.045-.72.133-1.441.2-2.158l.36-3.862c.147-1.587-2.884-1.224-3.015.195-.2 2.16-.723 4.507-.618 6.67.1 2.106 1.056 4.406 1.6 6.44 1.03 3.837 2.266 7.478 3.847 11.11.808 1.854 1.441 3.635 2.043 5.568.799 2.556 1.083 3.313 1.098 5.734.026 3.878.393 8.148-.338 11.953-.901 4.72-2.064 7.746-3.895 12.235-.84 2.06-1.61 4.2-2.582 6.198-.94 1.934-2.339 3.648-3.252 5.59-.792 1.694.36 3.695.877 5.43.569 1.92.84 3.575 1.056 5.575.297 2.744.352 3.504-.112 6.027-.228 1.237-.494 2.47-.684 3.713-.005.034-.005.045-.007.073-.348.533-.724 1.049-1.087 1.57-.813 1.168-1.575 2.399-2.443 3.523-.1.129-.133.18-.137.199-.039.032-.107.086-.234.2-.487.436-1.021.834-1.53 1.25-1.744 1.423-3.763 2.406-4.132 4.703-.8 4.972-1.343 9.827-1.746 14.846-.04.471.27.762.661.946 3.096 1.456 5.996 2.785 9.26 3.776 3.055.93 6.143 1.557 9.266 2.224.944.205 2.922-1.138 1.636-2.015-1.904-1.296-4.015-2.473-5.738-3.999-1.238-1.096-2.322-2.365-3.532-3.491-.113-.107-.231-.226-.348-.342-.258-.674-.397-1.417-.594-2.112l-.704-2.498c-.05-.172-.107-.71-.234-.882.799-1.15 1.487-2.415 2.22-3.594.8-1.284.545-1.03 1.681-2.111l1.54-1.469c2.466 6.457 5.193 12.768 7.446 19.31.237.693 1.134.885 1.773.678 2.193-.706 4.798-1.14 6.833-2.217 1.833-.967 3.965-2.853 5.402-4.337 3.207-3.314 4.962-7.874 6.754-12.015.618-1.427-1.683-1.578-2.425-.93-1.337 1.176-2.672 2.352-4.013 3.523-.75.653-.02.213-.911.563-.813.321-1.63.64-2.443.96-.349.14-1.532.402-2.134.72-.31-.044-.694-.032-.91-.054-1.111-.133-2.223-.262-3.335-.393-.07-.008-.293-.051-.504-.088-.127-.553-1.073-1.61-1.345-2.034-.53-.83-1.125-1.65-1.604-2.514-.2-.359-.166-.3-.426-1.108l-.93-2.896c-.483-1.503-.732-3.018-.908-4.552 3.397 3.092 6.833 6.119 10.42 9.016.57.461 1.614.283 2.134-.155" fill="#c58fff"/><path d="m130.324 312.86-6.186 2.047-6.133 2.21-6.102 2.32-5.726 3.143-5.674 3.221-5.693 3.236-4.902 4.366-5.124 4.023-4.556 4.653-4.276 4.882-4.326 4.91-3.49 5.562-2.648 6.026-1.281 6.453-1.401 6.42.36 6.563 1.063 6.432.623 6.55 2.379 6.123 6.059 3.217 6.281 2.803 6.78 1.123 6.835.387 6.717-1.331 6.549-1.995 6.075-3.184 5.65-3.856 5.603-3.768 1.325 7.077 1.167 7.202 1.411 7.182.817 7.296-.701 7.144-5.232 4.315-4.83 4.89-4.161 5.48-4.546 5.176-3.426 6.006-2.003 6.635 3.971 5.648 6.231 3.096 6.956-.733 6.672-1.061 1.325-6.624 2.248-6.58 3.031-6.252 3.864-5.774 3.1-6.252 4.335-5.361-1.732-6.774-1.26-6.917-.847-6.979-.979-6.964-.877-6.973-.993-6.977-.366-7.064 1.804-6.838-7.182-.682-7.052 1.546-6.688 2.64-6.534 2.963-6.578 2.937-6.08 4.064 4.041-4.906 4.57-4.2 4.808-4.014 5.73-2.578 5.367-3.161 5.586-2.796 5.947-2.916 4.593-4.767 4.063-5.148 2.94-5.863 2.462-6.087 1.615-6.381 1.321-6.463.774-6.571.113-6.625-.678-6.593-4.581-4.006-6.241.529-6.166 1.304z" fill="#fff"/><path d="m137.443 441.958c-1.605 3.24-3.712 5.983-5.51 9.102-3.324 5.773-5.103 12.018-6.453 18.456-3.573.537-7.138 1.006-10.738 1.395l-3.625-1.802c-.512-.254-1.142-.481-1.632-.803.131-.008-.71-1.011-.9-1.282-.595-.845-1.186-1.69-1.78-2.533-.227-.323-.436-.676-.688-.979-.068-.082-.123-.18-.172-.27.162-.37.379-1.204.424-1.356l.964-3.194c.11-.362.211-.729.33-1.087.024-.076.135-.38.168-.482.155-.245.737-1.234.89-1.499l1.536-2.696c.142-.25.932-1.514.778-1.366 1.667-2.165 3.682-4.057 5.339-6.236 2.013-2.654 3.966-4.996 6.305-7.36.534-.542 1.06-1.095 1.605-1.625.287-.244.58-.48.87-.719 1.338-1.104 2.857-2.138 4.082-3.366 1.136-1.137.962-2.69 1.114-4.237.145-1.477.428-3 .375-4.485-.1-2.707-.496-5.551-1.004-8.217-1.292-6.832-2.437-13.681-3.717-20.517-.292-1.56-2.873-.89-3.681-.346-2.357 1.585-4.72 3.166-7.067 4.767-.907.619-1.814 1.237-2.722 1.858-.225.153-1.406.917-1.284.878-1.429.809-2.92 1.526-4.374 2.29-.229.12-1.208.597-1.238.655-.56.188-1.139.338-1.698.508-1.476.45-2.95.98-4.446 1.351-1.626.406-3.307.657-4.951.983-.369.074-.743.133-1.11.22-.04-.007-.078-.013-.106-.015-.443-.055-.9-.051-1.346-.078-3.372-.19-6.53-.553-9.864-1.106-.278-.045-1.329-.256-1.509-.266-.22-.12-1.274-.604-1.569-.737l-2.817-1.26c-.242-.108-1.51-.704-1.436-.65-1.493-.76-2.96-1.573-4.441-2.358-.23-.12-.768-.546-1.05-.555-.011-.002-.011-.004-.021-.004-.226-.559-.439-1.126-.654-1.685-.522-1.343-1.265-2.746-1.56-4.153-.377-1.773-.342-3.712-.526-5.514-.123-1.207-.334-2.392-.533-3.588-.157-.952-.284-1.915-.47-2.86-.05-.242-.089-.49-.123-.734-.009-.08-.017-.164-.02-.24-.144-1.836-.38-3.784-.312-5.623.053-1.367.49-2.744.784-4.087.647-2.98 1.067-6.049 1.837-8.996.117-.305.266-.606.4-.905.44-1 .876-1.998 1.314-2.996.49-1.11.954-2.09 1.595-3.11.543-.868 1.087-1.733 1.63-2.599.248-.395.494-.79.743-1.183.031-.054.154-.234.238-.36.104-.115.264-.302.303-.345.264-.284.514-.581.77-.872l2.175-2.466c1.765-2.004 3.47-4.068 5.289-6.026 1.22-1.315 2.519-2.554 3.764-3.842.18-.186.358-.374.544-.557l.005-.004c.698-.577 1.43-1.122 2.142-1.683 2.592-2.031 5.172-4.124 7.537-6.42.04-.035.043-.047.074-.075.012-.007.012-.005.023-.01.886-.435 1.734-.986 2.59-1.473 1.073-.608 2.146-1.22 3.223-1.83 2.783-1.584 5.568-3.154 8.375-4.694 2.72-1.495 5.527-2.515 8.43-3.616-.947.36.419-.152.855-.308l3.082-1.11c1.085-.39 2.17-.77 3.266-1.134l4.646-1.538c.053-.018.088-.049.14-.07.16-.042.31-.092.438-.139l4.896-1.835c.198-.073.4-.151.602-.225.049-.004.123-.012.246-.03.894-.138 1.785-.377 2.672-.566.882-.186 1.767-.376 2.65-.56h.02c.293-.023.584-.054.877-.076 1.378-.099 2.754-.228 4.13-.349 1.25 1.071 2.535 2.12 3.717 3.258-.02.035-.04.04-.06.109-.11.334.113 1.106.15 1.458.125 1.233.247 2.47.379 3.702.026.244.055.492.077.737-.006.121-.002.512-.004.58-.026 1.2-.043 2.404-.063 3.604-.025 1.583-.125 3.072-.311 4.642-.428 3.635-1.014 7.175-1.83 10.747-.443 1.951-.966 3.897-1.476 5.832-.032.125-.073.276-.096.356-.092.24-.192.48-.289.715-.493 1.204-.974 2.416-1.464 3.622-.587 1.454-1.27 2.824-1.972 4.227-.469.931-.923 1.871-1.402 2.797-.066.125-.095.184-.109.223-.252.354-.543.69-.81 1.028-.492.623-5.399 6.496-7.033 8.124.172-.062.23-.064-.047.049-.268.262-.45.413-.485.376-.055-.063 0-.14.1-.212-.33.149-.651.327-.973.485l-3.497 1.714c-1.483.729-2.957 1.472-4.433 2.213-1.463.73-2.861 1.512-4.27 2.339-1.012.596-2.01 1.208-3.03 1.786-.39.223-.588.272-.04.018-.372.172-.75.338-1.12.506-1.832.823-3.886 1.486-5.492 2.705-1.67 1.27-3.286 2.68-4.853 4.079-3.18 2.836-5.816 5.736-8.52 9.022-1.768 2.144 2.076 2.357 3.3 1.54l3.658-2.443c.667-.446 1.339-.89 2.004-1.339.093-.063.152-.106.193-.137.063-.02.156-.053.307-.11 2.566-1.002 5.058-2.255 7.569-3.392 2.682-1.216 5.348-2.404 8.086-3.483.842-.334 1.683-.665 2.523-.997.196-.076.393-.156.59-.232.014-.002.018 0 .045-.008 1.662-.362 3.321-.727 4.984-1.093.42-.092.854-.164 1.267-.279.035.008.05.019.086.025.426.076.881.084 1.313.123l3.455.33c-.449 1.607-.926 3.216-1.26 4.842-.342 1.675-.08 3.381.01 5.097.183 3.485.721 6.876 1.182 10.337.956 7.214 1.562 14.572 2.86 21.729.748 4.112 1.655 8.103 2.68 12.147-2.102 2.59-4.037 4.986-5.534 8.01m-44.295-33.947c-.272.031-.366-.024 0 0m39.718-28.73c.347-.055.281.06 0 0m11.638 39.813c-.93-6.692-1.722-13.409-2.603-20.11-.231-1.742-.491-3.48-.74-5.219-.07-.504-.138-1.01-.214-1.513-.045-.303-.062-.395-.064-.357-.08-.925-.096-1.865-.145-2.795-.086-1.63-.344-3.254.004-4.847.444-2.023 1.06-4.022 1.591-6.024.213-.817-.841-1.294-1.46-1.354-2.772-.262-5.86-1.005-8.619-.52-2.885.508-5.86 1.108-8.59 2.183-5.07 2-10.026 4.233-14.998 6.46.412-.378.83-.757 1.24-1.138.091-.086.185-.174.28-.258.993-.846 2-1.67 3-2.506.446-.371.89-.746 1.339-1.116.098-.082.13-.121.143-.146.076-.026.178-.063.34-.127 2-.813 4.06-1.697 5.926-2.785 1.188-.694 2.367-1.394 3.551-2.09.336-.201.672-.402 1.012-.596l.061-.031c.231-.117.459-.233.69-.346 1.917-.926 3.807-1.91 5.717-2.85 2-.981 4.458-1.778 6.105-3.306 1.562-1.456 3.108-3.08 4.503-4.7 11.357-13.205 14.74-32.649 13.001-49.553-.246-2.371-2.816-3.956-4.626-5.37-1.94-1.516-5.306-.585-7.615-.345-4.725.492-9.066 2.062-13.469 3.709-6.135 2.03-12.31 4.058-18.292 6.522-5.517 2.273-10.734 5.866-15.921 8.817-2.802 1.591-4.919 3.774-7.374 5.834.065-.071-1.059.811-1.27.977l-2.574 2.021c-1.065.838-1.99 1.72-2.94 2.689-2.407 2.455-4.675 4.968-6.942 7.554-1.76 2.009-3.772 3.917-5.253 6.14-1.935 2.895-3.503 5.735-4.898 8.907-1.31 2.983-1.767 5.96-2.433 9.153-.602 2.898-1.458 5.589-1.294 8.548.193 3.522.592 6.827 1.163 10.312.428 2.6.221 5.408.934 7.929.506 1.781 1.282 3.833 2.13 5.48.645 1.249 1.98 1.646 3.204 2.297 3.04 1.612 6.099 3.086 9.269 4.436 2.494 1.06 5.614 1.355 8.299 1.634 3.125.327 6.354.585 9.436-.027 3.444-.684 6.674-1.482 10.032-2.504 5.803-1.767 10.73-5.523 15.704-8.869.385-.258.77-.518 1.155-.778.9 5.035 1.718 10.087 2.703 15.104.63 3.203 1.036 6.342 1.4 9.59.025.204.095 1.48.13 1.368-.033.634-.127 1.283-.189 1.914-.15 1.493-.294 2.984-.44 4.474-3.405 2.802-6.831 5.605-9.727 8.957-1.5 1.737-2.725 3.715-4.175 5.494-1.53 1.88-3.414 3.535-4.788 5.531-1.24 1.8-2.57 3.996-3.426 6.004-.405.955-.622 2.03-.919 3.017-.348 1.15-1.233 2.785-1.2 3.979.023.88.725 1.572 1.22 2.275.881 1.255 1.682 2.742 2.72 3.868 1.497 1.626 4.198 2.432 6.174 3.399 2.457 1.206 5.77.246 8.398-.063 2.453-.283 4.892-.74 7.333-1.129.995-.16 2.242-.61 2.467-1.738l1.077-5.394c.072-.348.133-.7.211-1.046.094-.42-.147.444-.039.05.25-.896.606-1.775.907-2.653 1.123-3.28 2.423-6.332 4.028-9.418 1.268-2.443 3.16-4.527 4.446-6.96.924-1.749 1.732-3.555 2.633-5.312.058-.115.084-.172.095-.205.139-.178.284-.35.426-.524.727-.885 1.441-1.78 2.16-2.666.842-1.044 2.019-2 1.865-3.393-.213-1.952-1.038-3.95-1.496-5.859-.64-2.65-1.114-5.387-1.49-8.086" fill="#c58fff"/><path d="m134.566 366.327c.08-.033.118-.047.172-.067.014-.017.032-.035.047-.052-.131.052-.311.127-.432.215.071-.032.141-.07.213-.096" fill="#c58fff"/><path d="m111.493 180.856 5.492-4.171 6.659-1.487 6.79.041 6.651 1.39 6.35 2.458 5.898 3.434 5.136 4.488 4.656 4.976 3.889 5.603 2.985 6.135 1.987 6.51.968 6.71.785 6.721.561 6.921.729 6.916 2.045 6.671 1.444 6.782 1.976 6.66 1.935 6.675 1.413 6.84 1.851 6.706 2.11 6.643 2.748 6.409 1.877 6.699 2.851 6.346.61 7.169-2.701 6.639-3.317 6.274-4.821 5.275-5.705 4.298-5.807 4.19-6.405 3.037-6.492-2.024-6.358-2.459-6.481-2.109-6.518-2.036-6.268-2.655-1.782-6.027-2.564-5.848-3.63-5.245-3.981-4.922-3.846-5.122-4.912-4.118-5.494-3.309-5.984-2.263-6.174-3.444-6.116-3.44-5.929-3.752-5.801-4.011-4.648-5.304-5.157-4.878-3.722-6.028-2.81-6.494-1.884-6.806-.71-6.934.514-6.936-.045-6.999 1.865-6.737 2.099-6.666 3.248-6.198 4.239-5.543 4.677-5.128 5.207-4.585 5.527-4.314 5.985-1.575 6.109-.934 5.998-1.376 4.906-2.828z" fill="#fff"/><path d="m100.704 183.59-.002.002zm88.725 128.368c-.432 1.067-.866 2.127-1.3 3.194-.355.873-.688 1.757-1.065 2.621l-.04.093-.04.083c-.23.461-.485.916-.727 1.372-.565 1.071-1.132 2.142-1.698 3.211-.192.365-.382.727-.575 1.088-.094.18-.119.245-.11.258-.021.022-.03.035-.052.067-2.484 3.2-5.394 5.613-8.596 8.021-.373.285-.75.565-1.122.85-.133.098-.31.234-.394.297-.74.543-1.49 1.075-2.236 1.614-.915.659-1.896 1.275-2.764 1.994-.086.072-.313.234-.432.326l-.535.252c-1.406.663-2.813 1.333-4.218 2.002-4.186-1.329-6.764-2.305-11.082-3.897-3.684-1.355-7.485-2.453-11.23-3.622l-1.79-.559c-.096-.03-.463-.164-.614-.215-.971-.385-1.927-.817-2.888-1.225-.831-.352-1.96-.636-2.776-1.126-.04-.086-.084-.207-.107-.411-.074-.682-.422-1.428-.618-2.085-1.084-3.668-2.35-7.45-4.542-10.616-2.277-3.288-4.771-6.33-7.19-9.511-2.615-3.434-5.04-6.41-8.662-8.886-1.697-1.16-3.598-2.383-5.447-3.284-1.896-.918-4.022-1.36-5.936-2.242-3.418-1.571-6.715-3.697-9.997-5.583-3.47-1.994-6.866-4.097-10.155-6.374-1.075-.744-2.156-1.479-3.225-2.23-.103-.074-.434-.357-.525-.42-.278-.287-.534-.608-.792-.905-1.325-1.511-2.603-3.092-4.014-4.524-1.54-1.562-3.497-2.9-4.87-4.607-1.338-1.667-2.487-3.82-3.517-5.695l-.103-.184c.004.008.004.004-.016-.039-.176-.369-.324-.752-.487-1.124-.615-1.425-1.233-2.85-1.847-4.276-.73-1.695-1.119-3.516-1.612-5.291-1.032-3.725-1.478-7.837-1.239-11.09.143-1.916.354-3.832.363-5.755.006-1.237-.017-2.478-.023-3.717-.004-.81-.029-1.62 0-2.432.002-.037.004-.076.01-.113.75-4.241 2.519-8.37 3.686-12.502.293-1.032-.002-.29.561-1.355.654-1.235 1.299-2.478 1.948-3.715.587-1.12 1.273-2.183 2.045-3.184 2.873-3.727 2.572-3.453 4.772-5.86 1.433-1.571 3.909-4.012 5.496-5.43.913-.81 1.828-1.617 2.775-2.385 1.032-.833 2.094-1.632 3.139-2.451l2.213-1.173c.686-.207 1.352-.428 1.501-.467.576-.152 1.155-.3 1.73-.457.234-.063.746-.18.863-.22 1.88-.335 3.788-.523 5.668-.865 4.083-.742 8.568-1.698 11.922-4.348.391-.071.784-.166 1.136-.225l2.806-.485c.395-.01.794-.109 1.181-.256.578-.172 1.207-.447 1.501-.862.443-.334.89-.666 1.336-.998 1.998-1.488 4.257-2.635 6.687-3.186.013-.002.025-.004.035-.008.551-.123 1.108-.225 1.653-.369.086-.022 1.757.009 2.416.013 1.114.008 2.23.024 3.344.02.135 0 .246.004.328.006.325.058.653.135.972.201 4.458.934 6.95 1.4 11.245 3.416 1.632.768 3.176 1.828 4.736 2.735.352.21.735.398 1.075.629.01.012.053.051.215.182 1.067.864 2.066 1.833 3.113 2.716 2.545 2.15 4.892 4.53 6.888 7.195 2.578 3.437 3.955 6.01 5.806 9.946 2.963 6.293 3.454 13.855 4.124 20.69.346 3.531.561 7.072.948 10.6.205 1.876.833 4.884 1.41 6.68.351 1.087.695 2.174.982 3.278.874 3.373 1.44 6.768 2.43 10.112.987 3.323 2.083 6.643 2.923 10.007 1.697 6.79 2.948 13.626 5.391 20.23 1.284 3.467 2.804 6.622 3.805 10.192.422 1.509.82 2.901 1.458 4.324.704 1.569 1.775 3.269 2.2 4.938.49 1.922.347 4.202.526 6.182.09.997.135.491-.154 1.204m4.083-8.519c-.465-1.88-1.66-3.768-2.449-5.541-.706-1.591-1.08-3.297-1.546-4.97-.973-3.463-2.699-6.586-3.792-9.997-1.293-4.044-2.595-8.101-3.609-12.227-.913-3.7-1.574-7.393-2.635-11.058-.987-3.405-2.2-6.792-2.945-10.257-.426-1.989-.766-4.018-1.29-5.984-.563-2.123-1.472-4.185-1.939-6.33-.788-3.614-.823-7.588-1.122-11.282-.293-3.641-.694-7.28-1.216-10.894-.584-4.059-1.266-7.964-2.765-11.816-1.579-4.054-3.948-7.55-6.405-11.095-4.063-5.85-10.694-11.455-17.253-14.231-7.957-3.371-16.021-4.825-24.53-2.927-1.953.436-3.718.668-5.338 1.888-1.354 1.02-2.701 2.048-4.048 3.076-1.786.236-3.7.408-5.306 1.063-.533.215-3.277 1.992-4.618 2.734h-.002c-.407.227-.7.362-.74.319-.118-.133.47-.266.738-.32-.102.019-.258.044-.563.09-.557.087-1.12.257-1.671.386-1.046.24-2.089.497-3.14.718-.104.017-.249.041-.425.066-.549.072-1.092.166-1.638.25-1.192.182-2.396.334-3.582.549-1.996.36-3.968.96-5.924 1.496-1.984.543-3.299 1.72-4.906 2.976-2.892 2.259-5.849 4.562-8.425 7.18-5.449 5.538-10.664 11.888-13.032 19.393-1.148 3.65-2.912 7.76-3.28 11.552-.207 2.121.072 4.341.039 6.473-.006.555-.006.331-.006.387-.02.4-.062.798-.09 1.198l-.312 4.187c-.544 7.354 1.923 15.453 5.302 21.926 1 1.914 2.256 3.778 3.44 5.586 1.022 1.556 2.572 2.732 3.924 4.01 2.57 2.432 4.552 5.663 7.45 7.666 6.714 4.646 13.633 8.74 20.757 12.717 3.266 1.824 6.91 2.71 10.104 4.636 1.057.637 2.121 1.271 3.178 1.914.084.052.438.287.504.318.338.264.661.553.987.827 1.525 1.278 3.215 2.429 4.413 4.024 5.015 6.676 10.429 12.452 13.193 19.963.672 1.829.783 4.174 1.737 5.861.825 1.46 3.725 2.027 5.215 2.66 1.64.696 3.295 1.208 4.997 1.74 1.075.336 2.15.668 3.227 1.008l.14.043.11.035c.553.178 1.106.36 1.659.54 3.819 1.241 7.507 2.794 11.307 4.07 2.013.673 4.237 1.642 6.332 1.971 2.15.338 4.54-1.347 6.393-2.228 3.438-1.628 6.393-3.878 9.442-6.151 3.694-2.758 6.688-5.384 9.735-8.852 2.273-2.59 3.717-6.326 5.02-9.527.654-1.607 1.742-3.368 1.768-5.109.033-2.045-.075-4.712-.569-6.7" fill="#c58fff"/><path d="m162.604 305.953-5.687 3.397-5.911 2.981-5.55 3.584-4.92 4.454-5.22 4.017-4.665 4.653-4.927 4.394-3.952 5.283-4.624 4.807-2.66 6.104-3.151 5.795-2.39 6.184-.661 6.598-.715 6.534.301 6.572 1.124 6.481 1.917 6.288 2.521 6.068 2.721 5.91 6.131 2.068 6.317 1.693 6.42 1.184 6.52.604 6.594-.078 6.389-1.634 6.159-2.295 5.98-2.802 4.982-4.349 5.046-4.182 4.834-5.027 2.648 7.251 1.042 7.294.52 7.276-.503 7.206-1.808 6.973-5.103 5.076-3.965 6.006-3.571 6.213-4.069 5.969-2.113 6.897-1.133 7.069 3.871 4.71 5.883 1.777 6.106.371 5.963-1.422 5.898-1.879.098-7.274 1.1-7.186 2.498-6.829 2.603-6.755 3.038-6.567 2.921-6.522-1.727-6.107-.655-6.463-1.27-6.317-1.398-6.295-1.694-6.266-.372-6.477-.672-6.407-.494-6.406.273-6.259-6.498-1.104-6.462 1.824-6.346 1.847-6.146 2.525-5.828 3.213-5.666 3.498-5.32 3.426 1.624-5.906 4.677-4.732 5.005-4.344 5.617-3.508 5.983-2.854 6.025-3.381 5.533-4.142 4.513-5.202 3.492-5.838 2.829-6.229 1.11-6.833-.731-6.883-1.941-6.612-2.402-6.43-2.388-6.479-3.17-6.125" fill="#fff"/><path d="m204.003 420.378c-.623-2.973-.592-6.073-1.194-9.069-.682-3.395-1.35-6.805-2.177-10.171-.761-3.09-1.675-5.865-1.859-9.043-.207-3.586-.625-7.134-.93-10.71-.37-4.364-.376-7.398-.186-11.807.023-.535-.326-.705-.825-.79-3.033-.515-6.135-1.532-9.156-.678-3.34.942-6.677 1.894-10.011 2.864-5.844 1.7-11.283 4.49-16.448 7.677-1.732 1.07-3.444 2.175-5.162 3.267.227-.994.496-1.966.905-2.814l.008-.02c0 .014.029.002.168-.179.3-.376.698-.706 1.034-1.046.877-.885 1.755-1.773 2.628-2.66.17-.172.34-.346.512-.518.094-.078.39-.338.444-.383.917-.776 1.816-1.575 2.723-2.363.412-.356.848-.7 1.243-1.077.064-.064.371-.32.45-.4.662-.452 1.373-.85 2.047-1.271 6.19-3.868 12.923-6.483 18.808-10.888 5.805-4.345 9.487-10.435 12.45-16.957 3.017-6.643 2.509-13.583.494-20.441-2.22-7.56-5.177-14.885-8.791-21.87-.709-1.372-5.02-1.143-4.54-.025 2.943 6.91 5.871 13.716 8.062 20.296 2.24 6.73 3.715 13.597 1.444 20.254-1.428 4.19-3.195 6.764-5.394 10.441-.817 1.368-1.857 2.48-2.906 3.688-.665.764-1.296 1.587-2.007 2.312-.07.072-.075.08-.108.113-.35.299-.743.559-1.112.833-.944.707-1.888 1.413-2.832 2.122-.375.278-.747.567-1.126.843-.043.027-.066.043-.092.066-1.788 1.085-3.652 2.103-5.497 3.086-2.914 1.548-5.905 2.78-8.707 4.532-3.354 2.094-6.395 4.415-9.223 7.206-1.407 1.392-3.456 2.895-4.472 4.59-.985 1.645-1.196 4.2-1.706 6.052-.405 1.47 3.088.524 3.563.22 5.111-3.294 10.227-6.507 15.555-9.441.272-.154 1.182-.61 1.13-.608.59-.256 1.19-.494 1.784-.738.948-.387 1.894-.776 2.84-1.163l.873-.36c.034-.012.04-.019.065-.029 2.887-.89 5.81-1.691 8.72-2.51.92-.26 1.918-.465 2.833-.793.027.008.045.017.076.025 1.559.39 3.195.587 4.8.831-.135 3.143-.233 6.182.008 9.332.248 3.186.67 6.356.91 9.54.145 1.915.12 3.856.333 5.763.162 1.48.676 2.924 1.065 4.363.811 2.99 1.487 6.006 2.12 9.037.747 3.577 1.31 7.026 1.677 10.652.15 1.48.438 2.72.845 4.157.29 1.018.645 2.038.869 3.072.18.827.258.393-.211 1.353-2.998 6.156-5.728 12.488-8.136 18.893-1.325 3.524-2.488 6.733-3.055 10.44-.522 3.417-.596 6.726-.643 10.162-2.976.903-5.937 1.725-8.973 2.497-.097.024-.172.045-.244.067-.078-.02-.172-.039-.305-.06-1.292-.194-2.664-.161-3.969-.239-.278-.018-.555-.037-.833-.053l-.037-.018c-1.067-.482-2.339-.705-3.459-1.045-.483-.145-1.032-.252-1.497-.452-.292-.125-.387-.158-.383-.14-.81-.634-1.476-1.812-2.119-2.594-.334-.406-.653-.834-1.003-1.223-.082-.088-.269-.37-.404-.526.027-.178.043-.446.064-.54.145-.633.209-1.3.311-1.942.596-3.716 1.292-7.523 2.752-11.023.006-.016 0-.006.002-.014.017-.029.04-.064.09-.158.213-.39.516-.76.768-1.126.707-1.038 1.413-2.076 2.122-3.113.866-1.273 1.628-2.565 2.398-3.907 1.855-3.227 3.698-6.68 6.02-9.6 2.009-2.53 4.955-3.958 5.789-7.177.455-1.757 1.095-3.553 1.378-5.345.317-2.029.297-4.17.436-6.219.244-3.597-.282-7.357-.792-10.928-.266-1.864-.369-3.807-.963-5.595-.727-2.193-1.587-4.35-2.38-6.522-.532-1.462-3.638-.039-4.277.625l-3.729 3.876c-.28.287-.55.588-.84.87-.04.041-.05.052-.08.078-.659.584-1.359 1.126-2.037 1.687-1.069.887-2.148 1.764-3.202 2.669-.734.63-1.458 1.275-2.187 1.91-.594.52-1.825 1.253-2.245 1.952-.153.08-.303.168-.442.233-1.063.496-2.124.993-3.184 1.491-1.137.53-2.247.995-3.42 1.435-1.032.385-2.064.768-3.094 1.153-.322.12-.641.244-.965.36-.024.007-.033.007-.067.015-1.751.449-3.59.795-5.316 1.352-.232.002-.535.057-.662.053-1.155-.02-2.318.028-3.473.04-.612.007-1.226.027-1.837.023-.108-.004-.233-.01-.298-.016-.586-.051-1.172-.107-1.757-.164-3.439-.315-6.721-.864-10.12-1.476-.15-.027-.342-.064-.394-.068-.186-.047-.37-.098-.557-.147l-3.27-.879c-1.243-.332-2.455-.674-3.671-1.083l-3.234-1.09c-.383-.13-.772-.243-1.149-.389l-.008-.004c-.92-1.66-1.64-3.501-2.414-5.238-2.613-5.877-4.417-11.664-5.517-17.991-1.118-6.445.008-12.186.668-18.772.616-6.14 4.74-11.568 7.157-17.12.352-.806.647-1.678 1.07-2.452l.099-.185c.217-.28.516-.532.762-.788 1.245-1.296 2.596-2.541 3.761-3.913 1.151-1.356 2.153-2.875 3.217-4.299.21-.278.404-.569.625-.835.047-.06.043-.061.037-.057.698-.707 1.5-1.338 2.242-1.999 2.494-2.224 4.745-4.687 7.214-6.934.42-.383-.245.217.06-.03.27-.215.55-.424.825-.635l2.779-2.136c.997-.768 1.925-1.544 2.856-2.388 3.12-2.823 4.464-3.964 8.337-6.292 2.357-1.417 4.943-2.42 7.308-3.834 1.542-.921 3.086-1.84 4.628-2.764 2.56-1.528-1.388-1.85-2.695-1.071-5.674 3.39-11.76 6.123-17.148 9.966-2.672 1.903-4.935 4.42-7.552 6.43-2.852 2.197-5.783 2.906-8.385 5.394-.283.27-.619.538-.9.79-.933.832-1.87 1.716-2.803 2.548-1.083.966-1.974 2.08-2.846 3.247-.934 1.243-1.808 2.558-2.842 3.715-1.325 1.485-2.394 4.298-3.555 5.908-1.706 2.363-2.429 5.572-3.84 8.162-1.746 3.213-3.464 6.442-4.509 9.97-.794 2.685-.678 5.798-.985 8.603-.41 3.748-.505 7.126-.284 10.9.389 6.592 2.744 12.883 5.273 18.905.563 1.337 1.185 2.646 1.791 3.965.617 1.339.885 2.74 2.25 3.327 3.392 1.468 7.37 3.051 10.928 4.004 6.374 1.707 12.937 2.262 19.513 2.182 6.466-.075 12.909-3.534 18.708-6.25 1.48-.691 3.168-1.277 4.493-2.244 1.607-1.169 3.032-2.668 4.54-3.964 2.211-1.902 4.576-3.627 6.6-5.73.204-.213.409-.424.614-.636.899 2.49 1.697 4.935 2.082 7.631.52 3.64 1.098 7.923 1.116 11.275.017 3.32-.553 7.29-1.462 10.792-.248.958-.385 2.08-.776 2.99-.022.057-.016.05-.024.08-.021.02-.023.016-.068.075-.28.375-.7.697-1.032 1.026-1.313 1.307-2.824 2.556-3.975 4.004-2.367 2.981-4.245 6.516-6.139 9.808-1.669 2.904-4.183 5.56-5.55 8.574-1.56 3.436-2.195 7.444-2.786 11.14-.125.786-.551 1.943-.439 2.736.107.729.654 1.2 1.137 1.783 1.032 1.256 2.048 3.117 3.547 3.78 3.774 1.667 9.255 2.7 13.343 2.056 4.138-.655 8.189-2.096 12.161-3.364.74-.235 1.954-.622 1.966-1.562.027-1.845.05-3.69.074-5.538.024-1.648.131-2.223.416-4.083.57-3.739 1.499-6.753 2.8-10.318 2.151-5.875 4.74-11.49 7.29-17.193.585-1.305 1.688-2.875 1.592-4.305-.125-1.867-1.204-3.776-1.587-5.617" fill="#c58fff"/><path d="m120.609 230.898 5.828 3.239 6.457 1.405 6.391 1.519 6.08.181-.873 6.782-.055 7.126.5 7.159 2.672 6.692 4.183 5.834 4.454 5.517-1.634 6.243 1.393 6.334.694 6.465 1.749 6.122 1.63 6.225-1.389 6.283-1.763 6.08-2.598 5.813-2.634 5.867-3.923 5.103-3.864 5.455 2.109 7.26.063 7.31-1.769 7.179-5.332 5.093-5.445 4.661-2.556 4.875-.115 5.706-1.439 5.447 5.371 4.081 6.44 1.906 6.143 1.98-5.252-3.933-4.265-5.269-.91-6.748 3.67-5.838 5.893-3.936.479 7.311.361 7.018.217 6.737 6.078.718 6.483-.835 5.519-3.543 4.435-4.767 3.518-6.012-5.121 4.483-5.865 2.547-6.404-.821-3.178-5.734-.106-6.387-.287-5.752 4.943 5.726 6.326 4.812 6.457-3.641 4.658-5.797 2.681-6.711.716-7.685-3.335 5.789-4.262 4.386-5.625 2.005-5.783-1.222-3.067-5.263-1.831-5.906-.256-6.164.412-6.161 4.333-5.4 4.752-5.044 4.069-5.596 3.817-5.777 2.892-6.305 2.793-6.291 3.565-6 2.167-6.606 1.177-6.858-.242-6.933.236-6.948-1.634-6.533 3.399-5.555 1.954-6.446 2.139-6.418-.931-6.721-.746-6.565-1.802-6.389-3.137-5.852-4.157-5.173-4.974-4.249-2.537-5.674-1.777-6.141-3.142-5.56-3.374-5.38-3.825-5.133-4.876-4.196-5.588-3.205-6.195-1.697-6.293-.869-6.327-1.03-6.455.017" fill="#fff"/><path d="m162.918 384.537c-.13-.027-.303.037-.463.129.037.006.086.01.16.018.09-.057.203-.096.303-.147" fill="#c58fff"/><path d="m157.387 383.991c.936.14-.037.463 0 0m2.564 8.117c.153-.084.28-.133.284-.053 0 .008-.119.029-.284.053m31.146-147.485c-1.024-7.914-1.681-15.819-6.51-22.562-1.251-1.749-2.668-3.618-4.204-5.12-.86-.843-1.853-1.584-2.769-2.366-.565-.486-1.113-1.002-1.72-1.432l-.176-.188c-2.201-3.762-2.631-8.04-4.384-11.924-1.7-3.754-4.23-7.612-6.571-10.99-2.513-3.623-5.287-6.946-8.965-9.457-3.756-2.56-7.784-4.138-12.236-4.996-2.088-.406-4.238-.562-6.343-.881-2.204-.334-4.436-.907-6.658-1.022-2.14-.11-4.312.012-6.454.019-1.642.006-5.662 3.978-3.713 3.428 1.104-.312 9.92-1.35 9.682-1.38 2.117.266 4.218.71 6.328 1.027 1.23.18 2.461.34 3.692.51.661.09 1.327.162 1.984.273.141.024.207.034.248.04.024.009.092.027.25.064 2.26.555 4.957 1.147 6.452 2.005 3.907 2.238 7.92 4.814 10.337 8.058 2.595 3.483 4.986 7.04 7.124 10.826 1.415 2.507 2.111 3.76 2.846 6.346.578 2.027 1.266 4.032 2.126 5.957.938 2.097 1.431 3.297 3.131 4.749 2.089 1.783 3.305 2.793 4.827 4.687 2.754 3.43 5.205 7.163 6.282 10.99 1.163 4.13 1.59 8.134 2.177 12.383.36 2.615.882 4.495.18 6.598-.686 2.068-1.394 4.128-2.027 6.215-.694 2.291-1.174 4.347-2.177 5.987-.967 1.583-2.865 3.53-2.603 5.425.293 2.115 1.456 4.802 1.462 6.389.009 2.154-.217 4.308-.206 6.465.012 2.252.368 4.556.227 6.8-.176 2.801-.948 6.064-1.608 8.478-.436 1.595-.993 3.16-1.644 4.683-.178.42.094-.22-.192.326-.29.553-.643 1.083-.96 1.617-.736 1.235-1.533 2.454-2.212 3.719-1.966 3.67-3.482 7.693-5.22 11.484-1.857 4.05-4.345 7.032-6.764 10.36-2.435 3.347-5.471 6.145-8.062 9.37-1.228 1.532-2.832 2.848-2.967 4.851-.147 2.191-.373 4.368-.283 6.563.172 4.145.52 8.25 2.646 11.942.985 1.712 1.782 4.401 3.809 4.909 1.878.467 4.442 1.403 6.368.993 1.921-.407 4.862-1.282 6.428-2.515 1.46-1.146 3.054-2.817 4.204-4.351-.403 2.646-1.079 5.132-2.592 7.923.039-.11-.385.51-.502.657-.52.643-1.038 1.292-1.558 1.937-.82 1.02-1.649 2.036-2.46 3.062.658-.832.173-.164-.454.188l-2.214 1.247c-.735.418-1.47.83-2.205 1.245-1.862-1.364-3.846-2.676-5.523-4.226.352.327-.448-.562-.54-.67l-1.594-1.845c-.878-1.016-1.757-2.033-2.631-3.05-.672-.773-3.418-.3-2.762 1.15.87 1.93 1.404 4 .942 6.067-1.2 5.39-.652 5.943.606 8.212.739 1.337 1.39 3.608 2.918 4.103 1.665.539 3.927.637 5.717.746 1.233.075 2.425-.265 3.518-.838 1.343-.704 2.801-1.118 4.083-1.857-.223.321-.436.614-.632.835-1.106 1.241-2.288 2.415-3.396 3.651-.135.15-.274.308-.417.45-.02.011-.06.036-.146.101-.6.443-1.273.817-1.898 1.219-.729.469-1.456.933-2.185 1.402-.221.142-.534.291-.754.475-1.195.164-3.714.453-3.976.49-2.339.299-.944.221-5.685-.24l-.934-.989c-.231-6.575-.58-13.134-1.007-19.701-.068-1.059-1.999-.52-2.451-.221-2.195 1.468-5.177 2.772-6.684 4.976-1.038 1.517-2.259 3.184-3.045 4.843-.53 1.12-.199 2.099-.03 3.348.188 1.4.081 3.331.708 4.607.716 1.466 2.32 2.865 3.344 4.132.346.426.735.807 1.126 1.186-.455-.14-.907-.287-1.366-.422-.977-.288-1.951-.583-2.93-.868-.813-.231-.688-.18-1.05-.416-1.428-.93-2.984-2.96-4.594-3.532-.018-.043-.024-.06-.045-.107.395-.86.602-1.845.825-2.799.348-1.49.561-3.02.602-4.55.058-2.24-.14-2.818.707-4.435.459-.875.966-1.737 1.38-2.632.104-.225.227-.45.348-.667.109-.082-.157.065 2.505-1.595 1.691-1.057 3.012-2.568 4.191-4.176.889-1.214 3.15-2.488 4.092-4.038.735-1.214.845-3.104 1.181-4.468.81-3.293.758-6.207.709-9.616-.017-1.188-.338-2.159-.672-3.31-.407-1.398-1.31-3.225-1.413-4.726.123.291.56-.714.842-1.116.647-.911 1.292-1.824 1.939-2.738 1.302-1.84 1.395-1.875 4.065-5.387.487-.643.958-1.321 1.317-2.042.9-1.808 1.558-3.805 2.46-5.533.861-1.654 1.709-3.327 2.255-5.111 1.127-3.66 2.063-7.272 2.884-10.99.628-2.832-.522-5.474-1.284-8.244-.82-2.984-1.698-5.753-2.028-8.826-.344-3.223-1.322-6.334-1.675-9.526-.194-1.778 2.415-5.474.975-7.526-1.814-2.59-3.99-4.939-5.838-7.515-.608-.848-1.202-1.708-1.827-2.545-.432-.576-.415-.568-.565-.87-.798-1.604-1.361-3.375-2.019-5.053-.356-.915-.557-1.883-.624-2.866-.093-1.295-.183-2.587-.273-3.879-.024-.327-.112-1.76-.106-1.497-.076-3.014-.074-6.067.311-9.059.205-1.6.412-3.199.616-4.802.07-.528-.5-.87-.966-.885-1.098-.032-2.197-.063-3.293-.098-.674-.02-1.347-.057-2.021-.06-.539-.001-.698-.012-.606.003-2.101-.322-4.184-1.014-6.258-1.487-1.945-.442-4.755-.788-6.268-1.337-1.526-.555-3.932-2.193-5.687-3.168-1.054-.586-5.27 2.857-3.878 3.63 1.906 1.061 3.815 2.4 5.828 3.24 2.045.856 4.53 1.03 6.694 1.526 2.103.477 4.198 1.138 6.323 1.5.741.126 1.503.191 2.27.224 1.705.074 3.038 1.49 3.022 3.197-.058 6.143.921 16.03 1.812 18.26 1.134 2.844 2.131 4.926 3.907 7.402 1.636 2.281 3.932 3.954 5.697 6.14.364.452.96.986 1.253 1.519-.018.264-.158.593-.221.84-.422 1.613-1.864 3.824-1.974 5.485-.144 2.187 1.079 4.659 1.415 6.831.446 2.882 1.075 5.357 1.951 8.165.604 1.937 1.253 3.872 1.684 5.856.976 4.497 1.152 3.465.708 5.468-.354 1.595-.657 3.21-1.063 4.796-.719 2.815-1.46 5.342-2.471 7.6-1.207 2.7-2.415 5.397-3.625 8.094-1.04 2.316-2.746 4.21-4.552 6.65-.823 1.113-1.601 2.26-2.402 3.39-.584.825-1.665 1.857-1.706 2.891-.047 1.266.897 3.086 1.25 4.296.358 1.24.796 2.521.839 3.293.145 2.6.36 5.447-.264 7.986-.438 1.774-.686 3.79-1.34 5.505-.243.276-.546.522-.81.774-.805.768-1.608 1.535-2.415 2.303-2.176 2.08-4.509 3.666-6.993 6.174-1.783 1.8-3.202 4.84-3.256 7.37-.028 1.497.082 3.057-.198 4.524-.322 1.679-.887 3.346-1.323 5-.074.279.147.539.344.686 1.513 1.151 3.022 2.3 4.534 3.447.649.491 1.384.856 2.166 1.08 3.874 1.117 7.704 2.337 11.541 3.574.88.283 3.352-.776 2.021-1.773-2.082-1.559-4.533-3.119-5.838-4.726-1.036-1.28-2.62-2.667-3.352-4.141-.197-.401-.38-2.76-.52-3.786-.11-.821-.246-1.64-.332-2.462-.004-.047-.002-.061-.004-.096.078-.135.168-.272.225-.336 1.09-1.24 1.974-3.018 2.796-4.45.1-.172.212-.344.321-.511.559-.377 1.118-.75 1.677-1.12l1.64-1.096c.402 6.354.713 12.356.93 19.02.016.569.434.82.967.884 2.8.332 5.481.844 8.283.485 1.515-.196 3.174-.233 4.658-.6 1.489-.37 2.806-1.484 4.084-2.305 2.662-1.71 4.546-3.637 6.671-6.017 1.776-1.988 2.93-4.589 4.274-6.884.762-1.299-1.782-1.272-2.376-.75l-4.015 3.514c-.373.328-1.237 1.02-.957.856-.772.453-1.701.74-2.52 1.096-.707.305-1.522.575-2.224.944.09.018.164.067.178.21-.004-.024-.28-.044-.481-.063-.033.02-.074.03-.105.05-.618.407-.389.13-.053-.068-.012-.002-.037-.004-.043-.006-1.521-.4-3.387-.604-5.03-.688l-.001-.005c.039-.247-.582-1.046-.703-1.267-.497-.895-.993-1.794-1.49-2.69-.156-.283-.61-1.39-.672-1.238-.074-.692-.014-1.447-.025-2.131-.03-1.747-.086-3.492-.153-5.236.667.78 1.351 1.541 2.09 2.22 1.936 1.764 4.241 3.229 6.326 4.811.442.336 1.335.244 1.792-.012 2.189-1.235 4.814-2.279 6.788-3.833 1.114-.88 1.925-2.378 2.818-3.401.77-.883 1.986-2.35 2.551-3.375 2.441-4.446 2.752-9.2 3.217-14.167.14-1.513-2.453-.79-2.907 0-1.018 1.766-2.249 4.331-3.252 5.658-.391.52-1.686 1.712-2.386 2.435-.434.447-.989.889-1.351 1.389-.025.036-.027.049-.048.081-.661.152-2.928 1.037-5.082 1.19-1.747.123-3.43-.467-4.028-.49-.086-.001-.145-.005-.2-.005-.394-.551-.701-1.2-1.04-1.784-1.434-2.46-1.959-3.577-2.782-6.23-.772-2.483-.872-3.52-.987-6.257-.09-2.163.027-4.23.172-6.395.037-.572.086-1.143.115-1.714.004-.088.002-.144-.004-.189l.002-.004c.753-1.18 1.808-2.254 2.684-3.348 2.544-3.168 5.595-5.838 8.191-8.97 2.675-3.228 6.058-6.242 7.729-9.853 1.806-3.905 3.356-8.045 5.363-11.846 1.044-1.986 2.56-3.798 3.475-5.846.9-2.021 1.552-4.376 2.133-6.51 1.2-4.399-.016-9.043-.184-13.558-.065-1.82.015-3.647.109-5.468.127-2.475-.27-4.224-.862-6.597-.146-.582-.254-1.188-.44-1.76-.117-.35-.11-.83-.17-.835.4-.97 1.271-1.992 1.791-2.844 2.21-3.615 2.392-5.634 4.737-13.982.48-1.718.626-3.522.397-5.294" fill="#c58fff"/><path d="m113.334 176.083 1.581-6.242-.721-6.389-1.216-6.457 6.813-1.361 5.561-3.889 3.154-5.879 2.707-6.068.952-6.604.24-6.665.356-6.651.492-6.672-.93-6.675.399-6.496-5.633 4.313-5.75 4.585-4.018 6.172-4.675 5.66-3.268 6.284-2.885-6.688-4.608-5.889-6.114-4.438-4.493-4.199-2.74-5.665-.483-6.251.403-6.203 1.331-6.115 2.726-5.639 3.559-5.525-6.463 2.904-6.2 2.867-5.085 4.613-3.315 5.972-2.517 6.335.604 6.868 2.906 5.961-6.479-1.255-3.94-4.679-1.937-5.648-.453-6.188 1.644-6.033 1.858-5.977 2.924-5.533-5.775 3.375-5.932 3.288-3.964 5.494-3.717 5.564-2.013 6.465 1.54 6.495 4.204 5.101-6.661 1.886-6.283 2.546-5.871 3.383-5.359 4.101-4.98 4.567-4.126 5.357-3.467 5.793-2.879 6.112-2.339 6.358-1.767 6.596-.1 6.817 6.512.117 6.491.44 6.502-.6 6.657.305 2.789 7.047 2.623 7.247-6.839 2.817-5.82 3.946-4.268 6.187 7.364-2.038 6.663-1.026-5.465 3.227-5.363 4.163-5.746 3.719-4.54 5.095-4.312 5.259-3.957 5.549-2.69 6.264-2.454 6.336-1.22 6.69-.807 6.808 4.37-5.219 4.925-4.64 5.914-3.277 6.114-2.785 6.406-2.029 6.473-1.952 6.655-1.234 6.798.11 6.67-.579 6.6-1.139 6.417-1.915 6.59-1.238 6.321-2.247 6.002-3.006 5.445-3.899 5.597-3.71 4.005-5.402 3.971-5.292 3.235-5.797z" fill="#fff"/><path d="m130.838 115.772c-.102 1.378-.213 2.758-.303 4.136-.14 2.14-.246 4.288-.348 6.434-.107 2.17-.107 4.35-.244 6.522-.135 2.167-.649 4.303-.872 6.465-.025.238-.072.512-.068.555-.13.358-.327.72-.479 1.06-.612 1.375-1.208 2.761-1.839 4.127-.887 1.91-2.072 3.678-2.945 5.59-.065.148-.174.312-.268.475-.389.228-.798.617-1.122.844-.672.469-3.082 1.634-3.692 2.46-.795.096-1.61.325-2.39.48-1.216.242-2.435.484-3.649.73-.84.168-2.054.948-1.867 1.943.577 3.05 1.175 6.065 1.523 9.15.2 1.797.477 3.206.174 4.207-.522 1.712-.89 3.488-1.327 5.228-1.669 4.004-3.3 7.995-5.678 11.656-1.192 1.839-2.654 3.539-3.967 5.294-1.132 1.521-3.034 3.303-3.813 5.06l-.133.071c-.553.293-1.07.71-1.593 1.057-1.126.745-2.267 1.474-3.379 2.242-1.797 1.241-3.52 2.597-5.334 3.817.055-.04.54-.252-.283.143-.573.277-1.136.568-1.707.854-1.18.592-2.353 1.198-3.54 1.774-.118.053-.25.108-.374.151-.618.221-1.24.44-1.863.662-1.184.42-2.375.948-3.588 1.275-2.152.582-4.423.715-6.59 1.248-2.117.516-4.19 1.263-6.284 1.867.035-.01.705-.102-.262.064l-1.878.323c-1.323.23-2.654.518-3.987.688-2.156.277-4.36.424-6.53.571.082-.006.582.02-.326-.002-.645-.016-1.292-.022-1.935-.032-1.36-.02-2.748-.123-4.108-.068-2.379.102-4.857.741-7.185 1.227-4.241.882-8.44 2.482-12.57 3.788-4.656 1.476-9.277 3.964-13.443 6.493-2.04 1.241-3.858 2.961-5.543 4.823.324-2.437.705-4.864 1.257-7.257.04-.166-.139.362.099-.326.198-.577.442-1.143.663-1.71.506-1.31.993-2.63 1.52-3.93.817-2.019 1.61-4.12 2.594-6.059.987-1.941 2.517-3.712 3.797-5.475.098-.131.139-.193.174-.24.356-.45.727-.889 1.091-1.333.944-1.15 1.876-2.314 2.834-3.457 1.397-1.662 2.974-3.186 4.33-4.882.12-.151.204-.251.26-.315.3-.227.638-.416.958-.622 1.261-.817 2.524-1.63 3.784-2.45 2.056-1.339 3.866-3.016 5.858-4.443 1.819-1.305 3.865-2.343 5.796-3.48 1.656-.98.36-2.557-1.192-2.32-3.563.552-6.95 1.24-10.366 2.073l1.517-2.201c.177-.256.439-.563.615-.862.803-.33 1.687-1.186 2.365-1.645.932-.633 1.847-1.292 2.795-1.896l.047-.033c.336-.151.686-.282 1.028-.424 1.864-.768 3.73-1.535 5.595-2.301.555-.23 1.554-.987 1.286-1.735-1.739-4.798-3.537-9.548-5.415-14.293-.229-.58-.813-.84-1.413-.868-2.213-.099-4.443-.307-6.657-.305-2.22.002-4.427.444-6.64.573-.048-.016-.648-.023-.875-.043-.745-.057-1.489-.1-2.232-.15-1.075-.073-2.148-.174-3.221-.219-1.704-.067-3.41-.08-5.115-.1-.03-1.896-.134-3.862.137-5.695.192-1.296.704-2.627 1.044-3.89.176-.658.358-1.313.526-1.97.097-.38.103-.432.099-.428l.034-.099c1.469-4.451 3.244-9.067 5.656-13.097 2.603-4.35 4.491-7.78 8.53-11.484 1.025-.942 2.03-1.912 3.081-2.826.06-.045.158-.119.31-.23.716-.53 1.414-1.084 2.12-1.625 1.98-1.515 3.89-2.75 6.054-3.993.713-.414 1.415-.844 2.14-1.235l.11-.061c.076-.02.189-.058.404-.131 1.681-.576 3.342-1.321 4.978-2.013.127-.056.213-.092.28-.125.035-.008.082-.017.162-.04.756-.208 1.503-.423 2.255-.638 1.345-.38 2.693-.762 4.04-1.14.758-.218 2.562-1.221 1.687-2.282l-2.723-3.305c-.432-.526-1.01-1.069-1.362-1.652.162.27-.076-.31-.182-.822-.352-1.683-1.004-3.38-1.208-5.086-.01-.094-.019-.164-.025-.213.041-.162.109-.33.158-.475.311-.926.581-1.868.87-2.802.254-.815.469-1.658.766-2.457.067-.18.094-.266.106-.315.017-.002.07-.053.228-.295.962-1.47 1.947-2.926 2.928-4.382 1.3-1.93 2.693-3.8 4.06-5.687 1.887-1.048 3.756-2.134 5.632-3.203-.502 1.04-.965 2.1-1.31 3.217-.982 3.156-1.975 6.314-2.763 9.527-.553 2.248-.209 5.383.301 7.621.379 1.665 1.057 3.59 1.765 5.146.549 1.21 1.558 2.163 2.414 3.178 1.106 1.315 1.708 2.353 3.381 2.75 1.858.437 3.762.728 5.634 1.092.831.16 4.316-.39 3.544-1.972-1.296-2.66-2.82-5.013-3.08-7.966l-.29-3.29c-.031-.338-.013-.727-.092-1.055-.013-.047-.019-.072-.027-.109.67-1.724 1.35-3.446 2.048-5.158.456-1.11 1.05-2.121 1.634-3.174.512-.921 1.038-1.837 1.536-2.764.11-.207.219-.428.346-.627.03-.024.053-.039.135-.12 1.386-1.358 2.957-2.538 4.318-3.922.019-.015.019-.02.035-.037.013-.004.013-.002.025-.006.9-.311 1.771-.82 2.635-1.217 1.342-.62 2.691-1.222 4.034-1.83-1.574 2.46-3.063 5.019-3.937 7.734-1.268 3.93-1.82 8.58-1.716 12.696.108 4.358.718 8.674 3.434 12.289 2.754 3.661 7.22 5.725 10.595 8.656.071.063.106.088.127.1.028.051.1.158.25.358.411.557.855 1.092 1.281 1.638.916 1.17 1.946 2.31 2.775 3.547.018.043.199.363.354.735.314.748.643 1.491.965 2.236l1.542 3.572c.69 1.599 3.663.845 4.327-.432.806-1.553 1.613-3.103 2.42-4.655.246-.469.473-.956.737-1.417.023.041.799-1.007.957-1.2 2.043-2.476 3.954-4.863 5.703-7.548.538-.825 1.12-1.634 1.617-2.484.082-.14.2-.29.301-.442 1.51-.799 2.937-2.367 4.258-3.42.89-.713 1.802-1.392 2.707-2.087-.072.928-.123 1.854-.099 2.763.064 2.308.779 4.58.918 6.882-.006-.002-.015.058-.031.369-.029.598-.088 1.2-.131 1.798m-49.093 92.351c.37-.176.252-.11 0 0m-39.398 9.698c.053-.084.389-.106.813-.102-.297.047-.842.145-.813.102m92.298-111.192c-.1-.725-.027-1.186.061-2.601l.258-4.21c.109-1.786-2.803-1.313-3.676-.643-2.344 1.794-4.701 3.57-7.009 5.408-1.407 1.12-2.902 2.185-4.239 3.38-1.075.961-1.755 2.266-2.541 3.472-.584.897-1.18 1.787-1.753 2.692-.137.22-.278.443-.426.66-1.175 1.499-2.435 2.945-3.649 4.415-.735.889-1.341 1.867-1.908 2.869-.312-.725-.613-1.46-.98-2.15-1.01-1.915-2.672-3.6-4.009-5.306-1.218-1.56-2.801-2.535-4.406-3.7-2.396-1.739-2.853-2.097-4.972-4.077-.43-.406-.846-.836-1.297-1.215-.077-.065-.768-.751-.716-.594-.647-.974-1.067-2.248-1.573-3.288-1.071-2.214-1.171-3.762-1.364-6.262-.045-.578-.108-1.16-.133-1.739-.004-.08-.006-.129-.01-.176.006-.018.012-.096.02-.278.062-1.442.187-2.884.28-4.323.136-2.089.666-4.088 1.113-6.135.332-1.526.145-1 .819-2.394.663-1.372 1.265-2.797 1.998-4.13 1.082-1.966 2.43-3.817 3.645-5.703 1.129-1.751-2.248-1.661-3.045-1.303-2.827 1.27-5.66 2.533-8.475 3.836-1.673.772-3.62 1.396-5.077 2.543-1.376 1.081-2.623 2.381-3.921 3.559-2.134 1.937-3.55 4.814-4.761 7.415-.8 1.722-1.413 3.559-2.115 5.322-.57 1.433-.455 2.439-.318 3.98.142 1.61.04 3.482.584 5.001.311.873.725 1.73 1.161 2.58-.231-.024-.465-.067-.694-.075-.115-.004-.166-.027-.242-.043-.147-.176-.295-.355-.444-.529l-2.453-2.916c-.797-.944-.498-.374-.813-1.257-.412-1.153-.793-2.314-1.19-3.469-.555-1.624-.62-3.078-.748-4.804-.182-2.496-.182-2.508.439-4.78.432-1.586.845-3.177 1.335-4.746.364-1.184.73-2.363 1.1-3.545.114-.376.214-.767.352-1.14.016-.02.059-.094.143-.26.883-1.73 1.818-3.44 2.73-5.163 1.114-2.103-2.714-1.505-3.539-1.023-1.509.88-3.018 1.763-4.53 2.643-.33.195-.659.387-.99.58-.056.032-.087.053-.115.067-.719.406-1.446.8-2.169 1.202-1.507.836-3.45 1.57-4.587 2.888-1.185 1.363-2.156 2.985-3.213 4.45-1.597 2.215-3.606 4.568-4.63 7.083-.723 1.779-1.314 3.812-1.767 5.678-.32 1.329.143 2.474.465 3.813.356 1.515.491 3.217 1.405 4.49.804 1.119 1.714 2.177 2.62 3.23-3.837 1.087-7.678 2.27-11.196 4.149-4.403 2.352-8.607 5.084-12.295 8.469-3.831 3.512-7.138 7.128-9.825 11.615-2.689 4.486-4.835 9.078-6.64 13.986-1 2.72-1.746 5.467-2.475 8.27-.643 2.464-.317 5.227-.356 7.764-.01.784.682 1.23 1.43 1.243 4.328.078 8.688.545 13.005.557 2.217.008 4.44-.406 6.653-.57.127 0 .473-.008.712.009.74.049 1.477.067 2.216.104l2.478.113c1.628 4.13 3.194 8.27 4.714 12.442-3.166 1.327-6.07 2.668-8.988 4.646-1.5 1.018-2.756 1.796-3.784 3.289l-3.65 5.29c-1.015 1.474 1.682 1.726 2.464 1.508 2.13-.587 4.258-1.187 6.39-1.767-1.731 1.223-3.298 2.683-5.024 3.911-1.833 1.305-3.968 2.28-5.707 3.697-1.83 1.488-3.375 3.598-4.902 5.387-2.93 3.43-5.953 7.03-8.337 10.874-2.264 3.65-3.796 8.502-5.234 12.553-1.568 4.417-1.765 9.632-2.314 14.263-.237 1.995 3.344 1.182 4.071.313 1.448-1.73 2.82-3.577 4.366-5.22.655-.693 1.403-1.318 2.097-1.973l1.765-1.665c.064-.06.32-.31.547-.54.178-.124.416-.292.553-.365.684-.36 1.355-.752 2.031-1.124.985-.545 1.956-1.133 2.96-1.639.994-.501 2.039-.93 3.054-1.394l1.739-.789c.221-.102 1.521-.659 1.106-.522 4.013-1.48 8.373-2.848 12.514-3.852 1.01-.245 2.06-.385 3.08-.573l2.14-.4c.34-.06.696-.106 1.033-.192.105-.024.17-.043.215-.057.922.02 2.214.154 2.417.156 1.224.02 2.457.09 3.684.053 4.513-.14 9.08-.82 13.5-1.714 2.271-.459 4.444-1.325 6.682-1.917 2.159-.57 4.407-.766 6.58-1.28 4.337-1.03 8.406-3.082 12.364-5.062 3.903-1.955 7.431-5.017 11.08-7.435 2.22-1.472 3.486-3.543 5.07-5.68 1.477-1.987 2.996-3.942 4.452-5.947 2.783-3.827 4.518-8.314 6.326-12.647.024-.053.029-.1.045-.15.037-.075.074-.15.094-.231.465-1.835 1.036-3.672 1.399-5.527.282-1.431-.029-2.83-.195-4.286-.307-2.727-.788-5.404-1.292-8.09 1.565-.256 3.145-.512 4.62-.973 2.222-.694 4.538-2.73 6.34-4.145s2.703-4.052 3.751-6.049c1.028-1.957 1.89-4.013 2.765-6.043 1.691-3.925 1.488-8.983 1.638-13.2.164-4.513.485-9.016.815-13.523.18-2.461-.434-4.966-.772-7.4" fill="#c58fff"/><path d="m81.596 128.756c-.776 1.004-1.552 2.01-2.326 3.017-.385.495-.821.979-1.165 1.507-.068.104-.1.164-.117.205-.05.022-.119.067-.252.163-1.23.897-2.428 1.848-3.64 2.771-.218.164-.88.549-.705.54-.414.12-.85.201-1.262.302l-2.365.577c-.411.098-1.228.15-1.662.369l-.025-.004c-.782-.187-1.567-.371-2.35-.555-.689-.164-1.377-.326-2.065-.488-.06-.014-.176-.057-.29-.092-1.035-.698-2.235-1.261-3.294-1.882-.305-.18-.61-.383-.925-.544-.752-.385.129.2.15.198-.253.023-1.137-.989-1.323-1.149-1.1-.954-2.202-1.906-3.303-2.86-.746-.647-2.2-1.542-3.197-.895-.97.633-.19 1.988.442 2.537 1.835 1.591 3.61 3.49 5.691 4.75 2.371 1.442 4.704 3.06 7.419 3.7 1.474.347 2.949.74 4.431 1.048 1.31.272 2.683-.291 3.952-.603 1.125-.274 2.548-.389 3.576-.954 1.239-.68 2.373-1.806 3.497-2.662 2.198-1.673 3.666-3.948 5.347-6.127 1.235-1.597-2.955-4.531-4.239-2.869m-40.143 41.575c1.896-.786 3.793-1.572 5.687-2.359-1.2.322-2.398.641-3.596.963l2.877-.371c.762-.1 2.5.018 3.151-.41.01-.006-1-.024-.489.041.18.025.381.007.565.009l1.956.028c1.118.013 2.234.04 3.352.045-.7-.004-.463-.037.104.097.615.143 1.241.256 1.86.385 1.138.237 2.279.466 3.418.708-.308-.063-.31-.108.194.08.627.233 1.26.457 1.886.684 1.075.389 2.164.743 3.225 1.167 1.948.776 3.84 1.735 5.748 2.603 1.3.592 3.297-.08 4.556-.52.279-.099 3.166-1.368 2.177-1.819-4.542-2.064-9.071-4.2-13.982-5.22-1.364-.282-2.756-.69-4.14-.817-1.395-.124-2.824-.053-4.22-.073-2.818-.04-5.511.342-8.308.706-3.551.459-6.766 2.06-10.049 3.422-.665.274-2.334 1.171-.934 1.622 1.401.448 3.697-.447 4.962-.97" fill="#c58fff"/><path d="m47.51 175.479c.027 0 .052-.004.078-.004.391-.005.1-.003-.078.004m66.409-19.81c-1.059-.113-2.298.407-2.926 1.261-3.375 4.587-5.685 8.003-10.114 11.97-2.093 1.873-4.186 3.697-6.36 5.479-2.44 1.999-3.623 2.74-6.715 4.79-.006.004-.016.01-.023.012-.01.065-1.673.733-1.777.764-.432.12-2.752 1.03-4.055 1.329.015-.031-.147-.07-.712-.123-.897-.084-1.804-.096-2.705-.145-.846-.048-1.696-.12-2.542-.138-.237-.006-.346.002-.403.015-.047-.031-.15-.078-.383-.158-1.538-.53-3.147-.903-4.71-1.352-.166-.047-1.16-.372-1.167-.344-.598-.264-1.181-.591-1.763-.878-2.558-1.268-4.988-2.373-7.67-3.324-6.107-2.16-11.995-2.051-18.392-1.703-2.305.125-3.61 2.879-.54 2.71l4.425-.239c.67-.037 1.343-.094 2.015-.11-.008.002-.008.002.01.006.293.027.586.06.877.098 1.795.23 3.602.369 5.395.608.105.013.179.02.232.025.037.027.108.065.278.135.832.342 1.706.604 2.554.903.86.305 1.718.61 2.578.911.203.074.412.144.616.22.015.01.054.03.158.08 1.593.761 3.164 1.57 4.745 2.352 2.461 1.223 5.277 1.964 7.947 2.574 2.406.553 5.3.625 7.759.553 1.6-.047 3.22-.708 4.747-1.138 1.388-.39 2.928-.658 4.2-1.354 4.728-2.594 9.018-6.29 13.015-9.87 4.87-4.362 8.787-9.178 12.657-14.433.66-.894-.565-1.41-1.251-1.486m-35.32-.604-1.62-3.383c-.387-.813-.778-1.626-1.165-2.439-.005-.006-.013-.008-.015-.014-.012-.023-.037-.043-.063-.06-.326-.284-1.362.052-1.405.386l-1.999 5.53c-.145.402-.569 1.1-.46 1.53.08.318.35.67.501.959l.867 1.648c.448.858.896 1.714 1.347 2.57.213.405 1.24.12 1.425-.205.96-1.714 1.923-3.426 2.883-5.142.097-.172.179-.284.136-.477-.068-.299-.301-.627-.432-.903m54.573-45.155c-.821.035-2.11.332-2.697.981-1.616 1.78-3.52 3.492-4.87 5.48-1.45 2.138-2.879 4.374-4.02 6.69-2.453 4.976-4.652 10.044-7.463 14.828-.201.344-1.006 1.323-1.127 1.837-.276.1-.647.39-.858.512-1.44.813-2.877 1.628-4.312 2.443-.754.426-.397.823.252.944.91.168 2.082-.328 2.854-.766 1.274-.723 2.55-1.444 3.823-2.169.957-.538 1.815-.89 2.388-1.843 1.368-2.27 2.769-4.527 3.876-6.935 2.361-5.126 4.757-10.11 7.745-14.902.29-.469.57-.966.887-1.423.055-.053.237-.272.295-.334.299-.32.59-.649.882-.975l3.313-3.647c.607-.671-.538-.739-.968-.72m-84.186 42.179c-.98-.609-1.96-1.213-2.94-1.819l-2.454-1.517c-.823-.508-2.217-.113-2.948.356-1.772 1.136-3.543 2.27-5.314 3.407-.608.39-1.184 1.268-.33 1.745.856.477 2.181.135 2.949-.356 1.194-.764 2.388-1.53 3.581-2.296l4.116 2.544c-.014 1.531-.026 3.063-.039 4.597-2.467-.066-4.937-.123-7.404-.236l-2.648-.123c-.93-.04-2.224.314-2.734 1.168-.508.852.436 1.312 1.161 1.347 3.42.156 6.836.303 10.26.385.882.02 1.765.041 2.65.06.655.016 1.283-.13 1.863-.435.352-.188 1.001-.581 1.005-1.056.019-2.01.035-4.018.051-6.027.003-.23.007-.46.007-.69-.004-.59-.402-.79-.832-1.055m85.912 301.067-3.948.233c-.737.04-1.478.072-2.213.127-.023.002-.031.004-.05.004-.147-.016-.323-.03-.33-.03-1.635-.17-3.267-.337-4.904-.502-.231-.023-.462-.052-.692-.07-.108-.223-1.314-.582-1.52-.674-1.291-.573-2.583-1.146-3.876-1.724l-1.505-5.746c-.3-1.14-4.757.025-4.451 1.192.475 1.81.95 3.622 1.423 5.435.168.636.497.78 1.077 1.038l3.104 1.382c.71.315 1.438.74 2.181.969.674.208 1.479.186 2.173.258 1.76.178 3.594.536 5.365.469 2.099-.078 4.196-.244 6.293-.369.903-.051 2.387-.32 2.967-1.104.577-.784-.506-.923-1.094-.888m51.739-2.179c.115-.025.215-.043.217-.027 0 .002-.1.014-.217.027m9.184-1.317c-.229-.954-1.906-.795-2.549-.61-1.438.415-2.877.827-4.315 1.24-.784.224-1.578.427-2.355.676-.034.01-.049.017-.077.027-.13.016-.254.027-.265.029l-5.44.67c-.154.018-.312.04-.47.057-.474-.148-1.21-.162-1.582-.232-1.514-.286-3.029-.573-4.544-.858-.946-1.863-1.894-3.729-2.844-5.592-.82-1.61-5.163-.207-4.45 1.194l2.91 5.72c.39.77.854 1.068 1.693 1.228 1.255.235 2.513.47 3.768.71.901.17 1.804.365 2.71.51.939.152 1.906-.053 2.841-.168 2.06-.254 4.241-.325 6.254-.841 2.288-.588 4.544-1.305 6.815-1.958.715-.205 2.136-.823 1.9-1.802m-83.317 7.07c-.59.082-1.447.344-1.701.954l-2.57 6.187c-.232.56-.39.913-.414 1.503-.051 1.27-.104 2.539-.158 3.808l-.133 3.207c-.045 1.106 2.92.483 2.957-.411.092-2.22.185-4.438.273-6.658.026-.616.053-.954.286-1.513.494-1.194.991-2.388 1.487-3.58.41-.984.819-1.971 1.227-2.956.25-.602-.977-.58-1.254-.54" fill="#c58fff"/></g><path d="m4.036 9.437c-.062-.299-.121-.6-.183-.899.002-.012-.002-.006.002-.02.05-.175.06-.37.089-.55.217-1.328.434-2.66.649-3.988l.512-3.158c.174-1.062-2.805-.547-2.957.401-.373 2.287-.742 4.573-1.114 6.857-.1.619-.183 1.075-.06 1.686.262 1.31.527 2.62.79 3.931l.648 3.238c.188.936 3.17.213 2.967-.797l-1.343-6.7z" fill="#c58fff" mask="url(#b)" transform="translate(168.915 457.404)"/><path d="m171.577 223.363c.815-1.38 2.74-6.168 3.17-7.702 1.012-3.604.045-4.073-.594-7.763-.129-.74-3.673-.14-3.524.72.635 3.658.44 7.393-.59 10.96-.426 1.475-.958 2.992-1.742 4.323-.305.516 1.05.426 1.218.4.592-.095 2.062-.938 2.062-.938m7.147 48.032c1.094-.432 4.364-2.343 5.304-3.037 2.207-1.636 1.59-2.595 2.881-5.023.258-.486-2.308-2.292-2.609-1.724-1.276 2.404-3.1 4.83-5.076 6.532-.854.735-1.857 1.419-2.91 1.837-.41.164.684.97.792 1.032.385.21 1.618.383 1.618.383m-131.714-130.746c.844.096 1.73.049 2.57-.062 1.905-.253 3.85-.864 5.388-2.05 1.001-.771 1.847-1.713 2.424-2.848.478-.934-.423-1.587-1.294-1.638-.997-.055-2.416.326-2.914 1.302-.092.18-.188.359-.297.53-.059.097-.122.191-.188.285-.21.316.2-.237.02-.028-.12.137-.235.28-.364.411-.061.064-.125.127-.19.189-.068.061-.357.311-.066.065.289-.243.002-.008-.074.047-.067.054-.135.1-.204.15l-.211.14c-.088.052-.418.243-.035.028.395-.223-.105.047-.221.102-.166.078-.336.148-.506.215-.359.14.432-.147.289-.104-.074.022-.144.049-.215.07-.152.046-.306.09-.46.128-.15.037-.298.064-.448.099-.153.032.699-.12.338-.064-.073.01-.15.023-.227.035-.254.035-.512.06-.768.076-.102.006-.207.01-.31.014-.456.019.607.004.23-.002-.215-.004-.432-.006-.647-.03-.561-.062-1.243.09-1.75.325-.408.184-.963.547-1.164.977-.46.989.404 1.538 1.294 1.638m7.206 4.465c.823-.018 1.67-.198 2.461-.413 1.763-.482 3.463-1.338 4.75-2.65.838-.85 1.377-1.843 1.768-2.957.131-.375-.227-.809-.504-.985-.407-.256-1.034-.322-1.497-.266-.583.071-1.202.24-1.677.596-.397.299-.64.61-.807 1.085-.01.026-.018.053-.026.082.043-.13.09-.256.135-.385-.137.379-.305.739-.514 1.083-.086.145-.186.28-.28.42.362-.535 0-.019-.13.123-.114.125-.233.243-.36.358-.027.025-.053.045-.08.07-.2.186.256-.211.231-.195-.075.05-.145.117-.219.172-.129.096-.258.187-.393.273l-.172.106c-.366.22.43-.23.207-.115-.272.142-.547.273-.833.385-.064.025-.136.045-.197.076-.072.03.686-.237.41-.147-.027.006-.054.016-.082.024-.133.047-.269.086-.402.125-.227.064-.458.115-.688.164-.348.072.529-.092.406-.074l-.144.025c-.094.014-.188.028-.28.04-.199.027-.4.048-.6.052-.54.012-1.24.289-1.68.596-.315.223-.771.657-.806 1.085-.088 1.112 1.186 1.266 2.003 1.247m10.62 1.52c.627-.258 1.23-.63 1.778-1.03 1.062-.776 2.062-1.782 2.602-3 .348-.786.557-1.605.529-2.467.045-.203.01-.387-.105-.55-.071-.192-.205-.335-.4-.431-.405-.256-1.033-.324-1.494-.267-.584.07-1.202.238-1.68.596-.316.236-.82.641-.806 1.082.02.61-.065 1.208-.27 1.781.047-.127.092-.256.139-.38-.172.464-.416.896-.71 1.295.092-.124.182-.247.274-.368-.28.368-.6.698-.952.997.129-.113.262-.221.393-.332-.359.3-.741.564-1.147.793.166-.092.33-.186.496-.279-.172.097-.348.19-.53.267-.427.174-.943.557-1.164.976-.174.334-.219.801.055 1.104.734.815 2.106.578 2.992.213" fill="#c58fff" transform="translate(1 .5)"/></g></svg>