<svg height="35" viewBox="0 0 130 35" width="130" xmlns="http://www.w3.org/2000/svg"><g fill="none" fill-rule="evenodd" opacity=".505"><path d="m0 0h130v35h-130z"/><path d="m18.377 2-18.377 30.816h36.753z" fill="#fff"/><path d="m32.556 20.663c0-1.358-1.726-.623-4.186-4.337-2.403-3.627-5.916-5.436-9.993-5.436-4.078 0-7.591 1.809-9.994 5.436-2.46 3.714-4.186 2.98-4.186 4.337s1.726.623 4.186 4.337c2.403 3.627 5.916 5.436 9.994 5.436 4.077 0 7.59-1.81 9.993-5.436 2.46-3.714 4.186-2.98 4.186-4.337" fill="#b27dea"/><path d="m18.377 11.347c-4.021 0-7.346 1.809-9.612 5.231-1.445 2.181-2.689 2.914-3.432 3.352-.585.346-.679.424-.679.733s.094.387.68.732c.743.438 1.986 1.172 3.43 3.353 2.267 3.422 5.592 5.23 9.613 5.23s7.345-1.808 9.611-5.23c1.445-2.181 2.689-2.915 3.432-3.353.585-.345.68-.423.68-.732 0-.31-.095-.387-.68-.733-.743-.438-1.987-1.17-3.432-3.352-2.266-3.422-5.59-5.231-9.611-5.231m0 19.546c-4.343 0-7.93-1.95-10.375-5.64-1.328-2.006-2.414-2.646-3.133-3.07-.606-.358-1.13-.667-1.13-1.52 0-.854.524-1.163 1.13-1.52.719-.424 1.805-1.065 3.133-3.07 2.445-3.69 6.032-5.64 10.375-5.64 4.342 0 7.93 1.95 10.374 5.64 1.328 2.005 2.415 2.646 3.133 3.07.606.357 1.13.666 1.13 1.52 0 .853-.524 1.162-1.13 1.52-.718.424-1.805 1.064-3.133 3.07-2.444 3.69-6.032 5.64-10.374 5.64" fill="#fff"/><path d="m24.764 20.663a6.388 6.388 0 1 1 -12.775 0 6.388 6.388 0 0 1 12.775 0" fill="#b27dea"/><path d="m22.281 20.663a3.905 3.905 0 1 1 -7.81 0 3.905 3.905 0 0 1 7.81 0" fill="#fff"/><path d="m22.281 18.833a2.075 2.075 0 1 1 -4.15 0 2.075 2.075 0 0 1 4.15 0" fill="#b27dea"/><g fill="#fff"><path d="m18.377 14.732c-3.27 0-5.931 2.66-5.931 5.93s2.66 5.931 5.93 5.931 5.931-2.66 5.931-5.93-2.66-5.93-5.93-5.93m0 12.775a6.853 6.853 0 0 1 -6.845-6.845 6.853 6.853 0 0 1 6.845-6.845 6.852 6.852 0 0 1 6.844 6.845 6.853 6.853 0 0 1 -6.844 6.845"/><path d="m45.329 9.567h2.381v14.24h4.715v2.38h-7.096zm10.971 0h7.097v2.24h-4.715v4.88h4.108v2.24h-4.108v4.88h4.715v2.38h-7.097zm10.972 0h2.288l3.058 8.8h.047l3.035-8.8h2.31v16.62h-2.38v-10.107h-.047l-2.358 7.143h-1.19l-2.335-7.143h-.046v10.108h-2.382zm17.555 12.698c0 1.144.747 1.681 1.611 1.681s1.61-.537 1.61-1.68v-8.778c0-1.143-.746-1.68-1.61-1.68s-1.61.537-1.61 1.68v8.777zm-2.381-8.777c0-2.708 2.054-4.062 3.992-4.062s3.992 1.354 3.992 4.062v8.777c0 2.709-2.054 4.063-3.992 4.063s-3.992-1.354-3.992-4.063zm12.326-3.921h2.288l3.594 10.014h.047v-10.014h2.381v16.62h-2.241l-3.641-9.99h-.047v9.99h-2.381zm12.652 16.621h2.381v-2.382h-2.381zm6.886 0h2.382v-16.621h-2.381zm9.268-3.923c0 1.144.747 1.681 1.611 1.681s1.61-.537 1.61-1.68v-8.778c0-1.143-.746-1.68-1.61-1.68s-1.61.537-1.61 1.68v8.777zm-2.381-8.777c0-2.708 2.054-4.062 3.992-4.062s3.992 1.354 3.992 4.062v8.777c0 2.709-2.054 4.063-3.992 4.063s-3.992-1.354-3.992-4.063z"/></g></g></svg>