<svg height="75" viewBox="0 0 75 75" width="75" xmlns="http://www.w3.org/2000/svg"><g fill="none" fill-rule="evenodd"><path d="m7.081 6.373h59.482v74.353h-59.482z" transform="translate(3.26 -5)"/><path d="m48.778 32.236-.553-3.705-.677-3.685-1.441-3.479-2.187-3.057-2.128-2.489-2.631-1.942-2.756-1.734-2.972-1.339-3.006-.951-.701-3.122-3.94-2.141-4.042 2.046-.334 3.52-3.268.9-3.032 1.164-2.76 1.728-2.612 1.972-2.137 2.483-1.89 2.676-1.386 2.972-.79 3.169-.687 3.192-.222 4.195.475 4.183.067 3.724.875 3.636 1.599 3.374 1.925 3.201 2.283 2.328 2.505 2.066 2.835 1.569 2.907 1.435 3.187.869.338 2.853 2.938 2.635 3.795-1.153 1.785-3.353.237-.758 3.061-1.013 2.838-1.602 2.901-1.479 2.495-2.104 2.051-2.528 1.998-2.579 1.125-3.064 1.068-3.052.49-3.2.185-4.174z" fill="#c58fff" transform="matrix(.97029573 -.2419219 .2419219 .97029573 3.326719 7.873382)"/><g transform="matrix(.97029573 -.2419219 .2419219 .97029573 3.451793 8.375025)"><path d="m42.354 27.666c-4.131-2.806-11.355-3.939-14.752.616-.334.447-.292 1.034.054 1.472.257.325.946.674 1.28.225 2.852-3.823 9.031-3.08 12.577-.672 1.177.8 1.82-.977.841-1.641m-17.368 19.608c-.784-.347-1.607-.626-2.442-.866 3.107-2.877 3.57-8.078 2.489-11.975-.727-2.618-2.073-5.15-4.312-6.762-1.814-1.305-4.094-1.945-6.317-1.923-2.233.022-4.618.807-6.012 2.637-.58.762 1.044 2.225 1.602 1.492 2.136-2.806 6.638-2.916 9.523-1.29 1.902 1.074 2.941 3.034 3.58 5.062.714 2.266.846 4.741.226 7.044-.555 2.059-1.71 4.095-3.641 5.13-.893.48.329 1.615.878 1.742 1.488.343 3.016.719 4.418 1.341.403.18.901.069.934-.43.036-.519-.499-1.012-.926-1.202" fill="#000"/><path d="m42.401 34.771-3.06-2.348-2.21-.625-2.296.091-2.286.794-1.933 1.445-1.407 1.95.449 3.028 2.734 1.818 2.427.585 2.479-.282 2.312-.938 2.45-2.307z" fill="#feffff"/><path d="m42.285 34.16c-1.486-1.465-3.467-2.376-5.56-2.462-1.11-.046-2.222.126-3.261.513-.216.08-.426.129-.557.323-.136.203-.183.544-.235.778-.12.54-.17 1.091-.13 1.642.129 1.77 1.08 3.396 2.553 4.385.72.483 1.55.797 2.408.923.479.07.973.077 1.454.024.584-.065.993-.18 1.452-.546 1.523-1.217 3.599-3.726 1.876-5.58" fill="#000"/><path d="m22.686 36.714-1.484-2.234-2.092-1.696-2.559-.854-2.557-.027-2.474.685-2.055 1.528-.428 3.101 2.203 2.562 2.115 1.235 2.4.493 2.437-.194 2.214-.879 1.829-1.49z" fill="#feffff"/><path d="m21.926 35.17c-1.29-1.787-3.23-2.993-5.392-3.393-.597-.098-1.2-.145-1.805-.119-.2.008-.507-.027-.671.107-.206.167-.35.568-.456.805-.424.935-.591 1.974-.474 2.996.2 1.748 1.228 3.342 2.717 4.274.734.459 1.57.762 2.43.86.51.06 1.021.055 1.529-.02.578-.085 1.056-.418 1.524-.759.798-.581 1.572-1.271 1.614-2.323.035-.885-.517-1.737-1.016-2.428m6.306 15.569c-.007.621-.123 1.042-.429 1.587-.115.206.09-.104-.054.08-.05.062-.093.126-.143.187-.041.05-.085.099-.128.148-.06.068-.116.11-.018.022-.117.106-.238.202-.363.298.105-.08.102-.063-.006-.001l-.207.115c-.17.092-.031.062.015-.005-.02.03-.19.073-.223.085-.038.012-.258.06-.09.03.173-.031-.102.016-.136.023-.067.012-.135.02-.203.03.248-.036-.02-.004-.062-.003-.093.002-.185.001-.277-.005.126.008-.04-.005-.087-.012-.609-.09-1.126-.354-1.597-.812-.354-.347-1.041-.203-1.422.025-.293.176-.817.655-.445 1.018 2.703 2.635 7.933.655 7.979-3.198.012-.984-2.094-.459-2.104.388" fill="#000"/><path d="m37.255 9.643-6.26-2.778-.795-3.901-4.393-2.514-4.296 2.08-.954 4.272-5.008 1.642-4.629 2.582-3.791 3.683-3.044 4.279-2.303 4.907-.767 5.364-.457 6.016.144 7.911-.096 4.873.395 4.87-.992 5.947 3.023 4.377-.162-5.058.407-5.459.582-5.445.775-5.425.954-5.466 1.893-5.222 1.933-5.17 2.043-5.145 3.42-5.119 4.668 2.568 4.068 2.939 4.594 2.014 4.42 2.331 4.903 2.376 4.301 3.884 2.461 4.188 1.882 4.459 1.286 4.696.772 5.323.424 5.362.47 6.355 1.662 1.921-.195-4.98-.046-4.978.392-4.677-.186-4.68-.273-4.682.239-4.332-.164-4.333-.124-5.436-2.203-4.973-2.662-4.691-3.677-3.98z" fill="#fff"/></g><circle cx="37.5" cy="37.5" r="35" stroke="#a9ff03" stroke-width="2"/><circle cx="62" cy="62" fill="#a9ff03" r="7.5" stroke="#000" stroke-width="3"/></g></svg>