<svg height="246" viewBox="0 0 226 246" width="226" xmlns="http://www.w3.org/2000/svg" xmlns:xlink="http://www.w3.org/1999/xlink"><defs><filter id="a" height="174.1%" width="186.4%" x="-43.1%" y="-34.7%"><feMorphology in="SourceAlpha" operator="dilate" radius=".5" result="shadowSpreadOuter1"/><feOffset dy="4" in="shadowSpreadOuter1" result="shadowOffsetOuter1"/><feGaussianBlur in="shadowOffsetOuter1" result="shadowBlurOuter1" stdDeviation="20"/><feColorMatrix in="shadowBlurOuter1" values="0 0 0 0 0 0 0 0 0 0 0 0 0 0 0 0 0 0 0.250956075 0"/></filter><path id="b" d="m92.346 27-3.244 3.166-3.148 3.373-3.233 3.291-3.316 3.213-3.095 3.428-3.475 3.054-3.212 3.313-3.04 3.484-3.202 3.323-3.675 2.861-2.949 3.57-3.126 3.397-3.306 3.222-3.302 3.228-3.323 3.206-3.153 3.377-3.287 3.244-1.51 4.399-1.917 4.215-1.295 4.441-1.066 4.502-.582 4.588-.457 4.588-.215 4.6-.218 4.616.13 4.643 1.308 4.444.714 4.546.67 4.558.934 4.504 1.311 4.426.635 4.568 1.245 4.438.515 4.597 1.5 4.383.573 4.587 1.125 4.463 1.059 4.478.939 4.504 1.251 4.435.967 4.5.639 4.57 1.217 4.447 3.984-2.427 3.358-3.259 2.341-4.034 2.245-4.092.953-4.573.131-4.644.59-4.524.847-4.483.099-4.562.548-4.516.778-4.487.699-4.494.505-4.52.201-4.566 1.241-4.413.419-4.497 3.797 2.817 3.819 2.847 4.074 2.483 3.787 2.895 4.056 2.506 3.945 2.667 3.97 2.63 3.913 2.714 3.78 2.915 4.057 2.501 4.099 2.434 3.981 2.616 3.802 2.894 4.08 2.464 4.038 2.533 4.205 2.261 4.146 2.345 4.077 2.455 4.028 2.546 4.173 2.296 4.354 1.931 4.308 2.026 4.504.193-.78-4.238-2.746-3.676-3.149-3.322-3.185-3.268-2.923-3.519-3.187-3.274-3.285-3.173-3.148-3.316-3.313-3.15-3.418-3.037-3.469-2.981-3.269-3.193-3.303-3.158-3.132-3.343-3.358-3.097-3.324-3.132-3.382-3.241 3.496 3.212 3.528 3.018 3.537 3.007 3.71 2.796 3.535 3.01 3.554 2.984 3.814 2.671 3.67 2.846 3.568 2.971 3.43 3.146 3.512 3.047 3.832 2.639 3.75 2.74 3.836 2.618 3.551 3.02 3.986 2.397 3.966 2.418 4.267 1.825 4.535-.267-1.462-4.502-2.581-3.822-3.022-3.475-2.879-3.578-2.9-3.566-3.205-3.301-2.731-3.723-3.293-3.218-3.245-3.261-3.146-3.351-2.972-3.516-2.971-3.518-3.359-3.153-3.037-3.455-3.221-3.281-3.004-3.485-3.045-3.448-3.336-3.172-3.085-3.539 3.637 3.014 3.224 3.336 3.582 2.945 3.437 3.105 3.114 3.442 3.204 3.347 3.372 3.175 3.352 3.196 3.549 2.988 3.117 3.447 3.735 2.774 3.437 3.097 3.581 2.927 3.607 2.903 4.039 2.246 4.175-.027.088-4.548-2.565-4.022-2.066-4.314-3.144-3.594-2.77-3.858-2.791-3.851-3.282-3.454-3.124-3.577-2.71-3.93-3.048-3.646-3.263-3.464-3.31-3.422-2.727-3.919-3.197-3.517-3.157-3.555-2.868-3.872 3.441 3.09 2.898 3.519 3.085 3.338 3.271 3.162 3.345 3.088 3.032 3.396 3.214 3.222 3.618 2.775 3.266 3.208 3.968 2.315 4.211-.458.352-4.503-1.981-4.326-2.799-3.837-2.384-4.065-2.344-4.111-3.014-3.649-2.566-3.966-3.13-3.549-2.51-4.019-2.827-3.781-3.303-3.406-2.871-3.746-2.749-3.845-3.168-3.505-2.838-3.777-3.276-3.413-2.888-3.735-2.752-3.852-3.266-3.42-2.978-3.664-3.419-3.287-2.902-3.73-2.934-3.705-3.4-3.302-3.129-3.533-3.103-3.556-3-3.646z"/></defs><g fill="none" fill-rule="evenodd" transform="matrix(-1 0 0 1 214.304 5.156)"><use fill="#000" filter="url(#a)" xlink:href="#b"/><use fill="#c58fff" xlink:href="#b"/></g></svg>