<svg height="214" viewBox="0 0 223 214" width="223" xmlns="http://www.w3.org/2000/svg"><path d="m221.538 33.209-5.341-2.018-5.527-1.799-5.479-1.939-5.431-2.075-5.562-1.708-5.337-2.341-5.492-1.904-5.595-1.616-5.498-1.886-5.222-2.672-5.646-1.465-5.542-1.761-5.438-2.059-5.443-2.052-5.428-2.087-5.534-1.801-5.454-2.026-5.824.618-5.834.056-5.759.885-5.706 1.18-5.548 1.778-5.48 1.92-5.367 2.204-5.385 2.208-5.232 2.62-4.376 3.859-4.81 3.236-4.847 3.191-4.644 3.464-4.354 3.852-4.877 3.157-4.404 3.784-4.973 3.034-4.206 4.046-4.931 3.096-4.497 3.66-4.548 3.593-4.641 3.47-4.397 3.789-4.622 3.499-4.877 3.162-4.43 3.757 4.892 3.256 5.508 2.098 5.851.526 5.867.384 5.727-1.347 5.372-2.322 5.478-1.735 5.569-1.419 5.261-2.315 5.447-1.779 5.536-1.501 5.503-1.594 5.428-1.829 5.32-2.202 5.698-.932 5.357-1.916-1.195 5.835-1.217 5.875-.666 5.972-1.288 5.865-.701 5.964-.945 5.924-.89 5.932-1.014 5.911-1.317 5.867-.695 5.963-.596 5.975-.867 5.937-1.28 5.88-.641 5.97-.742 5.958-.343 6.005-.47 5.98-.632 5.962-.763 5.954-.4 5.986.115 5.999-.02 5.996 2.177 5.244 4.422-3.146 2.736-5.092 2.115-5.363 2.036-5.376 2.461-5.21 2.04-5.381 1.874-5.439 2.111-5.359 1.831-5.459 1.648-5.519 1.557-5.547 1.904-5.432 1.847-5.452 2.149-5.354 1.748-5.483 1.806-5.462 1.9-5.586-1.806 5.701-1.567 5.635-1.55 5.638-1.216 5.724-1.556 5.637-1.514 5.647-1.018 5.775-1.296 5.705-1.492 5.654-1.766 5.591-1.608 5.632-.974 5.778-1.131 5.74-.948 5.773-1.556 5.662-.615 5.826-.648 5.815.187 5.842 2.72 5.035 4.36-4.065 2.989-4.981 2.358-5.301 2.553-5.19 2.527-5.209 2.062-5.417 2.796-5.099 1.921-5.473 1.995-5.439 2.151-5.376 2.432-5.265 2.435-5.264 1.81-5.513 2.329-5.306 2.031-5.424 2.378-5.285 2.315-5.311 1.847-5.497 2.397-5.406-1.505 5.758-2.092 5.455-1.456 5.657-1.715 5.577-2.271 5.387-2.115 5.44-1.829 5.539-1.864 5.528-1.523 5.642-2.275 5.394-1.179 5.74-1.705 5.572-1.436 5.646-1.394 5.663-.413 5.807 2.253 4.751 5.238-2.32 3.226-5.069 3.826-4.656 2.429-5.502 2.929-5.216 2.911-5.236 2.196-5.585 2.42-5.471 3.044-5.185 2.54-5.42 2.218-5.569 2.144-5.601 3.022-5.2 2.313-5.522 2.379-5.495 2.893-5.337-1.696 5.574-2.475 5.182-2.168 5.299-1.869 5.417-1.744 5.462-2.263 5.269-1.968 5.385-1.241 5.607-1.924 5.437-.53 5.762 2.764 4.563 5.328-1.996 3.883-4.564 2.891-5.238 3.372-4.885 3.445-4.864 2.561-5.384 3.163-5.04 2.384-5.463 3.253-5.004 2.811-5.241 2.129-5.583 2.748-5.272 2.926-5.186 2.316-5.482 2.801-5.249 2.152-5.558 2.726-5.285 2.933-5.192 2.166-5.549 2.597-5.35 1.932-5.653 2.714-5.299 2.667-5.321 1.96-5.639 2.367-5.453 2.408-5.436 2.566-5.365z" fill="#5cffe4" fill-rule="evenodd" transform="translate(.484 .83)"/></svg>