<svg xmlns="http://www.w3.org/2000/svg" width="223" height="143" viewBox="0 0 223 143">
    <path fill="#C58FFF" fill-rule="evenodd" d="M190.212 142.232l31.342-49.044s1.867-15.652-7.31-32.728C207.23 44.205 203.756-.043 203.756-.043s-14.627 5.806-20.61 19.985c-4.195 14.858-7.965 36.967-7.965 36.967s-111.12-41.6-125.07-35.99c-11.338 4.56 61.392 34.204 73.388 39.763C89.034 48.602 23.264 21.71 9.965 28.38.947 33.011 83.01 65.607 104.498 75.377 71.788 64.748 14.366 39.238 2.22 44.98c-12.3 5.873 60.536 31.38 86.971 43.446-20.211-6.63-65.46-25.148-75.129-20.137-11.755 6.104 98.241 46.002 176.15 73.943"/>
</svg>
