<svg height="364" viewBox="0 0 328 364" width="328" xmlns="http://www.w3.org/2000/svg" xmlns:xlink="http://www.w3.org/1999/xlink"><defs><filter id="a" height="143.9%" width="151.3%" x="-25.6%" y="-20.6%"><feMorphology in="SourceAlpha" operator="dilate" radius=".5" result="shadowSpreadOuter1"/><feOffset dy="4" in="shadowSpreadOuter1" result="shadowOffsetOuter1"/><feGaussianBlur in="shadowOffsetOuter1" result="shadowBlurOuter1" stdDeviation="20"/><feColorMatrix in="shadowBlurOuter1" values="0 0 0 0 0 0 0 0 0 0 0 0 0 0 0 0 0 0 0.250956075 0"/></filter><path id="b" d="m145.105 32.309-5.469 5.337-5.307 5.686-5.451 5.55-5.589 5.415-5.218 5.779-5.858 5.15-5.416 5.585-5.125 5.872-5.398 5.602-6.194 4.823-4.972 6.02-5.27 5.726-5.573 5.432-5.567 5.442-5.603 5.404-5.314 5.693-5.543 5.47-2.544 7.415-3.232 7.107-2.184 7.486-1.797 7.589-.98 7.736-.771 7.733-.363 7.756-.367 7.781.219 7.828 2.205 7.491 1.204 7.665 1.13 7.684 1.575 7.593 2.21 7.46 1.07 7.702 2.099 7.482.868 7.748 2.528 7.39.967 7.732 1.895 7.525 1.787 7.549 1.583 7.593 2.108 7.477 1.63 7.585 1.078 7.704 2.052 7.499 6.716-4.093 5.661-5.494 3.946-6.801 3.785-6.898 1.606-7.708.221-7.831.995-7.626 1.428-7.557.167-7.692.923-7.612 1.311-7.565 1.18-7.575.851-7.62.338-7.698 2.093-7.439.706-7.582 6.401 4.75 6.439 4.799 6.868 4.186 6.385 4.88 6.837 4.224 6.651 4.497 6.692 4.434 6.597 4.574 6.371 4.915 6.84 4.216 6.911 4.103 6.711 4.41 6.409 4.879 6.879 4.154 6.807 4.27 7.089 3.812 6.989 3.953 6.874 4.139 6.79 4.292 7.035 3.872 7.341 3.254 7.262 3.415 7.593.325-1.316-7.143-4.628-6.198-5.309-5.599-5.37-5.511-4.928-5.932-5.373-5.518-5.537-5.349-5.306-5.592-5.587-5.309-5.762-5.12-5.848-5.026-5.511-5.382-5.568-5.325-5.28-5.635-5.661-5.222-5.604-5.28-5.701-5.464 5.893 5.415 5.948 5.089 5.963 5.068 6.255 4.714 5.958 5.075 5.993 5.03 6.43 4.503 6.186 4.798 6.015 5.008 5.782 5.304 5.922 5.136 6.459 4.45 6.323 4.618 6.466 4.415 5.987 5.09 6.719 4.041 6.687 4.076 7.192 3.078 7.646-.451-2.465-7.589-4.351-6.443-5.095-5.858-4.853-6.033-4.889-6.011-5.403-5.565-4.604-6.276-5.552-5.426-5.47-5.497-5.304-5.649-5.011-5.928-5.007-5.931-5.663-5.314-5.12-5.826-5.43-5.531-5.065-5.875-5.133-5.812-5.624-5.348-5.201-5.966 6.133 5.081 5.433 5.624 6.039 4.965 5.795 5.235 5.25 5.802 5.402 5.643 5.684 5.352 5.651 5.387 5.983 5.039 5.255 5.81 6.296 4.677 5.795 5.22 6.036 4.936 6.08 4.893 6.81 3.786 7.037-.046.149-7.666-4.324-6.78-3.483-7.274-5.3-6.059-4.67-6.503-4.705-6.492-5.532-5.823-5.267-6.03-4.568-6.626-5.138-6.146-5.501-5.84-5.58-5.769-4.599-6.607-5.39-5.928-5.32-5.995-4.837-6.527 5.802 5.21 4.886 5.932 5.201 5.628 5.514 5.33 5.639 5.206 5.111 5.725 5.419 5.433 6.099 4.677 5.506 5.409 6.69 3.902 7.098-.771.593-7.593-3.34-7.292-4.719-6.468-4.017-6.854-3.952-6.93-5.082-6.152-4.325-6.687-5.277-5.982-4.231-6.776-4.766-6.374-5.568-5.741-4.841-6.315-4.635-6.482-5.341-5.91-4.782-6.366-5.524-5.754-4.869-6.296-4.639-6.495-5.505-5.766-5.022-6.176-5.763-5.541-4.893-6.289-4.946-6.246-5.731-5.565-5.276-5.957-5.231-5.996-5.057-6.146z"/></defs><g fill="none" fill-rule="evenodd" transform="translate(-.544 -.098)"><use fill="#000" filter="url(#a)" xlink:href="#b"/><use fill="#a9ff03" xlink:href="#b"/></g></svg>