<svg height="257" viewBox="0 0 227 257" width="227" xmlns="http://www.w3.org/2000/svg" xmlns:xlink="http://www.w3.org/1999/xlink"><defs><filter id="a" height="170.1%" width="181.7%" x="-40.7%" y="-32.8%"><feMorphology in="SourceAlpha" operator="dilate" radius=".5" result="shadowSpreadOuter1"/><feOffset dy="4" in="shadowSpreadOuter1" result="shadowOffsetOuter1"/><feGaussianBlur in="shadowOffsetOuter1" result="shadowBlurOuter1" stdDeviation="20"/><feColorMatrix in="shadowBlurOuter1" values="0 0 0 0 0 0 0 0 0 0 0 0 0 0 0 0 0 0 0.250956075 0"/></filter><path id="b" d="m100.929 28-3.43 3.348-3.33 3.566-3.419 3.481-3.506 3.397-3.272 3.625-3.675 3.23-3.397 3.504-3.215 3.683-3.386 3.514-3.886 3.026-3.118 3.776-3.306 3.592-3.496 3.407-3.492 3.413-3.514 3.39-3.334 3.571-3.476 3.431-1.596 4.651-2.028 4.458-1.369 4.696-1.128 4.76-.615 4.853-.483 4.851-.228 4.865-.23 4.881.137 4.91 1.384 4.699.755 4.808.708 4.819.988 4.764 1.386 4.679.672 4.831 1.317 4.693.544 4.861 1.586 4.635.606 4.85 1.189 4.72 1.121 4.736.993 4.762 1.322 4.69 1.023 4.758.676 4.833 1.287 4.703 4.213-2.567 3.55-3.446 2.476-4.266 2.374-4.327 1.007-4.835.139-4.912.624-4.784.896-4.74.105-4.825.579-4.775.822-4.745.74-4.752.534-4.779.212-4.829 1.313-4.666.443-4.756 4.015 2.979 4.039 3.011 4.308 2.625 4.005 3.061 4.289 2.65 4.172 2.821 4.197 2.781 4.138 2.87 3.997 3.083 4.29 2.644 4.336 2.574 4.209 2.766 4.02 3.06 4.315 2.606 4.27 2.679 4.447 2.391 4.384 2.479 4.311 2.596 4.26 2.693 4.412 2.428 4.605 2.041 4.556 2.143 4.762.204-.825-4.481-2.903-3.888-3.331-3.512-3.368-3.457-3.091-3.721-3.37-3.461-3.474-3.356-3.328-3.507-3.504-3.33-3.614-3.212-3.669-3.153-3.457-3.375-3.493-3.341-3.311-3.534-3.552-3.276-3.514-3.312-3.577-3.427 3.697 3.397 3.731 3.191 3.74 3.18 3.924 2.956 3.737 3.184 3.759 3.155 4.033 2.824 3.881 3.01 3.773 3.142 3.627 3.326 3.714 3.223 4.052 2.791 3.966 2.897 4.056 2.769 3.756 3.193 4.214 2.535 4.195 2.556 4.511 1.931 4.796-.283-1.546-4.76-2.729-4.042-3.196-3.675-3.044-3.784-3.067-3.77-3.389-3.491-2.888-3.937-3.483-3.403-3.431-3.448-3.327-3.544-3.143-3.718-3.141-3.72-3.552-3.334-3.211-3.654-3.407-3.47-3.177-3.685-3.22-3.646-3.527-3.354-3.263-3.743 3.847 3.188 3.408 3.527 3.788 3.115 3.635 3.284 3.294 3.639 3.388 3.54 3.565 3.357 3.545 3.379 3.753 3.161 3.296 3.644 3.949 2.934 3.635 3.274 3.787 3.096 3.814 3.07 4.271 2.375 4.415-.029.093-4.809-2.712-4.253-2.185-4.563-3.325-3.8-2.929-4.079-2.951-4.073-3.47-3.652-3.305-3.783-2.865-4.156-3.223-3.855-3.45-3.663-3.501-3.619-2.884-4.145-3.381-3.718-3.337-3.76-3.034-4.094 3.639 3.267 3.065 3.722 3.262 3.53 3.459 3.343 3.537 3.265 3.206 3.592 3.399 3.407 3.826 2.934 3.454 3.393 4.196 2.448 4.453-.484.372-4.763-2.095-4.573-2.96-4.058-2.52-4.299-2.479-4.347-3.188-3.859-2.713-4.194-3.31-3.753-2.654-4.25-2.99-3.998-3.493-3.602-3.036-3.961-2.907-4.066-3.35-3.707-3-3.993-3.465-3.61-3.054-3.949-2.91-4.074-3.454-3.617-3.149-3.874-3.616-3.475-3.068-3.945-3.103-3.918-3.595-3.491-3.309-3.737-3.282-3.76-3.172-3.856z"/></defs><g fill="none" fill-rule="evenodd" transform="matrix(.97029573 .2419219 -.2419219 .97029573 38.253642 -18.448915)"><use fill="#000" filter="url(#a)" xlink:href="#b"/><use fill="#c58fff" xlink:href="#b"/></g></svg>