<svg height="182" viewBox="0 0 214 182" width="214" xmlns="http://www.w3.org/2000/svg"><path d="m212.356 83.828-3.734-4.25-3.997-4.144-3.892-4.244-3.786-4.342-4.07-4.08-3.58-4.53-3.919-4.22-4.142-4.016-3.932-4.208-3.326-4.766-4.257-3.908-4.029-4.118-3.799-4.33-3.807-4.326-3.778-4.351-4.003-4.149-3.829-4.309-5.383-2.169-5.128-2.664-5.45-1.904-5.54-1.623-5.68-1.024-5.687-.87-5.72-.568-5.738-.573-5.795-.142-5.623 1.34-5.712.593-5.724.538-5.674.87-5.601 1.344-5.735.493-5.612 1.262-5.761.341-5.561 1.583-5.754.415-5.635 1.11-5.65 1.028-5.675.876-5.608 1.269-5.671.911-5.737.498-5.622 1.226 2.765 5.124 3.842 4.397 4.875 3.181 4.953 3.065 5.635 1.486 5.78.467 5.599 1.031 5.531 1.348 5.68.422 5.592.977 5.541 1.262 5.554 1.166 5.6.924 5.677.549 5.419 1.835 5.577.815-3.759 4.548-3.797 4.574-3.361 4.915-3.855 4.531-3.387 4.89-3.582 4.743-3.537 4.775-3.637 4.699-3.88 4.52-3.382 4.893-3.301 4.95-3.519 4.789-3.855 4.549-3.338 4.924-3.42 4.867-3.093 5.093-3.192 5.013-3.326 4.921-3.437 4.854-3.134 5.05-2.69 5.3-2.806 5.237-.535 5.6 5.332-.696 4.761-3.181 4.345-3.708 4.281-3.756 4.577-3.413 4.287-3.758 4.169-3.886 4.339-3.706 4.141-3.924 4.008-4.061 3.942-4.129 4.192-3.865 4.152-3.91 4.37-3.685 4.08-3.982 4.12-3.938 4.26-4.003-4.231 4.147-3.992 4.2-3.978 4.211-3.727 4.441-3.983 4.208-3.95 4.235-3.577 4.579-3.787 4.387-3.935 4.253-4.145 4.069-4.027 4.178-3.54 4.602-3.658 4.496-3.514 4.608-3.995 4.229-3.248 4.81-3.272 4.786-2.553 5.197.037 5.67 5.705-1.528 4.931-2.967 4.529-3.54 4.647-3.353 4.633-3.382 4.323-3.778 4.818-3.16 4.226-3.895 4.275-3.83 4.382-3.702 4.577-3.474 4.578-3.472 4.148-3.981 4.504-3.558 4.3-3.8 4.539-3.517 4.495-3.57 4.172-3.949 4.611-3.614-3.994 4.336-4.367 3.799-3.905 4.272-4.094 4.081-4.493 3.656-4.38 3.774-4.177 3.995-4.201 3.969-3.957 4.227-4.498 3.66-3.701 4.473-4.084 4.081-3.882 4.271-3.853 4.306-3.063 4.887-.239 5.204 5.662.407 5.18-2.934 5.511-2.293 4.685-3.683 4.988-3.2 4.982-3.227 4.518-3.864 4.662-3.66 5.075-3.12 4.742-3.56 4.53-3.84 4.481-3.902 5.063-3.143 4.591-3.755 4.637-3.701 5.012-3.322-4.075 4.087-4.575 3.382-4.362 3.626-4.154 3.87-4.066 3.967-4.431 3.556-4.225 3.796-3.694 4.327-4.212 3.861-3.144 4.794.295 5.277 5.59.733 5.52-2.187 4.964-3.237 5.223-2.705 5.275-2.653 4.745-3.518 5.111-2.938 4.626-3.67 5.173-2.865 4.897-3.276 4.46-3.894 4.855-3.333 4.972-3.175 4.575-3.72 4.892-3.288 4.467-3.861 4.843-3.355 4.981-3.178 4.476-3.846 4.76-3.473 4.319-4.046 4.839-3.373 4.808-3.414 4.337-4.021 4.607-3.669 4.635-3.635 4.74-3.501z" fill="#46d7bf" fill-rule="evenodd" transform="translate(.146 .066)"/></svg>