<svg height="105" viewBox="0 0 110 105" width="110" xmlns="http://www.w3.org/2000/svg" xmlns:xlink="http://www.w3.org/1999/xlink"><mask id="a" fill="#fff"><path d="m.352.305h22.511v12.625h-22.511z" fill="#fff" fill-rule="evenodd"/></mask><g fill="none" fill-rule="evenodd"><path d="m51.984 6.924-10.68 6.756-9.246 8.438-5.094 11.441-4.743 11.612-.029.261-2.795-3.232-5.343-3.098-5.46 2.11-1.931 5.107 1.917 5.173 3.967 3.786 5.202 1.98 3.27-.833-.481 10.798.122 11.046 6.615 9.243 8.044 8.198 9.397 6.683 9.739 6.531 11.42-2.761 10.085-5.708 9.646-6.472 6.754-9.16 5.973-11.486.259-1.413 2.808 1.363 5.451-.586 4.956-2.277 3.582-4.087.123-5.433-3.518-3.825-5.173.658-4.731 2.258-1.49.923.058-.314 2.321-12.617.245-13.008-6.584-11.112-8.82-8.857-11.157-5.445-12.054-2.626z" fill="#a9ff03" transform="matrix(.99939083 .0348995 -.0348995 .99939083 -4.517003 -7.481999)"/><path d="m27.139 14.987c-4.963 1.363-10.714 2.178-15.42-.553-3.03-1.759-5.004-4.671-5.923-8.01-.385-1.404-.596-2.859-.601-4.314-.005-.998-5.2-.208-5.195 1.392.01 3.096.905 6.272 2.67 8.827 2.713 3.93 7.094 5.767 11.762 6.114 4.439.332 8.926-.472 13.192-1.644.533-.147 2.586-.736 2.353-1.602-.226-.85-2.392-.333-2.84-.21" fill="#000" transform="matrix(.98768834 .15643447 -.15643447 .98768834 51.352233 3.049141)"/><path d="m22.853 10.293c-.156-.78-2.477-.214-2.814-.114-.326.095-.654.188-.983.272l-.307.075-.173.036c-.26.046-.52.091-.78.133.066-.016-.621.068-.765.08-.11.007-.567.018-.555.022-.223 0-.447-.003-.67-.014-.622-.03-.682-.036-1.252-.143-1.656-.31-3.114-.974-4.452-2.048-1.99-1.596-3.323-3.865-4.118-6.264-.173-.523-.334-1.059-.43-1.602-.187-1.071-5.422.087-5.194 1.392.898 5.12 4.908 9.68 10.1 10.572 3.336.574 6.795.057 10.015-.89.52-.154 2.547-.674 2.38-1.507" fill="#000" mask="url(#a)" transform="matrix(.98768834 .15643447 -.15643447 .98768834 59.227306 4.89581)"/><path d="m88.124 55.223-5.119-5.402-7.221-1.825-4.239.649-3.987 1.617-3.243 2.836-1.033 5.661 4.656 4.36 4.114 1.481 4.371.467 4.243-1.151 5.199-3.295z" fill="#feffff" transform="matrix(.98768834 .15643447 -.15643447 .98768834 3.237658 -14.228351)"/><g transform="matrix(.98768834 .15643447 -.15643447 .98768834 16.01067 24.537055)"><path d="m47.462 14.628c-1.215.954-2.41 2.125-3.206 3.459-.875 1.463-.727 3.248.177 4.656 2.869 4.056 7.426 6.562 12.42 6.605.229.003.44-.137.44-.392l2.834-8.542-2.834-8.103c0-.315-.236-.835-.626-.83-3.335.029-6.572 1.077-9.205 3.147zm16.706-9.058c-3.461-2.38-7.378-4.738-11.635-5.227-4.602-.528-8.338 1.554-11.012 5.234-1.017 1.4 2.309 3.537 3.357 2.094 2.064-2.84 5.029-4.854 8.663-4.297 3.41.522 6.46 2.487 9.25 4.405.627.431 1.87.707 2.367-.058.523-.804-.4-1.746-.99-2.151m-23.626 33.514c-.75-.517-2-.507-2.795-.106-1.755.884-4.042 1.223-6.21.97 5.838-4.598 7.568-13.714 6.688-20.653-.592-4.669-2.313-9.522-5.518-13.051-2.887-3.176-7.03-5.072-11.309-5.264-4.522-.203-8.85 1.566-11.608 5.195-.558.735.846 1.332 1.327 1.436.86.183 1.908.037 2.462-.694 4.305-5.662 12.011-4.11 16.133.866 5.152 6.217 6.003 15.982 3.369 23.417-1.149 3.246-3.06 6.651-6.195 8.334-.988.53-.58 1.467.333 1.781 4.201 1.447 9.232 1.392 13.263-.641.764-.387.72-1.136.06-1.59" fill="#000"/><path d="m32.882 18.432-3.172-3.799-4.408-2.305-4.896-.804-.076.047-.064-.027-4.375.745-3.953 1.996-3.197 3.063.088 5.839 4.855 3.954 4.104 1.436 4.35.363 4.22-1.132 5.135-3.66z" fill="#feffff"/><path d="m11.674 14.207c-2.534 1.733-6.071 5.003-3.968 8.282 2.952 4.173 7.637 6.543 12.732 6.587.152.002.96-.04.96-.293l2.967-8.369-2.967-8.93c0-.104-.298-.097-.346-.097-3.322.029-6.622.935-9.378 2.82zm-6.7-.789-2.477 15.562h-2.393l2.685-22.189zm32.04 39.827c4.745 1.281 9.81-.413 12.637-4.476.346-.497-2.87-2.801-3.195-2.334-2.652 3.81-7.44 5.69-11.963 4.469-.792-.214.093.711.251.86.607.568 1.443 1.258 2.27 1.481m31.357-19.672c0 .762-.76 1.38-1.7 1.38-.938 0-1.7-.618-1.7-1.38 0-.763.762-1.382 1.7-1.382.94 0 1.7.619 1.7 1.382m-13.166 4.859c0 .763-.76 1.381-1.7 1.381-.938 0-1.7-.618-1.7-1.381s.762-1.381 1.7-1.381c.94 0 1.7.618 1.7 1.38m8.988 2.959c0 .763-.76 1.381-1.7 1.381-.938 0-1.7-.618-1.7-1.38 0-.764.762-1.382 1.7-1.382.94 0 1.7.618 1.7 1.381m-55.258-6.912c0 .763-.76 1.381-1.7 1.381-.939 0-1.7-.618-1.7-1.381s.761-1.381 1.7-1.381c.94 0 1.7.618 1.7 1.38m12.653 2.238c0 .763-.76 1.38-1.7 1.38-.938 0-1.7-.617-1.7-1.38s.762-1.382 1.7-1.382c.94 0 1.7.619 1.7 1.382m-6.538 6.057c0 .763-.76 1.38-1.7 1.38-.937 0-1.7-.617-1.7-1.38s.763-1.382 1.7-1.382c.94 0 1.7.619 1.7 1.382" fill="#000"/></g></g></svg>