<svg height="155" viewBox="0 0 120 155" width="120" xmlns="http://www.w3.org/2000/svg" xmlns:xlink="http://www.w3.org/1999/xlink"><mask id="a" fill="#fff"><path d="m.793.754h57.022v64.757h-57.022z" fill="#fff" fill-rule="evenodd"/></mask><mask id="b" fill="#fff"><path d="m.122.817h106.323v38.244h-106.323z" fill="#fff" fill-rule="evenodd"/></mask><g fill="none" fill-rule="evenodd"><path d="m0 89.453 1.432 6.35 2.873 4.925 4.995 2.71 5.629-.333 5.154-2.694.185-4.89-3.517-5.385-5.763-3.205-6.461-1.352z" fill="#5cffe4" transform="translate(0 1.33)"/><g transform="translate(8.624 1.654)"><path d="m8.746 82.21c.358 2.146 2.356 23.086 2.356 23.086l-8.079-.015 1.122-19.09z" fill="#000"/><path d="m106.153 100.34-6.392.613-5.81 2.576-2.31 2.129c.455-2.666.714-5.368 1.048-8.05.325-2.612 1.126-5.154 1.544-7.752.151-.933.006-1.905-.04-2.85l-.136-2.774-.045-.923-.018-.403c-.101-2.468-.074-4.956-.333-7.414-.178-1.698-.196-3.507-.544-5.18-.196-.948-.98-1.79-1.51-2.6-1.56-2.38-3.148-4.738-4.755-7.088-.579-.848-.953-1.486-1.807-2.032-1.48-.948-2.944-1.936-4.449-2.848-1.965-1.19-4.44-1.829-6.596-2.621-2.242-.823-4.523-1.796-6.857-2.326-2.683-.608-5.367-1.219-8.052-1.82l-3.607-.809c.289-.77.783-1.788.608-2.487-.249-.988-1.221-2.117-1.727-2.995-.433-.753-.827-1.824-1.46-2.423-.79-.745-2.025-1.265-2.944-1.84-.717-.447-1.735-1.415-2.607-1.519-.843-.1-2.105.747-2.828 1.054-1.156.491-2.463.884-3.554 1.51-.703.402-.872 1.156-1.202 1.88-.604 1.33-1.389 2.68-1.846 4.067-.241.731.044 1.62.276 2.425-1.8.194-3.653.322-5.392.726-.886.206-1.707.885-2.473 1.354-1.11.68-2.223 1.358-3.332 2.04-1.742 1.07-3.687 2.023-5.305 3.268-.69.532-1.247 1.3-1.835 1.94-.822.895-1.76 1.758-2.499 2.723-1.25 1.633-2.062 3.735-3.07 5.531-.998 1.782-2.357 3.543-3.128 5.43-.35.855-.437 1.896-.63 2.795-.247 1.138-.515 2.274-.74 3.414-.4 2.026-.69 4.072-1.077 6.099-.387 2.028-1.023 4.071-1.257 6.122-.221 1.938-.154 3.99-.156 5.943-.002 4.213.013 8.416-.105 12.629-.038 1.363-.154 2.75-.116 4.116.02.749.4 1.405.684 2.102.831 2.04 1.634 3.962 2.167 6.094.313 1.255.503 2.647.965 3.857.273.717.845 1.344 1.286 1.973 1.252 1.786 2.453 3.475 3.904 5.099 2.825 3.16 5.32 6.626 8.518 9.412 1.594 1.388 3.193 2.75 4.836 4.081.89.721 1.756 1.544 2.702 2.19.812.555 1.748.978 2.605 1.458l2.703 1.51c.048.055.124.103.267.129 2.369.43 4.916 1.292 7.322.98 2.894-.374 5.673-.785 8.514-1.434 2.84-.647 5.406-1.655 8.12-2.73.61-.241.097-.08.682-.22.848-.207 1.69-.45 2.536-.672 1.13-.299 2.463-.458 3.482-1.053 1.448-.848 2.81-1.89 4.203-2.826.2-.134.396-.274.599-.402l.048-.03.088-.047c.646-.342 1.31-.655 1.964-.983 1.162-.58 2.643-1.064 3.656-1.892 1.129-.92 2.079-2.205 3.076-3.265.724-.77 1.286-1.412 1.823-2.313.828-1.389 1.833-2.77 2.522-4.232.958-2.033 1.349-4.86 2.045-6.61.621-1.56 1.249-3.117 1.864-4.677.375-.952.289-1.983.333-3.002.01-.202.015-.407.022-.612l3.17 1.993 5.494 1.356 5.139-2.023 3.79-4.233 2.187-6.194z" fill="#5cffe4"/><path d="m79.04 102.11c-.077-1.051.104-2.562-.333-3.54-.238-.537-.856-.988-1.256-1.397-.37-.378-.723-.792-1.143-1.112-.961-.732-2.057-1.347-3.15-1.856-.563-.262-1.137-.614-1.733-.782-.634-.177-1.339-.226-1.985-.335-1.125-.191-2.266-.194-3.404-.25-2.03.387-4.116.733-5.882 1.882-1.957 1.274-3.507 2.634-4.91 4.504-.26.346-.464.527-.501.933-.055.615.131 1.345.192 1.957.1 1.04-.004 2.085.733 2.884 1.546 1.67 3.194 2.953 5.268 3.91 3.798 1.751 8.426 1.66 12.217-.187 1.92-.935 3.465-2.346 4.764-4.02.323-.416.968-.98 1.152-1.485.114-.309-.006-.79-.029-1.106" fill="#feffff"/><path d="m56.747 103.213c.008-.162.043-.157 0 0m21.588-5.632c-1.527-1.557-3.1-3.174-5.116-4.097-1.015-.465-1.956-.946-3.054-1.143-1.084-.196-2.123-.385-3.223-.44-1.24-.059-2.135.007-3.353.25-1.104.222-2.004.542-3.045.984-2.098.893-3.61 2.334-5.091 4.03-.818.933-1.076 2.231-1.335 3.444-.24 1.123.118 2.433.244 3.567.101.898.718 1.969 1.512 2.426.687.395 1.25.121 1.157-.72l-.163-1.453c-.037-.332-.066-.666-.11-.997-.013-.091-.013-.158-.01-.214.17-.48.275-.999.41-1.488.084-.302.166-.605.251-.905.012-.038.017-.06.024-.088.007.015.021.02.056-.01.436-.357.8-.914 1.169-1.336.187-.215.367-.44.564-.646.014-.014.019-.02.026-.03.03-.014.075-.038.159-.09.833-.513 1.52-1.263 2.404-1.688.572-.276 1.174-.5 1.758-.748.19-.08.38-.17.572-.244.1-.021.2-.04.3-.059.955-.18 1.929-.512 2.905-.464.651.03 1.31.098 1.96.094.103 0 .16 0 .192-.003.217.034.432.078.648.117 1.036.186 1.88.34 2.833.766.372.167.745.336 1.12.5l.163.074c.002 0 0 0 .003.003.498.432 1.1.78 1.64 1.16.074.053.334.275.421.336.102.111.217.234.259.277l1.418 1.447c.47.48 1.303.747 1.501-.082.21-.875-.615-1.964-1.17-2.53" fill="#000"/><path d="m73.19 103.04c-.913-3.287-3.795-5.447-7.07-5.982-.086-.023-.175-.044-.265-.054-.092-.011-.19-.015-.29-.012-3.07-.239-6.289.932-8.269 3.338-.966 1.172-1.637 2.574-1.863 4.081-.06.408-.113.853-.069 1.265.055.519.314.692.703 1.03.642.555 1.32 1.062 2.043 1.504 2.974 1.82 6.532 2.62 10.003 2.287.966-.093 1.94-.266 2.876-.528.596-.167 1.143-.384 1.48-.926.267-.428.444-.936.6-1.413.487-1.475.536-3.088.12-4.59" fill="#000"/><path d="m38.618 97.21c-.112-.602-.562-1.24-.816-1.795-.21-.459-.399-.887-.695-1.294-.758-1.04-1.545-2.009-2.457-2.91-1.017-1.006-1.906-1.583-3.159-2.289-.971-.547-2.032-.92-3.06-1.347-.032-.012-.047-.004-.07-.007-.009-.002-.018-.01-.027-.011-2.112-.336-4.175-.663-6.292-.164-1.093.257-2.053.526-3.09.947-1.123.457-2.006 1.006-3.025 1.677-.352.231-.467.286-.623.63-.262.576-.337 1.33-.493 1.945-.266 1.054-.615 1.744-.16 2.741.48 1.05.9 2.03 1.59 2.952.71.944 1.384 1.769 2.225 2.594 2.949 2.897 7.417 4.357 11.55 3.905 2.117-.23 4.061-1.016 5.849-2.154.444-.282 1.243-.597 1.585-1.009.225-.268.27-.776.363-1.108l.585-2.105c.108-.388.294-.795.22-1.198" fill="#feffff"/><path d="m35.72 94.863.073.157c-.045-.079-.084-.152-.072-.157m3.275 2.392c-1.01-2.202-2.066-4.463-3.815-6.192-.865-.855-1.689-1.73-2.746-2.338-1.044-.6-2.042-1.157-3.152-1.619-2.074-.861-4.152-1.128-6.387-1.001-2.175.125-4.109.873-5.995 1.92-1.186.66-1.868 1.646-2.581 2.818-.588.969-.694 2.308-.956 3.408-.284 1.186 2.256 4.184 2.671 2.447l.365-1.533.197-.82c.017-.079.039-.16.057-.242.006-.008.012-.01.024-.025.35-.448.66-.936.99-1.4.176-.252.344-.513.532-.756l.013-.018c.018-.005.042-.014.077-.03.872-.434 1.679-1.046 2.586-1.395.535-.204 1.11-.334 1.657-.499.267-.08.535-.178.807-.242.016.004.046.007.109.007.962.009 1.938-.208 2.897-.138.586.042 1.178.175 1.759.261l.784.117.03.003c.018.014.047.033.094.06.529.284 1.138.471 1.692.7.211.09.422.177.635.265-.677-.284.056.055.222.15.543.314 1.093.718 1.67.961l.002.001c.195.223.447.426.658.628l.78.752.044.041c.305.457.644.902.953 1.345l.183.258.199.432.8 1.744c.286.624 1.053 1.853 1.887 1.755.855-.102.47-1.365.258-1.825" fill="#000"/><path d="m27.3 91.31c-3.049-1.484-6.593-1.298-9.488.48-1.294.797-2.392 1.95-3.11 3.293-.164.307-.298.626-.417.953-.21.576-.12.835.165 1.355.384.697.821 1.364 1.31 1.992 1.975 2.534 4.748 4.41 7.824 5.33.937.28 1.91.47 2.881.578.675.075 1.35.142 1.985-.157.524-.245.968-.733 1.341-1.169 1.082-1.26 1.817-2.842 1.99-4.504.35-3.367-1.495-6.605-4.48-8.151m16.019 28.648c-2.166-.534-4.304-1.252-6.399-2.075 6.599-3.865 9.813-12.303 10.261-19.73.057-.942-.445-2.072-1.29-2.549-.742-.418-1.533-.105-1.588.804-.463 7.65-4.263 17.262-12.521 19.346-1.636.411-.672 3.032.434 3.566 3.687 1.78 7.564 3.346 11.548 4.326 2.049.503 1.087-3.312-.444-3.688m15.981.356c-.448-.319-1.074-.431-1.607-.455-.457-.02-.9.04-1.283.246-.598.322-.916 1.036-.76 1.687.073.302.236.6.495.814.396.327.914.474 1.419.536.562.068 1.136.04 1.612-.218.343-.186.577-.494.71-.837.216-.618.023-1.34-.586-1.773m8.548-3.577c-.382-.26-.906-.357-1.35-.383-.38-.023-.748.017-1.063.174-.491.246-.742.806-.597 1.321.068.24.209.479.43.651.336.264.772.388 1.193.443.47.063.948.05 1.34-.146.28-.144.47-.382.572-.653.168-.484-.009-1.057-.525-1.407m6.369 5.009c-.406-.295-.97-.43-1.451-.482-.412-.046-.812-.024-1.158.126-.542.234-.832.813-.693 1.368.063.259.21.519.444.716.355.298.821.454 1.276.537.51.092 1.027.106 1.458-.082.31-.136.523-.378.643-.659.199-.505.028-1.123-.52-1.524m7.75-5.007c-.404-.296-.968-.43-1.45-.483-.413-.046-.813-.023-1.159.126-.542.235-.832.814-.693 1.369.065.259.21.518.444.715.356.298.823.454 1.278.536.508.093 1.026.107 1.457-.08.31-.136.523-.379.644-.66.198-.505.027-1.122-.521-1.523m-59.688-2.369c.322.448.876.757 1.373.953.426.169.863.256 1.292.185.673-.11 1.205-.683 1.268-1.348.03-.31-.028-.644-.204-.932-.267-.437-.71-.744-1.166-.966-.511-.248-1.062-.41-1.597-.32-.385.065-.706.28-.943.562-.404.513-.458 1.26-.023 1.866m-9.245.606c.276.368.74.63 1.15.8.355.146.714.227 1.063.18.547-.072.963-.52.995-1.055.013-.249-.043-.52-.196-.755-.233-.36-.604-.617-.983-.807-.426-.21-.882-.355-1.315-.295-.313.043-.568.207-.753.43-.316.402-.336 1.003.04 1.502m-4.396-6.808c.287.41.777.72 1.215.927.375.177.76.286 1.136.258.59-.045 1.051-.498 1.1-1.07.024-.265-.03-.558-.187-.82-.238-.398-.63-.696-1.034-.923-.45-.252-.935-.434-1.403-.396-.339.027-.62.187-.824.414-.351.412-.39 1.053-.003 1.61m42.155 25.094c-.436-.43-1.09-.786-1.656-.997-.84-.313-2.231-.782-2.908.034l.104-.127c-.503.581-1.088 1.08-1.762 1.452-.081.044-.162.086-.245.127l-.138.065-.15.057c-.087.03-.174.06-.263.085-.178.053-.359.096-.54.132-.083.015-.165.027-.247.04h-.051c-.129.003-.27-.006-.406-.005-.04-.014-.069-.017-.086-.015l-.022-.014-.106-.082c-.067-.059-.132-.12-.196-.182-.091-.088-.497-.555-.21-.209-.787-.947-2.063-1.58-3.288-1.716-.43-.049-1.024-.126-1.392.156-.286.219-.285.613-.057.887 2.007 2.42 5.02 3.887 8.165 4.021 1.19.051 2.344-.197 3.423-.685 1.01-.46 1.78-1.169 2.482-2.013.23-.278-.323-.884-.45-1.011m30.599-52.026c-2.041.797-4.251.278-6.29-.264-2.592-.689-5.126-1.617-7.776-2.084-2.698-.474-5.497-.518-8.09.479-3.17 1.218-5.356 3.88-7.034 6.725-.736 1.247 2.966 2.797 3.794 1.391 1.54-2.607 3.692-5.166 6.711-6.044 2.362-.688 4.841-.214 7.165.39 4.604 1.195 9.652 3.543 14.402 1.687.887-.346.353-1.291-.145-1.71-.694-.585-1.866-.91-2.737-.57m-64.999-6.674c3.345 3.989 8.293 3.448 12.907 2.832 1.026-.137 1.96-.25 2.918-.243.485.003 1.093.05 1.296.086.683.12.597.1 1.107.3.133.057.125.05-.027-.02.124.057.244.12.365.186.3.167.282.158.474.301.45.338.827.73 1.178 1.167 1.014 1.263 1.649 2.804 2.182 4.32.47 1.337 4.34 2.025 3.672.123-1.036-2.951-2.65-5.725-5.382-7.39-2.101-1.28-4.584-1.713-7.015-1.598-2.224.105-4.402.601-6.622.724-.2.012-.893.009-1.28-.007-.123-.008-.247-.017-.37-.03.187.024.169.02-.055-.012-.083-.015-.82-.187-.367-.056-.23-.067-.462-.149-.68-.248.423.192-.25-.16-.323-.207.269.18-.3-.261-.351-.31.008.007-.304-.34-.39-.444-.591-.705-1.771-1.168-2.683-.984-.828.167-1.118.839-.554 1.51" fill="#000"/><path d="m39.194 56.21s-13.514-21.897-27.872-19.59c-15.688 2.519-5.62 13.646.065 17.003" fill="#a9ff03"/><path d="m41.753 55.366c-3.967-6.411-9.465-12.671-15.882-16.669-2.225-1.385-4.64-2.46-7.21-3.004-2.967-.629-5.983-.302-8.902.416-4.071 1.001-10.506 3.415-9.215 8.763.985 4.083 4.968 7.677 8.438 9.754.837.501 2.52-.207 3.313-.54.273-.114 2.23-1.03 1.498-1.468-2.964-1.774-5.784-4.388-7.377-7.483-.7-1.357-1.238-3.028-.727-4.537.228-.672.615-1.263 1.151-1.726.655-.564.924-.636 1.648-.844 4.603-1.326 9.245.502 13.093 3.01 3.944 2.57 7.325 5.955 10.317 9.565 1.698 2.047 3.335 4.188 4.737 6.452.714 1.155 5.52-1.04 5.118-1.69" fill="#000"/><path d="m79.685 36.212c-.189-1.485 6.251-21.73-2.848-22.084-9.1-.354-9.16 14.527-14.813 11.349-5.934-3.337-2.361-21.315-11.276-22.597-8.916-1.283-24.605 37.03-21.81 54.019l10.374 6.436 35.091-1.74z" fill="#a9ff03"/><path d="m53.442 5.581-.08-.036c.006.005.027.013.08.036" fill="#000"/></g><path d="m47.282 56.64-.58 2.787c-10.125.502-20.248 1.005-30.373 1.505-1.283.065-2.568.128-3.85.192l-7.704-4.779c-.356-4.2.21-8.483 1.003-12.592 1.116-5.782 2.824-11.457 4.93-16.954 1.915-4.994 4.147-9.959 7.05-14.465 1.625-2.524 4.141-6.352 7.112-7.154.263-.072.522-.11.793-.137.033-.003.16-.004.226-.006.086.02.512.087.613.11.446.109.6.228.988.399-.009-.007.013-.001.045.007.01.011.022.016.035.028l.01.005-.01-.005c.043.041.08.084.105.115l.022.033c.061.094.083.126.09.134h.001c.213.359-.073-.212.19.323.247.502.42.896.545 1.25.39 1.117.68 2.265.93 3.422 1.024 4.724 1.235 10.021 4.32 13.985 1.23 1.583 3.278 3.434 5.456 3.26 1.649-.131 2.668-1.638 3.466-2.907 2.035-3.234 3.774-7.948 8.01-8.76.547-.104 1.136-.166 1.694-.12.197.015.836.16.915.176.008.002.016.01.025.014.034.09.068.18.094.272.058.2.119.398.168.601.106.428.151.763.205 1.274.113 1.09.119 2.19.071 3.285-.17 3.907-1.144 7.673-1.85 11.5-.063.348-.13.724-.143 1.09zm-11.499-32.955h-.001c.237.275.118.146.001 0m17.385-7.477c.013.019.025.035.04.059-.168-.186-.118-.14-.04-.059m.306.365c.052.032.105.064.16.076-.007 0-.24-.097-.16-.076m4.164 4.439c-.496-3.66-2.577-7.62-6.327-8.799-3.3-1.038-6.587.652-8.612 3.218-1.831 2.321-2.769 5.513-4.917 7.556-.348.329-.712.601-1.078.69-.517.127-.741.014-.96-.085l-.073-.133-.001-.004c-.063-.13-.125-.258-.186-.388-.065-.14-.21-.516-.352-.955-2.227-6.921-1.429-16.667-8.938-20.601-5.675-2.972-9.905 3.48-12.493 7.623-4.555 7.289-7.724 15.56-10.023 23.815-1.15 4.129-2.07 8.34-2.543 12.603-.217 1.948-.363 3.907-.34 5.868.023 2.08-.014 4.556 1.384 6.223.784.931 1.866 1.479 2.883 2.11l4.436 2.752 3.655 2.267c.63.391 1.227.75 1.987.739 5.308-.082 10.637-.529 15.94-.79l17.864-.887 1.021-.05c.24-.033.397-.166.472-.395l4.624-22.221.653-3.144c.037-.107.055-.236.041-.405l-.004-.062c.017-.121.037-.243.058-.364.097-.513.204-1.024.312-1.535.305-1.449.611-2.897.869-4.354.591-3.347 1.109-6.896.648-10.292" fill="#000" mask="url(#a)" transform="translate(34.496 1.654)"/><path d="m73.459 55.052-1.383 6.647-33.279 1.648-10.282-6.057c1.243-4.087 1.257-9.443 2.618-15.312 13.432.295 26.651 8.828 26.651 8.828z" fill="#000" transform="translate(8.624 1.654)"/><path d="m73.459 55.052-1.383 6.647-33.279 1.648-10.282-6.057c1.243-4.087 1.257-9.443 2.618-15.312 13.432.295 26.651 8.828 26.651 8.828z" stroke="#000" transform="translate(8.624 1.654)"/><path d="m80.254 37.222c35.197-11.338 31.249 18.41 19.592 23.56-29.028 14.848-67.332 11.754-92.732-10.209 46.101 16.904 49.404-5.705 73.14-13.352" fill="#a9ff03" transform="translate(8.624 1.654)"/><path d="m99.54 21.7c-.587 1.199-1.333 2.303-2.176 3.335-.335.411-.374.459-.99 1.012-.232.209-.48.4-.719.6-.01.009-.06.047-.113.085-.097.066-.258.176-.288.194-.24.147-.484.283-.73.42h-.002c-.438.21-.867.433-1.3.648-1.348.668-2.723 1.286-4.11 1.869-2.84 1.194-5.744 2.233-8.707 3.079-11.833 3.38-24.413 4.084-36.551 2.06-10.695-1.783-21.01-5.632-30.122-11.445 8.894 2.247 18.11 3.219 27.078 1.088 8.698-2.065 15.649-7.254 22.976-12.065 4.367-2.867 8.072-4.91 12.903-6.511 4.788-1.506 9.7-2.66 14.546-2.157 2.593.27 5.489 1.318 7.43 3.507 3.443 3.875 2.953 10.035.874 14.281m4.895-15.064c-4.94-7.555-16.526-6.21-23.96-4.44-1.639.391-3.257.859-4.861 1.37-.108.034-.235.077-.372.125l-.312.096c-8.269 2.69-15.02 7.834-22.235 12.478-1.674 1.077-3.384 2.102-5.154 3.012l-.49.247-.403.193c-.473.22-.948.432-1.428.634-.452.19-.906.371-1.365.544-.252.094-.503.185-.755.274-.138.048-.629.212-.684.232-1.82.572-3.984 1.027-5.926 1.25-2.576.296-4.752.312-7.423.14-8.28-.536-16.419-2.957-24.173-5.786-1.105-.404-2.353-.253-3.399.278-.504.256-1.945 1.226-1.125 1.93 10.421 8.962 23.076 15.007 36.503 17.863 13.513 2.874 27.691 2.61 41.104-.685 3.393-.833 6.743-1.871 10.017-3.092 2.933-1.094 6.285-2.633 8.757-3.856 2.845-1.408 5.183-3.429 6.86-6.146 3.024-4.9 4.12-11.62.824-16.661" fill="#000" mask="url(#b)" transform="translate(12.936 33.994)"/><path d="m57.255 50.518s-12.782-8.252-25.77-8.535" stroke="#000" stroke-width="2" transform="translate(8.624 1.654)"/><path d="m46.778 16.082c-.04-.184.01.05.026.155.039.226.068.455.09.684.079.749.093 1.505.036 2.257-.153 1.998-.865 4.006-2.452 5.313-1.181.975-2.702 1.39-4.202 1.54-.263.027.026.316.067.355.277.265.7.481 1.036.647.678.333 1.598.827 2.387.748 2.55-.254 4.94-1.431 6.079-3.824.767-1.615.929-3.481.77-5.244-.038-.422-.092-.844-.183-1.258-.043-.2-.642-.516-.758-.584-.443-.258-.932-.484-1.412-.659-.214-.079-1.585-.598-1.484-.13" fill="#000" transform="translate(8.624 1.654)"/></g></svg>