<svg height="105" viewBox="0 0 110 105" width="110" xmlns="http://www.w3.org/2000/svg"><g fill="none" fill-rule="evenodd"><path d="m37.499 26.142h85.414v133.858h-85.414z" transform="translate(-25 -32)"/><path d="m65.74 19.38-13.82 1.512-12.47 6.547-10.548 10.177-4.326 14.306-2.037 14.702.753 5.839-4.424-4.219-5.259-1.214-4.83 4.3-1.02 5.567 2.408 5.045 4.172 3.47c1.69 1.086 3.405 1.537 5.147 1.351 1.74-.185 3.675-.383 5.802-.595l.3 3.784 3.084 11.276 10.182 10.537 11.84 8.533 13.606 4.124 11.586-2.756 9.717-7.534 8.537-8.76 6.625-10.22 1.118-8.11.555-6.471 4.005-.597 6.01-.72 4.712-4.05.665-6.39-3.037-5.382-5.098-.109-3.73 1.973-1.978 3.298-1.899-14.922-3.71-13.2-7.145-11.757-12.135-5.619z" fill="#5cffe4" transform="matrix(.97437006 -.22495105 .22495105 .97437006 -23.604677 -2.173404)"/><g transform="matrix(.97437006 -.22495105 .22495105 .97437006 4.908315 -8.756146)"><path d="m61.829 53.052c-.498.366-.883.622-1.383.825.342-.139-.345.109-.365.113-.463.13.165-.001-.348.072-.7.1-1.562.089-2.432-.024-2.075-.274-4.098-.861-6.183-1.073-2.459-.25-4.957-.028-7.216 1.048-2.793 1.333-4.756 3.673-6.228 6.34-.506.921.495 1.32 1.272 1.325.946.008 2.47-.406 2.976-1.321.718-1.302 1.514-2.58 2.609-3.601.308-.287.728-.621 1.022-.79.063-.036.385-.191.545-.256.157-.065.153-.064-.014.005.115-.038.23-.072.347-.104-.008.003.632-.1.804-.108.374-.014.89-.002 1.159.021.972.08 1.94.281 2.897.472 4.654.931 9.34 1.35 13.402-1.644.628-.462 1.29-1.274.353-1.803-.862-.482-2.482-.04-3.217.503m-28.387 40.022c-1.677.845-3.584 1.23-5.489 1.237 5.05-5.04 6.49-13.812 5.698-20.442-1.125-9.41-7.018-19.263-17.278-20.212-4.53-.419-9.024 1.344-11.798 4.993-1.146 1.509 2.098 4.053 3.242 2.546 4.316-5.676 12.738-5.373 17.335-.2 5.524 6.216 6.2 16.315 3.577 23.896-1.203 3.477-3.27 6.973-6.601 8.762-1.58.847.484 2.802 1.4 3.118 3.988 1.372 8.762 1.27 12.58-.656 1.792-.903-1.053-3.856-2.666-3.042" fill="#000"/><path d="m56.488 64.465c-1.471-.52-3.026-.75-4.55-.648-1.537.103-3.119.407-4.5 1.086-1.371.673-2.678 1.648-3.692 2.834-1.295 1.512-2.013 3.342-2.329 5.234-2.202.83-2.315.24-4.668.24-2.356 0-2.356.082-4.713.082-2.358 0-2.442.408-4.697-.275-.065-1.447-.413-2.8-1.03-4.053-.626-1.275-1.699-2.217-2.783-3.137-1.063-.903-2.23-1.568-3.625-1.979-1.45-.427-2.957-.979-4.481-.82-1.511.157-3.073.627-4.43 1.301-1.372.683-2.573 1.753-3.559 2.905-.972 1.138-1.512 2.537-1.915 3.932-.407 1.415-.672 2.89-.461 4.345.206 1.434.682 2.89 1.52 4.142.846 1.266 1.92 2.376 3.142 3.124 1.248.765 2.78.904 4.24 1.12 1.427.212 2.838.138 4.294-.183 1.457-.321 2.761-.836 3.961-1.608 1.24-.797 2.253-1.766 3.082-2.953.825-1.177 1.54-2.506 1.825-3.974 2.265-.664 2.386.133 4.747.133 2.363 0 2.363-.165 4.726-.165s2.537-.768 4.756.045c.065 1.76.621 3.528 1.558 5.095.79 1.323 1.819 2.366 3.04 3.2 1.238.846 2.612 1.354 4.09 1.654 1.457.297 2.907.3 4.4.022 1.276-.238 2.539-.455 3.627-1.086 1.108-.643 2.213-1.39 3.042-2.351.83-.964 1.152-2.265 1.616-3.458.454-1.17 1.045-2.348 1.062-3.65-.02-1.506-.61-2.895-1.187-4.222-.588-1.353-1.33-2.603-2.403-3.613-1.051-.986-2.277-1.813-3.705-2.319m-28.235 42.441c1.584 1.91 3.918 3.22 6.434 3.252 2.315.029 4.458-1.038 5.927-2.808.644-.777.076-1.992-.629-2.516-.724-.54-1.916-.873-2.592-.058-.138.166-.28.327-.43.482-.068.066-.138.13-.205.198-.17.171.195-.14-.003 0-.33.231-.637.473-.995.665-.102.054-.212.1-.314.156-.21.116.236-.075.008 0-.18.058-.355.124-.538.173-.207.055-.416.095-.627.132-.183.032-.13.005.022.001-.123.003-.245.015-.366.016-.195.003-.39-.005-.583-.022-.052-.004-.357-.06-.117-.01.268.056-.13-.033-.181-.045-.186-.043-.366-.097-.546-.153-.29-.092.061-.024.088.033-.017-.036-.267-.12-.32-.145-.084-.042-.167-.086-.25-.13-.06-.034-.32-.214-.07-.03.277.201-.06-.044-.119-.087-.077-.056-.152-.113-.225-.172-.144-.115-.276-.272-.428-.374.377.251.165.163.044.028-.08-.089-.158-.18-.234-.273-.568-.684-1.827-1.315-2.667-.724-.842.592-.676 1.698-.084 2.411" fill="#000"/><path d="m42.776 80.389c.375.625.812 1.194 1.294 1.712l15.773-15.773c-.962-.808-2.071-1.46-3.312-1.9-.182-.065-.366-.115-.55-.17l-14.125 14.125c.236.69.537 1.364.92 2.006m-19.321-14.937c-1.022-.808-2.2-1.439-3.501-1.821-.175-.052-.355-.092-.533-.135l-14.073 14.073c.273.783.644 1.538 1.119 2.248.353.529.753 1.003 1.179 1.445z" fill="#fff"/></g></g></svg>