<svg height="110" viewBox="0 0 115 110" width="115" xmlns="http://www.w3.org/2000/svg"><g fill="none" fill-rule="evenodd"><path d="m96.401 61.356c.54-.984 1.334-2.024 2.382-3.118 1.048-1.095 2.83-2.746 5.346-4.954l5.19-1.27 4.346 2.958 1.607 5.536-3.567 4.476-6.45 1.746-6.371-.172-2.901 1.31z" fill="#5cffe4" transform="matrix(.98768834 .15643447 -.15643447 .98768834 9.209163 -13.719505)"/><path d="m100.288 53.101.409 19.287-7.345 3.96.703-22.582z" fill="#000" transform="matrix(.98768834 .15643447 -.15643447 .98768834 9.209163 -13.719505)"/><path d="m62.674 6.551-12.738 2.544-10.141 4.878-9.455 9.248-5.609 11.802-3.063 11.967-1.128 10.876.319 10.93.185 13.969 5.936 9.604 6.338 4.801 7.058 7.212 4.035 4.782 5.408 2.094 5.875-.659 5.149.851 4.787-1.284 5.643-5.245 11.422-6.97 7.215-9.006 5.27-10.399 1.923-11.499 2.596-11.264 1.774-11.562-3.375-11.202-4.33-10.419-8.14-7.827-10.907-5.245z" fill="#5cffe4" transform="matrix(.9998477 -.01745241 .01745241 .9998477 -1.791969 -3.82859)"/><g transform="matrix(.98768834 .15643447 -.15643447 .98768834 9.209163 -13.719505)"><path d="m23.458 63.93c-.607-1.108-1.5-2.277-2.68-3.508-1.178-1.231-3.183-3.089-6.014-5.572l-5.837-1.43-4.889 3.329-1.808 6.226 4.013 5.036 6.83 2.92 7.592-1.15 3.263 1.474z" fill="#5cffe4"/><path d="m91.181 44.35c-3.74-3.036-8.656-5.024-13.499-5.117-5.139-.099-9.52 2.316-11.797 6.983-.612 1.253 2.865 2.635 3.52 1.291 1.817-3.722 5.252-5.99 9.426-5.91 3.608.07 7.163 1.554 9.945 3.813.613.498 1.778.918 2.54.527.77-.395.391-1.16-.135-1.587m-55.778 1.748c2.891-2.346 6.655-3.977 10.4-4.162 3.928-.193 6.896 1.648 8.63 5.2.38.779 1.45 1.227 2.277 1.239.636.01 1.517-.33 1.13-1.124-2.364-4.843-7.157-7.654-12.515-7.688-4.732-.03-9.467 1.795-13.124 4.763-1.16.942 2.116 2.654 3.202 1.772m37.065 29.272c-.204-.695-.728-1.413-1.436-1.646-6.696-2.21-9.672-9.295-8.169-15.903.202-.886-.103-1.859-.786-2.477-.448-.407-1.523-.78-1.728.121-1.067 4.69-.619 9.59 1.784 13.815 1.292 2.273 3.042 4.26 5.148 5.752-2.443 1.04-4.85 2.174-7.176 3.443-1.4.764.307 4.103 1.695 3.345 3.307-1.804 6.776-3.35 10.286-4.713.625-.243.524-1.255.382-1.737" fill="#000"/><path d="m90.675 60.125c-.026-.403.036-.972-.088-1.359-.15-.467-.683-.872-1.003-1.221-.373-.406-.73-.899-1.152-1.257-.756-.642-1.85-1.17-2.745-1.601-.903-.435-2.015-.841-2.994-1.06-1.056-.235-2.262-.126-3.344-.168-.103-.004-.188.01-.258.038-.897.133-1.824.223-2.7.44-.945.234-1.937.709-2.818 1.126-1.8.854-3.069 2.242-4.29 3.753-.258.319-.516.558-.58.961-.067.431.006.941.008 1.375.005.812-.265 2.005.33 2.627 1.325 1.39 2.972 2.658 4.697 3.513 1.85.916 3.865 1.146 5.885 1.314.935.079 1.928-.274 2.84-.46.937-.193 1.775-.577 2.663-.936 1.632-.66 3.088-1.797 4.27-3.096.6-.661 1.45-1.227 1.397-2.164-.034-.609-.078-1.217-.118-1.825" fill="#feffff"/><path d="m70.497 60.643 1.752-2.139c.107-.13.238-.257.328-.4.177-.283-.267.183-.06.022.372-.285.773-.539 1.157-.807.427-.298.867-.583 1.282-.896.046-.034.449-.316.156-.139-.258.156.097-.034.19-.07.925-.363 1.899-.688 2.79-1.123.11-.053-.43.05-.118.022.2-.017.4-.047.6-.07l1.843-.215c.186-.022.408-.015.588-.069.49-.146-.25.051-.406-.124.199.22 1.086.335 1.357.42.715.22 1.414.404 2.08.738l1.515.758c.188.094.402.248.607.303.448.122-.557-.548-.247-.18.379.45.895.836 1.325 1.238.205.191.405.422.63.59.273.201.162.103.078 0 .626.767 1.109 1.704 1.65 2.536.356.547.975.856 1.63.645.512-.166 1.024-.84.67-1.386l-1.604-2.465c-.518-.796-1.344-1.403-2.035-2.049-1.227-1.146-2.94-1.94-4.543-2.435-.883-.273-1.97-.807-2.91-.756-1.048.055-2.126.22-3.165.37-.868.124-1.698.58-2.506.905-.76.305-1.405.584-2.074 1.052-.801.56-1.768 1.07-2.446 1.78-.748.784-1.392 1.7-2.08 2.54-.97 1.183 1.097 2.464 1.966 1.404" fill="#000"/><path d="m84.14 54.224-.086-.19-.197-.072c-1.602-.583-3.272-.835-4.952-.753-4.221.21-8.115 2.51-10.417 6.152-.824 1.302-.765 2.996.146 4.215 2.06 2.76 5.075 4.532 8.488 4.99l.072.01.072-.013c4.268-.668 7.559-4.57 7.823-9.28.097-1.74-.23-3.489-.948-5.059" fill="#000"/><path d="m54.841 61.12c-.026-.403.036-.972-.088-1.359-.15-.467-.683-.87-1.003-1.22-.373-.407-.73-.9-1.152-1.257-.756-.643-1.85-1.17-2.745-1.6-.903-.436-2.015-.843-2.994-1.06-1.056-.237-2.262-.128-3.344-.17-.103-.004-.188.011-.258.038-.897.133-1.824.224-2.7.44-.945.234-1.937.71-2.818 1.126-1.8.855-3.069 2.242-4.29 3.753-.258.32-.516.558-.58.961-.067.431.006.942.008 1.375.005.812-.265 2.005.33 2.627 1.325 1.39 2.972 2.658 4.697 3.513 1.85.916 3.865 1.146 5.885 1.314.935.08 1.928-.274 2.84-.46.937-.192 1.775-.577 2.663-.936 1.632-.659 3.088-1.796 4.27-3.096.6-.66 1.45-1.227 1.397-2.164-.034-.609-.078-1.217-.118-1.825" fill="#feffff"/><path d="m34.663 61.639 1.695-2.163c.11-.14.233-.278.334-.425.105-.153-.35.244-.068.05.422-.29.84-.587 1.259-.881.386-.27.812-.518 1.173-.821.203-.17.202-.133-.056-.021.154-.067.32-.113.479-.168l1.576-.552c.224-.08.448-.157.67-.235.087-.031.6-.18.27-.117-.323.063.082.012.157.01.249-.005.5-.03.749-.043.589-.034 1.179-.07 1.768-.103.13-.007.336.023.458-.026.226-.092-.87-.244-.441-.062.476.203 1.028.305 1.524.452.704.209 1.36.416 2.035.707l1.545.668c.149.064.303.124.45.194-.03-.014-.312-.256-.006.047.417.414.925.767 1.377 1.142.195.16.386.326.584.484.328.264.008 0 .023.026.505.856 1.138 1.657 1.702 2.477.79 1.15 2.878.075 1.98-1.231-.545-.794-1.044-1.662-1.654-2.407-.558-.682-1.37-1.211-2.045-1.772-1.221-1.013-2.847-1.64-4.364-2.09-.94-.278-2.01-.768-2.998-.79-1.013-.022-2.08.09-3.088.18-.81.072-1.578.432-2.341.699-.813.285-1.524.517-2.228 1.009-.815.57-1.83 1.093-2.504 1.83-.716.782-1.327 1.692-1.981 2.527-.944 1.204 1.12 2.483 1.966 1.405" fill="#000"/><path d="m48.307 55.22-.087-.19-.197-.072c-1.602-.583-3.272-.838-4.952-.753-4.221.209-8.115 2.509-10.417 6.152-.824 1.3-.765 2.996.145 4.215 2.062 2.76 5.077 4.532 8.489 4.988l.072.01.072-.011c4.268-.668 7.558-4.571 7.822-9.28.098-1.74-.23-3.49-.947-5.06m30.713 30.323c-5.365 4.463-12.084 7.884-19.21 6.151-4.22-1.026-7.984-3.515-10.951-6.645-.625-.659-1.243-1.347-1.766-2.091-.668-.95-3.456.095-2.67 1.214 5.18 7.371 14.73 11.312 23.519 9.343 4.829-1.082 9.179-3.717 12.947-6.851 1.508-1.254-.855-1.964-1.868-1.121m-13.462 19.938c-.494-1.544-1.434-3.09-2.62-4.21-.349-.328-.895-.29-1.306-.1-.258.12-.83.589-.48.92 1.025.967 1.861 2.25 2.347 3.566.428 1.16.58 2.386.313 3.6-.368 1.673-1.514 3.04-2.819 4.094-1.022.826.56 1.336 1.257.773 1.487-1.2 2.779-2.639 3.367-4.49.427-1.346.368-2.815-.06-4.152m-5.866-81.951-.003.001c-.119.02-.165.027.003 0m23.148 4.28c-1.269-4.305-4.366-7.579-8.61-9.04-4.373-1.508-9.498-1.019-13.73.707-2.263.923-4.448 2.211-6.007 4.127-.466.572-.15.86.33.997.038.014.074.024.113.035h.002c.187.053.38.081.503.088 1.343.084 2.736-.332 3.902-.996-.092.054-.162.097-.12.08.065-.027.126-.07.19-.104.106-.054.213-.106.32-.157.097-.017.217-.038.31-.066l.1-.003.046.002c.11.006.217.014.326.025.052.005.186.027.243.035l.005.001c.13.028.256.06.382.095.23.064.448.146.671.228.034.013.067.027.101.042.12.062.24.121.355.186.99.562 1.865 1.386 2.527 2.285 1.196 1.623 1.924 3.59 2.478 5.51.11.382.747.46 1.04.487.681.061 1.48-.069 2.128-.253.684-.195 1.384-.434 1.97-.845.271-.19.772-.547.657-.942-.906-3.14-2.459-6.728-5.498-8.355-1.508-.807-3.189-1.086-4.874-1.029l.01-.005c.04-.013.086-.028.158-.054.136-.048.663-.21.477-.163.12-.032.24-.062.356-.098l.047-.012c.093-.018.186-.036.28-.052l.448-.067c.047.003.565-.045.653-.05.058-.002.335-.008.426-.012.227.004.455.011.681.027.443.028 1.052.1 1.341.154 4.672.868 8.136 4.23 9.468 8.745.43 1.458 6.213-.135 5.795-1.553" fill="#000"/></g></g></svg>