<svg height="130" viewBox="0 0 135 130" width="135" xmlns="http://www.w3.org/2000/svg" xmlns:xlink="http://www.w3.org/1999/xlink"><mask id="a" fill="#fff"><path d="m.885.282h82.113v109.976h-82.113z" fill="#fff" fill-rule="evenodd"/></mask><mask id="b" fill="#fff"><path d="m0 .055h81.183v15.46h-81.183z" fill="#fff" fill-rule="evenodd"/></mask><mask id="c" fill="#fff"><path d="m.462.112h19.648v25.904h-19.648z" fill="#fff" fill-rule="evenodd"/></mask><g fill="none" fill-rule="evenodd"><path d="m123.072 67.9-5.038 3.333-4.064 4.535.545 4.805 5.058 2.057 5.403.273 4.47-2.818 2.911-4.579 1.241-6.14-4.696-3.308z" fill="#a9ff03" transform="translate(.067)"/><path d="m120.76 65.982c.362 2.173 2.385 23.378 2.385 23.378l-8.181-.015.724-17.567z" fill="#000" transform="translate(.067 .002)"/><path d="m82.933 70.568c-.163-1.998-.432-4.367-.449-6.033-.024-2.442.044-4.902-.073-7.341-.181-3.834-.96-7.72-1.456-11.534-.502-3.853-1.228-7.652-2.121-11.436-.441-1.872-.608-4.176-1.53-5.876-.633-1.164-1.305-2.308-1.956-3.461-.398-.706-.746-1.559-1.251-2.195-.652-.82-1.572-1.523-2.324-2.251-.824-.8-1.626-1.635-2.478-2.402-1.557-1.4-3.261-2.66-4.888-3.98-1.482-1.205-3.738-1.506-5.53-2.077-1.878-.597-3.742-.94-5.682-1.31l-2.466-.472c.124-.74.346-1.627.111-2.272-.36-.987-1.295-1.993-1.864-2.871-.417-.643-.832-1.645-1.443-2.127-.807-.637-2.081-1.003-3.006-1.45-.754-.363-1.695-1.053-2.537-1.185-.809-.128-1.77.752-2.397 1.147-1.081.68-2.209 1.317-3.256 2.046-.583.406-.673.907-.909 1.572-.47 1.332-1.127 2.706-1.441 4.083-.166.726-.002 1.564.121 2.344l-2.91.532c-1.126.206-2.52.247-3.577.723-1.112.502-2.16 1.318-3.198 1.954l-1.997 1.222c-.182.112-.362.231-.549.337-.018.007-.051.022-.122.056-1.343.637-2.7 1.245-4.048 1.869-.843.388-1.723.696-2.432 1.298-1.195 1.014-2.326 2.119-3.485 3.174-.64.582-1.231 1.094-1.727 1.796-2.885 4.076-5.958 8.23-6.981 13.207-.54 2.629-.967 5.095-1.193 7.764-.218 2.58-.484 5.144-.769 7.716-.098.874-.311 1.799-.207 2.674.188 1.583.627 3.172.937 4.735.212 1.069.17 1.519.106 2.774-.07 1.395-.234 2.819-.212 4.216.02 1.252.22 2.523.334 3.77.085.935.088 1.883.367 2.781.765 2.46 1.595 4.88 2.258 7.369.313 1.178.505 2.51.999 3.624.56 1.264 1.433 2.46 2.129 3.654.614 1.053.842 1.45 1.36 2.464.669 1.306 1.225 2.853 2.075 4.049.542.76 1.559 1.328 2.292 1.902 1.049.82 2.088 1.653 3.147 2.461 1.024.782 2.067 1.542 3.1 2.312.793.592 1.595 1.375 2.506 1.768 2.15.929 4.605 1.44 6.862 2.093 2.37.685 4.719 1.46 7.14 1.94 2.543.505 5.078 1.007 7.605 1.587 1.318.302 2.705.787 4.052.93 1.115.121 2.416-.342 3.505-.543l3.695-.684c.29-.053.46-.175.547-.311 1.608-1.469 3.184-2.98 4.83-4.406l.03-.028c.095-.077.195-.15.293-.223.517-.386 1.024-.78 1.535-1.17 1.043-.794 2.096-1.577 3.129-2.384 3.183-2.484 5.995-5.601 8.814-8.483.475-.486 1.002-.937 1.365-1.511.673-1.068 1.206-2.258 1.8-3.371.958-1.793 1.587-3.357 2.202-5.297.595-1.876 1.192-3.746 1.833-5.607.444-1.286.945-2.566 1.335-3.87.185-.622.105-1.12.05-1.782" fill="#a9ff03" mask="url(#a)" transform="translate(37.184 18.674)"/><path d="m98.065 89.784c-6.316-1.37-9.203-7.824-9.531-13.74-.05-.88-.774-2.07-1.675-2.292-.97-.238-1.266.658-1.224 1.443.352 6.278 3.361 13.44 8.948 16.76-2.178 1.334-4.724 2.187-7.204 2.324-1.865.102-.469 3.918 1.18 3.828 4.01-.22 8.054-2.094 10.925-4.847.959-.92-.319-3.237-1.419-3.476m-23.857-13.944c-.147-.138-2.147-1.766-2.18-1.664-1.15 3.497-3.961 6.428-7.359 7.826-4.072 1.674-8.282.393-11.754-2.008-.89-.617.364.853.453.947.847.9 1.773 1.779 2.792 2.483 3.483 2.411 7.744 4.005 11.935 2.525 3.648-1.288 6.704-4.36 7.912-8.038.155-.47-1.499-1.79-1.799-2.071m40.977-6.033c-.147-.139-2.147-1.766-2.18-1.665-1.15 3.498-3.96 6.43-7.359 7.826-4.07 1.674-8.282.394-11.754-2.008-.89-.617.364.853.453.948.847.9 1.773 1.778 2.792 2.483 3.483 2.411 7.744 4.004 11.935 2.524 3.648-1.288 6.704-4.36 7.912-8.037.155-.472-1.499-1.79-1.799-2.071m-19.519 38.65c-.348-1.033-1.51-1.458-2.503-1.388-1.423.1-2.843.245-4.267.34-.425.03-.848.054-1.273.074l-.596.024-.129.004-.154.001c-.792.01-1.586 0-2.379-.053-.384-.025-.768-.061-1.15-.108-.187-.023-.374-.05-.56-.079-.027-.004-.211-.041-.304-.059-.308-.07-.613-.143-.915-.235-.163-.052-.323-.115-.487-.166l-.08-.023c-.011-.008-.016-.01-.033-.019-.258-.134-.507-.274-.754-.422-.06-.04-.134-.091-.167-.12-.114-.104-.229-.207-.339-.315-.028-.028-.047-.045-.061-.057-.014-.024-.034-.059-.064-.106-.083-.132-.174-.257-.254-.391v-.004c-.025-.053-.05-.106-.07-.16-.065-.185-.132-.366-.186-.555-.579-1.989-4.547-1.804-3.866.54 1.096 3.777 5.086 5.188 8.628 5.555 3.529.366 7.08-.104 10.6-.351.948-.067 1.672-1.01 1.363-1.927m-29.221-6.333c-.76 2.168.184 4.417 1.443 6.188.047.066 1.08-.276 1.19-.306.105-.028 1.143-.386 1.182-.33-1.257-1.77-2.202-4.019-1.442-6.188.874-2.49 3.499-3.846 5.826-4.674-.767.273-1.603.362-2.373.636-2.326.828-4.953 2.184-5.826 4.674m45.416-44.872c-4.238-.77-8.229-2.536-12.592-2.644-2.225-.056-4.498.318-6.4 1.527-2.254 1.431-3.587 3.78-4.396 6.268-.494 1.52 3.357 2.905 3.844 1.41.706-2.172 1.807-4.364 3.826-5.592 1.553-.944 3.31-1.118 5.027-1.004 3.533.234 7.287 1.832 10.947 2.496.661.12 1.851.09 1.83-.839-.018-.886-1.39-1.495-2.086-1.622m-58.735 9.96c4.247-1.738 8.061-4.39 12.356-6.015 1.57-.593 3.452-1.188 5.14-.799 1.816.42 3.106 2.416 3.969 4.095.434.847 1.57 1.338 2.485 1.352.68.011 1.677-.362 1.233-1.227-1.357-2.645-3.272-4.924-6.065-6.094-2.328-.976-4.915-1.004-7.336-.38-5.265 1.361-9.71 4.717-14.7 6.758-.885.364-.37 1.305.148 1.734.7.578 1.894.935 2.77.576" fill="#000" transform="translate(.067 .002)"/><path d="m41.858 46.528c6.24-12.585 22.765-8.455 36.572-3.548 3.573-17.045 15.853-6.231 22.606-8.01 6.27-2.14 14.37-17.144-3.52-25.916-11.66-5.718-25.409-9.366-45.56 1.586-17.657 9.595-20.59 29.79-49.065 22.78 5.585 8.543 20.135 21.03 38.967 13.108" fill="#5cffe4" transform="translate(.067 .002)"/><g fill="#000"><path d="m105.514 25.017c-.589 3.501-2.756 7.456-6.065 9.076-.168.083-.348.143-.515.226.01-.005-.002-.002-.018.003-.023-.002-.09.007-.154.018-.048-.004-.089 0-.125.007l-.003-.001c-.102-.01-.202-.02-.27-.029-.19-.027-.379-.056-.57-.086l-.195-.03c.007 0 .005 0-.024-.006-.296-.06-.59-.126-.883-.193-2.223-.506-4.427-1.125-6.694-1.407-2.602-.324-5.381-.397-7.876.533-2.267.846-3.8 2.652-4.836 4.78-.496 1.023-.86 2.098-1.161 3.19-6.372-2.072-12.946-3.697-19.662-3.73-3.528-.018-7.249.44-10.454 2.002-2.988 1.459-5.176 3.778-6.716 6.684-3.58 1.45-7.428 2.402-11.312 2.125-3.253-.231-6.43-1.317-9.304-2.828-4.673-2.459-8.789-6.03-11.953-10.27 5.204.83 10.569.965 15.671-.314 4.939-1.237 9.22-3.875 12.999-7.231 3.732-3.315 7.02-7.094 10.74-10.425 5.083-4.55 11.006-7.802 17.42-10.115 6.188-2.234 12.845-3.236 19.162-2.08 5.663 1.036 11.751 3.407 16.448 6.748 4.346 3.09 7.264 7.91 6.35 13.353m2.212-10.451c-4.12-4.776-10.719-7.5-16.61-9.39-6.553-2.101-13.484-2.908-20.336-2.143-8.015.895-15.897 3.825-22.785 7.98-4.6 2.775-8.458 6.475-12.215 10.275-3.429 3.468-6.884 7.103-11.135 9.577-4.535 2.639-9.625 3.577-14.752 2.994-1.883-.214-3.74-.59-5.58-1.037-.459-.11-4.75-.413-4.063.628 6.78 10.277 18.578 16.69 30.922 16.422 4.345-.094 8.582-1.01 12.608-2.619.146-.038.274-.09.39-.151l.01-.004c.275-.113.382-.235.384-.358.004-.007.013-.014.017-.021 6.277-12.339 21.867-6.853 31.884-3.305.754.267 4.414 1.019 4.687-.243.627-2.886 1.576-6.062 3.978-7.986.707-.567 1.515-.941 2.338-1.101.375-.074.872-.065 1.317.005.266.043.534.082.8.127l.146.024.13.026c.576.12 1.15.254 1.723.39 1.01.243 2.018.5 3.036.712 2.573.539 5.341.945 7.948.385 3.733-.803 6.47-4.485 7.726-7.874 1.71-4.618.627-9.61-2.568-13.313" transform="translate(.067 .002)"/><path d="m64.12 5.294c-4.678.876-9.088 2.786-13.06 5.387-.76.5-.593.962.279 1.036 1.06.09 2.466-.315 3.354-.898 6.027-3.949 13.621-5.846 20.067-1.637 5.544 3.62 6.948 10.313 4.693 16.304-.301.8 1.584.512 1.898.458.707-.126 2.471-.47 2.782-1.295 2.015-5.353 1.407-11.29-2.808-15.407-4.484-4.38-11.31-5.053-17.204-3.948" transform="translate(.067 .002)"/><path d="m29.653 12.317c-.159.053-.456.133 0 0m35.821-11.607c-5.496-1.231-11.416-.684-16.677 1.278-4.327 1.614-8.109 4.204-11.983 6.655-.942.595-1.891 1.177-2.86 1.725-.634.358-.283.171-.934.504-.52.267-1.046.52-1.58.759-.098.045-.48.203-.537.23-.162.064-.324.127-.489.188-.239.089-.483.166-.722.254l-.033.011c-.122.038-.246.075-.369.107l-.611.159c-.094.023-.225.052-.332.072-.295.053-.59.106-.888.15-.16.019-.322.036-.483.05-2.673.247-5.903-.246-8.772-1.117-4.278-1.298-8.256-3.441-12.031-5.806-1.066-.667-3.01-.026-4.074.36-.332.123-2.831 1.206-1.889 1.796 5.976 3.741 12.587 6.9 19.721 7.372 5.605.372 11.283-1.052 16.288-3.528 3.992-1.975 7.56-4.63 11.403-6.857.207-.12.416-.237.623-.355l.13-.075.108-.056c.49-.255.983-.504 1.486-.735.216-.1.433-.193.648-.29.037-.016.052-.024.075-.035.042-.013.097-.032.18-.062.223-.078.445-.16.667-.241.06-.02.09-.033.128-.047.02-.004.027-.005.058-.013.243-.06.488-.128.733-.193.07-.013.14-.029.208-.042.254-.043.51-.09.765-.13l.048-.01c.167-.02.333-.037.5-.053 1.2-.114 1.99-.122 3.33-.025 7.245.525 13.517 4.916 17.516 10.82 1.045 1.544 6.83-.951 6.326-1.695-3.748-5.535-9.089-9.649-15.677-11.125" mask="url(#b)" transform="translate(.067 28.385)"/><path d="m15.909 5.44c-3.392-2.93-7.945-4.316-12.234-5.276-1.11-.248-2.627.43-3.08 1.493-.495 1.164.468 1.92 1.489 2.147 3.373.756 6.8 1.86 9.54 3.957 1.72 1.314 2.943 2.954 3.455 4.935.114.442.188.889.247 1.342l.006.07c.004.063.009.124.01.186.003.27.01.537.002.807-.03.907-.178 1.796-.383 2.678-.013.052-.02.086-.025.11l-.048.14c-.062.192-.12.385-.185.576-.132.389-.277.772-.436 1.15-.28.671-.602 1.326-.953 1.963-.088.157-.18.31-.268.467-.017.03-.034.059-.052.087-.12.181-.234.366-.355.546-.131.192-.263.383-.406.566-.696.891-.399 2.036.657 2.457 1.098.435 2.624.037 3.357-.9 1.509-1.935 2.666-4.294 3.322-6.651 1.345-4.835.2-9.51-3.66-12.848" mask="url(#c)" transform="translate(78.667 .002)"/></g><path d="m41.271 89.22-.015-.104-4.598-3.827-5.874-1.828-6.042-.413-3.604 4.036 2.413 5.545 3.524 4.193 5.183 1.732 5.265-1.279 4.399-3.459z" fill="#a9ff03" transform="translate(.067 .002)"/></g></svg>