<svg height="130" viewBox="0 0 120 130" width="120" xmlns="http://www.w3.org/2000/svg"><g fill="none" fill-rule="evenodd"><path d="m61.304 19.727-5.998.043-5.336 2.814-5.438 2.093-4.639 3.566-5.39 2.748-4.291 4.154-3.631 4.735-3.223 5.004-3.262 4.989-2.244 5.528-1.558 5.75-.884 5.82.009 5.888.828 5.822-.323 5.959 2.674 5.404.397 6.032 3.249 4.988 3.257 4.83 3.184 4.927 3.992 4.358 4.925 3.263 5.305 2.51 5.401 2.148 5.458 1.986 5.612 1.565 5.736 1.28 5.804 1.184 5.187-3.111 5.048-3.043 4.273-4.048 4.144-4.127 4.508-4.038 2.987-5.208 1.595-5.796 2.203-5.538.827-5.902.779-5.749 5.116-.469 4.641-2.541 3.325-3.724.951-5-4.438-4.904-6.497 1.609-3.77 6.04-.234-6.631-2.995-5.37-1.674-5.662-1.177-5.991-3.793-4.748-2.65-5.355-3.172-5.043-4.589-3.857-3.956-4.416-5.124-2.964-5.434-2.169z" fill="#a9ff03" transform="translate(1.714)"/><g transform="translate(1.714 .186)"><path d="m86.57 65.707c-2.55-3.67-7.107-5.672-11.524-5.48-6.325.276-11.571 4.415-15.513 9.055-1.003 1.182 2.233 2.714 3.087 1.71 3.363-3.96 7.767-7.846 13.145-8.445 3.247-.362 6.047.952 7.909 3.63.745 1.075 4.102 1.266 2.895-.47m-30.003 34.48c-1.991.034-3.995-.102-5.984-.34 4.59-4.92 5.363-12.943 4.091-19.304-.157-.786-.608-1.811-1.478-2.025-.78-.191-1.222.568-1.08 1.275 1.358 6.795.225 15.725-6.462 19.426-1.205.667-.053 3.055 1.016 3.262 3.577.694 7.286 1.149 10.939 1.087 1.63-.027.42-3.405-1.042-3.381m-24.314-33.515-.074.007c.447.081-.384-.036.074-.007m17.164 3.133c-2.51-.03-4.899-.742-7.143-1.83-1.825-.886-3.537-2.032-5.46-2.708-2.294-.806-4.823-.71-7.094.152-2.8 1.062-4.866 3.353-6.719 5.608-.613.747 1.555.929 1.822.923.99-.022 2.193-.24 2.852-1.042.927-1.127 1.92-2.22 3.05-3.149.397-.329.801-.615 1.249-.87-.004.002.395-.194.354-.18l.048-.02.175.03c.123.028.245.055.367.09.539.15 1.355.544 2.034.898 1.723.9 3.393 1.888 5.216 2.583 2.652 1.012 5.384 1.447 8.218 1.48.726.008 2.554-.2 2.852-1.042.317-.894-1.365-.918-1.821-.923m18.14 38.213c-.803.02-1.65.434-1.588 1.351.008.118.012.234.015.352l.003.051-.005.045c-.023.209-.048.414-.091.62-.042.201-.097.4-.163.594-.02.06-.048.127-.063.162-.033.072-.067.145-.105.216-.102.197-.218.386-.345.567-.053.077-.108.15-.165.222-.02.026-.152.172-.168.195-.03.028-.057.056-.066.065-.08.077-.162.151-.247.222-.147.126-.35.344-.536.4.048-.03.095-.06.143-.088-.064.037-.13.074-.195.109-.083.044-.168.087-.254.126-.103.047-.207.093-.313.133-.038.015-.056.024-.077.034-.176.068-.413.097-.581.123-.02.004-.046.01-.072.018-.117.027-.276.007-.388.007-.092-.002-.182-.01-.274-.015-.041-.008-.083-.013-.124-.022-.11-.021-.217-.052-.326-.073l-.034-.006-.011-.005c-.122-.05-.243-.097-.363-.153-.021-.01-.059-.024-.098-.039-.213-.088-.431-.291-.604-.432-.634-.515-1.89-.642-2.52-.057-.672.625-.397 1.425.24 1.942 2.21 1.798 5.596 2.16 8.085.72 2.158-1.25 3.43-3.48 3.261-5.989-.059-.87-1.208-1.414-1.97-1.395" fill="#000"/><path d="m86.257 82.443c-.043-.408.007-1.026-.178-1.407-.204-.42-.81-.798-1.139-1.103-.396-.368-.783-.803-1.217-1.128-.84-.628-2.063-1.122-3.046-1.48-.968-.355-2.138-.728-3.156-.866-1.059-.143-2.22.002-3.29.01-.998.185-2.04.302-3.022.56-.968.255-1.973.733-2.877 1.163-1.781.85-3.07 2.172-4.29 3.664-.225.276-.612.607-.709.965-.108.403.04 1.029.059 1.432.036.798-.19 2.015.446 2.588 1.47 1.318 3.367 2.564 5.22 3.263 1.917.724 3.95.906 5.977.953 1.827.043 3.755-.765 5.424-1.447 1.74-.71 3.291-1.837 4.566-3.217.554-.601 1.486-1.221 1.433-2.087-.039-.621-.134-1.244-.2-1.863" fill="#feffff"/><path d="m85.384 81.207c-2.565-2.51-5.389-5.053-9.174-5.168-1.684-.05-3.657-.168-5.264.423-1.707.627-3.508 1.54-4.988 2.602-1.634 1.173-2.736 2.697-3.883 4.309-.853 1.197 1.131 2.429 1.896 1.354.507-.712.975-1.487 1.536-2.157.517-.618 1.203-1.121 1.792-1.67.1-.093.197-.196.304-.278-.407.313-.07.074.042.016.498-.26.97-.585 1.45-.876.174-.104.355-.202.522-.315.334-.227-.284.119-.01-.014.47-.23.958-.43 1.436-.643.214-.095.45-.178.655-.294.121-.067.612-.23.048-.09.435-.107.913-.118 1.356-.176.73-.094 1.396-.177 2.129-.155l1.656.05c.128.004.324.044.45.014-.45.11-.793-.226-.262.022.483.225 1.019.375 1.518.559.208.077.415.17.627.231.366.107.133.044.052-.01.443.29.87.602 1.307.902.227.159.453.32.684.473.168.112.493.346.14.052.734.612 1.387 1.357 2.07 2.025.444.434 1.129.611 1.685.263.473-.296.662-1.023.226-1.45" fill="#000"/><path d="m47.652 82.275c-.1-.455-.692-.95-.967-1.287-.363-.443-.704-.94-1.105-1.35-.715-.728-1.658-1.5-2.515-2.05-1.895-1.215-3.977-1.677-6.128-2.18-.104-.024-.193-.02-.273-.004-2.026.025-3.941.071-5.932.538-1.853.434-3.58 1.736-5.107 2.82-.305.215-.7.402-.836.763-.133.354-.087.895-.123 1.265-.086.882-.435 1.94.071 2.707 1.159 1.752 2.418 3.174 4.2 4.329 1.806 1.17 3.723 1.667 5.81 2.007 1.963.32 3.796.173 5.726-.186 1.744-.324 3.521-1.043 4.87-2.201.657-.564 1.65-1.086 1.817-1.973.119-.626.203-1.261.304-1.891.058-.358.269-.935.188-1.307" fill="#feffff"/><path d="m47.802 82.083c-1.339-2.35-3.394-4.228-5.833-5.436-.51-.337-1.016-.602-1.609-.865-.747-.333-1.495-.775-2.311-.89-.891-.124-1.819-.247-2.719-.29-.988-.046-2.017.168-2.998.273-.833.089-1.51.457-2.266.806-.704.326-1.411.609-2.049 1.05-.79.546-1.711 1.039-2.405 1.71-.727.702-1.358 1.539-2.028 2.299-.976 1.108 1.022 2.346 1.895 1.356l1.723-1.955c.097-.109.195-.216.289-.327.41-.273.81-.56 1.215-.84.556-.384 1.074-.772 1.686-1.056l.735-.341c-.34.962-.548 1.97-.572 2.992-.105 4.55 3.002 8.59 7.389 9.604l.062.014.065-.003c3.584-.137 6.864-1.569 9.234-4.033 1.057-1.098 1.256-2.733.497-4.068m39.467.029c-.121-.573-.388-1.1-.777-1.531-2.824-3.2-7.178-4.89-11.65-4.518-1.403.108-2.777.42-4.083.926l-.176.068-.083.17c-.582 1.195-.893 2.492-.925 3.856-.118 5.064 3.778 9.277 8.684 9.391.059.002.118.002.175.002.15 0 .295-.004.44-.008l.123-.02c3.183-.95 5.903-2.936 7.662-5.593l.046-.087c.287-.718.48-1.452.575-2.187l-.011-.47z" fill="#000"/></g><path d="m65.266 13.91-8.269-9.403-11.727-3.371-5.495 12.487-12.784-4.568-5.388 10.981 1.38 12.527-.251.122-9.53 6.478-8.211 8.076-3.5 10.551 8.263 4.497 9.658-.088 9.505-1.661 9.279-2.644 9.299-2.643 8.998-3.559 8.6-4.428 8.404-4.745 8.084-5.248 7.921-5.539 6.447-7.2 2.407-9.073-10.237-4.704-11.576.87z" fill="#c58fff" transform="translate(2.143 .464)"/><path d="m95.41 20.99c-.262.985-.62 1.99-.794 2.995-.017.092-.03.151-.04.193-.164.193-.338.377-.506.565l-4.967 5.546c-.234.262-.485.515-.706.789-.013.005-.018.005-.035.013-.804.383-1.564 1.094-2.291 1.602-3.256 2.278-6.517 4.506-9.85 6.669l-3 1.948-.504.327-.244.135c-2.098 1.155-4.172 2.356-6.258 3.533-3.257 1.838-6.612 3.493-9.936 5.205-1.319.68-2.757 1.145-4.135 1.69l-3.689 1.46c-.384.152-.769.303-1.153.456-.074.03-.142.053-.203.071l.07-.015-.09.021c-.13.041-.212.056-.191.047-3.329.736-6.61 1.89-9.887 2.824-3.68 1.047-7.298 2.197-11.065 2.855-2.178.38-4.361.735-6.534 1.142-.017-.006-.025-.01-.052-.016-.331-.07-.766.007-1.104.01l-3.932.036-3.509.032c-.14.002-.307-.012-.472-.018-.032-.02-.054-.034-.095-.062-1.974-1.283-4.201-2.286-6.27-3.412l-.79-.43 1.997-6.017c.366-1.106.898-2.263 1.13-3.407.003-.017.032-.08.059-.146.18-.179.355-.37.525-.538 2.097-2.061 4.192-4.123 6.288-6.185 1.177-1.158 2.47-1.99 3.843-2.922l4.454-3.028 1.644-1.117c.146-.099.29-.205.44-.299-.023.019-.014.02.1-.034.546-.264.87-.742.805-1.34l-1.182-10.71c-.038-.347-.002-1.013-.106-1.453.077-.145.14-.35.19-.453l2.747-5.598 1.613-3.286c3.738 1.334 7.474 2.67 11.211 4.006.788.28 1.904-.029 2.263-.844 1.637-3.72 3.275-7.44 4.911-11.161l8.65 2.485c.084.025.816.296 1.18.38-.203-.147-.392-.538-.11-.15.039.053.086.103.13.154.093.02.165.03.181.013-.047.05-.108.037-.17.001.131.153.272.302.404.451l4.242 4.824c1.092 1.243 2.184 2.486 3.278 3.728.325.523 1.118.555 1.662.443 2.332-.471 4.664-.944 6.995-1.416l3.742-.758c.314-.064.882-.041.165-.046.298.002.605-.045.9-.067l8.695-.655c.477-.035.966-.044 1.44-.106.205.107.539.2.653.253.607.279 1.213.559 1.82.837l6.731 3.093-1.289 4.857m3.785-6.58-6.698-3.08c-1.098-.503-2.187-1.067-3.307-1.518-.643-.26-1.216-.193-1.888-.142-4.637.349-9.267.505-13.827 1.43l-7.42 1.502-6.658-7.572c-.714-.812-1.182-1.465-2.237-1.768l-5.918-1.702-5.131-1.474c-.807-.232-1.888-.01-2.263.843l-4.867 11.06-11.15-3.984c-.815-.291-1.869.04-2.262.843l-4.857 9.896c-.188.386-.481.807-.57 1.234-.093.44.045 1.01.094 1.453l.704 6.387c.157 1.426.315 2.853.471 4.28-1.8 1.03-3.488 2.438-5.173 3.584-1.503 1.021-3.212 1.934-4.513 3.213l-6.309 6.205c-.573.564-1.469 1.207-1.848 1.932-.362.69-.526 1.582-.77 2.318l-2.731 8.232c-.2.603.071.978.585 1.258l5.44 2.96c1.452.791 2.597 1.65 4.267 1.636l7.48-.07c1.457-.012 2.783-.24 4.22-.49 2.31-.404 4.648-.733 6.944-1.214 1.675-.35 3.324-.924 4.969-1.392 3.872-1.103 7.746-2.205 11.62-3.306 7.07-2.01 50.893-18.306 50.893-18.306s-7.715-4.757-6.03-6.154c1.408-1.166 2.562-2.808 3.778-4.166l2.443-2.73c.345-.384.609-.67.775-1.159.76-2.228 1.222-4.607 1.826-6.882l.503-1.9c.155-.583-.029-1.002-.585-1.257" fill="#000" transform="translate(2.143 .464)"/><path d="m55.96 5.538c-.008 0-.013-.002-.021-.004.011.008.021.012.033.018l-.013-.014m-8.879 48.655c.006 0 .013-.004.019-.006-.129.029-.196.047-.21.053.063-.014.127-.032.19-.047" fill="#000" transform="translate(2.143 .464)"/><path d="m35.035 11.533c.176.015.125.016 0 0m36.01 10.23c.494-3.55 1.397-8.84 1.397-8.84s-6.366-.633-7.548-1.886l-6.14-6.502c-.496-.525-1.057-1.357-1.744-1.648-.776-.326-1.76-.41-2.576-.6l-8.213-1.915c-.767-.179-1.893.006-2.268.822l-4.811 10.446-1.097-.939c-.57-.486-1.02-1.014-1.766-1.176-.632-.139-1.306-.178-1.947-.266l-6.676-.907c-.705-.095-1.572.26-1.932.884l-3.634 6.292c-.588 1.017-1.241 2.018-1.772 3.066-.283.558-.176 1.093-.13 1.707l.672 8.962c.128 1.692.58 3.054 1.101 4.69l2.533 7.955c.407 1.281 3.358.47 2.957-.791l-2.136-6.708c-.513-1.614-1.299-3.297-1.427-5l-.65-8.654-.124-1.644-.008-.117c.318-.352 1.172-2.116 1.273-2.29l3.542-6.13c1.407.192 2.816.382 4.223.573.853.117 1.715.273 2.573.352.142.152.5.391.566.448l5.243 4.486c.256.22.516.435.768.657v.001c.006.012.018.034.04.066.454.67.974 1.305 1.458 1.951 1.293 1.733 2.588 3.466 3.882 5.198.754 1.01 3.585-.105 2.716-1.269l-3.458-4.629c-.832-1.115-2.853-8.885-2.853-8.885l3.132-6.798 5.265 1.227c1.132.265 2.329.686 3.486.814l.043.01c.188.238.493.47.67.657 2.024 2.146 4.05 4.29 6.076 6.436 1.143 1.21 1.79 2.5 2.603 3.972l3.98 7.21c.62 1.123 2.501.222 2.712-1.287" fill="#000" transform="translate(2.143 .464)"/></g></svg>