<svg width="345" height="610" viewBox="0 0 345 610" fill="none" xmlns="http://www.w3.org/2000/svg">
<path fill-rule="evenodd" clip-rule="evenodd" d="M210.636 569.305L206.801 588.966L203.471 606.988L220.949 597.656L233.934 582.351L233.822 561.615L210.636 569.305Z" fill="#fed601"/>
<path fill-rule="evenodd" clip-rule="evenodd" d="M231.587 582.29C231.545 582.356 231.535 582.425 231.558 582.493C231.57 582.476 231.583 582.463 231.596 582.449C231.592 582.402 231.587 582.351 231.587 582.29Z" fill="black"/>
<mask id="mask0_9582_108769" style="mask-type:luminance" maskUnits="userSpaceOnUse" x="201" y="560" width="36" height="49">
<path fill-rule="evenodd" clip-rule="evenodd" d="M201.144 560.198H236.394V608.338H201.144V560.198Z" fill="white"/>
</mask>
<g mask="url(#mask0_9582_108769)">
<path fill-rule="evenodd" clip-rule="evenodd" d="M236.208 576.307C236.179 571.322 236.155 566.336 236.126 561.351C236.115 559.332 231.508 560.26 231.519 561.88C231.542 566.009 231.563 570.135 231.584 574.264C231.599 576.653 231.612 579.045 231.625 581.436C231.625 581.518 231.582 581.971 231.587 582.29C231.76 582.002 232.331 581.774 231.868 582.155C231.771 582.235 231.682 582.341 231.595 582.448C231.604 582.518 231.61 582.588 231.631 582.603C231.587 582.569 231.572 582.529 231.559 582.493C231.468 582.607 231.382 582.728 231.295 582.831C227.995 586.719 224.696 590.607 221.398 594.495C220.842 595.148 220.286 595.806 219.73 596.459C219.464 596.776 219.052 597.117 219.134 597.1C217.787 597.899 216.348 598.58 214.971 599.315C212.081 600.859 209.191 602.402 206.301 603.943C208.464 592.298 210.673 580.666 212.939 569.038C213.301 567.18 208.658 567.897 208.331 569.567C205.882 582.121 203.491 594.675 201.168 607.252C200.825 609.098 204.231 608.113 204.916 607.747C208.743 605.702 212.567 603.66 216.396 601.618C219.216 600.113 222.014 599.032 224.085 596.592C227.5 592.565 230.914 588.542 234.329 584.518C234.965 583.77 236.029 582.852 236.238 581.886C236.601 580.205 236.217 578.019 236.208 576.307Z" fill="black"/>
</g>
<path fill-rule="evenodd" clip-rule="evenodd" d="M169.708 555.865L165.444 574.269L163.296 591.622L179.404 582.455L191.174 567.783L191.184 548.844" fill="#fed601"/>
<path fill-rule="evenodd" clip-rule="evenodd" d="M189.11 567.526C189.101 567.534 189.093 567.545 189.084 567.553C189.122 567.357 189.435 567.204 189.11 567.526ZM193.486 562.373C193.49 557.784 193.49 553.192 193.495 548.6C193.495 546.485 188.879 547.361 188.877 549.084C188.875 552.944 188.873 556.803 188.871 560.659C188.869 562.769 188.867 564.879 188.867 566.989C188.867 567.143 188.784 567.579 188.867 567.727C188.862 567.718 188.862 567.777 188.862 567.834C188.742 567.989 188.619 568.139 188.501 568.283C185.49 572.035 182.48 575.786 179.469 579.541C178.983 580.147 178.475 580.742 178.006 581.365C177.898 581.507 177.784 581.646 177.67 581.784C176.363 582.589 174.987 583.308 173.653 584.067C171.093 585.526 168.53 586.983 165.97 588.441C166.494 584.202 167.021 579.961 167.545 575.725C168.086 571.357 169.367 567.059 170.359 562.779C170.913 560.392 171.465 558.006 172.017 555.621C172.461 553.699 167.803 554.356 167.397 556.107C166.205 561.257 165.014 566.409 163.82 571.557C162.852 575.737 162.46 579.976 161.932 584.234C161.617 586.778 161.304 589.323 160.987 591.866C160.752 593.767 163.959 592.907 164.759 592.448C168.241 590.469 171.718 588.488 175.198 586.509C177.807 585.023 180.501 583.921 182.385 581.572C185.454 577.744 188.524 573.919 191.594 570.094C192.186 569.355 193.266 568.374 193.484 567.428C193.833 565.919 193.486 563.915 193.486 562.373Z" fill="black"/>
<path fill-rule="evenodd" clip-rule="evenodd" d="M94.6502 472.526L92.9482 486.663L95.8679 500.222L109.164 503.869L122.982 492.524L111.253 480.427L111.375 471.942" fill="#fed601"/>
<path fill-rule="evenodd" clip-rule="evenodd" d="M125.086 491.511C121.253 487.56 117.422 483.609 113.589 479.655C113.627 477.027 113.665 474.397 113.705 471.765C113.739 469.372 109.079 470.048 109.05 472.116C109.014 474.581 108.978 477.044 108.942 479.509C108.931 480.219 108.828 480.913 109.236 481.528C109.629 482.126 110.322 482.651 110.821 483.162C113.889 486.325 116.957 489.49 120.024 492.653C116.286 495.723 112.549 498.793 108.811 501.86C105.212 500.873 101.614 499.886 98.0136 498.896C97.2123 495.173 96.411 491.45 95.6076 487.725C95.5061 487.247 95.3962 486.767 95.299 486.285C95.3032 486.26 95.3011 486.247 95.3095 486.215C95.3878 485.926 95.3856 485.59 95.4195 485.289C95.707 482.913 95.9924 480.537 96.2799 478.158C96.5104 476.224 96.7451 474.287 96.9776 472.35C97.2588 470.01 92.5738 470.625 92.3243 472.701C91.8275 476.811 91.3349 480.921 90.8401 485.031C90.4279 488.448 91.6245 491.79 92.3433 495.131C92.7535 497.034 93.1615 498.934 93.5717 500.835C93.6626 501.258 94.1446 501.657 94.5421 501.767C98.8994 502.962 103.242 504.218 107.614 505.353C109.861 505.939 111.103 504.573 112.665 503.294C114.961 501.41 117.253 499.524 119.549 497.643C121.2 496.285 122.853 494.928 124.506 493.571C125.02 493.15 125.722 492.165 125.086 491.511Z" fill="black"/>
<path fill-rule="evenodd" clip-rule="evenodd" d="M211.759 343.401L205.577 328.693L197.56 315.044L192.45 300.088L186.441 285.392L185.215 269.354L180.871 254.193L176.052 240.544L173.649 254.624L167.771 269.242L163.391 284.255L157.016 298.693L144.769 308.494L131.122 314.708L126.578 315.957L117.754 329.329L108.229 342.131L99.0389 355.194L88.9014 367.651L91.043 385.118L90.4088 402.611L89.6434 420.112L92.6477 437.491L90.2587 455.049L91.8951 473.166L114.648 470.677L114.813 454.273L116.842 437.121L118.17 419.941L117.563 402.666L119.39 386.131L130.855 396.269L143.454 406.108L145.454 422.867L146.443 439.679L146.217 456.569L148.139 472.589L158.037 473.72L160.46 489.802L161.272 506.75L163.644 523.553L165.748 540.395L165.716 558.291L179.386 552.12L193.118 548.803L194.264 532.481L193.184 516.23L193.549 500.052L194.602 483.893L196.636 467.83L197.522 484.931L200.543 501.866L200.858 519.08L204.131 535.989L206.002 553.05L207.865 569.012L221.575 565.735L234.795 559.748L238.019 543.839L236.4 526.925L238.427 510.192L240.286 493.443L238.81 476.527L240.484 459.77L240.277 442.91L241.618 426.151L241.459 408.068L237.203 390.444L232.913 372.744L224.08 356.778L211.759 343.401Z" fill="#fed601"/>
<path fill-rule="evenodd" clip-rule="evenodd" d="M238.644 435.134C238.396 438.24 237.974 441.38 237.993 444.496C238.022 449.162 238.109 453.83 238.164 458.496C238.183 459.923 238.21 460.046 238.107 461.08C237.878 463.289 237.665 465.498 237.443 467.708C237.117 470.961 236.439 474.365 236.555 477.636C236.711 482.124 237.341 486.644 237.733 491.12C238.005 494.238 237.726 496.285 237.331 499.833C236.931 503.463 236.546 507.097 236.121 510.721C235.601 515.163 235.048 519.6 234.508 524.038C234.155 526.947 234.272 529.298 234.553 532.235C234.927 536.14 235.845 540.376 235.718 544.302C235.692 544.199 235.551 545.106 235.517 545.271C235.299 546.332 235.086 547.395 234.87 548.457C234.358 550.983 233.847 553.514 233.335 556.04C233.094 557.233 232.851 558.425 232.61 559.618C228.673 561.436 221.265 564.77 219.274 565.282C217.282 565.793 216.235 566.009 214.717 566.372C213.166 566.742 211.612 567.112 210.062 567.484C208.633 554.996 207.766 542.296 205.379 529.96C204.652 526.199 203.599 522.357 203.17 518.547C202.823 515.448 203.043 512.184 202.984 509.067C202.935 506.296 203.127 503.401 202.736 500.655C202.138 496.454 201.24 492.281 200.495 488.105C199.265 481.226 199.292 474.185 198.933 467.213C198.872 466.001 195.546 463.568 195.398 464.729C194.036 475.475 191.785 489.545 191.269 500.372C191.009 505.767 190.819 511.247 190.891 516.647C190.96 521.962 191.694 527.275 191.933 532.583C191.946 532.858 191.958 533.011 191.969 532.996C191.958 533.459 191.903 533.928 191.872 534.391C191.749 536.156 191.622 537.924 191.499 539.689C191.299 542.558 191.096 545.427 190.893 548.298C186.755 549.201 182.444 549.937 178.523 551.379C174.958 552.689 171.493 554.41 168.034 556.064C168.091 550.706 168.339 545.29 168.045 539.958C167.738 534.4 166.704 528.778 165.981 523.256C165.265 517.774 164.343 512.315 163.668 506.828C162.992 501.319 163.121 495.666 162.801 490.124C162.476 484.448 161.182 478.729 160.332 473.103C160.284 472.777 159.713 472.644 159.482 472.617C156.448 472.272 153.417 471.925 150.385 471.579C149.681 465.921 148.457 460.09 148.535 454.397C148.622 447.904 148.882 441.418 148.499 434.936C148.097 428.128 147.651 421.422 146.846 414.656C146.584 412.474 146.324 410.293 146.066 408.111C145.966 407.274 146.063 405.975 145.588 405.252C145.013 404.381 143.44 403.576 142.634 402.946L137.283 398.764C131.829 394.504 126.723 389.872 121.537 385.286C120.716 384.563 117.245 385.214 117.105 386.474C116.501 391.958 115.556 397.504 115.281 403.009C114.993 408.77 115.877 414.608 115.867 420.379C115.864 420.525 115.869 420.506 115.871 420.458C115.869 420.487 115.869 420.485 115.869 420.54C115.852 420.963 115.803 421.388 115.769 421.811C115.621 423.728 115.473 425.646 115.325 427.563C115.08 430.754 114.879 433.952 114.587 437.139C114.072 442.752 113.186 448.329 112.611 453.936C112.074 459.183 112.342 464.6 112.344 469.898C106.272 470.56 100.198 471.226 94.1264 471.887C93.5872 466.196 92.7669 460.445 92.583 454.739C92.5788 454.553 92.5936 454.321 92.6993 453.545C92.9403 451.773 93.1834 450.001 93.4223 448.227C93.8853 444.834 94.3801 441.445 94.8092 438.048C95.0334 436.276 94.5492 434.578 94.2448 432.817C93.5957 429.069 92.9466 425.32 92.3018 421.572C91.3906 416.314 92.3272 410.648 92.5598 405.343C92.8008 399.806 92.9868 394.267 93.1877 388.73C93.3843 383.297 92.5555 378.091 91.8917 372.683C91.7014 371.138 91.6528 369.489 91.3124 367.964C91.2701 367.776 91.2405 367.544 91.2236 367.324C91.2764 367.241 91.3526 367.138 91.4857 367.015C94.0207 364.563 96.0989 361.345 98.323 358.611C101.797 354.345 104.881 349.837 108.048 345.336C111.628 340.25 115.389 335.292 119.101 330.3C122.414 325.848 125.313 321.057 128.355 316.414C134.266 314.624 139.869 312.046 145.436 309.327C148.176 307.987 150.531 305.558 152.901 303.661C154.911 302.05 158.083 300.351 159.412 298.095C161.379 294.763 162.645 290.773 164.205 287.234C165.184 285.021 165.945 282.989 166.622 280.668C168.58 273.955 170.584 267.581 173.186 261.103C174.349 258.211 175.734 255.433 176.26 252.359C176.413 251.454 176.569 250.547 176.721 249.64C177.998 253.359 179.227 257.09 180.315 260.883C181.21 264.006 182.544 267.268 182.958 270.496C183.535 274.976 183.652 279.56 183.996 284.061C184.22 286.983 185.55 289.446 186.662 292.16C187.903 295.205 189.263 298.226 190.364 301.321C191.872 305.562 193.275 309.845 194.73 314.101C195.73 317.029 197.576 319.598 199.138 322.256C200.916 325.281 202.815 328.197 204.174 331.429C205.937 335.626 207.698 339.82 209.462 344.017C209.468 344.032 209.483 344.036 209.491 344.047C209.512 344.116 209.55 344.182 209.612 344.245C212.305 347.171 215.001 350.097 217.696 353.023C218.997 354.438 220.373 355.808 221.614 357.273C221.83 357.529 221.844 357.527 221.836 357.51C221.847 357.525 221.868 357.563 221.933 357.662C222.322 358.258 222.631 358.928 222.978 359.55C225.291 363.73 227.603 367.912 229.914 372.089C231.312 374.616 231.654 377.643 232.331 380.432C234.202 388.149 236.067 395.861 237.929 403.578C238.604 406.371 239.162 408.669 239.185 411.51L239.31 425.614C239.322 426.883 239.327 426.601 239.21 428.039C239.022 430.403 238.834 432.769 238.644 435.134ZM243.828 415.453C243.796 411.912 244.012 408.506 243.181 405.071C241.978 400.087 240.777 395.106 239.574 390.125C238.593 386.07 237.608 382.02 236.625 377.969C236.172 376.096 235.904 374.013 235.229 372.206C234.781 371 233.946 369.84 233.322 368.715C231.047 364.599 229.052 360.045 226.386 356.172C223.912 352.584 220.265 349.459 217.314 346.256C216.21 345.059 215.109 343.863 214.005 342.666C211.402 336.457 209.09 330.142 205.677 324.332C203.766 321.082 201.411 317.839 199.851 314.406C198.14 310.645 197.117 306.404 195.781 302.494C194.878 299.85 193.859 297.296 192.802 294.708C191.489 291.499 189.461 288.019 188.73 284.634C187.852 280.583 188.068 275.987 187.751 271.856C187.521 268.837 186.827 266.34 185.984 263.401C183.704 255.45 181.104 247.731 178.351 239.927C177.897 238.642 173.969 239.743 173.77 240.887C172.99 245.456 172.584 250.274 171.402 254.752C170.269 259.042 168.026 263.27 166.37 267.393C164.816 271.257 163.818 275.317 162.649 279.312C161.535 283.137 160.271 286.498 158.66 290.145C157.499 292.776 156.133 295.395 155.15 298.095C155.07 298.313 154.964 298.518 154.869 298.731C154.131 299.253 153.442 299.881 152.74 300.442C150.364 302.342 147.99 304.243 145.613 306.146C144.877 306.733 143.956 307.294 143.313 307.987C143.283 308.017 143.285 308.025 143.262 308.051C143.235 308.063 143.226 308.065 143.192 308.078C140.584 309.19 138.023 310.431 135.442 311.607C134.232 312.156 133.021 312.708 131.812 313.258C131.438 313.429 131.061 313.59 130.691 313.767C130.602 313.812 130.552 313.837 130.503 313.862C128.615 314.412 125.742 314.628 124.389 316.129C122.922 317.759 121.833 320.002 120.63 321.829C115.96 328.905 110.871 335.581 105.924 342.465C102.951 346.603 100.156 350.878 97.1243 354.971C94.4562 358.575 91.4604 361.967 88.6295 365.444C87.8303 366.423 86.7288 367.328 86.6421 368.584C86.4836 370.91 87.2637 373.645 87.547 375.954C88.0248 379.857 88.8176 383.791 88.6739 387.728C88.3166 397.542 87.9297 407.354 87.5026 417.164C87.3356 421.001 87.9699 424.329 88.6274 428.145L90.1031 436.673C90.3695 438.204 90.342 438.018 90.1031 439.762C89.4096 444.857 88.268 450.084 88.0016 455.217C87.7732 459.555 88.7331 464.206 89.1242 468.532C89.2806 470.281 89.4392 472.031 89.5978 473.782C89.6591 474.45 91.1792 474.276 91.5259 474.238C99.1116 473.41 106.697 472.579 114.281 471.752C115.093 471.663 116.934 471.139 116.947 470.063C116.974 467.242 117.002 464.42 117.029 461.6C117.048 459.841 117.067 458.082 117.082 456.321C117.091 455.678 117.093 455.035 117.103 454.392C117.108 454.13 117.137 453.445 117.103 453.851C117.547 448.151 118.568 442.49 119.125 436.8C119.676 431.166 120.226 425.441 120.437 419.785C120.651 414.14 120.072 408.386 119.886 402.739C119.858 401.91 119.854 402.259 119.981 401.1C120.184 399.267 120.387 397.432 120.59 395.597C120.776 393.895 120.964 392.189 121.152 390.483C124.165 393.204 127.188 395.925 130.378 398.417C133.645 400.967 136.907 403.517 140.173 406.066C141.226 406.891 141.123 406.531 141.243 407.445C141.486 409.303 141.687 411.168 141.909 413.026C142.706 419.692 143.319 426.238 143.713 432.936C144.112 439.671 144.068 446.287 143.975 453.037C143.884 459.807 145.034 466.488 145.841 473.204C145.88 473.53 146.472 473.665 146.691 473.691L155.804 474.731C156.603 479.947 157.656 485.192 158.165 490.439C158.708 496.055 158.446 501.748 158.975 507.365C160.03 518.547 162.675 529.609 163.427 540.829C163.829 546.799 163.429 552.918 163.417 558.905C163.417 559.926 166.284 559.165 166.571 559.036C171.106 556.99 178.103 554.7 178.103 554.7C178.103 554.7 187.751 553.214 193.64 553.214C194.112 553.214 195.354 549.144 195.398 548.461C195.779 543.059 196.438 537.605 196.542 532.192C196.648 526.793 195.683 521.347 195.502 515.947C195.218 507.372 195.658 499.477 196.284 491.247C197.261 496.323 198.227 501.389 198.322 506.562C198.396 510.755 198.265 515.01 198.552 519.192C198.736 521.924 199.525 524.689 200.047 527.374C201.411 534.427 202.347 541.302 203.134 548.45C203.91 555.514 204.743 562.571 205.567 569.628C205.669 570.489 207.745 570.045 208.117 569.956C212.498 568.909 216.908 567.95 221.265 566.812C225.318 565.755 229.225 563.402 233.028 561.681C234.202 561.15 236.489 560.525 237.096 559.322C237.933 557.668 237.967 555.019 238.335 553.214C239.039 549.734 240.557 545.732 240.215 542.152C239.728 537.072 239.145 531.994 238.756 526.907C238.699 526.156 238.694 526.723 238.724 526.254C238.781 525.287 238.959 524.313 239.075 523.353C239.426 520.454 239.777 517.558 240.128 514.659C240.557 511.125 240.961 507.592 241.354 504.053C241.783 500.188 242.754 496.023 242.521 492.129C242.221 487.042 241.735 481.915 241.189 476.849C240.859 473.801 241.857 468.522 242.238 464.729C242.585 461.261 242.769 458.029 242.724 454.547C242.688 451.547 242.652 448.547 242.614 445.549C242.604 444.635 242.578 443.72 242.58 442.805C242.585 442.065 242.551 442.817 242.608 441.953C242.952 436.891 243.426 431.832 243.823 426.771C244.115 423.024 243.859 419.206 243.828 415.453Z" fill="black"/>
<path fill-rule="evenodd" clip-rule="evenodd" d="M129.84 13.615L138.134 28.3593L144.405 43.962L150.756 59.5393L158.868 74.2773L166.069 89.4572L174.955 103.787L181.462 119.973L185.53 136.842L188.528 153.86L189.762 171.094L189.443 188.369L186.688 205.406L185.145 222.793L177.227 238.34L169.657 253.732L158.604 266.892L144.03 276.594L126.572 276.203L111.478 270.635L98.6093 261.33L88.7508 248.719L80.5837 234.571L77.607 218.459L74.3955 202.492L71.8395 186.274L73.1376 169.896L65.6956 151.352L58.501 132.773L49.2451 113.682L40.2197 97.9562L33.6763 81.1188L24.5007 65.588L16.7776 49.3341L10.2236 32.5771L3.08398 16.6869L16.4541 9.15402L32.061 5.15609L48.5094 3.7417L64.5413 7.86436L80.8121 9.96375L97.1103 11.9236L113.383 14.116L129.84 13.615Z" fill="#a8fd00"/>
<path fill-rule="evenodd" clip-rule="evenodd" d="M186.417 187.222C186.381 189.152 186.383 189.114 186.064 191.083C185.546 194.296 185.026 197.508 184.506 200.721C183.819 204.948 183.371 209.096 182.992 213.362C182.724 216.381 182.457 219.402 182.189 222.419C182.159 222.734 182.18 223.125 182.098 223.434C181.986 223.857 182.197 223.066 182.039 223.476C181.69 224.377 181.136 225.248 180.698 226.108C175.992 235.347 171.622 244.804 166.774 253.965C166.707 254.094 166.685 254.143 166.683 254.162C166.569 254.301 166.455 254.439 166.341 254.567C165.487 255.565 164.652 256.582 163.808 257.584C161.7 260.096 159.592 262.604 157.484 265.113C157.009 265.678 156.546 266.267 156.051 266.819C156.188 266.599 155.066 267.547 154.73 267.771C152.087 269.53 149.446 271.291 146.804 273.05C145.715 273.773 144.628 274.496 143.539 275.221C138.744 275.05 133.909 274.754 129.137 274.923C128.947 274.931 128.858 274.946 128.806 274.963C128.757 274.917 128.636 274.845 128.376 274.728C126.958 274.086 125.414 273.635 123.956 273.096C120.869 271.957 117.789 270.785 114.691 269.68C114.325 269.547 114.218 269.523 114.192 269.521C114.216 269.521 114.249 269.498 113.936 269.272C112.755 268.413 111.571 267.559 110.387 266.703C107.689 264.754 104.964 262.838 102.294 260.851C100.949 259.851 100.063 258.445 99.0293 257.124C96.8919 254.39 94.7566 251.656 92.617 248.921C90.0313 245.614 87.2808 240.047 84.7797 235.713C82.3146 231.443 82.1919 225.872 81.3061 221.075C79.4837 211.21 77.4202 201.427 75.8578 191.512C75.5386 189.489 74.9466 187.315 74.9191 185.26C74.8747 182.37 75.3843 179.362 75.6126 176.482C75.7902 174.252 76.5703 171.292 76.1982 169.074C75.8642 167.055 74.49 164.808 73.7289 162.92C69.6421 152.731 65.9613 142.313 61.6653 132.215C57.8957 123.357 53.3629 114.699 48.5743 106.352C46.0964 102.037 43.6038 97.9591 41.8067 93.3333C40.0224 88.7434 38.6651 83.5615 36.1534 79.3077C33.2993 74.4768 30.1956 69.722 27.5614 64.7664C24.9355 59.8234 22.7347 54.6056 20.333 49.5485C18.1871 45.0262 16.5887 40.1995 14.7663 35.5399C13.0221 31.0831 11.039 26.7554 9.07702 22.3875C8.16581 20.36 7.25671 18.3346 6.34549 16.3071C10.0326 14.231 13.7177 12.1527 17.4069 10.0766C18.0581 9.91591 19.0116 9.57341 19.1659 9.53535C22.0264 8.80173 24.8869 8.07022 27.7453 7.3366C28.8574 7.05118 29.9673 6.76788 31.0772 6.48458C31.1512 6.46555 31.2252 6.4423 31.2992 6.42538C33.369 6.48881 35.627 6.01946 37.6651 5.84398C40.4177 5.60931 43.1725 5.37041 45.9294 5.13362C45.9865 5.12939 46.0499 5.12939 46.1133 5.12516C46.0837 5.08499 46.0541 5.04059 46.0541 4.97294C46.0541 5.00042 46.2085 5.05116 46.4262 5.10825C46.5742 5.1019 46.7243 5.09133 46.8597 5.05539C47.3142 4.93065 47.088 5.09979 46.7561 5.19493C47.3544 5.34292 48.126 5.50571 48.2233 5.53108C52.8005 6.70657 57.3946 8.18227 62.0311 9.0808C66.678 9.97933 71.5005 10.3113 76.194 10.9159C83.5894 11.8736 91.0039 12.658 98.393 13.6538C103.097 14.288 108.053 15.51 112.807 15.379C117.558 15.2479 122.311 15.0914 127.063 14.9456C129.535 19.3388 132.006 23.7342 134.48 28.1296C136.721 32.117 138.097 36.7132 139.801 40.9479C143.066 49.0728 146.032 57.3456 150.258 65.0222C152.438 68.9778 154.753 72.8806 156.69 76.9631C158.808 81.4283 160.692 86.126 163.104 90.4389C165.759 95.1832 169.144 99.5363 171.717 104.327C173.954 108.498 175.387 113.304 177.155 117.697C178.793 121.769 179.645 125.966 180.677 130.239C181.677 134.397 182.609 138.484 183.354 142.693C185.064 152.41 186.421 161.996 186.698 171.896C186.838 176.985 186.51 182.131 186.417 187.222ZM18.352 9.54804C18.6141 9.4085 18.7114 9.3493 18.352 9.54804V9.54804ZM192.426 164.702C191.724 154.873 190.624 145.283 188.497 135.632C187.307 130.23 186.214 124.608 184.567 119.329C183.015 114.344 180.645 109.494 178.696 104.648C176.88 100.139 173.747 96.0796 171.193 91.959C168.65 87.8554 166.713 83.534 164.639 79.1682C160.569 70.5867 155.394 62.5824 151.81 53.7895C150.004 49.3666 148.193 44.9459 146.412 40.5124C144.582 35.9606 143.093 31.0303 140.738 26.7216C138.184 22.0492 135.514 17.4361 132.901 12.7954C132.588 12.2352 131.639 12.1675 130.577 12.3493L116.615 12.7764C116.148 12.7891 115.67 12.8208 115.197 12.8293C115.123 12.7827 114.089 12.6559 113.797 12.6157C110.835 12.2161 107.875 11.8166 104.913 11.417C97.2217 10.3789 89.507 9.53747 81.8093 8.54803C76.8874 7.91377 71.9001 7.46134 67.0036 6.64315C67.0079 6.63892 66.9909 6.63258 66.9148 6.61143C66.64 6.54378 66.363 6.47613 66.0903 6.40213C64.9803 6.09134 63.8556 5.82707 62.7414 5.53954C59.7012 4.75729 56.661 3.97504 53.6187 3.19279C52.2085 2.83127 50.9506 2.42534 49.4855 2.48666C47.033 2.59237 44.5679 2.90949 42.1218 3.12091C38.0139 3.47398 33.8997 3.60929 29.8996 4.63467L20.0814 7.14844C18.0221 7.67698 15.9058 8.06388 14.0179 9.06601C9.53368 11.455 5.1552 14.0618 0.728096 16.5545C0.552619 16.6538 -0.130264 17.1655 0.0219579 17.508C4.3201 27.0768 8.41317 36.6033 12.2356 46.3729C15.5041 54.7282 19.4091 62.9778 23.9736 70.703C26.3838 74.7813 29.4092 78.8469 31.1322 83.2761C33.1217 88.3966 34.7898 93.809 37.1513 98.7667C39.4811 103.653 42.6144 108.287 45.3078 112.983C47.57 116.925 49.3946 121.131 51.3777 125.219C55.6526 134.042 59.0458 143.065 62.6399 152.19C64.7562 157.562 66.9381 162.905 69.0882 168.262C69.6633 169.696 70.0925 170.486 69.9741 171.979C69.7098 175.309 69.4455 178.641 69.1833 181.973C69.0396 183.755 68.7056 185.641 68.8282 187.427C69.0248 190.267 69.7352 193.169 70.1791 195.981C70.9212 200.696 71.7436 205.347 72.6844 210.028C73.6253 214.707 74.564 219.385 75.4308 224.079C76.0418 227.385 76.6528 230.692 77.2638 233.999C77.5576 235.593 78.2236 236.612 79.0481 238.041C81.4921 242.276 83.6423 246.931 86.6571 250.789C88.6677 253.358 90.6762 255.927 92.6825 258.496C93.7798 259.897 94.784 261.551 96.1498 262.694C98.4226 264.597 101.012 266.21 103.414 267.948C105.203 269.24 106.993 270.889 108.981 271.855C111.194 272.936 113.714 273.602 116.025 274.456C118.592 275.403 121.222 276.682 123.879 277.352C125.717 277.817 127.873 277.568 129.755 277.612C133.133 277.686 136.514 277.762 139.892 277.838C142.364 277.893 144.599 277.84 146.795 276.454C149.271 274.891 151.673 273.206 154.11 271.582C156.334 270.103 158.738 268.741 160.848 267.096C162.372 265.912 163.527 264.141 164.764 262.669C167.829 259.018 171.54 255.534 173.656 251.229C175.927 246.614 178.159 241.975 180.474 237.381C181.789 234.774 183.123 232.178 184.449 229.576C185.618 227.28 187.322 224.844 188.113 222.387C188.652 220.709 188.51 218.58 188.662 216.833C188.963 213.468 189.263 210.104 189.559 206.738C189.741 204.704 189.777 204.489 190.13 202.317C190.679 198.914 191.229 195.512 191.781 192.11C193.233 183.127 193.073 173.765 192.426 164.702Z" fill="black"/>
<path fill-rule="evenodd" clip-rule="evenodd" d="M46.7565 5.19576C46.636 5.16616 46.526 5.13868 46.4266 5.10908C46.3188 5.11542 46.2152 5.12176 46.1116 5.12599C46.2279 5.28667 46.5133 5.26553 46.7565 5.19576Z" fill="black"/>
<path fill-rule="evenodd" clip-rule="evenodd" d="M64.2399 108.252L66.2463 107.218C67.0983 106.781 67.9926 105.721 67.3097 104.764C66.6438 103.829 51.5442 107.543 46.7662 110.004C46.096 110.348 48.4977 112.445 47.8296 112.787C46.9776 113.225 46.0833 114.284 46.7662 115.242C47.4321 116.178 48.9945 116.1 49.8994 115.633C54.6796 113.172 59.4576 110.713 64.2399 108.252Z" fill="black"/>
<path fill-rule="evenodd" clip-rule="evenodd" d="M74.4538 130.808C75.1938 130.602 75.9316 130.395 76.6716 130.186C77.3122 130.008 78.8978 129.44 78.6843 128.512C78.4729 127.609 76.642 127.917 76.1029 128.068C70.9337 129.516 63.2337 130.186 58.3754 130.186C57.4053 130.186 59.1154 132.822 58.3754 133.03C57.7369 133.209 56.1471 133.78 56.3627 134.704C56.572 135.609 58.405 135.298 58.9441 135.148C64.1133 133.702 69.2846 132.256 74.4538 130.808Z" fill="black"/>
<path fill-rule="evenodd" clip-rule="evenodd" d="M215.039 3.83716L204.889 17.4229L196.555 31.5203L190.113 46.5797L184.532 61.9012L178.523 76.9901L174.4 92.7028L169.364 108.297L168.508 124.633L166.671 140.921L169.358 158.262L167.81 175.752L169.269 193.15L173.047 210.222L176.887 227.112L181.36 243.973L191.984 257.717L204.054 270.212L220.574 275.848L238.162 278.713L254.964 272.76L267.547 260.633L278.175 246.389L279.795 228.947L277.714 212.852L276.069 196.651L274.313 180.477L273.239 164.171L276.133 150.807L273.433 137.302L286.702 129.676L291.922 115.917L287.867 102.686L297.465 93.4195L301.372 80.0346L304.482 64.9224L312.782 51.3894L322.795 39.0278L330.668 25.2539L338.692 12.4969L325.343 5.96403L310.019 1.85828L294.089 1.70605L278.323 3.82024L262.655 6.53486L246.858 8.60465L230.817 9.23679L215.039 3.83716Z" fill="#a8fd00"/>
<path fill-rule="evenodd" clip-rule="evenodd" d="M319.966 39.0238C317.923 42.0217 315.325 44.7575 313.042 47.5778C308.784 52.8379 305.025 58.673 301.824 64.6393C300.331 67.4237 300.19 71.3624 299.557 74.4343C298.982 77.2356 298.452 80.0031 297.653 82.743C296.896 85.335 296.139 87.927 295.38 90.519C295.128 91.3816 294.667 92.3711 294.581 93.2675C294.572 93.3499 294.581 93.388 294.585 93.4472C291.314 96.0434 288.443 99.3817 285.437 102.282C285.149 102.564 284.655 103.022 284.805 103.506C285.479 105.712 286.156 107.917 286.832 110.122L288.225 114.669C288.378 115.168 288.534 115.667 288.684 116.168C288.762 116.424 288.777 116.661 288.803 116.636C288.452 118.855 286.946 121.405 286.166 123.464C285.414 125.45 284.659 127.437 283.906 129.424C279.792 131.786 275.68 134.15 271.566 136.515C271.033 136.82 270.225 137.391 270.369 138.12C270.921 140.875 271.473 143.63 272.022 146.384C272.314 147.847 272.532 149.361 272.906 150.805C272.95 150.974 272.984 151.167 273.016 151.353C272.959 151.429 272.876 152.177 272.834 152.365C271.743 157.406 270.012 162.463 270.35 167.636C271.043 178.148 272.103 188.548 273.166 199.028C273.692 204.228 274.111 209.453 274.775 214.639C275.215 218.085 275.667 221.529 276.111 224.973C276.287 226.326 276.403 227.702 276.638 229.047C276.824 230.1 276.779 229.036 276.68 230.062C276.348 233.427 276.052 236.798 275.739 240.163C275.591 241.776 275.441 243.385 275.293 244.996C275.251 245.432 275.172 245.884 275.168 246.322C275.168 246.487 275.175 246.574 275.183 246.628C273.98 248.986 271.758 251.201 270.185 253.307C268.396 255.705 266.608 258.1 264.819 260.495C264.798 260.527 264.794 260.536 264.783 260.552C264.382 260.954 263.965 261.339 263.557 261.73C262.231 263.011 260.906 264.288 259.58 265.567C258.031 267.058 256.487 268.548 254.942 270.037C254.777 270.195 253.307 271.377 252.762 272.003C252.318 272.153 251.876 272.314 251.436 272.47C249.504 273.157 247.57 273.842 245.635 274.525C243.367 275.331 241.098 276.134 238.827 276.94C233.616 276.062 228.392 275.035 223.151 274.394C222.929 274.367 222.817 274.362 222.747 274.362C222.675 274.329 222.569 274.284 222.375 274.214C220.979 273.705 219.559 273.25 218.151 272.772C214.844 271.646 211.535 270.515 208.229 269.386C207.762 269.227 207.267 269.098 206.812 268.904C206.762 268.882 206.759 268.885 206.73 268.872C205.96 268.231 205.286 267.371 204.599 266.66C202.115 264.087 199.63 261.517 197.146 258.946C193.647 255.322 190.732 251.242 187.651 247.258C186.749 246.089 185.848 244.922 184.943 243.753C184.761 243.518 184.531 243.277 184.37 243.017C184.374 242.982 184.358 242.893 184.298 242.679C183.482 239.698 182.713 236.7 181.92 233.713C180.653 228.935 179.47 224.178 178.374 219.36C177.273 214.516 176.169 209.672 175.097 204.823C173.996 199.854 172.548 194.884 172.123 189.803C171.823 186.247 171.524 182.691 171.226 179.137C171.123 177.898 171.006 176.659 170.916 175.418C170.905 175.287 170.896 175.122 170.89 175.036C170.909 174.733 170.943 174.429 170.97 174.131C171.266 170.752 171.569 167.374 171.867 163.998C172.055 161.843 172.524 159.526 172.406 157.359C172.099 151.634 170.214 145.995 169.763 140.279C169.761 140.247 169.761 140.236 169.757 140.219C169.776 139.892 169.831 139.566 169.867 139.245C170.057 137.549 170.25 135.854 170.442 134.16C170.797 130.985 171.216 127.813 171.516 124.636C172.006 119.395 172.028 114.105 172.368 108.855C172.484 107.06 173.22 105.392 173.772 103.684C174.839 100.382 175.905 97.0794 176.973 93.7791C178.565 88.8509 179.692 83.7557 181.004 78.7451C182.305 73.7831 184.563 69.0621 186.459 64.301C190.271 54.7322 193.637 45.0619 197.69 35.5819C198.231 34.3155 198.81 33.0554 199.318 31.7721C199.453 31.4317 199.489 31.3155 199.493 31.2774C199.525 31.2478 199.605 31.1357 199.823 30.7763C201.584 27.8862 203.269 24.9475 204.992 22.0342C207.592 17.6367 210.508 13.6895 213.571 9.58584C214.364 8.52452 215.157 7.4632 215.952 6.40188C219.267 7.53508 222.582 8.66828 225.895 9.8036C227.25 10.2666 228.502 10.7973 229.935 10.8374C232.305 10.9093 234.726 10.6493 237.092 10.5563C245.544 10.2243 253.823 9.37019 262.2 8.09534C270.58 6.82049 278.879 5.24542 287.282 4.11855C289.177 3.86274 291.069 3.60481 292.963 3.35533C292.754 3.38916 293.433 3.31939 293.86 3.33208C295.086 3.3659 296.319 3.35322 297.545 3.3659C300.464 3.3955 303.384 3.42087 306.304 3.44836C306.963 3.45681 307.629 3.44836 308.293 3.4695C308.593 3.56252 308.904 3.63229 309.211 3.71475C312.139 4.49911 315.069 5.28347 317.997 6.06783L322.061 7.15876C322.35 7.23487 322.646 7.30886 322.938 7.39132C322.949 7.40189 322.97 7.41669 323.023 7.44206C327.097 9.45265 331.188 11.4379 335.272 13.4358C332.002 18.6219 328.685 23.7763 325.64 29.0998C323.769 32.3747 322.093 35.9096 319.966 39.0238ZM252.705 272.068C252.61 272.187 252.54 272.288 252.549 272.343C252.534 272.244 252.606 272.153 252.705 272.068ZM252.802 271.988C253.295 271.669 254.253 271.542 253.147 271.866C253.031 271.899 252.918 271.948 252.802 271.988ZM232.698 7.60062C232.901 7.60696 233.102 7.64925 233.193 7.79935C233.145 7.71901 232.91 7.65136 232.698 7.60062ZM328.746 5.01497C325.156 3.35322 320.932 2.71051 317.126 1.68724C315.427 1.23269 313.661 0.558266 311.923 0.293992C310.111 0.0170337 308.145 0.213653 306.323 0.194625C302.202 0.15657 297.91 -0.253582 293.807 0.245366C284.752 1.34474 275.788 2.78028 266.802 4.33632C263.289 4.9452 259.777 5.41244 256.24 5.87756C253.593 6.22429 250.942 6.54141 248.299 6.91563C248.064 6.94945 247.828 6.97482 247.593 7.00865C246.853 7.03191 246.115 7.06573 245.375 7.09533C242.117 7.2243 238.855 7.35326 235.595 7.48011C234.696 7.51605 233.5 7.37652 232.586 7.57314C232.491 7.552 232.409 7.53085 232.366 7.51394C227.493 5.62597 222.442 4.11856 217.497 2.42509C217.368 2.38069 217.227 2.37858 217.094 2.34898C216.901 2.29613 216.713 2.2623 216.531 2.24327C216.461 2.23693 216.394 2.22847 216.326 2.22636C216.305 2.22424 216.282 2.22002 216.265 2.22002C216.123 2.21579 215.956 2.24539 215.804 2.25596C215.612 2.26864 215.417 2.26441 215.225 2.29613C214.083 2.48218 212.838 2.99592 212.206 3.84371C207.525 10.1102 202.795 16.1842 198.814 22.9137C196.933 26.0955 194.721 29.2351 193.214 32.6157C191.186 37.1506 189.258 41.7405 187.347 46.3262C184.639 52.8358 182.558 59.6096 179.949 66.1636C178.444 69.9417 176.643 73.7176 175.421 77.5929C174.006 82.0792 173.023 86.7452 171.829 91.2928C170.085 97.9504 166.594 86.889 166.233 93.7791C165.759 102.83 164.979 129.287 163.962 138.291C163.581 141.691 164.025 144.429 164.554 147.845C164.996 150.687 165.436 153.528 165.875 156.37C165.994 157.141 166.131 157.911 166.233 158.683C166.254 158.854 166.271 158.917 166.283 158.94C166.275 159.008 166.264 159.101 166.252 159.275C165.884 164.306 167.113 170.393 166.671 175.418C166.38 178.723 166.864 181.994 167.141 185.294C167.445 188.898 167.435 192.666 168.217 196.205C169.303 201.114 171.034 205.163 172.123 210.072C173.611 216.799 178.167 232.692 179.935 239.35C181.182 244.052 176.495 239.757 178.171 244.322C178.55 245.347 179.262 246.111 179.935 246.984C181.599 249.134 183.262 251.288 184.924 253.438C186.941 256.047 188.867 258.605 191.153 260.973C193.085 262.973 195.017 264.973 196.952 266.975C198.279 268.35 199.578 270.123 201.108 271.28C202.068 272.005 203.434 272.25 204.561 272.633C207.299 273.57 210.036 274.502 212.774 275.436C215.88 276.496 218.696 277.417 221.92 277.942C226.624 278.707 231.39 279.798 236.134 280.257C237.992 280.436 239.631 279.73 241.345 279.126C243.885 278.225 246.426 277.324 248.967 276.422C252.214 275.274 255.942 274.563 258.47 272.126C262.138 268.589 265.826 265.073 269.477 261.517C272.052 259.007 274.018 255.749 276.164 252.876C278.113 250.263 281.073 247.648 281.382 244.313C281.849 239.284 282.38 234.254 282.783 229.216C283.069 225.664 282.041 221.808 281.587 218.294C280.616 210.791 279.917 203.269 279.124 195.744C278.265 187.569 277.363 179.444 276.821 171.241C276.665 168.856 276.564 166.461 276.35 164.078C276.337 163.928 276.329 163.776 276.32 163.623C276.327 163.598 276.331 163.594 276.342 163.522C276.479 162.587 276.745 161.655 276.946 160.731C277.534 158.012 278.124 155.291 278.714 152.568C278.997 151.253 279.24 150.336 279.003 149.027C278.297 145.107 277.456 141.209 276.665 137.304C278.946 135.995 281.225 134.684 283.504 133.374C285.433 132.266 288.824 131.071 289.86 128.978C291.473 125.722 292.494 122.031 293.786 118.633C294.135 117.707 294.87 116.5 294.97 115.504C295.063 114.587 294.498 113.502 294.234 112.644C293.179 109.208 292.126 105.773 291.073 102.339C293.648 99.8532 296.223 97.3669 298.798 94.8827C299.576 94.1301 300.261 93.5381 300.659 92.5233C301.397 90.6163 301.826 88.519 302.399 86.557C303.23 83.7071 304.164 80.8826 304.763 77.9734C305.625 73.7768 306.989 69.4173 307.399 65.1551C307.418 64.9733 307.465 64.7682 307.515 64.5906C307.519 64.578 307.517 64.578 307.517 64.5716C307.782 64.0748 308.124 63.5927 308.418 63.1192C309.613 61.1699 310.807 59.2185 312.006 57.2692C313.486 54.859 314.835 52.3495 316.617 50.1486C319.382 46.7342 322.15 43.3177 324.913 39.9012C326.693 37.7066 327.911 35.028 329.308 32.5819C333.209 25.7636 337.344 19.1399 341.526 12.4907C341.905 11.884 341.807 11.4083 341.15 11.0848C337.019 9.06153 332.919 6.94945 328.746 5.01497Z" fill="black"/>
<path fill-rule="evenodd" clip-rule="evenodd" d="M283.758 102.721C284.354 103.009 284.954 103.296 285.55 103.586C286.487 104.038 287.948 103.586 288.789 103.104C289.392 102.759 296.39 100.146 294.959 100.146C289.95 100.146 275.565 94.9115 274.969 94.6261C274.032 94.1736 272.569 94.624 271.73 95.106C271.127 95.4506 270.32 96.2413 271.273 96.7022C275.436 98.7086 279.597 100.715 283.758 102.721Z" fill="black"/>
<path fill-rule="evenodd" clip-rule="evenodd" d="M270.835 140.097C271.587 140.251 272.102 138.52 272.855 138.674C273.882 138.884 275.293 138.435 276.102 137.803C276.868 137.209 276.635 136.668 275.749 136.488C270.464 135.408 265.178 134.328 259.891 133.251C259.138 133.095 258.387 132.943 257.633 132.788C256.607 132.579 255.195 133.027 254.383 133.659C253.62 134.254 253.853 134.795 254.736 134.974C260.022 136.055 265.549 139.019 270.835 140.097Z" fill="black"/>
<path fill-rule="evenodd" clip-rule="evenodd" d="M125.13 212.832C123.674 207.145 122.154 201.151 119.42 195.937C117.686 192.631 116.173 189.007 114.143 185.874C112.811 183.817 110.24 182.237 108.399 180.652C106.327 178.869 104.215 176.432 101.767 175.178C98.553 173.531 94.9906 172.354 91.6565 170.965C88.9715 169.846 87.018 169.36 84.1216 169.043L73.0221 167.823C70.6775 167.567 68.373 170.96 71.4682 171.299C74.5253 171.637 77.5866 171.973 80.6459 172.309C82.2463 172.485 83.8594 172.732 85.4641 172.838C85.629 172.848 85.9398 172.92 86.092 172.95C86.352 173.055 86.61 173.163 86.8637 173.269C90.3753 174.732 93.8849 176.195 97.3944 177.658C97.9251 177.88 98.4811 178.075 98.997 178.326C99.0055 178.33 99.0076 178.33 99.0139 178.335C99.0287 178.347 99.0329 178.351 99.0583 178.373C100.251 179.311 101.373 180.366 102.523 181.356C104.847 183.36 107.779 185.278 109.809 187.601C109.79 187.61 109.866 187.758 109.995 188.03C110.268 188.61 110.593 189.172 110.891 189.738C111.887 191.643 112.887 193.546 113.885 195.447C114.614 196.842 115.344 198.235 116.075 199.627C116.19 199.84 116.306 200.062 116.418 200.28C116.439 200.407 116.644 201.03 116.682 201.17C117.661 204.853 118.868 208.485 119.961 212.136C120.152 212.775 120.306 213.439 120.534 214.064C120.631 214.322 120.695 214.671 120.72 214.726C120.771 216.092 120.543 217.546 120.467 218.897C120.287 222.079 120.109 225.259 119.93 228.439C116.748 229.792 113.564 231.145 110.382 232.5C109.746 232.771 108.993 233.007 108.359 233.346C106.418 233.301 104.329 233.718 102.407 233.891C95.2908 234.528 88.388 235.75 81.3457 236.995C78.4196 237.513 79.3668 240.809 82.2315 240.301L93.8088 238.251C94.238 238.177 94.6693 238.098 95.1006 238.024C95.2676 238.018 95.942 237.953 96.145 237.934C98.5424 237.718 100.938 237.504 103.333 237.289C105.041 237.139 106.813 237.107 108.507 236.828C109.82 236.612 111.046 235.961 112.268 235.441C115.925 233.887 119.585 232.331 123.24 230.775C123.837 230.521 124.498 229.878 124.536 229.189C124.714 226.067 124.887 222.944 125.065 219.821C125.19 217.551 125.701 215.054 125.13 212.832Z" fill="black"/>
<path fill-rule="evenodd" clip-rule="evenodd" d="M282.758 232.192C282.168 231.741 280.106 232.566 279.553 232.809C275.168 234.731 270.783 236.653 266.398 238.577C266.026 238.739 265.622 238.892 265.225 239.057C265.191 239.061 265.159 239.069 265.125 239.073C262.33 239.486 259.535 239.898 256.736 240.31C254.819 240.594 252.869 240.811 250.958 241.154V241.152C250.719 240.961 250.041 240.881 249.762 240.799C248.535 240.435 247.309 240.076 246.085 239.714C243.146 238.845 240.21 237.976 237.269 237.107C235.523 236.591 235.692 236.649 234.193 235.739C231.67 234.207 229.148 232.674 226.624 231.141C225.425 230.412 222.256 229.097 221.634 228.135C221.026 227.188 221.009 223.894 220.795 222.547C220.328 219.579 219.856 216.61 219.389 213.642C218.784 209.819 219.45 206.025 219.768 202.172C219.973 199.68 219.996 197.088 220.391 194.618C220.524 193.775 221.296 192.191 221.814 190.974C223.138 187.864 224.461 184.756 225.787 181.646C226.368 180.276 226.806 178.942 227.721 177.781C230.943 173.686 234.33 169.707 237.641 165.682C241.912 163.999 246.178 162.314 250.449 160.631C257.379 163.297 264.311 165.961 271.244 168.627C272.134 168.969 273.331 168.62 274.187 168.307C274.35 168.25 276.25 167.36 275.584 167.104C269.402 164.728 263.218 162.352 257.034 159.973C254.654 159.058 253.172 158.189 250.59 159.079C247.332 160.202 244.148 161.618 240.943 162.885C238.742 163.751 235.229 164.466 233.459 166.13C231.252 168.202 229.453 171.011 227.535 173.348C225.926 175.31 223.825 177.293 222.546 179.491C220.865 182.377 219.827 185.872 218.52 188.944C217.622 191.054 216.245 193.341 215.816 195.602C215.18 198.961 215.237 202.606 214.958 206.01C214.77 208.291 214.298 210.72 214.499 213.001C214.823 216.678 215.664 220.378 216.239 224.023C216.531 225.868 216.286 228.824 217.854 229.972C220.873 232.177 224.362 233.923 227.556 235.864C229.374 236.972 230.966 238.067 232.996 238.668C236.835 239.803 240.677 240.936 244.516 242.071C246.707 242.718 248.026 243.002 250.269 242.672L262.21 240.913C268.379 240.004 273.927 236.885 279.61 234.395C280.462 234.021 281.312 233.646 282.164 233.276C282.868 232.966 283.39 232.676 282.758 232.192Z" fill="black"/>
<path fill-rule="evenodd" clip-rule="evenodd" d="M91.4725 172.999C88.686 176.933 85.8974 180.872 83.1109 184.806C79.1616 187.178 75.2102 189.551 71.2587 191.923C70.4892 192.386 69.4553 193.303 70.1699 194.274C70.8042 195.134 72.4511 195.107 73.2862 194.606C77.0114 192.369 80.7366 190.132 84.4597 187.897C84.9312 187.612 85.4069 187.329 85.8783 187.045C86.6416 186.586 86.9143 186.195 87.39 185.523C88.834 183.485 90.278 181.445 91.7198 179.409C92.9186 177.715 94.1152 176.026 95.3118 174.335C96.9926 171.958 92.6818 171.288 91.4725 172.999Z" fill="black"/>
<path fill-rule="evenodd" clip-rule="evenodd" d="M276.58 173.903C276.33 172.969 274.586 173.303 273.992 173.432C269.751 174.373 265.506 175.313 261.26 176.254C259.159 175.844 257.057 175.436 254.954 175.024C253.415 174.726 251.873 174.425 250.332 174.123C249.776 174.017 249.218 173.876 248.658 173.798C248.611 173.791 248.518 173.774 248.417 173.762C248.341 173.719 248.26 173.677 248.199 173.631C247.74 173.294 247.254 172.992 246.782 172.675C245.482 171.798 244.182 170.92 242.882 170.041L237.021 166.089C236.146 165.495 234.924 165.694 233.992 166.087C233.63 166.239 231.884 167.271 232.746 167.852C235.288 169.567 237.827 171.282 240.368 172.996C242.231 174.252 243.981 175.846 246.21 176.28C249.861 176.992 253.514 177.705 257.163 178.415C258.451 178.667 259.453 178.91 260.776 178.662C261.859 178.459 262.933 178.185 264.007 177.946C267.529 177.165 271.051 176.385 274.573 175.605C275.214 175.461 276.823 174.808 276.58 173.903Z" fill="black"/>
<path fill-rule="evenodd" clip-rule="evenodd" d="M245.12 439.636C245.697 430.462 245.97 421.471 245.963 412.28C245.961 408.618 245.065 405.401 244.219 401.821C243.378 398.28 242.733 394.658 241.473 391.238C238.323 382.684 235.105 374.174 231.777 365.69C230.477 362.375 228.821 359.546 226.999 356.472C225.158 353.362 223.593 349.482 220.967 346.948C217.411 343.516 213.948 339.956 210.284 336.639C207.274 333.911 203.472 331.84 200.126 329.55C198.785 328.63 197.443 327.713 196.102 326.795C194.123 325.442 188.607 328.239 191.316 330.091C195.09 332.673 198.863 335.256 202.635 337.838C203.274 338.275 203.908 338.721 204.551 339.15C204.599 339.18 204.606 339.184 204.635 339.203C204.732 339.298 204.834 339.391 204.929 339.489C206.686 341.26 208.523 342.958 210.318 344.69C212.87 347.153 215.593 349.313 217.398 352.364C219.733 356.303 222.329 360.182 224.449 364.244C224.318 364.037 224.739 365.009 224.836 365.259C225.276 366.377 225.716 367.495 226.153 368.614C227.202 371.288 228.251 373.961 229.299 376.633C230.551 379.819 231.72 383.035 232.904 386.244C234.134 389.591 235.587 392.904 236.411 396.377C237.53 401.096 238.652 405.813 239.767 410.534C239.775 410.572 239.781 410.587 239.788 410.61C239.788 410.76 239.79 410.912 239.788 411.06C239.781 412.172 239.792 413.284 239.792 414.399C239.794 417.32 239.796 420.246 239.798 423.172C239.8 426.555 239.597 429.881 239.386 433.259C238.834 442.006 238.109 450.771 237.756 459.526C237.602 463.34 238.054 467.234 238.244 471.042C238.348 473.171 238.57 475.327 238.561 477.458C238.557 477.949 238.557 476.997 238.536 477.209C238.521 477.418 238.504 477.634 238.471 477.843C238.31 478.888 238.253 479.957 238.143 481.01C237.204 490.021 236.435 499 235.79 508.04C235.284 515.091 236.244 522.184 235.72 529.229C235.054 538.205 234.384 547.182 233.705 556.157C233.619 557.299 233.534 558.438 233.449 559.58C225.676 562.041 218.039 564.671 210.405 567.495C209.246 551.592 207.58 535.755 206.458 519.85C205.956 512.774 203.975 505.89 203.326 498.841C202.565 490.549 202.367 482.177 201.77 473.871C201.481 469.82 201.35 465.75 200.692 461.739C199.859 456.67 199.024 451.596 198.191 446.524C197.781 444.012 191.631 445.513 192.066 448.164C193.326 455.832 194.777 463.424 195.333 471.175C195.973 480.08 196.534 488.985 197.049 497.898C197.464 504.981 199.441 511.863 200.149 518.909C200.982 527.203 201.303 535.535 202.181 543.825C203.153 553.026 203.815 562.214 204.455 571.445C204.584 573.273 202.955 572.674 207.614 570.907C212.274 569.139 224.267 567.195 224.69 567.061C226.29 566.565 227.893 566.066 229.489 565.569C231.98 564.795 234.47 564.021 236.961 563.247C237.872 562.964 239.428 561.516 239.517 560.347C240.122 552.353 240.726 544.355 241.32 536.36C241.591 532.708 242.052 529.028 241.997 525.364C241.925 520.385 241.697 515.378 241.779 510.4C241.906 502.945 242.754 495.404 243.528 487.981C243.946 483.949 244.796 479.731 244.682 475.674C244.536 470.733 244.189 465.79 243.946 460.856C243.923 460.405 243.893 459.949 243.881 459.494C243.908 459.323 243.967 458.289 243.98 458.107C244.145 455.391 244.314 452.674 244.479 449.959C244.691 446.517 244.9 443.075 245.12 439.636Z" fill="black"/>
<path fill-rule="evenodd" clip-rule="evenodd" d="M152.937 314.139C145.755 314.344 138.569 314.545 131.385 314.75L128.281 314.837C127.038 314.875 125.063 315.759 124.863 317.148C124.638 318.67 126.577 318.892 127.613 318.862C134.799 318.661 141.983 318.456 149.169 318.251C150.203 318.224 151.235 318.194 152.273 318.165C153.514 318.131 155.489 317.245 155.692 315.856C155.914 314.334 153.973 314.11 152.937 314.139Z" fill="black"/>
<path fill-rule="evenodd" clip-rule="evenodd" d="M143.76 413.055C143.893 419.947 144.06 426.827 144.303 433.715C144.553 440.863 144.589 446.891 144.627 454.5C144.663 461.238 144.982 467.973 145.202 474.709C145.227 475.481 146.76 475.438 147.197 475.407C154.851 474.821 162.506 474.236 170.16 473.652C170.908 473.593 172.69 473.026 172.762 472.062C173.261 465.185 173.868 458.35 173.895 451.457C173.927 443.548 174.267 435.783 174.766 427.89C175.158 421.63 175.065 415.349 175.409 409.087C175.813 401.681 176.358 394.288 176.678 386.873C177.031 378.759 177.416 370.645 177.8 362.53C177.893 360.598 173.278 361.494 173.202 363.084C172.5 377.801 171.897 392.516 170.961 407.218C170.559 413.552 170.627 419.905 170.303 426.241C169.929 433.559 169.339 440.802 169.312 448.127C169.276 456.345 168.443 471.504 169.312 470.973C161.656 471.559 160.265 471.905 152.612 472.489C153.276 472.723 149.132 473.244 149.798 473.477C149.686 470.045 149.572 466.612 149.46 463.18C149.398 461.314 149.341 459.445 149.274 457.574C149.227 456.212 149.244 457.109 149.238 455.705C149.204 449.13 149.25 442.552 149.018 435.979C148.538 422.176 148.35 408.387 147.502 394.6C147.079 387.7 146.703 380.799 146.314 373.894C146.227 372.359 141.616 373.313 141.717 375.127C142.432 387.755 143.515 400.412 143.76 413.055Z" fill="black"/>
<path fill-rule="evenodd" clip-rule="evenodd" d="M149.875 474.397L147.938 488.519L151.08 502.065L164.357 505.843L177.932 494.382L166.427 482.333L166.516 473.813" fill="#fed601"/>
<path fill-rule="evenodd" clip-rule="evenodd" d="M180.068 493.488C176.846 490.112 173.624 486.739 170.402 483.365C170.026 482.97 169.313 481.9 168.776 481.636C168.793 481.329 168.736 480.911 168.738 480.708C168.761 478.31 168.789 475.915 168.814 473.519C168.833 471.648 164.237 472.617 164.222 474.105C164.197 476.503 164.169 478.898 164.146 481.295C164.14 481.942 164.002 482.727 164.343 483.279C164.704 483.87 165.415 484.401 165.89 484.9C169.015 488.173 172.142 491.446 175.267 494.716C171.548 497.856 167.827 500.998 164.106 504.137C160.501 503.112 156.894 502.082 153.288 501.057L150.624 489.579C150.505 489.065 150.355 488.547 150.262 488.025C150.264 487.999 150.264 487.985 150.269 487.953C150.319 487.646 150.355 487.338 150.398 487.027L151.376 479.904C151.641 477.972 151.905 476.037 152.171 474.103C152.415 472.331 147.791 473.145 147.579 474.689C147.015 478.794 146.455 482.9 145.888 487.006C145.74 488.088 145.588 488.917 145.835 489.974C146.374 492.308 146.918 494.644 147.461 496.981C147.903 498.881 148.343 500.78 148.782 502.68C148.873 503.069 149.353 503.209 149.67 503.3C154.009 504.535 158.353 506.067 162.759 507.025C165.013 507.516 166.506 505.945 168.049 504.638C170.334 502.712 172.618 500.786 174.899 498.858C176.523 497.488 178.146 496.116 179.77 494.746C180.123 494.446 180.463 493.9 180.068 493.488Z" fill="black"/>
<path fill-rule="evenodd" clip-rule="evenodd" d="M130.778 328.443L129.482 346.496L120.016 361.87L103.97 369.799L86.5193 365.75L74.0794 352.745L68.7812 335.557L70.3035 317.696L79.0477 301.954L95.2762 294.043L112.847 298.119L125.376 311.178L130.778 328.443Z" fill="#fed601"/>
<path fill-rule="evenodd" clip-rule="evenodd" d="M127.211 346.707C127.054 347.003 126.832 347.301 126.669 347.564L119.464 359.264C119.086 359.883 118.597 360.513 118.291 361.175C118.289 361.181 118.287 361.181 118.285 361.187C117.162 361.606 115.828 362.581 114.957 363.012C111.384 364.777 107.811 366.543 104.236 368.308C100.95 367.543 97.6607 366.782 94.371 366.018C92.4936 365.583 90.6098 365.05 88.7134 364.705C88.614 364.686 88.5401 364.672 88.4703 364.655C88.1997 364.321 87.8445 364.012 87.5591 363.714C84.4237 360.437 81.2926 357.162 78.1573 353.885C77.6414 353.346 77.0981 352.822 76.6055 352.263C76.3983 352.027 76.3412 351.976 76.3264 351.97C75.6583 350.574 75.3644 348.847 74.9099 347.375C73.6731 343.365 72.1065 339.325 71.1657 335.232C71.1318 335.084 71.1128 335.035 71.1022 335.033C71.1022 335.005 71.1022 334.988 71.1001 334.948C71.0811 334.295 71.2164 333.595 71.2714 332.944C71.4743 330.563 71.6773 328.185 71.8824 325.804C72.0727 323.549 72.2672 321.289 72.4595 319.033C72.5018 318.54 72.4955 318.016 72.5885 317.53C72.5526 317.711 72.4765 317.688 72.7619 317.149C74.8232 313.238 77.0621 309.407 79.208 305.542L80.6267 302.99C80.7028 302.853 80.7556 302.764 80.8106 302.669C82.0199 302.235 83.5992 301.092 84.4364 300.682C87.9565 298.965 91.4767 297.248 94.9989 295.531C98.2188 296.28 101.439 297.028 104.659 297.775C106.623 298.229 108.585 298.77 110.564 299.147C110.703 299.17 110.815 299.197 110.904 299.223C111.158 299.51 111.445 299.781 111.705 300.049L121.282 310.028C121.781 310.548 122.28 311.066 122.779 311.587C123.065 311.887 123.124 311.957 123.134 311.967C123.809 313.36 124.111 315.096 124.572 316.568L128.462 329.005C128.202 332.614 127.944 336.223 127.686 339.832C127.543 341.836 127.253 343.889 127.251 345.898C127.251 346.037 127.173 346.627 127.211 346.707ZM129.53 316.498C128.672 313.751 128.297 311.104 126.299 309.026C122.972 305.555 119.64 302.083 116.31 298.614C115.568 297.842 115.098 297.208 114.088 296.855C112.456 296.286 110.621 296.049 108.936 295.658C104.942 294.732 100.832 293.375 96.7642 292.832C95.2463 292.631 94.1067 293.259 92.8065 293.893C90.705 294.918 88.6014 295.944 86.4977 296.969C84.2884 298.045 82.0791 299.123 79.8698 300.202C78.8867 300.679 77.5695 301.13 76.8761 301.988C75.8972 303.202 75.2482 304.916 74.4955 306.274C73.2291 308.551 71.9669 310.825 70.7027 313.102C69.9056 314.538 68.8781 315.99 68.2523 317.513C67.8633 318.458 67.8823 319.462 67.7957 320.494C67.3918 325.221 66.988 329.946 66.5863 334.671C66.3369 337.58 67.8295 340.538 68.6752 343.287C69.4151 345.684 70.1551 348.084 70.895 350.485C71.2016 351.483 71.3834 352.76 71.9585 353.65C72.7217 354.839 74.0917 355.883 75.0621 356.898C76.8571 358.773 78.652 360.65 80.4469 362.526C81.652 363.784 82.8085 365.336 84.1743 366.422C84.9607 367.048 85.8762 367.156 86.8572 367.382C91.5591 368.473 96.2611 369.564 100.961 370.655C104.306 371.431 106.492 369.913 109.456 368.448C113.242 366.577 117.126 364.826 120.845 362.822C122.115 362.137 125.409 356.869 126.669 354.825C127.896 352.831 129.122 350.838 130.348 348.846C130.83 348.062 131.285 347.444 131.456 346.561C132.314 342.165 134.218 324.706 135.768 319.606" fill="black"/>
<path fill-rule="evenodd" clip-rule="evenodd" d="M188.214 431.164C192.405 431.83 196.703 431.676 200.938 431.796C209.602 432.042 219.014 429.894 227.612 428.722C233.211 427.959 238.792 427.033 244.382 426.187C245.572 426.008 247.048 427.259 247.205 425.781C247.353 424.361 245.469 422.481 244.382 422.644C235.171 424.037 226.217 426.794 216.931 427.467C214.49 427.644 212.033 427.754 209.597 427.999C208.984 428.061 210.642 428.014 210.027 427.995C209.739 427.987 209.451 427.98 209.164 427.972C207.83 427.925 206.494 427.894 205.158 427.858C200.781 427.733 196.221 427.972 191.878 427.393C186.259 426.648 180.667 425.614 175.071 424.727C172.35 424.295 168.728 428.071 172.825 428.722C177.956 429.536 183.085 430.352 188.214 431.164Z" fill="black"/>
<path fill-rule="evenodd" clip-rule="evenodd" d="M97.9131 359.226C99.8497 359.298 101.712 358.649 103.577 358.186C104.429 357.976 105.298 357.803 106.135 357.553C106.947 357.308 107.672 356.809 108.406 356.397C109.478 355.794 110.554 355.188 111.628 354.583C112.438 354.126 113.245 353.746 113.757 352.928C114.886 351.124 115.905 349.243 116.979 347.405C117.552 346.427 116.476 345.699 115.615 345.61C114.505 345.494 113.192 345.989 112.615 346.983C111.514 348.864 111.084 350.707 110.507 351.583C109.581 352.105 108.655 352.625 107.729 353.15L105.767 354.251C105.526 354.386 104.556 354.801 104.313 354.862C103.592 355.04 102.873 355.219 102.154 355.397C101.087 355.661 100.019 355.928 98.9512 356.192C99.355 356.154 95.8011 355.923 93.6192 355.843C92.5537 355.805 91.1266 356.15 90.6171 357.213C90.1541 358.188 91.0272 358.974 91.9828 359.01C93.9596 359.082 95.9364 359.152 97.9131 359.226Z" fill="black"/>
<path fill-rule="evenodd" clip-rule="evenodd" d="M137.453 320.988L136.827 316.461L121.045 320.094L105.317 323.825L89.5135 327.195L73.6106 330.157L57.7246 333.646L58.5893 338.527L66.3568 336.572L73.6825 346.181L93.3085 343.948L96.2768 330.844L101.6 329.724L109.294 340.817L129.248 335.893L132.009 322.252L137.453 320.988Z" fill="#a8fd00"/>
<path fill-rule="evenodd" clip-rule="evenodd" d="M127.874 335.132C121.997 336.585 116.117 338.035 110.237 339.485C107.825 336.007 105.415 332.532 103.005 329.054C102.65 328.542 101.848 328.584 101.326 328.694C99.5502 329.066 97.7743 329.441 96.0005 329.815C95.4212 329.935 94.8588 330.375 94.7277 330.965C93.8165 334.98 92.9053 338.995 91.9983 343.012C86.2245 343.667 80.4527 344.325 74.681 344.98C72.3744 341.955 70.0678 338.927 67.7613 335.9C67.3892 335.413 66.6175 335.405 66.0826 335.542C64.034 336.058 61.9853 336.572 59.9388 337.088C59.776 336.181 59.6153 335.274 59.4567 334.367C79.8988 329.906 100.43 326.041 120.804 321.246C125.675 320.098 130.557 318.994 135.434 317.876L135.768 320.286C134.422 320.597 133.077 320.91 131.734 321.221C131.164 321.354 130.58 321.777 130.457 322.373C129.599 326.627 128.737 330.878 127.874 335.132ZM138.358 316.052C138.255 315.293 137.052 315.318 136.553 315.432C126.068 317.842 115.616 320.407 105.127 322.773C94.6833 325.132 84.1674 326.98 73.6747 329.064C68.2454 330.145 62.8521 331.43 57.4483 332.618C56.8077 332.758 56.0635 333.331 56.1924 334.056C56.4821 335.684 56.7696 337.31 57.0571 338.938C57.1903 339.684 58.3426 339.688 58.8648 339.557L65.4547 337.897C67.1587 340.13 68.8606 342.365 70.5626 344.599C71.9918 346.47 71.2729 349.849 73.6747 349.574C79.7804 348.88 87.0638 346.785 93.1653 346.092C93.8884 346.01 94.6833 345.637 94.8588 344.866C95.7785 340.809 96.696 336.749 97.6178 332.69C98.6199 332.479 99.6242 332.265 100.628 332.056C103.047 335.544 105.468 339.037 107.889 342.525C108.235 343.026 109.053 343.014 109.567 342.887C116.221 341.244 128.53 339.079 129.097 338.938C129.663 338.796 130.677 336.371 130.796 335.768C131.656 331.521 132.519 327.274 133.377 323.028C134.781 322.701 136.185 322.375 137.589 322.052C137.595 322.049 137.601 322.047 137.606 322.047C137.646 322.037 137.688 322.028 137.728 322.018C138.335 321.878 138.667 321.57 138.811 321.236C138.935 321.037 139.018 320.823 138.984 320.576C138.777 319.071 138.568 317.561 138.358 316.052Z" fill="black"/>
<path fill-rule="evenodd" clip-rule="evenodd" d="M114.345 304.417L108.774 317.073L95.2792 320.777L81.6533 319.844L68.0316 320.538L56.5029 327.05L57.9046 313.075L63.78 300.337L72.6574 289.487L82.943 284.508L93.96 281.354L105.341 282.8L113.229 290.692L122.611 289.757L129.307 297.075L131.434 307.58L129.438 318.047L122.055 311.235L114.345 304.417Z" fill="#fed601"/>
<path fill-rule="evenodd" clip-rule="evenodd" d="M106.894 316.452C103.507 317.38 100.124 318.31 96.737 319.241C96.5509 319.291 95.9864 319.367 95.5551 319.484C95.3099 319.471 95.052 319.475 94.8702 319.463C92.4367 319.296 90.0033 319.129 87.5656 318.962C84.3161 318.737 81.3224 318.682 78.0729 318.847C75.5845 318.974 73.0983 319.101 70.6099 319.226C69.113 319.304 67.8022 319.348 66.4217 320.048C63.9227 321.319 61.4829 322.74 59.0516 324.16C59.3159 321.518 59.5823 318.875 59.8465 316.232C59.9565 315.131 59.9036 313.822 60.1996 312.75C60.5336 311.539 61.3243 310.31 61.8487 309.175C62.8022 307.109 63.7535 305.046 64.707 302.983C65.0411 302.255 65.3815 301.528 65.7113 300.801C65.836 300.526 66.0559 300.166 66.058 300.145C68.1785 297.124 70.8044 294.355 73.1384 291.498C73.519 291.037 74.0877 290.528 74.3943 289.991C75.9313 289.445 77.4958 288.431 78.9207 287.741C80.4979 286.978 82.092 286.24 83.6565 285.45C83.7115 285.42 82.9694 285.623 83.9123 285.371C84.7918 285.137 85.6629 284.87 86.5381 284.619C88.6227 284.02 90.7094 283.424 92.7919 282.828C92.9484 282.781 93.2401 282.743 93.5234 282.684C93.6397 282.688 93.7665 282.693 93.8553 282.705C95.9907 282.976 98.1218 283.249 100.255 283.519C101.143 283.633 102.033 283.781 102.927 283.86C103.096 283.875 103.27 283.902 103.443 283.925C104.697 285.359 106.173 286.648 107.515 287.991C108.572 289.048 109.79 290.807 111.088 291.566C112.462 292.369 115.063 291.661 116.549 291.513C117.993 291.371 119.437 291.226 120.881 291.082C122.648 293.014 124.416 294.947 126.183 296.877C126.443 297.16 126.801 297.467 127.033 297.792C126.997 297.832 127.126 298.278 127.158 298.424C127.509 300.097 127.835 301.775 128.175 303.45C128.462 304.875 128.925 306.367 129.059 307.818C129.076 307.993 129.088 308.067 129.097 308.09C129.095 308.116 129.092 308.128 129.09 308.167C129.048 308.714 128.875 309.285 128.775 309.824C128.513 311.194 128.253 312.562 127.991 313.934C124.175 310.448 120.359 306.968 116.483 303.543C115.697 302.845 113.422 303.458 112.456 304.238C112.454 304.24 112.454 304.24 112.454 304.243C112.259 304.397 112.128 304.56 112.061 304.718C112.061 304.723 112.054 304.725 112.052 304.729C110.333 308.636 108.612 312.543 106.894 316.452ZM95.0562 319.702C95.145 319.581 95.2888 319.528 95.441 319.511C95.2613 319.566 95.1112 319.628 95.0562 319.702ZM132.72 301.966C132.382 300.304 132.35 298.01 131.608 296.492C131.002 295.245 129.549 294.124 128.615 293.107C127.458 291.841 126.196 289.824 124.75 288.885C123.511 288.075 120.896 288.777 119.543 288.913C118.004 289.067 116.462 289.219 114.923 289.371C112.727 287.171 110.528 284.972 108.329 282.773C106.441 280.887 103.361 281.183 100.817 280.86C98.0118 280.502 95.312 279.826 92.5593 280.614C89.2824 281.551 85.9187 282.344 82.6903 283.439C79.7093 284.45 76.8657 286.164 74.0348 287.532C72.8784 288.092 71.4619 288.585 70.5295 289.481C69.7642 290.217 69.1384 291.183 68.4682 292.001C66.2652 294.695 63.6056 297.331 61.7176 300.257C60.1679 302.651 59.1932 305.621 58.003 308.207C56.7344 310.951 55.6499 313.008 55.3518 315.974C54.9712 319.769 54.5928 323.566 54.2122 327.361C54.0473 329.002 57.2376 328.034 57.9057 327.655C61.4237 325.668 64.9396 323.68 68.4555 321.693C72.1638 321.507 75.8721 321.317 79.5804 321.129C83.2273 320.943 86.9589 321.496 90.5953 321.746C92.2295 321.858 93.9547 322.173 95.5742 321.835C97.2486 321.486 98.9104 320.919 100.557 320.465C102.974 319.803 105.392 319.139 107.809 318.475C109.179 318.099 110.46 317.818 111.185 316.484C112.672 313.748 113.862 310.79 115.054 307.866C119.162 311.526 123.253 315.19 127.298 318.921C128.232 319.782 131.469 319.093 131.729 317.735C132.369 314.374 133.632 310.682 133.723 307.268C133.771 305.56 133.054 303.629 132.72 301.966Z" fill="black"/>
</svg>
