<svg width="75" height="75" viewBox="0 0 75 75" fill="none" xmlns="http://www.w3.org/2000/svg">
<g clip-path="url(#clip0_89_27879)">
<path fill-rule="evenodd" clip-rule="evenodd" d="M58.4526 27.3522L57.0195 23.8904L55.4719 20.4784L53.2322 17.452L50.37 15.0143L47.7033 13.1147L44.6802 11.8666L41.5872 10.8505L38.3788 10.2704L35.232 10.0748L33.7974 7.21554L29.4564 6.09095L26.0294 9.0538L26.5566 12.5502L23.6035 14.2141L20.943 16.0772L18.6827 18.4215L16.6258 20.9668L15.1528 23.8928L13.9665 26.9472L13.3407 30.1655L13.3407 33.4321L13.4463 36.695L14.2461 40.8189L15.7192 44.7633L16.6847 48.3606L18.4128 51.6766L20.7812 54.5636L23.4231 57.2036L26.2015 58.9104L29.1323 60.3093L32.2622 61.1454L35.43 61.8349L38.7328 61.9069L39.7507 64.5935L43.2389 66.4394L46.6426 64.4019L47.5629 60.7168L47.6098 59.9242L50.3343 58.2006L52.7006 55.9598L55.1579 53.8233L57.0694 51.1777L58.4483 48.2285L59.7634 45.2427L60.1134 41.9983L60.4119 38.7784L60.1123 35.5544L59.2826 31.4598L58.4526 27.3522Z" fill="#a8fd00"/>
<path fill-rule="evenodd" clip-rule="evenodd" d="M51.2397 24.973C46.5525 23.2502 39.2694 23.8984 37.0746 29.1397C36.8591 29.654 37.0416 30.2135 37.4836 30.555C37.8117 30.8082 38.564 30.9804 38.7804 30.4638C40.6224 26.0643 46.7976 25.2902 50.8204 26.7685C52.1557 27.2596 52.3491 25.3803 51.2397 24.973Z" fill="black"/>
<path fill-rule="evenodd" clip-rule="evenodd" d="M39.1318 48.201C38.2871 48.0533 37.4205 47.9818 36.5526 47.9515C38.8713 44.4075 38.0632 39.2493 36.0706 35.73C34.7322 33.3649 32.8136 31.2342 30.2511 30.2121C28.175 29.3846 25.8077 29.3151 23.6563 29.8742C21.4952 30.4356 19.3704 31.7748 18.4608 33.8873C18.0824 34.767 20.0119 35.7937 20.3765 34.9467C21.77 31.7077 26.1113 30.5122 29.304 31.3926C31.4091 31.9734 32.8919 33.6237 34.0025 35.4377C35.2431 37.463 35.9705 39.8331 35.9257 42.2176C35.8857 44.3491 35.2576 46.6039 33.6338 48.0764C32.8832 48.7569 34.3439 49.5633 34.9078 49.5534C36.4344 49.5267 38.0073 49.5213 39.5183 49.7861C39.9526 49.8624 40.4096 49.6347 40.3214 49.1436C40.2301 48.6307 39.5921 48.2818 39.1318 48.201Z" fill="black"/>
<path fill-rule="evenodd" clip-rule="evenodd" d="M53.0035 31.8563L49.4664 30.3175L47.1709 30.2461L44.9652 30.8895L42.9393 32.2127L41.4132 34.0827L40.5198 36.3154L41.6879 39.1448L44.78 40.2479L47.2769 40.2282L49.6142 39.355L51.6305 37.8853L53.4491 35.0542L53.0035 31.8563Z" fill="white"/>
<path fill-rule="evenodd" clip-rule="evenodd" d="M52.7437 31.2904C50.9473 30.2291 48.805 29.824 46.7525 30.2474C45.6661 30.4709 44.6283 30.9069 43.7132 31.5336C43.523 31.6635 43.3307 31.7618 43.2513 31.9815C43.1678 32.2118 43.2049 32.5536 43.2107 32.7937C43.2243 33.3457 43.3105 33.8935 43.4823 34.4184C44.0354 36.1043 45.3522 37.4516 47.0207 38.0551C47.8356 38.3497 48.7174 38.4531 49.58 38.368C50.0614 38.3202 50.5427 38.2075 50.9964 38.0396C51.5475 37.8351 51.9164 37.6256 52.2729 37.1587C53.4572 35.6096 54.8641 32.6731 52.7437 31.2904Z" fill="black"/>
<path fill-rule="evenodd" clip-rule="evenodd" d="M34.3444 38.5103L32.3644 36.7014L29.9246 35.5626L27.2347 35.3524L24.7464 35.945L22.5121 37.2078L20.888 39.1884L21.2232 42.3007L23.9804 44.2529L26.3309 44.9404L28.7794 44.8378L31.0968 44.0601L33.0327 42.6717L34.447 40.7836L34.3444 38.5103Z" fill="white"/>
<path fill-rule="evenodd" clip-rule="evenodd" d="M33.2341 37.1959C31.5507 35.7743 29.377 35.0734 27.1819 35.2084C26.5788 35.2573 25.9821 35.3579 25.4017 35.5296C25.2086 35.5865 24.9032 35.6262 24.7762 35.7958C24.6167 36.0078 24.5749 36.4313 24.5285 36.6873C24.3432 37.6976 24.4322 38.7453 24.793 39.7092C25.4102 41.3564 26.7937 42.655 28.4639 43.1983C29.2867 43.466 30.1708 43.558 31.0296 43.446C31.5387 43.3804 32.0336 43.2519 32.5082 43.0569C33.0489 42.8338 33.4314 42.3954 33.803 41.951C34.4367 41.1938 35.0216 40.3372 34.8077 39.3068C34.6272 38.4395 33.8857 37.7457 33.2341 37.1959Z" fill="black"/>
<path fill-rule="evenodd" clip-rule="evenodd" d="M43.1181 50.777C43.2617 51.3819 43.2514 51.818 43.0864 52.4204C43.0242 52.6482 43.1491 52.2974 43.053 52.5119C43.0205 52.5835 42.9933 52.6559 42.9599 52.727C42.9316 52.7859 42.9015 52.8438 42.8714 52.9016C42.8294 52.9822 42.7854 53.0369 42.859 52.9281C42.7711 53.0587 42.6769 53.1815 42.5785 53.3045C42.6615 53.2014 42.663 53.2192 42.5728 53.3052C42.5156 53.3596 42.4582 53.4133 42.3999 53.4665C42.2573 53.597 42.3848 53.5345 42.4133 53.4588C42.4006 53.4927 42.2468 53.5755 42.2173 53.5946C42.1839 53.616 41.9816 53.7146 42.1372 53.6452C42.2975 53.5738 42.0424 53.6863 42.0109 53.7007C41.9486 53.7287 41.8854 53.7532 41.8216 53.7786C42.0535 53.6843 41.8008 53.7801 41.7605 53.7909C41.671 53.8154 41.5815 53.837 41.4908 53.8538C41.6148 53.8302 41.4497 53.8589 41.4034 53.8632C40.7904 53.9219 40.2252 53.792 39.6575 53.4614C39.2293 53.2105 38.5976 53.5162 38.2838 53.8294C38.042 54.0714 37.6487 54.6628 38.098 54.9252C41.358 56.828 45.9537 53.6409 45.0658 49.8921C44.8393 48.9342 42.923 49.9535 43.1181 50.777Z" fill="black"/>
<path fill-rule="evenodd" clip-rule="evenodd" d="M41.9319 8.71888L35.1859 7.5381L33.4712 3.94546L28.5999 2.5685L24.9356 5.62633L25.0429 10.0021L20.5811 12.8069L16.7138 16.4322L13.9266 20.9229L12.0084 25.8113L10.9611 31.1292L11.5141 36.5196L12.5263 42.4672L14.5795 50.1083L15.6653 54.8604L17.2269 59.4901L17.7029 65.5001L21.695 69.0157L20.314 64.1474L19.3887 58.7516L18.6363 53.3278L18.0758 47.8766L17.6789 42.3422L18.2529 36.8174L18.8773 31.3337L19.6149 25.8466L21.695 20.0528L26.8457 21.4145L31.5033 23.2829L36.4483 24.1255L41.3007 25.3175L46.6328 26.4368L51.7457 29.1648L55.1468 32.6332L58.0523 36.5048L60.4359 40.7497L62.4727 45.7278L64.181 50.8279L66.1751 56.8805L68.2525 58.3428L66.8585 53.558L65.6093 48.7386L64.8578 44.1064L63.5455 39.6095L62.1476 35.1331L61.3313 30.8714L60.1239 26.7072L58.6893 21.4626L55.3479 17.1701L51.6304 13.2631L47.0996 10.2909L41.9319 8.71888Z" fill="white"/>
<circle cx="37.5" cy="37.5" r="35" stroke="#fed601" stroke-width="2"/>
<circle cx="62" cy="62" r="7.5" fill="#fed601" stroke="black" stroke-width="3"/>
</g>
<defs>
<clipPath id="clip0_89_27879">
<rect width="75" height="75" fill="white"/>
</clipPath>
</defs>
</svg>
