<svg width="16" height="16" viewBox="0 0 16 16" fill="none" xmlns="http://www.w3.org/2000/svg">
<g clip-path="url(#clip0_1988_618)">
<path d="M15.5693 14.75H0.430871L8.00278 1.50389L15.5693 14.75Z" fill="black" stroke="white" stroke-width="0.5"/>
<path d="M14.1716 9.26022C14.1716 8.66108 13.4222 8.98683 12.3468 7.34066C11.2999 5.7352 9.77257 4.93247 7.99924 4.93247C6.22591 4.93247 4.69284 5.7352 3.65173 7.34066C2.58201 8.98683 1.82692 8.66108 1.82692 9.26022C1.82692 9.85936 2.57629 9.53362 3.65173 11.1798C4.69856 12.7852 6.22591 13.588 7.99924 13.588C9.77257 13.588 11.3056 12.7852 12.3468 11.1798C13.4222 9.53362 14.1716 9.85936 14.1716 9.26022Z" fill="#ffd90f"/>
<path d="M7.99926 5.13607C6.24882 5.13607 4.80155 5.93879 3.81764 7.45118C3.1884 8.41678 2.64496 8.74252 2.32461 8.93448C2.06719 9.08572 2.02715 9.12062 2.02715 9.26022C2.02715 9.39983 2.06719 9.42891 2.32461 9.58597C2.65068 9.77793 3.1884 10.1037 3.81764 11.0693C4.80155 12.5817 6.24882 13.3844 7.99926 13.3844C9.74971 13.3844 11.197 12.5817 12.1809 11.0693C12.8101 10.1037 13.3536 9.77793 13.6739 9.58597C13.9313 9.43473 13.9714 9.39983 13.9714 9.26022C13.9714 9.12062 13.9313 9.09154 13.6739 8.93448C13.3479 8.74252 12.8101 8.41678 12.1809 7.45118C11.197 5.93298 9.74971 5.13607 7.99926 5.13607ZM7.99926 13.7857C6.11153 13.7857 4.54985 12.9249 3.48586 11.2903C2.90809 10.4003 2.4333 10.1211 2.1244 9.92916C1.86126 9.77211 1.63244 9.6325 1.63244 9.25441C1.63244 8.87631 1.86126 8.74252 2.1244 8.57965C2.43902 8.39351 2.90809 8.10849 3.48586 7.2185C4.54985 5.58396 6.11153 4.72307 7.99926 4.72307C9.887 4.72307 11.4544 5.5956 12.5184 7.22432C13.0962 8.1143 13.5652 8.39933 13.8798 8.58547C14.143 8.74252 14.3718 8.88213 14.3718 9.26022C14.3718 9.63832 14.143 9.77211 13.8798 9.93498C13.5652 10.1211 13.0962 10.4061 12.5184 11.2961C11.4544 12.9249 9.89272 13.7857 7.99926 13.7857Z" fill="#17181A"/>
<path d="M10.7794 9.26024C10.7794 10.8192 9.53234 12.0872 7.99926 12.0872C6.46619 12.0872 5.21914 10.8192 5.21914 9.26024C5.21914 7.70132 6.46619 6.43324 7.99926 6.43324C9.53234 6.43324 10.7794 7.6955 10.7794 9.26024Z" fill="white"/>
<path d="M9.69822 9.26023C9.69822 10.2142 8.93741 10.9878 7.99926 10.9878C7.06111 10.9878 6.30029 10.2142 6.30029 9.26023C6.30029 8.30627 7.06111 7.53262 7.99926 7.53262C8.93741 7.53262 9.69822 8.30627 9.69822 9.26023Z" fill="#17181A"/>
<path d="M9.69822 8.44587C9.69822 8.95194 9.29207 9.36494 8.79439 9.36494C8.29671 9.36494 7.89056 8.95194 7.89056 8.44587C7.89056 7.93981 8.29671 7.52681 8.79439 7.52681C9.29779 7.53263 9.69822 7.93981 9.69822 8.44587Z" fill="white"/>
<path d="M8.00286 6.63073C6.57848 6.63073 5.42295 7.80574 5.42295 9.25414C5.42295 10.7025 6.57848 11.8775 8.00286 11.8775C9.42725 11.8775 10.5828 10.7025 10.5828 9.25414C10.5828 7.81156 9.42725 6.63073 8.00286 6.63073ZM8.00286 12.2905C6.3611 12.2905 5.02253 10.9294 5.02253 9.25996C5.02253 7.59052 6.35538 6.22937 8.00286 6.22937C9.65034 6.22937 10.9832 7.59052 10.9832 9.25996C10.9832 10.9294 9.64462 12.2905 8.00286 12.2905Z" fill="#17181A"/>
</g>
<defs>
<clipPath id="clip0_1988_618">
<rect width="16" height="16" fill="white"/>
</clipPath>
</defs>
</svg>
